<?xml version="1.0" encoding="utf-8" standalone="no"?>
<!DOCTYPE svg PUBLIC "-//W3C//DTD SVG 1.1//EN"
  "http://www.w3.org/Graphics/SVG/1.1/DTD/svg11.dtd">
<!-- Created with matplotlib (http://matplotlib.org/) -->
<svg height="504pt" version="1.1" viewBox="0 0 576 504" width="576pt" xmlns="http://www.w3.org/2000/svg" xmlns:xlink="http://www.w3.org/1999/xlink">
 <defs>
  <style type="text/css">
*{stroke-linecap:butt;stroke-linejoin:round;}
  </style>
 </defs>
 <g id="figure_1">
  <g id="patch_1">
   <path d="M 0 504 
L 576 504 
L 576 0 
L 0 0 
z
" style="fill:#ffffff;"/>
  </g>
  <g id="axes_1">
   <g id="patch_2">
    <path d="M 64.046513 455.854399 
L 556.474709 455.854399 
L 556.474709 29.2533 
L 64.046513 29.2533 
z
" style="fill:#ffffff;"/>
   </g>
   <g id="matplotlib.axis_1">
    <g id="xtick_1">
     <g id="line2d_1">
      <path clip-path="url(#p453956417a)" d="M 64.046513 455.854399 
L 64.046513 29.2533 
" style="fill:none;stroke:#b0b0b0;stroke-linecap:square;stroke-width:0.8;"/>
     </g>
     <g id="line2d_2">
      <defs>
       <path d="M 0 0 
L 0 3.5 
" id="m7478792776" style="stroke:#000000;stroke-width:0.8;"/>
      </defs>
      <g>
       <use style="stroke:#000000;stroke-width:0.8;" x="64.046513" xlink:href="#m7478792776" y="455.854399"/>
      </g>
     </g>
     <g id="text_1">
      <!-- $-0.6$ -->
      <defs>
       <path d="M 66.09375 23 
C 67.5 23 69.40625 23 69.40625 25 
C 69.40625 27 67.5 27 66.09375 27 
L 11.59375 27 
C 10.203125 27 8.296875 27 8.296875 25 
C 8.296875 23 10.203125 23 11.59375 23 
z
" id="CMSY10-0"/>
       <path d="M 42 31.640625 
C 42 37.75 41.90625 48.125 37.703125 56.109375 
C 34 63.109375 28.09375 65.59375 22.90625 65.59375 
C 18.09375 65.59375 12 63.40625 8.203125 56.203125 
C 4.203125 48.71875 3.796875 39.4375 3.796875 31.640625 
C 3.796875 25.953125 3.90625 17.28125 7 9.671875 
C 11.296875 -0.609375 19 -2 22.90625 -2 
C 27.5 -2 34.5 -0.109375 38.59375 9.375 
C 41.59375 16.28125 42 24.359375 42 31.640625 
M 22.90625 -0.40625 
C 16.5 -0.40625 12.703125 5.078125 11.296875 12.6875 
C 10.203125 18.5625 10.203125 27.15625 10.203125 32.75 
C 10.203125 40.4375 10.203125 46.828125 11.5 52.921875 
C 13.40625 61.390625 19 64 22.90625 64 
C 27 64 32.296875 61.296875 34.203125 53.125 
C 35.5 47.4375 35.59375 40.734375 35.59375 32.75 
C 35.59375 26.25 35.59375 18.265625 34.40625 12.375 
C 32.296875 1.484375 26.40625 -0.40625 22.90625 -0.40625 
" id="CMR17-48"/>
       <path d="M 18.40625 4.796875 
C 18.40625 7.6875 16 9.671875 13.59375 9.671875 
C 10.703125 9.671875 8.703125 7.28125 8.703125 4.890625 
C 8.703125 2 11.09375 0 13.5 0 
C 16.40625 0 18.40625 2.390625 18.40625 4.796875 
" id="CMMI12-58"/>
       <path d="M 10.59375 34 
C 10.59375 57.65625 21.796875 63 28.296875 63 
C 30.40625 63 35.5 62.640625 37.5 59 
C 35.90625 59 32.90625 59 32.90625 55.515625 
C 32.90625 52.828125 35.09375 51.921875 36.5 51.921875 
C 37.40625 51.921875 40.09375 52.3125 40.09375 55.625 
C 40.09375 61.78125 35.09375 65.296875 28.203125 65.296875 
C 16.296875 65.296875 3.796875 52.96875 3.796875 31 
C 3.796875 3.953125 15.09375 -2 23.09375 -2 
C 32.796875 -2 42 6.671875 42 20.046875 
C 42 32.515625 33.90625 41.59375 23.703125 41.59375 
C 17.59375 41.59375 13.09375 37.609375 10.59375 30.625 
z
M 23.09375 0.390625 
C 10.796875 0.390625 10.796875 18.75 10.796875 22.4375 
C 10.796875 29.625 14.203125 40 23.5 40 
C 25.203125 40 30.09375 40 33.40625 33.125 
C 35.203125 29.21875 35.203125 25.140625 35.203125 20.140625 
C 35.203125 14.75 35.203125 10.78125 33.09375 6.78125 
C 30.90625 2.671875 27.703125 0.390625 23.09375 0.390625 
" id="CMR17-54"/>
      </defs>
      <g transform="translate(49.897105 472.540275)scale(0.14 -0.14)">
       <use transform="scale(0.996264)" xlink:href="#CMSY10-0"/>
       <use transform="translate(77.487468 0)scale(0.996264)" xlink:href="#CMR17-48"/>
       <use transform="translate(123.177945 0)scale(0.996264)" xlink:href="#CMMI12-58"/>
       <use transform="translate(150.275122 0)scale(0.996264)" xlink:href="#CMR17-54"/>
      </g>
     </g>
    </g>
    <g id="xtick_2">
     <g id="line2d_3">
      <path clip-path="url(#p453956417a)" d="M 146.117879 455.854399 
L 146.117879 29.2533 
" style="fill:none;stroke:#b0b0b0;stroke-linecap:square;stroke-width:0.8;"/>
     </g>
     <g id="line2d_4">
      <g>
       <use style="stroke:#000000;stroke-width:0.8;" x="146.117879" xlink:href="#m7478792776" y="455.854399"/>
      </g>
     </g>
     <g id="text_2">
      <!-- $-0.4$ -->
      <defs>
       <path d="M 33.59375 64.328125 
C 33.59375 66.40625 33.5 66.5 31.703125 66.5 
L 2 19.59375 
L 2 17 
L 27.796875 17 
L 27.796875 7.140625 
C 27.796875 3.5 27.59375 2.5 20.59375 2.5 
L 18.703125 2.5 
L 18.703125 0 
C 21.90625 0 27.296875 0 30.703125 0 
C 34.09375 0 39.5 0 42.703125 0 
L 42.703125 2.5 
L 40.796875 2.5 
C 33.796875 2.5 33.59375 3.5 33.59375 7.140625 
L 33.59375 17 
L 43.796875 17 
L 43.796875 19.59375 
L 33.59375 19.59375 
z
M 28.09375 57.765625 
L 28.09375 19.59375 
L 4 19.59375 
z
" id="CMR17-52"/>
      </defs>
      <g transform="translate(131.968471 472.540275)scale(0.14 -0.14)">
       <use transform="scale(0.996264)" xlink:href="#CMSY10-0"/>
       <use transform="translate(77.487468 0)scale(0.996264)" xlink:href="#CMR17-48"/>
       <use transform="translate(123.177945 0)scale(0.996264)" xlink:href="#CMMI12-58"/>
       <use transform="translate(150.275122 0)scale(0.996264)" xlink:href="#CMR17-52"/>
      </g>
     </g>
    </g>
    <g id="xtick_3">
     <g id="line2d_5">
      <path clip-path="url(#p453956417a)" d="M 228.189245 455.854399 
L 228.189245 29.2533 
" style="fill:none;stroke:#b0b0b0;stroke-linecap:square;stroke-width:0.8;"/>
     </g>
     <g id="line2d_6">
      <g>
       <use style="stroke:#000000;stroke-width:0.8;" x="228.189245" xlink:href="#m7478792776" y="455.854399"/>
      </g>
     </g>
     <g id="text_3">
      <!-- $-0.2$ -->
      <defs>
       <path d="M 41.703125 15.453125 
L 39.90625 15.453125 
C 38.90625 8.375 38.09375 7.171875 37.703125 6.5625 
C 37.203125 5.765625 30 5.765625 28.59375 5.765625 
L 9.40625 5.765625 
C 13 9.671875 20 16.75 28.5 24.953125 
C 34.59375 30.734375 41.703125 37.53125 41.703125 47.421875 
C 41.703125 59.21875 32.296875 66 21.796875 66 
C 10.796875 66 4.09375 56.3125 4.09375 47.34375 
C 4.09375 43.4375 7 42.9375 8.203125 42.9375 
C 9.203125 42.9375 12.203125 43.546875 12.203125 47.03125 
C 12.203125 50.109375 9.59375 51 8.203125 51 
C 7.59375 51 7 50.90625 6.59375 50.703125 
C 8.5 59.21875 14.296875 63.40625 20.40625 63.40625 
C 29.09375 63.40625 34.796875 56.515625 34.796875 47.421875 
C 34.796875 38.734375 29.703125 31.25 24 24.75 
L 4.09375 2.28125 
L 4.09375 0 
L 39.296875 0 
z
" id="CMR17-50"/>
      </defs>
      <g transform="translate(214.039837 472.540275)scale(0.14 -0.14)">
       <use transform="scale(0.996264)" xlink:href="#CMSY10-0"/>
       <use transform="translate(77.487468 0)scale(0.996264)" xlink:href="#CMR17-48"/>
       <use transform="translate(123.177945 0)scale(0.996264)" xlink:href="#CMMI12-58"/>
       <use transform="translate(150.275122 0)scale(0.996264)" xlink:href="#CMR17-50"/>
      </g>
     </g>
    </g>
    <g id="xtick_4">
     <g id="line2d_7">
      <path clip-path="url(#p453956417a)" d="M 310.260611 455.854399 
L 310.260611 29.2533 
" style="fill:none;stroke:#b0b0b0;stroke-linecap:square;stroke-width:0.8;"/>
     </g>
     <g id="line2d_8">
      <g>
       <use style="stroke:#000000;stroke-width:0.8;" x="310.260611" xlink:href="#m7478792776" y="455.854399"/>
      </g>
     </g>
     <g id="text_4">
      <!-- $0.0$ -->
      <g transform="translate(301.53532 472.540275)scale(0.14 -0.14)">
       <use transform="scale(0.996264)" xlink:href="#CMR17-48"/>
       <use transform="translate(45.690477 0)scale(0.996264)" xlink:href="#CMMI12-58"/>
       <use transform="translate(72.787654 0)scale(0.996264)" xlink:href="#CMR17-48"/>
      </g>
     </g>
    </g>
    <g id="xtick_5">
     <g id="line2d_9">
      <path clip-path="url(#p453956417a)" d="M 392.331977 455.854399 
L 392.331977 29.2533 
" style="fill:none;stroke:#b0b0b0;stroke-linecap:square;stroke-width:0.8;"/>
     </g>
     <g id="line2d_10">
      <g>
       <use style="stroke:#000000;stroke-width:0.8;" x="392.331977" xlink:href="#m7478792776" y="455.854399"/>
      </g>
     </g>
     <g id="text_5">
      <!-- $0.2$ -->
      <g transform="translate(383.606686 472.540275)scale(0.14 -0.14)">
       <use transform="scale(0.996264)" xlink:href="#CMR17-48"/>
       <use transform="translate(45.690477 0)scale(0.996264)" xlink:href="#CMMI12-58"/>
       <use transform="translate(72.787654 0)scale(0.996264)" xlink:href="#CMR17-50"/>
      </g>
     </g>
    </g>
    <g id="xtick_6">
     <g id="line2d_11">
      <path clip-path="url(#p453956417a)" d="M 474.403343 455.854399 
L 474.403343 29.2533 
" style="fill:none;stroke:#b0b0b0;stroke-linecap:square;stroke-width:0.8;"/>
     </g>
     <g id="line2d_12">
      <g>
       <use style="stroke:#000000;stroke-width:0.8;" x="474.403343" xlink:href="#m7478792776" y="455.854399"/>
      </g>
     </g>
     <g id="text_6">
      <!-- $0.4$ -->
      <g transform="translate(465.678052 472.540275)scale(0.14 -0.14)">
       <use transform="scale(0.996264)" xlink:href="#CMR17-48"/>
       <use transform="translate(45.690477 0)scale(0.996264)" xlink:href="#CMMI12-58"/>
       <use transform="translate(72.787654 0)scale(0.996264)" xlink:href="#CMR17-52"/>
      </g>
     </g>
    </g>
    <g id="xtick_7">
     <g id="line2d_13">
      <path clip-path="url(#p453956417a)" d="M 556.474709 455.854399 
L 556.474709 29.2533 
" style="fill:none;stroke:#b0b0b0;stroke-linecap:square;stroke-width:0.8;"/>
     </g>
     <g id="line2d_14">
      <g>
       <use style="stroke:#000000;stroke-width:0.8;" x="556.474709" xlink:href="#m7478792776" y="455.854399"/>
      </g>
     </g>
     <g id="text_7">
      <!-- $0.6$ -->
      <g transform="translate(547.749418 472.540275)scale(0.14 -0.14)">
       <use transform="scale(0.996264)" xlink:href="#CMR17-48"/>
       <use transform="translate(45.690477 0)scale(0.996264)" xlink:href="#CMMI12-58"/>
       <use transform="translate(72.787654 0)scale(0.996264)" xlink:href="#CMR17-54"/>
      </g>
     </g>
    </g>
    <g id="text_8">
     <!-- \rm{X [m]} -->
     <defs>
      <path d="M 36.5 37.46875 
L 51.296875 58.640625 
C 52.796875 60.71875 55.796875 65 64 65 
L 64 67.6875 
C 61.703125 67.484375 57.90625 67.484375 55.5 67.484375 
C 52.203125 67.484375 48.09375 67.484375 45.59375 67.6875 
L 45.59375 65.09375 
C 48.796875 64.796875 49.59375 62.8125 49.59375 61.21875 
C 49.59375 60.046875 49.09375 59.25 48.40625 58.25 
L 35.203125 39.265625 
L 20.40625 60.71875 
C 19.703125 61.8125 19.59375 62.109375 19.59375 62.40625 
C 19.59375 63.3125 20.703125 65 24 65 
L 24 67.484375 
C 20.796875 67.484375 15.90625 67.484375 12.59375 67.484375 
C 10 67.484375 5 67.484375 2.59375 67.6875 
L 2.59375 65 
C 8.09375 65 9.90625 64.8125 12.09375 61.734375 
L 31.40625 33.796875 
L 14 8.578125 
C 9.703125 2.390625 3.203125 2.390625 1.296875 2.390625 
L 1.296875 -0.203125 
C 3.59375 0 7.40625 0 9.796875 0 
C 12.5 0 17.203125 0 19.703125 -0.203125 
L 19.703125 2.390625 
C 16.59375 2.6875 15.703125 4.671875 15.703125 6.265625 
C 15.703125 7.546875 16.203125 8.25 16.703125 8.9375 
L 32.703125 32 
L 50.09375 6.59375 
C 50.90625 5.5 50.90625 5.203125 50.90625 4.90625 
C 50.90625 4.109375 50 2.390625 46.5 2.390625 
L 46.5 0 
C 49.703125 0 54.59375 0 57.90625 0 
C 60.5 0 65.5 0 67.90625 -0.203125 
L 67.90625 2.390625 
C 61.5 2.390625 60.5 2.875 58.5 5.671875 
z
" id="CMR17-88"/>
      <path d="M 23.5 -25 
L 23.5 -21.515625 
L 14.09375 -21.515625 
L 14.09375 71 
L 23.5 71 
L 23.5 74.484375 
L 10.59375 74.484375 
L 10.59375 -25 
z
" id="CMR17-91"/>
      <path d="M 67.59375 30.203125 
C 67.59375 35.1875 66.703125 43.59375 54.796875 43.59375 
C 48 43.59375 43.296875 39 41.5 33.59375 
L 41.40625 33.59375 
C 40.203125 41.796875 34.296875 43.59375 28.703125 43.59375 
C 20.796875 43.59375 16.703125 37.5625 15.203125 33.59375 
L 15.09375 33.59375 
L 15.09375 43.59375 
L 3.296875 42.5 
L 3.296875 39.90625 
C 9.203125 39.90625 10.09375 39.296875 10.09375 34.5 
L 10.09375 6.6875 
C 10.09375 2.875 9.703125 2.390625 3.296875 2.390625 
L 3.296875 -0.203125 
C 5.703125 0 10.09375 0 12.703125 0 
C 15.296875 0 19.796875 0 22.203125 -0.203125 
L 22.203125 2.390625 
C 15.796875 2.390625 15.40625 2.78125 15.40625 6.6875 
L 15.40625 25.90625 
C 15.40625 35.109375 21 42 28 42 
C 35.40625 42 36.203125 35.40625 36.203125 30.59375 
L 36.203125 6.6875 
C 36.203125 2.875 35.796875 2.390625 29.40625 2.390625 
L 29.40625 -0.203125 
C 31.796875 0 36.203125 0 38.796875 0 
C 41.40625 0 45.90625 0 48.296875 -0.203125 
L 48.296875 2.390625 
C 41.90625 2.390625 41.5 2.78125 41.5 6.6875 
L 41.5 25.90625 
C 41.5 35.109375 47.09375 42 54.09375 42 
C 61.5 42 62.296875 35.40625 62.296875 30.59375 
L 62.296875 6.6875 
C 62.296875 2.875 61.90625 2.390625 55.5 2.390625 
L 55.5 -0.203125 
C 57.90625 0 62.296875 0 64.90625 0 
C 67.5 0 72 0 74.40625 -0.203125 
L 74.40625 2.390625 
C 68 2.390625 67.59375 2.78125 67.59375 6.6875 
z
" id="CMR17-109"/>
      <path d="M 14.296875 74.484375 
L 1.40625 74.484375 
L 1.40625 71 
L 10.796875 71 
L 10.796875 -21.515625 
L 1.40625 -21.515625 
L 1.40625 -25 
L 14.296875 -25 
z
" id="CMR17-93"/>
     </defs>
     <g transform="translate(293.381487 489.713076)scale(0.14 -0.14)">
      <use transform="scale(0.996264)" xlink:href="#CMR17-88"/>
      <use transform="translate(99.148396 0)scale(0.996264)" xlink:href="#CMR17-91"/>
      <use transform="translate(124.019455 0)scale(0.996264)" xlink:href="#CMR17-109"/>
      <use transform="translate(200.939045 0)scale(0.996264)" xlink:href="#CMR17-93"/>
     </g>
    </g>
   </g>
   <g id="matplotlib.axis_2">
    <g id="ytick_1">
     <g id="line2d_15">
      <path clip-path="url(#p453956417a)" d="M 64.046513 29.2533 
L 556.474709 29.2533 
" style="fill:none;stroke:#b0b0b0;stroke-linecap:square;stroke-width:0.8;"/>
     </g>
     <g id="line2d_16">
      <defs>
       <path d="M 0 0 
L -3.5 0 
" id="ma7922fcbdc" style="stroke:#000000;stroke-width:0.8;"/>
      </defs>
      <g>
       <use style="stroke:#000000;stroke-width:0.8;" x="64.046513" xlink:href="#ma7922fcbdc" y="29.2533"/>
      </g>
     </g>
     <g id="text_9">
      <!-- $-0.2$ -->
      <g transform="translate(28.747696 34.096238)scale(0.14 -0.14)">
       <use transform="scale(0.996264)" xlink:href="#CMSY10-0"/>
       <use transform="translate(77.487468 0)scale(0.996264)" xlink:href="#CMR17-48"/>
       <use transform="translate(123.177945 0)scale(0.996264)" xlink:href="#CMMI12-58"/>
       <use transform="translate(150.275122 0)scale(0.996264)" xlink:href="#CMR17-50"/>
      </g>
     </g>
    </g>
    <g id="ytick_2">
     <g id="line2d_17">
      <path clip-path="url(#p453956417a)" d="M 64.046513 100.353483 
L 556.474709 100.353483 
" style="fill:none;stroke:#b0b0b0;stroke-linecap:square;stroke-width:0.8;"/>
     </g>
     <g id="line2d_18">
      <g>
       <use style="stroke:#000000;stroke-width:0.8;" x="64.046513" xlink:href="#ma7922fcbdc" y="100.353483"/>
      </g>
     </g>
     <g id="text_10">
      <!-- $0.0$ -->
      <g transform="translate(39.595931 105.196422)scale(0.14 -0.14)">
       <use transform="scale(0.996264)" xlink:href="#CMR17-48"/>
       <use transform="translate(45.690477 0)scale(0.996264)" xlink:href="#CMMI12-58"/>
       <use transform="translate(72.787654 0)scale(0.996264)" xlink:href="#CMR17-48"/>
      </g>
     </g>
    </g>
    <g id="ytick_3">
     <g id="line2d_19">
      <path clip-path="url(#p453956417a)" d="M 64.046513 171.453666 
L 556.474709 171.453666 
" style="fill:none;stroke:#b0b0b0;stroke-linecap:square;stroke-width:0.8;"/>
     </g>
     <g id="line2d_20">
      <g>
       <use style="stroke:#000000;stroke-width:0.8;" x="64.046513" xlink:href="#ma7922fcbdc" y="171.453666"/>
      </g>
     </g>
     <g id="text_11">
      <!-- $0.2$ -->
      <g transform="translate(39.595931 176.296605)scale(0.14 -0.14)">
       <use transform="scale(0.996264)" xlink:href="#CMR17-48"/>
       <use transform="translate(45.690477 0)scale(0.996264)" xlink:href="#CMMI12-58"/>
       <use transform="translate(72.787654 0)scale(0.996264)" xlink:href="#CMR17-50"/>
      </g>
     </g>
    </g>
    <g id="ytick_4">
     <g id="line2d_21">
      <path clip-path="url(#p453956417a)" d="M 64.046513 242.55385 
L 556.474709 242.55385 
" style="fill:none;stroke:#b0b0b0;stroke-linecap:square;stroke-width:0.8;"/>
     </g>
     <g id="line2d_22">
      <g>
       <use style="stroke:#000000;stroke-width:0.8;" x="64.046513" xlink:href="#ma7922fcbdc" y="242.55385"/>
      </g>
     </g>
     <g id="text_12">
      <!-- $0.4$ -->
      <g transform="translate(39.595931 247.396788)scale(0.14 -0.14)">
       <use transform="scale(0.996264)" xlink:href="#CMR17-48"/>
       <use transform="translate(45.690477 0)scale(0.996264)" xlink:href="#CMMI12-58"/>
       <use transform="translate(72.787654 0)scale(0.996264)" xlink:href="#CMR17-52"/>
      </g>
     </g>
    </g>
    <g id="ytick_5">
     <g id="line2d_23">
      <path clip-path="url(#p453956417a)" d="M 64.046513 313.654033 
L 556.474709 313.654033 
" style="fill:none;stroke:#b0b0b0;stroke-linecap:square;stroke-width:0.8;"/>
     </g>
     <g id="line2d_24">
      <g>
       <use style="stroke:#000000;stroke-width:0.8;" x="64.046513" xlink:href="#ma7922fcbdc" y="313.654033"/>
      </g>
     </g>
     <g id="text_13">
      <!-- $0.6$ -->
      <g transform="translate(39.595931 318.496971)scale(0.14 -0.14)">
       <use transform="scale(0.996264)" xlink:href="#CMR17-48"/>
       <use transform="translate(45.690477 0)scale(0.996264)" xlink:href="#CMMI12-58"/>
       <use transform="translate(72.787654 0)scale(0.996264)" xlink:href="#CMR17-54"/>
      </g>
     </g>
    </g>
    <g id="ytick_6">
     <g id="line2d_25">
      <path clip-path="url(#p453956417a)" d="M 64.046513 384.754216 
L 556.474709 384.754216 
" style="fill:none;stroke:#b0b0b0;stroke-linecap:square;stroke-width:0.8;"/>
     </g>
     <g id="line2d_26">
      <g>
       <use style="stroke:#000000;stroke-width:0.8;" x="64.046513" xlink:href="#ma7922fcbdc" y="384.754216"/>
      </g>
     </g>
     <g id="text_14">
      <!-- $0.8$ -->
      <defs>
       <path d="M 27.203125 35.375 
C 33.5 38.5625 39.90625 43.328125 39.90625 50.984375 
C 39.90625 60.03125 31.09375 65.296875 23 65.296875 
C 13.90625 65.296875 5.90625 58.734375 5.90625 49.6875 
C 5.90625 47.203125 6.5 42.921875 10.40625 39.140625 
C 11.40625 38.15625 15.59375 35.171875 18.296875 33.28125 
C 13.796875 30.984375 3.296875 25.53125 3.296875 14.59375 
C 3.296875 4.359375 13.09375 -2 22.796875 -2 
C 33.5 -2 42.5 5.65625 42.5 15.796875 
C 42.5 24.84375 36.40625 29.03125 32.40625 31.703125 
C 31 32.6875 30.203125 33.1875 27.203125 35.375 
M 14.09375 44.125 
C 13.296875 44.625 9.296875 47.703125 9.296875 52.375 
C 9.296875 58.4375 15.59375 63 22.796875 63 
C 30.703125 63 36.5 57.453125 36.5 50.984375 
C 36.5 41.734375 26.09375 36.46875 25.59375 36.46875 
C 25.5 36.46875 25.40625 36.46875 24.59375 37.078125 
z
M 32.5 23.734375 
C 34 22.640625 38.796875 19.375 38.796875 13.296875 
C 38.796875 5.953125 31.40625 0.390625 23 0.390625 
C 13.90625 0.390625 7 6.84375 7 14.6875 
C 7 22.546875 13.09375 29.09375 20 32.1875 
z
" id="CMR17-56"/>
      </defs>
      <g transform="translate(39.595931 389.597154)scale(0.14 -0.14)">
       <use transform="scale(0.996264)" xlink:href="#CMR17-48"/>
       <use transform="translate(45.690477 0)scale(0.996264)" xlink:href="#CMMI12-58"/>
       <use transform="translate(72.787654 0)scale(0.996264)" xlink:href="#CMR17-56"/>
      </g>
     </g>
    </g>
    <g id="ytick_7">
     <g id="line2d_27">
      <path clip-path="url(#p453956417a)" d="M 64.046513 455.854399 
L 556.474709 455.854399 
" style="fill:none;stroke:#b0b0b0;stroke-linecap:square;stroke-width:0.8;"/>
     </g>
     <g id="line2d_28">
      <g>
       <use style="stroke:#000000;stroke-width:0.8;" x="64.046513" xlink:href="#ma7922fcbdc" y="455.854399"/>
      </g>
     </g>
     <g id="text_15">
      <!-- $1.0$ -->
      <defs>
       <path d="M 26.59375 63.3125 
C 26.59375 65.40625 26.5 65.5 25.09375 65.5 
C 21.203125 61.1875 15.296875 59.796875 9.703125 59.796875 
C 9.40625 59.796875 8.90625 59.796875 8.796875 59.5 
C 8.703125 59.296875 8.703125 59.09375 8.703125 57 
C 11.796875 57 17 57.59375 21 59.984375 
L 21 7.203125 
C 21 3.6875 20.796875 2.5 12.203125 2.5 
L 9.203125 2.5 
L 9.203125 0 
C 14 0 19 0 23.796875 0 
C 28.59375 0 33.59375 0 38.40625 0 
L 38.40625 2.5 
L 35.40625 2.5 
C 26.796875 2.5 26.59375 3.59375 26.59375 7.15625 
z
" id="CMR17-49"/>
      </defs>
      <g transform="translate(39.595931 460.697337)scale(0.14 -0.14)">
       <use transform="scale(0.996264)" xlink:href="#CMR17-49"/>
       <use transform="translate(45.690477 0)scale(0.996264)" xlink:href="#CMMI12-58"/>
       <use transform="translate(72.787654 0)scale(0.996264)" xlink:href="#CMR17-48"/>
      </g>
     </g>
    </g>
    <g id="text_16">
     <!-- \rm{Z [m]} -->
     <defs>
      <path d="M 51.59375 66 
C 51.59375 67.90625 51.5 68 49.40625 68 
L 6.90625 68 
L 5.90625 46 
L 7.703125 46 
C 8.296875 57.34375 11.296875 65.40625 27.5 65.40625 
L 44 65.40625 
L 5.296875 3.1875 
C 4.59375 2.09375 4.59375 1.984375 4.59375 1.296875 
C 4.59375 0 4.796875 0 6.796875 0 
L 50.703125 0 
L 52.09375 25.984375 
L 50.296875 25.984375 
C 49.40625 12.9375 48.703125 2.78125 29.59375 2.78125 
L 12.203125 2.78125 
z
" id="CMR17-90"/>
     </defs>
     <g transform="translate(21.260772 258.48699)rotate(-90)scale(0.14 -0.14)">
      <use transform="scale(0.996264)" xlink:href="#CMR17-90"/>
      <use transform="translate(86.176138 0)scale(0.996264)" xlink:href="#CMR17-91"/>
      <use transform="translate(111.047196 0)scale(0.996264)" xlink:href="#CMR17-109"/>
      <use transform="translate(187.966786 0)scale(0.996264)" xlink:href="#CMR17-93"/>
     </g>
    </g>
   </g>
   <g id="patch_3">
    <path d="M 64.046513 455.854399 
L 64.046513 29.2533 
" style="fill:none;stroke:#000000;stroke-linecap:square;stroke-linejoin:miter;stroke-width:0.8;"/>
   </g>
   <g id="patch_4">
    <path d="M 556.474709 455.854399 
L 556.474709 29.2533 
" style="fill:none;stroke:#000000;stroke-linecap:square;stroke-linejoin:miter;stroke-width:0.8;"/>
   </g>
   <g id="patch_5">
    <path d="M 64.046513 455.854399 
L 556.474709 455.854399 
" style="fill:none;stroke:#000000;stroke-linecap:square;stroke-linejoin:miter;stroke-width:0.8;"/>
   </g>
   <g id="patch_6">
    <path d="M 64.046513 29.2533 
L 556.474709 29.2533 
" style="fill:none;stroke:#000000;stroke-linecap:square;stroke-linejoin:miter;stroke-width:0.8;"/>
   </g>
   <g id="patch_7">
    <path clip-path="url(#p453956417a)" d="M 248.809676 100.353483 
C 248.809676 86.239764 255.288372 72.689668 266.808238 62.709761 
C 278.328104 52.729854 293.96906 47.117221 310.260611 47.117221 
C 326.552162 47.117221 342.193118 52.729854 353.712984 62.709761 
C 365.23285 72.689668 371.711546 86.239764 371.711546 100.353483 
" style="fill:none;stroke:#000000;stroke-linejoin:miter;stroke-width:0.85;"/>
   </g>
   <g id="patch_8">
    <path clip-path="url(#p453956417a)" d="M 249.5278 100.353483 
L 370.993422 100.353483 
L 370.993422 102.610914 
L 249.5278 102.610914 
z
"/>
   </g>
   <g id="patch_9">
    <path clip-path="url(#p453956417a)" d="M 248.091551 100.353483 
L 249.5278 100.353483 
L 249.5278 102.610914 
L 248.091551 102.610914 
z
"/>
   </g>
   <g id="patch_10">
    <path clip-path="url(#p453956417a)" d="M 370.993422 100.353483 
L 372.429671 100.353483 
L 372.429671 102.610914 
L 370.993422 102.610914 
z
"/>
   </g>
   <g id="patch_11">
    <path clip-path="url(#p453956417a)" d="M 248.091551 102.610914 
L 249.5278 102.610914 
L 249.5278 112.351639 
L 248.091551 112.351639 
z
"/>
   </g>
   <g id="patch_12">
    <path clip-path="url(#p453956417a)" d="M 370.993422 102.610914 
L 372.429671 102.610914 
L 372.429671 112.351639 
L 370.993422 112.351639 
z
"/>
   </g>
   <g id="patch_13">
    <path clip-path="url(#p453956417a)" d="M 249.5278 112.351639 
L 370.993422 112.351639 
L 370.993422 112.70714 
L 249.5278 112.70714 
z
"/>
   </g>
   <g id="patch_14">
    <path clip-path="url(#p453956417a)" d="M 248.091551 112.351639 
L 249.5278 112.351639 
L 249.5278 112.353061 
L 248.091551 112.353061 
z
"/>
   </g>
   <g id="patch_15">
    <path clip-path="url(#p453956417a)" d="M 370.993422 112.351639 
L 372.429671 112.351639 
L 372.429671 112.353061 
L 370.993422 112.353061 
z
"/>
   </g>
   <g id="patch_16">
    <path clip-path="url(#p453956417a)" d="M 248.091551 112.353061 
L 249.5278 112.353061 
L 249.5278 114.130566 
L 248.091551 114.130566 
z
"/>
   </g>
   <g id="patch_17">
    <path clip-path="url(#p453956417a)" d="M 370.993422 112.353061 
L 372.429671 112.353061 
L 372.429671 114.130566 
L 370.993422 114.130566 
z
"/>
   </g>
   <g id="patch_18">
    <path clip-path="url(#p453956417a)" d="M 249.5278 114.130566 
L 370.993422 114.130566 
L 370.993422 114.486067 
L 249.5278 114.486067 
z
"/>
   </g>
   <g id="patch_19">
    <path clip-path="url(#p453956417a)" d="M 248.091551 114.130566 
L 249.5278 114.130566 
L 249.5278 114.131988 
L 248.091551 114.131988 
z
"/>
   </g>
   <g id="patch_20">
    <path clip-path="url(#p453956417a)" d="M 370.993422 114.130566 
L 372.429671 114.130566 
L 372.429671 114.131988 
L 370.993422 114.131988 
z
"/>
   </g>
   <g id="patch_21">
    <path clip-path="url(#p453956417a)" d="M 248.091551 114.131988 
L 249.5278 114.131988 
L 249.5278 117.089755 
L 248.091551 117.089755 
z
"/>
   </g>
   <g id="patch_22">
    <path clip-path="url(#p453956417a)" d="M 370.993422 114.131988 
L 372.429671 114.131988 
L 372.429671 117.089755 
L 370.993422 117.089755 
z
"/>
   </g>
   <g id="patch_23">
    <path clip-path="url(#p453956417a)" d="M 249.5278 117.089755 
L 370.993422 117.089755 
L 370.993422 117.445256 
L 249.5278 117.445256 
z
" style="fill:#bfbf00;"/>
   </g>
   <g id="patch_24">
    <path clip-path="url(#p453956417a)" d="M 248.091551 117.089755 
L 249.5278 117.089755 
L 249.5278 117.091177 
L 248.091551 117.091177 
z
" style="fill:#bfbf00;"/>
   </g>
   <g id="patch_25">
    <path clip-path="url(#p453956417a)" d="M 370.993422 117.089755 
L 372.429671 117.089755 
L 372.429671 117.091177 
L 370.993422 117.091177 
z
" style="fill:#bfbf00;"/>
   </g>
   <g id="patch_26">
    <path clip-path="url(#p453956417a)" d="M 248.091551 117.091177 
L 249.5278 117.091177 
L 249.5278 118.868682 
L 248.091551 118.868682 
z
" style="fill:#bfbf00;"/>
   </g>
   <g id="patch_27">
    <path clip-path="url(#p453956417a)" d="M 370.993422 117.091177 
L 372.429671 117.091177 
L 372.429671 118.868682 
L 370.993422 118.868682 
z
" style="fill:#bfbf00;"/>
   </g>
   <g id="patch_28">
    <path clip-path="url(#p453956417a)" d="M 249.5278 118.868682 
L 370.993422 118.868682 
L 370.993422 119.224183 
L 249.5278 119.224183 
z
" style="fill:#bfbf00;"/>
   </g>
   <g id="patch_29">
    <path clip-path="url(#p453956417a)" d="M 248.091551 118.868682 
L 249.5278 118.868682 
L 249.5278 118.870104 
L 248.091551 118.870104 
z
" style="fill:#bfbf00;"/>
   </g>
   <g id="patch_30">
    <path clip-path="url(#p453956417a)" d="M 370.993422 118.868682 
L 372.429671 118.868682 
L 372.429671 118.870104 
L 370.993422 118.870104 
z
" style="fill:#bfbf00;"/>
   </g>
   <g id="patch_31">
    <path clip-path="url(#p453956417a)" d="M 248.091551 118.870104 
L 249.5278 118.870104 
L 249.5278 120.647609 
L 248.091551 120.647609 
z
" style="fill:#bfbf00;"/>
   </g>
   <g id="patch_32">
    <path clip-path="url(#p453956417a)" d="M 370.993422 118.870104 
L 372.429671 118.870104 
L 372.429671 120.647609 
L 370.993422 120.647609 
z
" style="fill:#bfbf00;"/>
   </g>
   <g id="patch_33">
    <path clip-path="url(#p453956417a)" d="M 249.5278 120.647609 
L 370.993422 120.647609 
L 370.993422 121.003109 
L 249.5278 121.003109 
z
" style="fill:#bfbf00;"/>
   </g>
   <g id="patch_34">
    <path clip-path="url(#p453956417a)" d="M 248.091551 120.647609 
L 249.5278 120.647609 
L 249.5278 120.649031 
L 248.091551 120.649031 
z
" style="fill:#bfbf00;"/>
   </g>
   <g id="patch_35">
    <path clip-path="url(#p453956417a)" d="M 370.993422 120.647609 
L 372.429671 120.647609 
L 372.429671 120.649031 
L 370.993422 120.649031 
z
" style="fill:#bfbf00;"/>
   </g>
   <g id="patch_36">
    <path clip-path="url(#p453956417a)" d="M 248.091551 120.649031 
L 249.5278 120.649031 
L 249.5278 123.318842 
L 248.091551 123.318842 
z
" style="fill:#bfbf00;"/>
   </g>
   <g id="patch_37">
    <path clip-path="url(#p453956417a)" d="M 370.993422 120.649031 
L 372.429671 120.649031 
L 372.429671 123.318842 
L 370.993422 123.318842 
z
" style="fill:#bfbf00;"/>
   </g>
   <g id="patch_38">
    <path clip-path="url(#p453956417a)" d="M 249.5278 123.318842 
L 370.993422 123.318842 
L 370.993422 124.079614 
L 249.5278 124.079614 
z
" style="fill:#bfbf00;"/>
   </g>
   <g id="patch_39">
    <path clip-path="url(#p453956417a)" d="M 248.091551 123.318842 
L 249.5278 123.318842 
L 249.5278 124.079614 
L 248.091551 124.079614 
z
" style="fill:#bfbf00;"/>
   </g>
   <g id="patch_40">
    <path clip-path="url(#p453956417a)" d="M 370.993422 123.318842 
L 372.429671 123.318842 
L 372.429671 124.079614 
L 370.993422 124.079614 
z
" style="fill:#bfbf00;"/>
   </g>
   <g id="patch_41">
    <path clip-path="url(#p453956417a)" d="M 248.091551 124.079614 
L 249.5278 124.079614 
L 249.5278 126.763646 
L 248.091551 126.763646 
z
" style="fill:#bfbf00;"/>
   </g>
   <g id="patch_42">
    <path clip-path="url(#p453956417a)" d="M 370.993422 124.079614 
L 372.429671 124.079614 
L 372.429671 126.763646 
L 370.993422 126.763646 
z
" style="fill:#bfbf00;"/>
   </g>
   <g id="patch_43">
    <path clip-path="url(#p453956417a)" d="M 249.5278 126.763646 
L 370.993422 126.763646 
L 370.993422 127.119147 
L 249.5278 127.119147 
z
" style="fill:#bfbf00;"/>
   </g>
   <g id="patch_44">
    <path clip-path="url(#p453956417a)" d="M 248.091551 126.763646 
L 249.5278 126.763646 
L 249.5278 126.765068 
L 248.091551 126.765068 
z
" style="fill:#bfbf00;"/>
   </g>
   <g id="patch_45">
    <path clip-path="url(#p453956417a)" d="M 370.993422 126.763646 
L 372.429671 126.763646 
L 372.429671 126.765068 
L 370.993422 126.765068 
z
" style="fill:#bfbf00;"/>
   </g>
   <g id="patch_46">
    <path clip-path="url(#p453956417a)" d="M 248.091551 126.765068 
L 249.5278 126.765068 
L 249.5278 130.707573 
L 248.091551 130.707573 
z
" style="fill:#bfbf00;"/>
   </g>
   <g id="patch_47">
    <path clip-path="url(#p453956417a)" d="M 370.993422 126.765068 
L 372.429671 126.765068 
L 372.429671 130.707573 
L 370.993422 130.707573 
z
" style="fill:#bfbf00;"/>
   </g>
   <g id="patch_48">
    <path clip-path="url(#p453956417a)" d="M 249.5278 130.707573 
L 370.993422 130.707573 
L 370.993422 131.063074 
L 249.5278 131.063074 
z
" style="fill:#008000;"/>
   </g>
   <g id="patch_49">
    <path clip-path="url(#p453956417a)" d="M 248.091551 130.707573 
L 249.5278 130.707573 
L 249.5278 130.708995 
L 248.091551 130.708995 
z
" style="fill:#008000;"/>
   </g>
   <g id="patch_50">
    <path clip-path="url(#p453956417a)" d="M 370.993422 130.707573 
L 372.429671 130.707573 
L 372.429671 130.708995 
L 370.993422 130.708995 
z
" style="fill:#008000;"/>
   </g>
   <g id="patch_51">
    <path clip-path="url(#p453956417a)" d="M 248.091551 130.708995 
L 249.5278 130.708995 
L 249.5278 133.407247 
L 248.091551 133.407247 
z
" style="fill:#008000;"/>
   </g>
   <g id="patch_52">
    <path clip-path="url(#p453956417a)" d="M 370.993422 130.708995 
L 372.429671 130.708995 
L 372.429671 133.407247 
L 370.993422 133.407247 
z
" style="fill:#008000;"/>
   </g>
   <g id="patch_53">
    <path clip-path="url(#p453956417a)" d="M 249.5278 133.407247 
L 370.993422 133.407247 
L 370.993422 134.146689 
L 249.5278 134.146689 
z
" style="fill:#008000;"/>
   </g>
   <g id="patch_54">
    <path clip-path="url(#p453956417a)" d="M 248.091551 133.407247 
L 249.5278 133.407247 
L 249.5278 134.146689 
L 248.091551 134.146689 
z
" style="fill:#008000;"/>
   </g>
   <g id="patch_55">
    <path clip-path="url(#p453956417a)" d="M 370.993422 133.407247 
L 372.429671 133.407247 
L 372.429671 134.146689 
L 370.993422 134.146689 
z
" style="fill:#008000;"/>
   </g>
   <g id="patch_56">
    <path clip-path="url(#p453956417a)" d="M 248.091551 134.146689 
L 249.5278 134.146689 
L 249.5278 263.058431 
L 248.091551 263.058431 
z
" style="fill:#008000;"/>
   </g>
   <g id="patch_57">
    <path clip-path="url(#p453956417a)" d="M 370.993422 134.146689 
L 372.429671 134.146689 
L 372.429671 263.058431 
L 370.993422 263.058431 
z
" style="fill:#008000;"/>
   </g>
   <g id="patch_58">
    <path clip-path="url(#p453956417a)" d="M 248.091551 263.058431 
L 276.200994 263.058431 
L 276.200994 264.302685 
L 248.091551 264.302685 
z
" style="fill:#008000;"/>
   </g>
   <g id="patch_59">
    <path clip-path="url(#p453956417a)" d="M 344.320228 263.058431 
L 372.429671 263.058431 
L 372.429671 264.302685 
L 344.320228 264.302685 
z
" style="fill:#008000;"/>
   </g>
   <g id="patch_60">
    <path clip-path="url(#p453956417a)" d="M 274.764745 263.058431 
L 283.997774 263.058431 
L 283.997774 264.302685 
L 274.764745 264.302685 
z
" style="fill:#00bfbf;"/>
   </g>
   <g id="patch_61">
    <path clip-path="url(#p453956417a)" d="M 336.523448 263.058431 
L 345.756477 263.058431 
L 345.756477 264.302685 
L 336.523448 264.302685 
z
" style="fill:#00bfbf;"/>
   </g>
   <g id="patch_62">
    <path clip-path="url(#p453956417a)" d="M 282.561525 263.058431 
L 283.997774 263.058431 
L 283.997774 264.014729 
L 282.561525 264.014729 
z
" style="fill:#00bfbf;"/>
   </g>
   <g id="patch_63">
    <path clip-path="url(#p453956417a)" d="M 336.523448 263.058431 
L 337.959697 263.058431 
L 337.959697 264.014729 
L 336.523448 264.014729 
z
" style="fill:#00bfbf;"/>
   </g>
   <g id="patch_64">
    <path clip-path="url(#p453956417a)" d="M 274.764745 264.014729 
L 283.997774 264.014729 
L 283.997774 265.258982 
L 274.764745 265.258982 
z
" style="fill:#00bfbf;"/>
   </g>
   <g id="patch_65">
    <path clip-path="url(#p453956417a)" d="M 336.523448 264.014729 
L 345.756477 264.014729 
L 345.756477 265.258982 
L 336.523448 265.258982 
z
" style="fill:#00bfbf;"/>
   </g>
   <g id="patch_66">
    <path clip-path="url(#p453956417a)" d="M 274.764745 264.014729 
L 276.200994 264.014729 
L 276.200994 271.185182 
L 274.764745 271.185182 
z
" style="fill:#00bfbf;"/>
   </g>
   <g id="patch_67">
    <path clip-path="url(#p453956417a)" d="M 344.320228 264.014729 
L 345.756477 264.014729 
L 345.756477 271.185182 
L 344.320228 271.185182 
z
" style="fill:#00bfbf;"/>
   </g>
   <g id="patch_68">
    <path clip-path="url(#p453956417a)" d="M 276.200994 271.185182 
L 344.320228 271.185182 
L 344.320228 271.896184 
L 276.200994 271.896184 
z
" style="fill:#00bfbf;"/>
   </g>
   <g id="patch_69">
    <path clip-path="url(#p453956417a)" d="M 274.764745 271.185182 
L 276.200994 271.185182 
L 276.200994 271.896184 
L 274.764745 271.896184 
z
" style="fill:#00bfbf;"/>
   </g>
   <g id="patch_70">
    <path clip-path="url(#p453956417a)" d="M 344.320228 271.185182 
L 345.756477 271.185182 
L 345.756477 271.896184 
L 344.320228 271.896184 
z
" style="fill:#00bfbf;"/>
   </g>
   <g id="patch_71">
    <path clip-path="url(#p453956417a)" d="M 259.376364 271.896184 
L 276.200994 271.896184 
L 276.200994 273.140437 
L 259.376364 273.140437 
z
" style="fill:#00bfbf;"/>
   </g>
   <g id="patch_72">
    <path clip-path="url(#p453956417a)" d="M 344.320228 271.896184 
L 361.144858 271.896184 
L 361.144858 273.140437 
L 344.320228 273.140437 
z
" style="fill:#00bfbf;"/>
   </g>
   <g id="patch_73">
    <path clip-path="url(#p453956417a)" d="M 259.376364 271.896184 
L 260.812613 271.896184 
L 260.812613 287.445794 
L 259.376364 287.445794 
z
" style="fill:#00bfbf;"/>
   </g>
   <g id="patch_74">
    <path clip-path="url(#p453956417a)" d="M 359.708609 271.896184 
L 361.144858 271.896184 
L 361.144858 287.445794 
L 359.708609 287.445794 
z
" style="fill:#00bfbf;"/>
   </g>
   <g id="patch_75">
    <path clip-path="url(#p453956417a)" d="M 260.812613 287.445794 
L 359.708609 287.445794 
L 359.708609 288.650942 
L 260.812613 288.650942 
z
" style="fill:#00bfbf;"/>
   </g>
   <g id="patch_76">
    <path clip-path="url(#p453956417a)" d="M 259.376364 287.445794 
L 260.812613 287.445794 
L 260.812613 288.650942 
L 259.376364 288.650942 
z
" style="fill:#00bfbf;"/>
   </g>
   <g id="patch_77">
    <path clip-path="url(#p453956417a)" d="M 359.708609 287.445794 
L 361.144858 287.445794 
L 361.144858 288.650942 
L 359.708609 288.650942 
z
" style="fill:#00bfbf;"/>
   </g>
   <g id="patch_78">
    <path clip-path="url(#p453956417a)" d="M 248.912265 288.658052 
L 260.812613 288.658052 
L 260.812613 289.902306 
L 248.912265 289.902306 
z
" style="fill:#00bfbf;"/>
   </g>
   <g id="patch_79">
    <path clip-path="url(#p453956417a)" d="M 359.708609 288.658052 
L 371.608957 288.658052 
L 371.608957 289.902306 
L 359.708609 289.902306 
z
" style="fill:#00bfbf;"/>
   </g>
   <g id="patch_80">
    <path clip-path="url(#p453956417a)" d="M 248.912265 288.650942 
L 250.348514 288.650942 
L 250.348514 395.784698 
L 248.912265 395.784698 
z
" style="fill:#00bfbf;"/>
   </g>
   <g id="patch_81">
    <path clip-path="url(#p453956417a)" d="M 370.172708 288.650942 
L 371.608957 288.650942 
L 371.608957 395.784698 
L 370.172708 395.784698 
z
" style="fill:#00bfbf;"/>
   </g>
   <g id="patch_82">
    <path clip-path="url(#p453956417a)" d="M 248.912265 395.784698 
L 274.456978 395.784698 
L 274.456978 397.028951 
L 248.912265 397.028951 
z
" style="fill:#00bfbf;"/>
   </g>
   <g id="patch_83">
    <path clip-path="url(#p453956417a)" d="M 346.064245 395.784698 
L 371.608957 395.784698 
L 371.608957 397.028951 
L 346.064245 397.028951 
z
" style="fill:#00bfbf;"/>
   </g>
   <g id="patch_84">
    <path clip-path="url(#p453956417a)" d="M 274.456978 395.784698 
L 346.064245 395.784698 
L 346.064245 396.641456 
L 274.456978 396.641456 
z
" style="fill:#0000ff;"/>
   </g>
   <g id="patch_85">
    <path clip-path="url(#p453956417a)" d="M 273.020729 395.784698 
L 274.456978 395.784698 
L 274.456978 396.641456 
L 273.020729 396.641456 
z
" style="fill:#0000ff;"/>
   </g>
   <g id="patch_86">
    <path clip-path="url(#p453956417a)" d="M 346.064245 395.784698 
L 347.500493 395.784698 
L 347.500493 396.641456 
L 346.064245 396.641456 
z
" style="fill:#0000ff;"/>
   </g>
   <g id="patch_87">
    <path clip-path="url(#p453956417a)" d="M 346.782369 396.641456 
C 346.782369 405.029576 342.931925 413.082721 336.085394 419.014018 
C 329.238862 424.945315 319.943069 428.281037 310.260611 428.281037 
C 300.578154 428.281037 291.28236 424.945315 284.435829 419.014018 
C 277.589297 413.082721 273.738853 405.029576 273.738853 396.641456 
" style="fill:none;stroke:#0000ff;stroke-linejoin:miter;stroke-width:0.85;"/>
   </g>
   <g id="text_17">
    <!-- \rm{ACTPol Filters} -->
    <defs>
     <path d="M 36.296875 68.40625 
C 35.796875 69.703125 35.59375 70 34.59375 70 
C 33.59375 70 33.40625 69.703125 32.90625 68.40625 
L 11.703125 8.84375 
C 9.796875 3.484375 5.796875 2.390625 2.296875 2.390625 
L 2.296875 -0.203125 
C 4.09375 0 8.09375 0 10 0 
C 12.5 0 16.5 0 18.90625 -0.203125 
L 18.90625 2.390625 
C 14.203125 2.390625 13.5 5.640625 13.5 6.859375 
C 13.5 7.765625 13.703125 8.28125 13.90625 8.890625 
L 19.203125 24 
L 45.40625 24 
L 51.40625 6.90625 
C 51.90625 5.703125 51.90625 5.5 51.90625 5.109375 
C 51.90625 2.390625 47.59375 2.390625 45.703125 2.390625 
L 45.703125 0 
C 48.59375 0 53.796875 0 56.90625 0 
C 59.5 0 64.5 0 66.90625 -0.203125 
L 66.90625 2.390625 
C 61.59375 2.390625 59.796875 2.390625 58.5 6.046875 
z
M 32.296875 60.53125 
L 44.5 26.59375 
L 20.09375 26.59375 
z
" id="CMR17-65"/>
     <path d="M 62.09375 67.109375 
C 62.09375 68.890625 62 69 61.40625 69 
C 61 69 60.90625 68.890625 60.203125 67.703125 
L 55.796875 59.328125 
C 50.90625 65.453125 44.90625 69 37.203125 69 
C 20.09375 69 4.59375 54 4.59375 33.546875 
C 4.59375 12.90625 20.09375 -2 37.296875 -2 
C 52.59375 -2 62.09375 11.40625 62.09375 22.84375 
C 62.09375 23.828125 62.09375 24.234375 61.203125 24.234375 
C 60.40625 24.234375 60.40625 23.9375 60.296875 23.046875 
C 59.5 9.140625 49.5 0.59375 38.703125 0.59375 
C 28.5 0.59375 12.203125 7.734375 12.203125 33.59375 
C 12.203125 59.546875 28.796875 66.5 38.5 66.5 
C 49.796875 66.5 58 56.75 59.90625 42.921875 
C 60.09375 41.71875 60.09375 41.515625 61 41.515625 
C 62.09375 41.515625 62.09375 41.71875 62.09375 43.515625 
z
" id="CMR17-67"/>
     <path d="M 62.203125 67.59375 
L 4.5 67.59375 
L 2.796875 45.59375 
L 4.59375 45.59375 
C 5.90625 62.125 7.296875 65 22.703125 65 
C 24.5 65 27.40625 65 28.203125 64.90625 
C 30.09375 64.609375 30.09375 63.40625 30.09375 61.125 
L 30.09375 7.171875 
C 30.09375 3.59375 29.796875 2.5 21.5 2.5 
L 18.703125 2.5 
L 18.703125 0 
C 23.5 0 28.5 0 33.40625 0 
C 38.296875 0 43.296875 0 48.09375 0 
L 48.09375 2.5 
L 45.296875 2.5 
C 37 2.5 36.703125 3.59375 36.703125 7.171875 
L 36.703125 61.125 
C 36.703125 63.3125 36.703125 64.515625 38.5 64.90625 
C 39.296875 65 42.203125 65 44 65 
C 59.296875 65 60.796875 62.125 62.09375 45.59375 
L 63.90625 45.59375 
z
" id="CMR17-84"/>
     <path d="M 19.796875 31.90625 
L 35.796875 31.90625 
C 48.703125 31.90625 58.09375 40.28125 58.09375 49.75 
C 58.09375 59.234375 48.90625 68 35.796875 68 
L 5.203125 68 
L 5.203125 65.40625 
C 12.09375 65.40625 13.203125 65.40625 13.203125 60.9375 
L 13.203125 6.96875 
C 13.203125 2.5 12.09375 2.5 5.203125 2.5 
L 5.203125 0 
C 8.09375 0 13.40625 0 16.5 0 
C 19.59375 0 24.90625 0 27.796875 0 
L 27.796875 2.5 
C 20.90625 2.5 19.796875 2.5 19.796875 6.96875 
z
M 19.59375 34 
L 19.59375 61.53125 
C 19.59375 64.921875 19.796875 65.40625 23.796875 65.40625 
L 33.90625 65.40625 
C 46.796875 65.40625 50.5 58.03125 50.5 49.75 
C 50.5 40.6875 46.09375 34 33.90625 34 
z
" id="CMR17-80"/>
     <path d="M 43.09375 21.1875 
C 43.09375 34 33.796875 44 22.90625 44 
C 12 44 2.703125 34 2.703125 21.1875 
C 2.703125 8.609375 12 -1 22.90625 -1 
C 33.796875 -1 43.09375 8.609375 43.09375 21.1875 
M 22.90625 0.796875 
C 18.203125 0.796875 14.203125 3.59375 11.90625 7.5 
C 9.40625 11.984375 9.09375 17.59375 9.09375 22 
C 9.09375 26.203125 9.296875 31.40625 11.90625 35.90625 
C 13.90625 39.203125 17.796875 42.40625 22.90625 42.40625 
C 27.40625 42.40625 31.203125 39.90625 33.59375 36.40625 
C 36.703125 31.703125 36.703125 25.109375 36.703125 22 
C 36.703125 18.09375 36.5 12.109375 33.796875 7.296875 
C 31 2.703125 26.703125 0.796875 22.90625 0.796875 
" id="CMR17-111"/>
     <path d="M 15.296875 68.6875 
L 3.40625 67.59375 
L 3.40625 65 
C 9.296875 65 10.203125 64.40625 10.203125 59.640625 
L 10.203125 6.65625 
C 10.203125 2.875 9.796875 2.390625 3.40625 2.390625 
L 3.40625 -0.203125 
C 5.796875 0 10.203125 0 12.703125 0 
C 15.296875 0 19.703125 0 22.09375 -0.203125 
L 22.09375 2.390625 
C 15.703125 2.390625 15.296875 2.78125 15.296875 6.65625 
z
" id="CMR17-108"/>
     <path d="M 54.40625 67.578125 
L 5.09375 67.578125 
L 5.09375 65 
C 12 65 13.09375 65 13.09375 60.53125 
L 13.09375 6.96875 
C 13.09375 2.5 12 2.5 5.09375 2.5 
L 5.09375 0 
C 8 0 13.59375 0 16.703125 0 
C 20.796875 0 25.59375 0 29.703125 0 
L 29.703125 2.5 
L 27.5 2.5 
C 19.90625 2.5 19.703125 3.484375 19.703125 7.0625 
L 19.703125 32.421875 
L 28.703125 32.421875 
C 38 32.421875 38.90625 29.1875 38.90625 21 
L 40.703125 21 
L 40.703125 46.890625 
L 38.90625 46.890625 
C 38.90625 38.34375 38 35 28.703125 35 
L 19.703125 35 
L 19.703125 61.109375 
C 19.703125 64.5 19.90625 65 23.90625 65 
L 36.796875 65 
C 51.90625 65 53.59375 58.890625 55 45.765625 
L 56.796875 45.765625 
z
" id="CMR17-70"/>
     <path d="M 15.5 61.078125 
C 15.5 63.265625 13.703125 65.15625 11.40625 65.15625 
C 9.203125 65.15625 7.296875 63.375 7.296875 61.078125 
C 7.296875 58.890625 9.09375 57 11.40625 57 
C 13.59375 57 15.5 58.796875 15.5 61.078125 
M 3.796875 42.28125 
L 3.796875 39.703125 
C 9.40625 39.703125 10.203125 39.09375 10.203125 34.328125 
L 10.203125 6.671875 
C 10.203125 2.875 9.796875 2.390625 3.40625 2.390625 
L 3.40625 -0.203125 
C 5.796875 0 10.09375 0 12.59375 0 
C 15 0 19.09375 0 21.40625 -0.203125 
L 21.40625 2.390625 
C 15.5 2.390625 15.296875 2.984375 15.296875 6.5625 
L 15.296875 43.375 
z
" id="CMR17-105"/>
     <path d="M 15.09375 40 
L 29.09375 40 
L 29.09375 42.578125 
L 15.09375 42.578125 
L 15.09375 61 
L 13.296875 61 
C 13.09375 50.703125 9.59375 41.6875 1.09375 41.6875 
L 1.09375 40 
L 9.796875 40 
L 9.796875 12.046875 
C 9.796875 10.15625 9.796875 -1 21.40625 -1 
C 27.296875 -1 30.703125 4.78125 30.703125 12.140625 
L 30.703125 17.8125 
L 28.90625 17.8125 
L 28.90625 12.234375 
C 28.90625 5.375 26.203125 0.796875 22 0.796875 
C 19.09375 0.796875 15.09375 2.78125 15.09375 11.84375 
z
" id="CMR17-116"/>
     <path d="M 38.09375 23 
C 38.5 23.40625 38.5 23.609375 38.5 24.625 
C 38.5 34.96875 33.09375 44 21.703125 44 
C 11.09375 44 2.703125 33.890625 2.703125 21.609375 
C 2.703125 8.609375 12.203125 -1 22.796875 -1 
C 34 -1 38.40625 9.46875 38.40625 11.546875 
C 38.40625 12.25 37.796875 12.25 37.59375 12.25 
C 36.90625 12.25 36.796875 12.046875 36.40625 10.875 
C 34.203125 4.140625 28.703125 0.796875 23.5 0.796875 
C 19.203125 0.796875 14.90625 3.171875 12.203125 7.5 
C 9.09375 12.546875 9.09375 18.375 9.09375 23 
z
M 9.203125 24.5 
C 9.90625 39.140625 17.59375 42.40625 21.59375 42.40625 
C 28.40625 42.40625 33 35.890625 33.09375 24.5 
z
" id="CMR17-101"/>
     <path d="M 15 23.390625 
C 15 33 19.09375 42 26.59375 42 
C 27.296875 42 28 41.90625 28.703125 41.59375 
C 28.703125 41.59375 26.5 40.890625 26.5 38.3125 
C 26.5 35.90625 28.40625 34.90625 29.90625 34.90625 
C 31.09375 34.90625 33.296875 35.609375 33.296875 38.40625 
C 33.296875 41.609375 30.09375 43.59375 26.703125 43.59375 
C 19.09375 43.59375 15.796875 36.203125 14.796875 32.703125 
L 14.703125 32.703125 
L 14.703125 43.59375 
L 3.09375 42.5 
L 3.09375 39.90625 
C 9 39.90625 9.90625 39.296875 9.90625 34.5 
L 9.90625 6.6875 
C 9.90625 2.875 9.5 2.390625 3.09375 2.390625 
L 3.09375 -0.203125 
C 5.5 0 10.09375 0 12.703125 0 
C 15.59375 0 20.703125 0 23.40625 -0.203125 
L 23.40625 2.390625 
C 16.203125 2.390625 15 2.390625 15 6.875 
z
" id="CMR17-114"/>
     <path d="M 30.90625 42.109375 
C 30.90625 43.90625 30.796875 44 30.203125 44 
C 29.796875 44 29.703125 43.90625 28.5 42.421875 
C 28.203125 42.015625 27.296875 41.015625 27 40.625 
C 23.796875 44 19.296875 44 17.59375 44 
C 6.5 44 2.5 38.171875 2.5 32.375 
C 2.5 23.34375 12.703125 21.25 15.59375 20.640625 
C 21.90625 19.34375 24.09375 18.9375 26.203125 17.125 
C 27.5 15.9375 29.703125 13.734375 29.703125 10.125 
C 29.703125 5.90625 27.296875 0.5 18.09375 0.5 
C 9.40625 0.5 6.296875 7.0625 4.5 15.828125 
C 4.203125 17.21875 4.203125 17.328125 3.40625 17.328125 
C 2.59375 17.328125 2.5 17.21875 2.5 15.234375 
L 2.5 0.890625 
C 2.5 -0.890625 2.59375 -1 3.203125 -1 
C 3.703125 -1 3.796875 -0.890625 4.296875 -0.09375 
C 4.90625 0.796875 6.40625 3.1875 7 4.1875 
C 9 1.546875 12.5 -1 18.09375 -1 
C 28 -1 33.296875 4.40625 33.296875 12.234375 
C 33.296875 17.34375 30.59375 20.0625 29.296875 21.25 
C 26.296875 24.375 22.796875 25.0625 18.59375 25.859375 
C 13.09375 27.078125 6.09375 28.46875 6.09375 34.59375 
C 6.09375 37.1875 7.5 42.71875 17.59375 42.71875 
C 28.296875 42.71875 28.90625 32.75 29.09375 29.5625 
C 29.203125 29.078125 29.703125 28.96875 30 28.96875 
C 30.90625 28.96875 30.90625 29.28125 30.90625 30.96875 
z
" id="CMR17-115"/>
    </defs>
    <g transform="translate(254.758949 23.2533)scale(0.18 -0.18)">
     <use transform="scale(0.996264)" xlink:href="#CMR17-65"/>
     <use transform="translate(66.469976 0)scale(0.996264)" xlink:href="#CMR17-67"/>
     <use transform="translate(132.979856 0)scale(0.996264)" xlink:href="#CMR17-84"/>
     <use transform="translate(199.489737 0)scale(0.996264)" xlink:href="#CMR17-80"/>
     <use transform="translate(259.473584 0)scale(0.996264)" xlink:href="#CMR17-111"/>
     <use transform="translate(305.164061 0)scale(0.996264)" xlink:href="#CMR17-108"/>
     <use transform="translate(360.111086 0)scale(0.996264)" xlink:href="#CMR17-70"/>
     <use transform="translate(420.094932 0)scale(0.996264)" xlink:href="#CMR17-105"/>
     <use transform="translate(444.965991 0)scale(0.996264)" xlink:href="#CMR17-108"/>
     <use transform="translate(469.837049 0)scale(0.996264)" xlink:href="#CMR17-116"/>
     <use transform="translate(505.117817 0)scale(0.996264)" xlink:href="#CMR17-101"/>
     <use transform="translate(545.603477 0)scale(0.996264)" xlink:href="#CMR17-114"/>
     <use transform="translate(580.884245 0)scale(0.996264)" xlink:href="#CMR17-115"/>
    </g>
   </g>
   <g id="line2d_29">
    <path clip-path="url(#p453956417a)" d="M 305.699965 47.887904 
L 313.523382 427.529848 
" style="fill:none;opacity:0.2;stroke:#000000;stroke-linecap:square;stroke-width:0.2;"/>
   </g>
   <g id="line2d_30">
    <path clip-path="url(#p453956417a)" d="M 291.899234 50.201522 
L 341.473093 411.837462 
" style="fill:none;opacity:0.2;stroke:#000000;stroke-linecap:square;stroke-width:0.2;"/>
   </g>
   <g id="line2d_31">
    <path clip-path="url(#p453956417a)" d="M 312.943729 47.790719 
L 314.971647 427.389232 
" style="fill:none;opacity:0.2;stroke:#000000;stroke-linecap:square;stroke-width:0.2;"/>
   </g>
   <g id="line2d_32">
    <path clip-path="url(#p453956417a)" d="M 334.188907 51.995122 
L 321.489155 426.09409 
" style="fill:none;opacity:0.2;stroke:#000000;stroke-linecap:square;stroke-width:0.2;"/>
   </g>
   <g id="line2d_33">
    <path clip-path="url(#p453956417a)" d="M 330.749231 50.823752 
L 339.529532 414.50597 
" style="fill:none;opacity:0.2;stroke:#000000;stroke-linecap:square;stroke-width:0.2;"/>
   </g>
   <g id="line2d_34">
    <path clip-path="url(#p453956417a)" d="M 277.202635 56.2166 
L 332.043488 421.257891 
" style="fill:none;opacity:0.2;stroke:#000000;stroke-linecap:square;stroke-width:0.2;"/>
   </g>
   <g id="line2d_35">
    <path clip-path="url(#p453956417a)" d="M 287.250557 51.661813 
L 325.598442 424.668676 
" style="fill:none;opacity:0.2;stroke:#000000;stroke-linecap:square;stroke-width:0.2;"/>
   </g>
   <g id="line2d_36">
    <path clip-path="url(#p453956417a)" d="M 344.771571 57.059353 
L 274.641139 399.783391 
" style="fill:none;opacity:0.2;stroke:#000000;stroke-linecap:square;stroke-width:0.2;"/>
   </g>
   <g id="line2d_37">
    <path clip-path="url(#p453956417a)" d="M 348.475374 59.460669 
L 295.738138 424.992782 
" style="fill:none;opacity:0.2;stroke:#000000;stroke-linecap:square;stroke-width:0.2;"/>
   </g>
   <g id="line2d_38">
    <path clip-path="url(#p453956417a)" d="M 360.921525 71.335645 
L 285.190227 418.785689 
" style="fill:none;opacity:0.2;stroke:#000000;stroke-linecap:square;stroke-width:0.2;"/>
   </g>
   <g id="line2d_39">
    <path clip-path="url(#p453956417a)" d="M 362.190832 73.071559 
L 274.563556 399.032944 
" style="fill:none;opacity:0.2;stroke:#000000;stroke-linecap:square;stroke-width:0.2;"/>
   </g>
   <g id="line2d_40">
    <path clip-path="url(#p453956417a)" d="M 306.894558 47.82022 
L 303.896477 427.164972 
" style="fill:none;opacity:0.2;stroke:#000000;stroke-linecap:square;stroke-width:0.2;"/>
   </g>
   <g id="line2d_41">
    <path clip-path="url(#p453956417a)" d="M 274.968532 57.534558 
L 309.493668 427.651793 
" style="fill:none;opacity:0.2;stroke:#000000;stroke-linecap:square;stroke-width:0.2;"/>
   </g>
   <g id="line2d_42">
    <path clip-path="url(#p453956417a)" d="M 321.2815 48.612881 
L 333.591771 420.169016 
" style="fill:none;opacity:0.2;stroke:#000000;stroke-linecap:square;stroke-width:0.2;"/>
   </g>
   <g id="line2d_43">
    <path clip-path="url(#p453956417a)" d="M 356.938432 66.693185 
L 283.129698 416.881026 
" style="fill:none;opacity:0.2;stroke:#000000;stroke-linecap:square;stroke-width:0.2;"/>
   </g>
   <g id="line2d_44">
    <path clip-path="url(#p453956417a)" d="M 325.064789 49.326411 
L 306.667854 427.502352 
" style="fill:none;opacity:0.2;stroke:#000000;stroke-linecap:square;stroke-width:0.2;"/>
   </g>
   <g id="line2d_45">
    <path clip-path="url(#p453956417a)" d="M 357.704447 67.506797 
L 295.570569 424.927916 
" style="fill:none;opacity:0.2;stroke:#000000;stroke-linecap:square;stroke-width:0.2;"/>
   </g>
   <g id="line2d_46">
    <path clip-path="url(#p453956417a)" d="M 333.323934 51.680731 
L 289.230933 421.744646 
" style="fill:none;opacity:0.2;stroke:#000000;stroke-linecap:square;stroke-width:0.2;"/>
   </g>
   <g id="line2d_47">
    <path clip-path="url(#p453956417a)" d="M 268.183959 62.412663 
L 315.454198 427.330846 
" style="fill:none;opacity:0.2;stroke:#000000;stroke-linecap:square;stroke-width:0.2;"/>
   </g>
   <g id="line2d_48">
    <path clip-path="url(#p453956417a)" d="M 314.135621 47.846552 
L 327.621184 423.768671 
" style="fill:none;opacity:0.2;stroke:#000000;stroke-linecap:square;stroke-width:0.2;"/>
   </g>
   <g id="line2d_49">
    <path clip-path="url(#p453956417a)" d="M 343.93457 56.567479 
L 315.289649 427.351407 
" style="fill:none;opacity:0.2;stroke:#000000;stroke-linecap:square;stroke-width:0.2;"/>
   </g>
   <g id="line2d_50">
    <path clip-path="url(#p453956417a)" d="M 281.168134 54.168702 
L 307.072279 427.535681 
" style="fill:none;opacity:0.2;stroke:#000000;stroke-linecap:square;stroke-width:0.2;"/>
   </g>
   <g id="line2d_51">
    <path clip-path="url(#p453956417a)" d="M 325.746654 49.478527 
L 336.682968 417.572742 
" style="fill:none;opacity:0.2;stroke:#000000;stroke-linecap:square;stroke-width:0.2;"/>
   </g>
   <g id="line2d_52">
    <path clip-path="url(#p453956417a)" d="M 252.852282 83.184619 
L 320.263421 426.423817 
" style="fill:none;opacity:0.2;stroke:#000000;stroke-linecap:square;stroke-width:0.2;"/>
   </g>
   <g id="line2d_53">
    <path clip-path="url(#p453956417a)" d="M 301.831476 48.248559 
L 338.379306 415.842531 
" style="fill:none;opacity:0.2;stroke:#000000;stroke-linecap:square;stroke-width:0.2;"/>
   </g>
   <g id="line2d_54">
    <path clip-path="url(#p453956417a)" d="M 269.706897 61.187796 
L 333.40701 420.305583 
" style="fill:none;opacity:0.2;stroke:#000000;stroke-linecap:square;stroke-width:0.2;"/>
   </g>
   <g id="line2d_55">
    <path clip-path="url(#p453956417a)" d="M 265.458851 64.831383 
L 327.559475 423.798242 
" style="fill:none;opacity:0.2;stroke:#000000;stroke-linecap:square;stroke-width:0.2;"/>
   </g>
   <g id="line2d_56">
    <path clip-path="url(#p453956417a)" d="M 323.385611 48.982677 
L 314.363091 427.45462 
" style="fill:none;opacity:0.2;stroke:#000000;stroke-linecap:square;stroke-width:0.2;"/>
   </g>
   <g id="line2d_57">
    <path clip-path="url(#p453956417a)" d="M 282.393684 53.604956 
L 332.381825 421.030397 
" style="fill:none;opacity:0.2;stroke:#000000;stroke-linecap:square;stroke-width:0.2;"/>
   </g>
   <g id="line2d_58">
    <path clip-path="url(#p453956417a)" d="M 300.400359 48.437407 
L 339.029194 415.105869 
" style="fill:none;opacity:0.2;stroke:#000000;stroke-linecap:square;stroke-width:0.2;"/>
   </g>
   <g id="line2d_59">
    <path clip-path="url(#p453956417a)" d="M 276.651778 56.529942 
L 333.703686 420.085375 
" style="fill:none;opacity:0.2;stroke:#000000;stroke-linecap:square;stroke-width:0.2;"/>
   </g>
   <g id="line2d_60">
    <path clip-path="url(#p453956417a)" d="M 276.938259 56.366059 
L 336.896805 417.368336 
" style="fill:none;opacity:0.2;stroke:#000000;stroke-linecap:square;stroke-width:0.2;"/>
   </g>
   <g id="line2d_61">
    <path clip-path="url(#p453956417a)" d="M 287.091099 51.718596 
L 340.109485 413.770646 
" style="fill:none;opacity:0.2;stroke:#000000;stroke-linecap:square;stroke-width:0.2;"/>
   </g>
   <g id="line2d_62">
    <path clip-path="url(#p453956417a)" d="M 267.861995 62.682627 
L 338.357675 415.866281 
" style="fill:none;opacity:0.2;stroke:#000000;stroke-linecap:square;stroke-width:0.2;"/>
   </g>
   <g id="line2d_63">
    <path clip-path="url(#p453956417a)" d="M 336.914319 53.076979 
L 330.329024 422.328419 
" style="fill:none;opacity:0.2;stroke:#000000;stroke-linecap:square;stroke-width:0.2;"/>
   </g>
   <g id="line2d_64">
    <path clip-path="url(#p453956417a)" d="M 350.83071 61.200533 
L 321.526947 426.083257 
" style="fill:none;opacity:0.2;stroke:#000000;stroke-linecap:square;stroke-width:0.2;"/>
   </g>
   <g id="line2d_65">
    <path clip-path="url(#p453956417a)" d="M 267.808765 62.727645 
L 336.916172 417.349641 
" style="fill:none;opacity:0.2;stroke:#000000;stroke-linecap:square;stroke-width:0.2;"/>
   </g>
   <g id="line2d_66">
    <path clip-path="url(#p453956417a)" d="M 336.534196 52.917555 
L 279.907846 413.092665 
" style="fill:none;opacity:0.2;stroke:#000000;stroke-linecap:square;stroke-width:0.2;"/>
   </g>
   <g id="line2d_67">
    <path clip-path="url(#p453956417a)" d="M 313.757405 47.82663 
L 282.491068 416.220179 
" style="fill:none;opacity:0.2;stroke:#000000;stroke-linecap:square;stroke-width:0.2;"/>
   </g>
   <g id="line2d_68">
    <path clip-path="url(#p453956417a)" d="M 255.547587 77.515448 
L 333.440412 420.281032 
" style="fill:none;opacity:0.2;stroke:#000000;stroke-linecap:square;stroke-width:0.2;"/>
   </g>
   <g id="line2d_69">
    <path clip-path="url(#p453956417a)" d="M 304.269761 47.995951 
L 345.816405 400.284715 
" style="fill:none;opacity:0.2;stroke:#000000;stroke-linecap:square;stroke-width:0.2;"/>
   </g>
   <g id="line2d_70">
    <path clip-path="url(#p453956417a)" d="M 331.042341 50.915486 
L 312.839309 427.578356 
" style="fill:none;opacity:0.2;stroke:#000000;stroke-linecap:square;stroke-width:0.2;"/>
   </g>
   <g id="line2d_71">
    <path clip-path="url(#p453956417a)" d="M 286.21528 52.03871 
L 301.460657 426.70744 
" style="fill:none;opacity:0.2;stroke:#000000;stroke-linecap:square;stroke-width:0.2;"/>
   </g>
   <g id="line2d_72">
    <path clip-path="url(#p453956417a)" d="M 255.982747 76.749001 
L 345.82837 400.195983 
" style="fill:none;opacity:0.2;stroke:#000000;stroke-linecap:square;stroke-width:0.2;"/>
   </g>
   <g id="line2d_73">
    <path clip-path="url(#p453956417a)" d="M 271.124116 60.120253 
L 311.41255 427.642852 
" style="fill:none;opacity:0.2;stroke:#000000;stroke-linecap:square;stroke-width:0.2;"/>
   </g>
   <g id="line2d_74">
    <path clip-path="url(#p453956417a)" d="M 292.135824 50.136973 
L 289.121351 421.675474 
" style="fill:none;opacity:0.2;stroke:#000000;stroke-linecap:square;stroke-width:0.2;"/>
   </g>
   <g id="line2d_75">
    <path clip-path="url(#p453956417a)" d="M 296.149163 49.179316 
L 345.105039 403.773024 
" style="fill:none;opacity:0.2;stroke:#000000;stroke-linecap:square;stroke-width:0.2;"/>
   </g>
   <g id="line2d_76">
    <path clip-path="url(#p453956417a)" d="M 365.957465 79.376073 
L 278.786606 411.427081 
" style="fill:none;opacity:0.2;stroke:#000000;stroke-linecap:square;stroke-width:0.2;"/>
   </g>
   <g id="line2d_77">
    <path clip-path="url(#p453956417a)" d="M 289.873269 50.792396 
L 300.00293 426.358682 
" style="fill:none;opacity:0.2;stroke:#000000;stroke-linecap:square;stroke-width:0.2;"/>
   </g>
   <g id="line2d_78">
    <path clip-path="url(#p453956417a)" d="M 253.255901 82.20333 
L 344.287966 406.289931 
" style="fill:none;opacity:0.2;stroke:#000000;stroke-linecap:square;stroke-width:0.2;"/>
   </g>
   <g id="line2d_79">
    <path clip-path="url(#p453956417a)" d="M 338.39986 53.727544 
L 315.053148 427.379777 
" style="fill:none;opacity:0.2;stroke:#000000;stroke-linecap:square;stroke-width:0.2;"/>
   </g>
   <g id="line2d_80">
    <path clip-path="url(#p453956417a)" d="M 369.711414 89.600052 
L 286.402526 419.769024 
" style="fill:none;opacity:0.2;stroke:#000000;stroke-linecap:square;stroke-width:0.2;"/>
   </g>
   <g id="line2d_81">
    <path clip-path="url(#p453956417a)" d="M 341.327915 55.144311 
L 293.035404 423.833358 
" style="fill:none;opacity:0.2;stroke:#000000;stroke-linecap:square;stroke-width:0.2;"/>
   </g>
   <g id="line2d_82">
    <path clip-path="url(#p453956417a)" d="M 322.167326 48.760391 
L 295.508229 424.903556 
" style="fill:none;opacity:0.2;stroke:#000000;stroke-linecap:square;stroke-width:0.2;"/>
   </g>
   <g id="line2d_83">
    <path clip-path="url(#p453956417a)" d="M 268.521488 62.133881 
L 333.681063 420.102339 
" style="fill:none;opacity:0.2;stroke:#000000;stroke-linecap:square;stroke-width:0.2;"/>
   </g>
   <g id="line2d_84">
    <path clip-path="url(#p453956417a)" d="M 339.613976 54.292759 
L 306.141792 427.452984 
" style="fill:none;opacity:0.2;stroke:#000000;stroke-linecap:square;stroke-width:0.2;"/>
   </g>
   <g id="line2d_85">
    <path clip-path="url(#p453956417a)" d="M 299.028935 48.646911 
L 324.934609 424.934165 
" style="fill:none;opacity:0.2;stroke:#000000;stroke-linecap:square;stroke-width:0.2;"/>
   </g>
   <g id="line2d_86">
    <path clip-path="url(#p453956417a)" d="M 348.18257 59.256603 
L 295.505097 424.902329 
" style="fill:none;opacity:0.2;stroke:#000000;stroke-linecap:square;stroke-width:0.2;"/>
   </g>
   <g id="line2d_87">
    <path clip-path="url(#p453956417a)" d="M 255.324044 77.921816 
L 333.192204 420.462022 
" style="fill:none;opacity:0.2;stroke:#000000;stroke-linecap:square;stroke-width:0.2;"/>
   </g>
   <g id="line2d_88">
    <path clip-path="url(#p453956417a)" d="M 265.51586 64.777494 
L 328.408666 423.379064 
" style="fill:none;opacity:0.2;stroke:#000000;stroke-linecap:square;stroke-width:0.2;"/>
   </g>
   <g id="line2d_89">
    <path clip-path="url(#p453956417a)" d="M 249.772602 95.634217 
L 335.478055 418.660011 
" style="fill:none;opacity:0.2;stroke:#000000;stroke-linecap:square;stroke-width:0.2;"/>
   </g>
   <g id="line2d_90">
    <path clip-path="url(#p453956417a)" d="M 370.557066 94.057776 
L 288.322035 421.153898 
" style="fill:none;opacity:0.2;stroke:#000000;stroke-linecap:square;stroke-width:0.2;"/>
   </g>
   <g id="line2d_91">
    <path clip-path="url(#p453956417a)" d="M 369.745105 89.740804 
L 285.139212 418.742255 
" style="fill:none;opacity:0.2;stroke:#000000;stroke-linecap:square;stroke-width:0.2;"/>
   </g>
   <g id="line2d_92">
    <path clip-path="url(#p453956417a)" d="M 283.394084 53.167475 
L 328.042511 423.563071 
" style="fill:none;opacity:0.2;stroke:#000000;stroke-linecap:square;stroke-width:0.2;"/>
   </g>
   <g id="line2d_93">
    <path clip-path="url(#p453956417a)" d="M 352.843424 62.838881 
L 274.743095 400.55491 
" style="fill:none;opacity:0.2;stroke:#000000;stroke-linecap:square;stroke-width:0.2;"/>
   </g>
   <g id="line2d_94">
    <path clip-path="url(#p453956417a)" d="M 316.96186 48.060614 
L 293.15806 423.891402 
" style="fill:none;opacity:0.2;stroke:#000000;stroke-linecap:square;stroke-width:0.2;"/>
   </g>
   <g id="line2d_95">
    <path clip-path="url(#p453956417a)" d="M 307.624513 47.788933 
L 326.261268 424.389166 
" style="fill:none;opacity:0.2;stroke:#000000;stroke-linecap:square;stroke-width:0.2;"/>
   </g>
   <g id="line2d_96">
    <path clip-path="url(#p453956417a)" d="M 345.883867 57.740877 
L 297.265988 425.54389 
" style="fill:none;opacity:0.2;stroke:#000000;stroke-linecap:square;stroke-width:0.2;"/>
   </g>
   <g id="line2d_97">
    <path clip-path="url(#p453956417a)" d="M 303.901983 48.028514 
L 334.123144 419.76558 
" style="fill:none;opacity:0.2;stroke:#000000;stroke-linecap:square;stroke-width:0.2;"/>
   </g>
   <g id="line2d_98">
    <path clip-path="url(#p453956417a)" d="M 307.294442 47.802136 
L 278.950123 411.685383 
" style="fill:none;opacity:0.2;stroke:#000000;stroke-linecap:square;stroke-width:0.2;"/>
   </g>
   <g id="line2d_99">
    <path clip-path="url(#p453956417a)" d="M 266.120541 64.215017 
L 319.766197 426.545787 
" style="fill:none;opacity:0.2;stroke:#000000;stroke-linecap:square;stroke-width:0.2;"/>
   </g>
   <g id="line2d_100">
    <path clip-path="url(#p453956417a)" d="M 279.07954 55.203132 
L 312.185318 427.61406 
" style="fill:none;opacity:0.2;stroke:#000000;stroke-linecap:square;stroke-width:0.2;"/>
   </g>
   <g id="line2d_101">
    <path clip-path="url(#p453956417a)" d="M 259.755024 71.133141 
L 344.880507 404.551257 
" style="fill:none;opacity:0.2;stroke:#000000;stroke-linecap:square;stroke-width:0.2;"/>
   </g>
   <g id="line2d_102">
    <path clip-path="url(#p453956417a)" d="M 250.114937 93.055159 
L 337.371505 416.901149 
" style="fill:none;opacity:0.2;stroke:#000000;stroke-linecap:square;stroke-width:0.2;"/>
   </g>
   <g id="line2d_103">
    <path clip-path="url(#p453956417a)" d="M 329.269979 50.383043 
L 335.120133 418.963389 
" style="fill:none;opacity:0.2;stroke:#000000;stroke-linecap:square;stroke-width:0.2;"/>
   </g>
   <g id="line2d_104">
    <path clip-path="url(#p453956417a)" d="M 271.561074 59.804271 
L 305.80401 427.417686 
" style="fill:none;opacity:0.2;stroke:#000000;stroke-linecap:square;stroke-width:0.2;"/>
   </g>
   <g id="line2d_105">
    <path clip-path="url(#p453956417a)" d="M 345.399758 57.440265 
L 274.494525 398.061597 
" style="fill:none;opacity:0.2;stroke:#000000;stroke-linecap:square;stroke-width:0.2;"/>
   </g>
   <g id="line2d_106">
    <path clip-path="url(#p453956417a)" d="M 349.342988 60.08079 
L 297.657249 425.673636 
" style="fill:none;opacity:0.2;stroke:#000000;stroke-linecap:square;stroke-width:0.2;"/>
   </g>
   <g id="line2d_107">
    <path clip-path="url(#p453956417a)" d="M 308.502833 47.761389 
L 312.208827 427.612957 
" style="fill:none;opacity:0.2;stroke:#000000;stroke-linecap:square;stroke-width:0.2;"/>
   </g>
   <g id="line2d_108">
    <path clip-path="url(#p453956417a)" d="M 304.026282 48.017289 
L 337.433432 416.838788 
" style="fill:none;opacity:0.2;stroke:#000000;stroke-linecap:square;stroke-width:0.2;"/>
   </g>
   <g id="line2d_109">
    <path clip-path="url(#p453956417a)" d="M 298.566745 48.723867 
L 301.651885 426.748961 
" style="fill:none;opacity:0.2;stroke:#000000;stroke-linecap:square;stroke-width:0.2;"/>
   </g>
   <g id="line2d_110">
    <path clip-path="url(#p453956417a)" d="M 269.092232 61.672073 
L 301.052374 426.615533 
" style="fill:none;opacity:0.2;stroke:#000000;stroke-linecap:square;stroke-width:0.2;"/>
   </g>
   <g id="line2d_111">
    <path clip-path="url(#p453956417a)" d="M 276.696063 56.504477 
L 302.418785 426.905796 
" style="fill:none;opacity:0.2;stroke:#000000;stroke-linecap:square;stroke-width:0.2;"/>
   </g>
   <g id="line2d_112">
    <path clip-path="url(#p453956417a)" d="M 315.412944 47.929026 
L 294.419895 424.457955 
" style="fill:none;opacity:0.2;stroke:#000000;stroke-linecap:square;stroke-width:0.2;"/>
   </g>
   <g id="line2d_113">
    <path clip-path="url(#p453956417a)" d="M 282.055073 53.757614 
L 307.876343 427.590059 
" style="fill:none;opacity:0.2;stroke:#000000;stroke-linecap:square;stroke-width:0.2;"/>
   </g>
   <g id="line2d_114">
    <path clip-path="url(#p453956417a)" d="M 362.228847 73.125939 
L 314.397049 427.451213 
" style="fill:none;opacity:0.2;stroke:#000000;stroke-linecap:square;stroke-width:0.2;"/>
   </g>
   <g id="line2d_115">
    <path clip-path="url(#p453956417a)" d="M 266.809036 63.594138 
L 312.865972 427.57668 
" style="fill:none;opacity:0.2;stroke:#000000;stroke-linecap:square;stroke-width:0.2;"/>
   </g>
   <g id="line2d_116">
    <path clip-path="url(#p453956417a)" d="M 324.867705 49.283801 
L 295.471176 424.889018 
" style="fill:none;opacity:0.2;stroke:#000000;stroke-linecap:square;stroke-width:0.2;"/>
   </g>
   <g id="line2d_117">
    <path clip-path="url(#p453956417a)" d="M 343.199497 56.149827 
L 291.092649 422.839471 
" style="fill:none;opacity:0.2;stroke:#000000;stroke-linecap:square;stroke-width:0.2;"/>
   </g>
   <g id="line2d_118">
    <path clip-path="url(#p453956417a)" d="M 259.109283 71.988687 
L 320.964317 426.240387 
" style="fill:none;opacity:0.2;stroke:#000000;stroke-linecap:square;stroke-width:0.2;"/>
   </g>
   <g id="line2d_119">
    <path clip-path="url(#p453956417a)" d="M 359.201007 69.198271 
L 313.416941 427.538148 
" style="fill:none;opacity:0.2;stroke:#000000;stroke-linecap:square;stroke-width:0.2;"/>
   </g>
   <g id="line2d_120">
    <path clip-path="url(#p453956417a)" d="M 367.294124 82.271367 
L 296.692252 425.345337 
" style="fill:none;opacity:0.2;stroke:#000000;stroke-linecap:square;stroke-width:0.2;"/>
   </g>
   <g id="line2d_121">
    <path clip-path="url(#p453956417a)" d="M 370.965159 98.748536 
L 300.258327 426.423949 
" style="fill:none;opacity:0.2;stroke:#000000;stroke-linecap:square;stroke-width:0.2;"/>
   </g>
   <g id="line2d_122">
    <path clip-path="url(#p453956417a)" d="M 345.816686 57.698787 
L 277.408766 408.974186 
" style="fill:none;opacity:0.2;stroke:#000000;stroke-linecap:square;stroke-width:0.2;"/>
   </g>
   <g id="line2d_123">
    <path clip-path="url(#p453956417a)" d="M 329.561975 50.46712 
L 315.436125 427.333137 
" style="fill:none;opacity:0.2;stroke:#000000;stroke-linecap:square;stroke-width:0.2;"/>
   </g>
   <g id="line2d_124">
    <path clip-path="url(#p453956417a)" d="M 256.934551 75.173383 
L 329.390498 422.86035 
" style="fill:none;opacity:0.2;stroke:#000000;stroke-linecap:square;stroke-width:0.2;"/>
   </g>
   <g id="line2d_125">
    <path clip-path="url(#p453956417a)" d="M 282.523187 53.547189 
L 305.486246 427.381899 
" style="fill:none;opacity:0.2;stroke:#000000;stroke-linecap:square;stroke-width:0.2;"/>
   </g>
   <g id="line2d_126">
    <path clip-path="url(#p453956417a)" d="M 303.44511 48.071697 
L 298.667993 425.988039 
" style="fill:none;opacity:0.2;stroke:#000000;stroke-linecap:square;stroke-width:0.2;"/>
   </g>
   <g id="line2d_127">
    <path clip-path="url(#p453956417a)" d="M 320.296091 48.462612 
L 324.341304 425.159544 
" style="fill:none;opacity:0.2;stroke:#000000;stroke-linecap:square;stroke-width:0.2;"/>
   </g>
   <g id="line2d_128">
    <path clip-path="url(#p453956417a)" d="M 358.639723 68.547145 
L 278.329343 410.671966 
" style="fill:none;opacity:0.2;stroke:#000000;stroke-linecap:square;stroke-width:0.2;"/>
   </g>
   <g id="line2d_129">
    <path clip-path="url(#p453956417a)" d="M 334.437778 52.088113 
L 324.273526 425.184589 
" style="fill:none;opacity:0.2;stroke:#000000;stroke-linecap:square;stroke-width:0.2;"/>
   </g>
   <g id="line2d_130">
    <path clip-path="url(#p453956417a)" d="M 329.339938 50.403057 
L 297.026308 425.462153 
" style="fill:none;opacity:0.2;stroke:#000000;stroke-linecap:square;stroke-width:0.2;"/>
   </g>
   <g id="line2d_131">
    <path clip-path="url(#p453956417a)" d="M 316.907269 48.055385 
L 311.975778 427.623299 
" style="fill:none;opacity:0.2;stroke:#000000;stroke-linecap:square;stroke-width:0.2;"/>
   </g>
   <g id="line2d_132">
    <path clip-path="url(#p453956417a)" d="M 361.345527 71.899002 
L 297.404253 425.59026 
" style="fill:none;opacity:0.2;stroke:#000000;stroke-linecap:square;stroke-width:0.2;"/>
   </g>
   <g id="line2d_133">
    <path clip-path="url(#p453956417a)" d="M 249.866393 94.805458 
L 336.225941 417.997672 
" style="fill:none;opacity:0.2;stroke:#000000;stroke-linecap:square;stroke-width:0.2;"/>
   </g>
   <g id="line2d_134">
    <path clip-path="url(#p453956417a)" d="M 310.999458 47.743241 
L 313.472339 427.533863 
" style="fill:none;opacity:0.2;stroke:#000000;stroke-linecap:square;stroke-width:0.2;"/>
   </g>
   <g id="line2d_135">
    <path clip-path="url(#p453956417a)" d="M 263.33475 66.953024 
L 328.817329 423.167708 
" style="fill:none;opacity:0.2;stroke:#000000;stroke-linecap:square;stroke-width:0.2;"/>
   </g>
   <g id="line2d_136">
    <path clip-path="url(#p453956417a)" d="M 275.092397 57.45814 
L 301.05768 426.616756 
" style="fill:none;opacity:0.2;stroke:#000000;stroke-linecap:square;stroke-width:0.2;"/>
   </g>
   <g id="line2d_137">
    <path clip-path="url(#p453956417a)" d="M 337.349906 53.26316 
L 317.094794 427.088607 
" style="fill:none;opacity:0.2;stroke:#000000;stroke-linecap:square;stroke-width:0.2;"/>
   </g>
   <g id="line2d_138">
    <path clip-path="url(#p453956417a)" d="M 267.954837 62.60437 
L 343.319843 408.551007 
" style="fill:none;opacity:0.2;stroke:#000000;stroke-linecap:square;stroke-width:0.2;"/>
   </g>
   <g id="line2d_139">
    <path clip-path="url(#p453956417a)" d="M 275.517413 57.198983 
L 344.464532 405.809409 
" style="fill:none;opacity:0.2;stroke:#000000;stroke-linecap:square;stroke-width:0.2;"/>
   </g>
   <g id="line2d_140">
    <path clip-path="url(#p453956417a)" d="M 358.347026 68.215748 
L 284.351544 418.048894 
" style="fill:none;opacity:0.2;stroke:#000000;stroke-linecap:square;stroke-width:0.2;"/>
   </g>
   <g id="line2d_141">
    <path clip-path="url(#p453956417a)" d="M 296.464122 49.114901 
L 303.253709 427.059128 
" style="fill:none;opacity:0.2;stroke:#000000;stroke-linecap:square;stroke-width:0.2;"/>
   </g>
   <g id="line2d_142">
    <path clip-path="url(#p453956417a)" d="M 255.833611 77.008155 
L 343.345319 408.497794 
" style="fill:none;opacity:0.2;stroke:#000000;stroke-linecap:square;stroke-width:0.2;"/>
   </g>
   <g id="line2d_143">
    <path clip-path="url(#p453956417a)" d="M 288.378802 51.273024 
L 306.766176 427.510824 
" style="fill:none;opacity:0.2;stroke:#000000;stroke-linecap:square;stroke-width:0.2;"/>
   </g>
   <g id="line2d_144">
    <path clip-path="url(#p453956417a)" d="M 370.167306 91.704912 
L 282.327169 416.044405 
" style="fill:none;opacity:0.2;stroke:#000000;stroke-linecap:square;stroke-width:0.2;"/>
   </g>
   <g id="line2d_145">
    <path clip-path="url(#p453956417a)" d="M 358.915276 68.864185 
L 275.673942 404.65961 
" style="fill:none;opacity:0.2;stroke:#000000;stroke-linecap:square;stroke-width:0.2;"/>
   </g>
   <g id="line2d_146">
    <path clip-path="url(#p453956417a)" d="M 258.146629 73.335819 
L 321.10277 426.202543 
" style="fill:none;opacity:0.2;stroke:#000000;stroke-linecap:square;stroke-width:0.2;"/>
   </g>
   <g id="line2d_147">
    <path clip-path="url(#p453956417a)" d="M 318.646969 48.243379 
L 274.797564 400.909568 
" style="fill:none;opacity:0.2;stroke:#000000;stroke-linecap:square;stroke-width:0.2;"/>
   </g>
   <g id="line2d_148">
    <path clip-path="url(#p453956417a)" d="M 301.608393 48.27601 
L 319.242144 426.667114 
" style="fill:none;opacity:0.2;stroke:#000000;stroke-linecap:square;stroke-width:0.2;"/>
   </g>
   <g id="line2d_149">
    <path clip-path="url(#p453956417a)" d="M 291.076773 50.433109 
L 312.61989 427.591496 
" style="fill:none;opacity:0.2;stroke:#000000;stroke-linecap:square;stroke-width:0.2;"/>
   </g>
   <g id="line2d_150">
    <path clip-path="url(#p453956417a)" d="M 262.356414 68.012158 
L 326.152402 424.436082 
" style="fill:none;opacity:0.2;stroke:#000000;stroke-linecap:square;stroke-width:0.2;"/>
   </g>
   <g id="line2d_151">
    <path clip-path="url(#p453956417a)" d="M 268.356672 62.269475 
L 302.679095 426.955536 
" style="fill:none;opacity:0.2;stroke:#000000;stroke-linecap:square;stroke-width:0.2;"/>
   </g>
   <g id="line2d_152">
    <path clip-path="url(#p453956417a)" d="M 338.829348 53.923976 
L 287.487814 420.576082 
" style="fill:none;opacity:0.2;stroke:#000000;stroke-linecap:square;stroke-width:0.2;"/>
   </g>
   <g id="line2d_153">
    <path clip-path="url(#p453956417a)" d="M 327.908942 50.009766 
L 282.579645 416.314093 
" style="fill:none;opacity:0.2;stroke:#000000;stroke-linecap:square;stroke-width:0.2;"/>
   </g>
   <g id="line2d_154">
    <path clip-path="url(#p453956417a)" d="M 294.382008 49.569426 
L 305.880563 427.425933 
" style="fill:none;opacity:0.2;stroke:#000000;stroke-linecap:square;stroke-width:0.2;"/>
   </g>
   <g id="line2d_155">
    <path clip-path="url(#p453956417a)" d="M 297.230745 48.964504 
L 295.734852 424.991518 
" style="fill:none;opacity:0.2;stroke:#000000;stroke-linecap:square;stroke-width:0.2;"/>
   </g>
   <g id="line2d_156">
    <path clip-path="url(#p453956417a)" d="M 344.863712 57.114586 
L 305.208294 427.348539 
" style="fill:none;opacity:0.2;stroke:#000000;stroke-linecap:square;stroke-width:0.2;"/>
   </g>
   <g id="line2d_157">
    <path clip-path="url(#p453956417a)" d="M 326.89974 49.752497 
L 275.956675 405.524531 
" style="fill:none;opacity:0.2;stroke:#000000;stroke-linecap:square;stroke-width:0.2;"/>
   </g>
   <g id="line2d_158">
    <path clip-path="url(#p453956417a)" d="M 303.510296 48.065351 
L 338.373735 415.848652 
" style="fill:none;opacity:0.2;stroke:#000000;stroke-linecap:square;stroke-width:0.2;"/>
   </g>
   <g id="line2d_159">
    <path clip-path="url(#p453956417a)" d="M 300.938179 48.362889 
L 325.040199 424.892886 
" style="fill:none;opacity:0.2;stroke:#000000;stroke-linecap:square;stroke-width:0.2;"/>
   </g>
   <g id="line2d_160">
    <path clip-path="url(#p453956417a)" d="M 249.989112 93.880916 
L 330.398745 422.287434 
" style="fill:none;opacity:0.2;stroke:#000000;stroke-linecap:square;stroke-width:0.2;"/>
   </g>
   <g id="line2d_161">
    <path clip-path="url(#p453956417a)" d="M 257.305443 74.592625 
L 327.422525 423.863377 
" style="fill:none;opacity:0.2;stroke:#000000;stroke-linecap:square;stroke-width:0.2;"/>
   </g>
   <g id="line2d_162">
    <path clip-path="url(#p453956417a)" d="M 251.905827 85.774719 
L 341.474674 411.835026 
" style="fill:none;opacity:0.2;stroke:#000000;stroke-linecap:square;stroke-width:0.2;"/>
   </g>
   <g id="line2d_163">
    <path clip-path="url(#p453956417a)" d="M 344.241684 56.745914 
L 293.011483 423.821974 
" style="fill:none;opacity:0.2;stroke:#000000;stroke-linecap:square;stroke-width:0.2;"/>
   </g>
   <g id="line2d_164">
    <path clip-path="url(#p453956417a)" d="M 294.58903 49.521186 
L 322.558556 425.771772 
" style="fill:none;opacity:0.2;stroke:#000000;stroke-linecap:square;stroke-width:0.2;"/>
   </g>
   <g id="line2d_165">
    <path clip-path="url(#p453956417a)" d="M 344.62005 56.968998 
L 278.136305 410.337258 
" style="fill:none;opacity:0.2;stroke:#000000;stroke-linecap:square;stroke-width:0.2;"/>
   </g>
   <g id="legend_1">
    <g id="patch_88">
     <path d="M 455.597565 138.013442 
L 546.674709 138.013442 
Q 549.474709 138.013442 549.474709 135.213442 
L 549.474709 39.0533 
Q 549.474709 36.2533 546.674709 36.2533 
L 455.597565 36.2533 
Q 452.797565 36.2533 452.797565 39.0533 
L 452.797565 135.213442 
Q 452.797565 138.013442 455.597565 138.013442 
z
" style="fill:#ffffff;opacity:0.8;stroke:#cccccc;stroke-linejoin:miter;"/>
    </g>
    <g id="patch_89">
     <path d="M 458.397565 51.6533 
L 486.397565 51.6533 
L 486.397565 41.8533 
L 458.397565 41.8533 
z
" style="stroke:#000000;stroke-linejoin:miter;"/>
    </g>
    <g id="text_18">
     <!-- \rm{300.0 K} -->
     <defs>
      <path d="M 22.09375 33.703125 
C 31 33.703125 34.90625 25.96875 34.90625 17.03125 
C 34.90625 5 28.5 0.390625 22.703125 0.390625 
C 17.40625 0.390625 8.796875 3.03125 6.09375 10.828125 
C 6.59375 10.625 7.09375 10.625 7.59375 10.625 
C 10 10.625 11.796875 12.21875 11.796875 14.8125 
C 11.796875 17.703125 9.59375 19 7.59375 19 
C 5.90625 19 3.296875 18.203125 3.296875 14.46875 
C 3.296875 5.234375 12.296875 -2 22.90625 -2 
C 34 -2 42.5 6.71875 42.5 16.953125 
C 42.5 26.671875 34.5 33.6875 25 34.796875 
C 32.59375 36.375 39.90625 43.0625 39.90625 52.015625 
C 39.90625 59.6875 32 65.296875 23 65.296875 
C 13.90625 65.296875 5.90625 59.828125 5.90625 52.015625 
C 5.90625 48.59375 8.5 48 9.796875 48 
C 11.90625 48 13.703125 49.296875 13.703125 51.890625 
C 13.703125 54.46875 11.90625 55.765625 9.796875 55.765625 
C 9.40625 55.765625 8.90625 55.765625 8.5 55.5625 
C 11.40625 61.859375 19.296875 63 22.796875 63 
C 26.296875 63 32.90625 61.328125 32.90625 51.875 
C 32.90625 49.109375 32.5 44.1875 29.09375 39.84375 
C 26.09375 36 22.703125 36 19.40625 35.59375 
C 18.90625 35.59375 16.59375 35.59375 16.203125 35.59375 
C 15.5 35.484375 15.09375 35.390625 15.09375 34.59375 
C 15.09375 33.8125 15.203125 33.703125 17.203125 33.703125 
z
" id="CMR17-51"/>
      <path d="M 16.59375 4.078125 
C 16.59375 6.5625 14.59375 8.15625 12.5 8.15625 
C 10.5 8.15625 8.40625 6.5625 8.40625 4.078125 
C 8.40625 1.59375 10.40625 0 12.5 0 
C 14.5 0 16.59375 1.59375 16.59375 4.078125 
" id="CMR17-46"/>
      <path d="M 36.90625 41.734375 
L 54.203125 59.078125 
C 57.796875 62.59375 61.59375 65.40625 67.203125 65.40625 
L 67.203125 68 
C 65.203125 68 62.703125 68 60.703125 68 
C 58 68 53.296875 68 50.703125 68.09375 
L 50.703125 65.5 
C 53.296875 65.3125 53.703125 63.515625 53.703125 62.796875 
C 53.703125 62.109375 53.296875 61.015625 52.90625 60.421875 
L 19.703125 27.15625 
L 19.703125 60.9375 
C 19.703125 65.40625 20.796875 65.40625 27.703125 65.40625 
L 27.703125 68 
C 24.796875 68 19.5 68 16.40625 68 
C 13.296875 68 8 68 5.09375 68 
L 5.09375 65.40625 
C 12 65.40625 13.09375 65.40625 13.09375 60.9375 
L 13.09375 6.96875 
C 13.09375 2.5 12 2.5 5.09375 2.5 
L 5.09375 0 
C 8 0 13.296875 0 16.40625 0 
C 19.5 0 24.796875 0 27.703125 0 
L 27.703125 2.5 
C 20.796875 2.5 19.703125 2.5 19.703125 6.984375 
L 19.703125 24.671875 
L 32.5 37.34375 
L 51.40625 8.390625 
C 52 7.390625 52.703125 6.09375 52.703125 5.09375 
C 52.703125 2.5 49.90625 2.5 48.59375 2.5 
L 48.59375 0 
C 51.796875 0 56.40625 0 59.703125 0 
C 62.09375 0 66.203125 0 68.5 -0.09375 
L 68.5 2.5 
C 63.703125 2.5 62.203125 3.09375 59.203125 7.6875 
z
" id="CMR17-75"/>
     </defs>
     <g transform="translate(497.597565 51.6533)scale(0.14 -0.14)">
      <use transform="scale(0.996264)" xlink:href="#CMR17-51"/>
      <use transform="translate(45.690477 0)scale(0.996264)" xlink:href="#CMR17-48"/>
      <use transform="translate(91.380954 0)scale(0.996264)" xlink:href="#CMR17-48"/>
      <use transform="translate(137.071431 0)scale(0.996264)" xlink:href="#CMR17-46"/>
      <use transform="translate(161.94249 0)scale(0.996264)" xlink:href="#CMR17-48"/>
      <use transform="translate(237.708933 0)scale(0.996264)" xlink:href="#CMR17-75"/>
     </g>
    </g>
    <g id="patch_90">
     <path d="M 458.397565 71.165329 
L 486.397565 71.165329 
L 486.397565 61.365329 
L 458.397565 61.365329 
z
" style="fill:#bfbf00;stroke:#bfbf00;stroke-linejoin:miter;"/>
    </g>
    <g id="text_19">
     <!-- \rm{40.0 K} -->
     <g transform="translate(497.597565 71.165329)scale(0.14 -0.14)">
      <use transform="scale(0.996264)" xlink:href="#CMR17-52"/>
      <use transform="translate(45.690477 0)scale(0.996264)" xlink:href="#CMR17-48"/>
      <use transform="translate(91.380954 0)scale(0.996264)" xlink:href="#CMR17-46"/>
      <use transform="translate(116.252013 0)scale(0.996264)" xlink:href="#CMR17-48"/>
      <use transform="translate(192.018456 0)scale(0.996264)" xlink:href="#CMR17-75"/>
     </g>
    </g>
    <g id="patch_91">
     <path d="M 458.397565 90.677357 
L 486.397565 90.677357 
L 486.397565 80.877357 
L 458.397565 80.877357 
z
" style="fill:#008000;stroke:#008000;stroke-linejoin:miter;"/>
    </g>
    <g id="text_20">
     <!-- \rm{4.0 K} -->
     <g transform="translate(497.597565 90.677357)scale(0.14 -0.14)">
      <use transform="scale(0.996264)" xlink:href="#CMR17-52"/>
      <use transform="translate(45.690477 0)scale(0.996264)" xlink:href="#CMR17-46"/>
      <use transform="translate(70.561536 0)scale(0.996264)" xlink:href="#CMR17-48"/>
      <use transform="translate(146.327979 0)scale(0.996264)" xlink:href="#CMR17-75"/>
     </g>
    </g>
    <g id="patch_92">
     <path d="M 458.397565 110.189385 
L 486.397565 110.189385 
L 486.397565 100.389385 
L 458.397565 100.389385 
z
" style="fill:#00bfbf;stroke:#00bfbf;stroke-linejoin:miter;"/>
    </g>
    <g id="text_21">
     <!-- \rm{1.0 K} -->
     <g transform="translate(497.597565 110.189385)scale(0.14 -0.14)">
      <use transform="scale(0.996264)" xlink:href="#CMR17-49"/>
      <use transform="translate(45.690477 0)scale(0.996264)" xlink:href="#CMR17-46"/>
      <use transform="translate(70.561536 0)scale(0.996264)" xlink:href="#CMR17-48"/>
      <use transform="translate(146.327979 0)scale(0.996264)" xlink:href="#CMR17-75"/>
     </g>
    </g>
    <g id="patch_93">
     <path d="M 458.397565 129.701414 
L 486.397565 129.701414 
L 486.397565 119.901414 
L 458.397565 119.901414 
z
" style="fill:#0000ff;stroke:#0000ff;stroke-linejoin:miter;"/>
    </g>
    <g id="text_22">
     <!-- \rm{0.1 K} -->
     <g transform="translate(497.597565 129.701414)scale(0.14 -0.14)">
      <use transform="scale(0.996264)" xlink:href="#CMR17-48"/>
      <use transform="translate(45.690477 0)scale(0.996264)" xlink:href="#CMR17-46"/>
      <use transform="translate(70.561536 0)scale(0.996264)" xlink:href="#CMR17-49"/>
      <use transform="translate(146.327979 0)scale(0.996264)" xlink:href="#CMR17-75"/>
     </g>
    </g>
   </g>
  </g>
 </g>
 <defs>
  <clipPath id="p453956417a">
   <rect height="426.601099" width="492.428196" x="64.046513" y="29.2533"/>
  </clipPath>
 </defs>
</svg>
