<?xml version="1.0" encoding="utf-8" standalone="no"?>
<!DOCTYPE svg PUBLIC "-//W3C//DTD SVG 1.1//EN"
  "http://www.w3.org/Graphics/SVG/1.1/DTD/svg11.dtd">
<!-- Created with matplotlib (http://matplotlib.org/) -->
<svg height="504pt" version="1.1" viewBox="0 0 576 504" width="576pt" xmlns="http://www.w3.org/2000/svg" xmlns:xlink="http://www.w3.org/1999/xlink">
 <defs>
  <style type="text/css">
*{stroke-linecap:butt;stroke-linejoin:round;}
  </style>
 </defs>
 <g id="figure_1">
  <g id="patch_1">
   <path d="M 0 504 
L 576 504 
L 576 0 
L 0 0 
z
" style="fill:#ffffff;"/>
  </g>
  <g id="axes_1">
   <g id="patch_2">
    <path d="M 64.046513 455.854399 
L 556.474709 455.854399 
L 556.474709 29.2533 
L 64.046513 29.2533 
z
" style="fill:#ffffff;"/>
   </g>
   <g id="matplotlib.axis_1">
    <g id="xtick_1">
     <g id="line2d_1">
      <path clip-path="url(#p6e95aa98bc)" d="M 64.046513 455.854399 
L 64.046513 29.2533 
" style="fill:none;stroke:#b0b0b0;stroke-linecap:square;stroke-width:0.8;"/>
     </g>
     <g id="line2d_2">
      <defs>
       <path d="M 0 0 
L 0 3.5 
" id="m631c3f4988" style="stroke:#000000;stroke-width:0.8;"/>
      </defs>
      <g>
       <use style="stroke:#000000;stroke-width:0.8;" x="64.046513" xlink:href="#m631c3f4988" y="455.854399"/>
      </g>
     </g>
     <g id="text_1">
      <!-- $-1.2$ -->
      <defs>
       <path d="M 66.09375 23 
C 67.5 23 69.40625 23 69.40625 25 
C 69.40625 27 67.5 27 66.09375 27 
L 11.59375 27 
C 10.203125 27 8.296875 27 8.296875 25 
C 8.296875 23 10.203125 23 11.59375 23 
z
" id="CMSY10-0"/>
       <path d="M 26.59375 63.3125 
C 26.59375 65.40625 26.5 65.5 25.09375 65.5 
C 21.203125 61.1875 15.296875 59.796875 9.703125 59.796875 
C 9.40625 59.796875 8.90625 59.796875 8.796875 59.5 
C 8.703125 59.296875 8.703125 59.09375 8.703125 57 
C 11.796875 57 17 57.59375 21 59.984375 
L 21 7.203125 
C 21 3.6875 20.796875 2.5 12.203125 2.5 
L 9.203125 2.5 
L 9.203125 0 
C 14 0 19 0 23.796875 0 
C 28.59375 0 33.59375 0 38.40625 0 
L 38.40625 2.5 
L 35.40625 2.5 
C 26.796875 2.5 26.59375 3.59375 26.59375 7.15625 
z
" id="CMR17-49"/>
       <path d="M 18.40625 4.796875 
C 18.40625 7.6875 16 9.671875 13.59375 9.671875 
C 10.703125 9.671875 8.703125 7.28125 8.703125 4.890625 
C 8.703125 2 11.09375 0 13.5 0 
C 16.40625 0 18.40625 2.390625 18.40625 4.796875 
" id="CMMI12-58"/>
       <path d="M 41.703125 15.453125 
L 39.90625 15.453125 
C 38.90625 8.375 38.09375 7.171875 37.703125 6.5625 
C 37.203125 5.765625 30 5.765625 28.59375 5.765625 
L 9.40625 5.765625 
C 13 9.671875 20 16.75 28.5 24.953125 
C 34.59375 30.734375 41.703125 37.53125 41.703125 47.421875 
C 41.703125 59.21875 32.296875 66 21.796875 66 
C 10.796875 66 4.09375 56.3125 4.09375 47.34375 
C 4.09375 43.4375 7 42.9375 8.203125 42.9375 
C 9.203125 42.9375 12.203125 43.546875 12.203125 47.03125 
C 12.203125 50.109375 9.59375 51 8.203125 51 
C 7.59375 51 7 50.90625 6.59375 50.703125 
C 8.5 59.21875 14.296875 63.40625 20.40625 63.40625 
C 29.09375 63.40625 34.796875 56.515625 34.796875 47.421875 
C 34.796875 38.734375 29.703125 31.25 24 24.75 
L 4.09375 2.28125 
L 4.09375 0 
L 39.296875 0 
z
" id="CMR17-50"/>
      </defs>
      <g transform="translate(49.897105 472.540275)scale(0.14 -0.14)">
       <use transform="scale(0.996264)" xlink:href="#CMSY10-0"/>
       <use transform="translate(77.487468 0)scale(0.996264)" xlink:href="#CMR17-49"/>
       <use transform="translate(123.177945 0)scale(0.996264)" xlink:href="#CMMI12-58"/>
       <use transform="translate(150.275122 0)scale(0.996264)" xlink:href="#CMR17-50"/>
      </g>
     </g>
    </g>
    <g id="xtick_2">
     <g id="line2d_3">
      <path clip-path="url(#p6e95aa98bc)" d="M 146.117879 455.854399 
L 146.117879 29.2533 
" style="fill:none;stroke:#b0b0b0;stroke-linecap:square;stroke-width:0.8;"/>
     </g>
     <g id="line2d_4">
      <g>
       <use style="stroke:#000000;stroke-width:0.8;" x="146.117879" xlink:href="#m631c3f4988" y="455.854399"/>
      </g>
     </g>
     <g id="text_2">
      <!-- $-0.8$ -->
      <defs>
       <path d="M 42 31.640625 
C 42 37.75 41.90625 48.125 37.703125 56.109375 
C 34 63.109375 28.09375 65.59375 22.90625 65.59375 
C 18.09375 65.59375 12 63.40625 8.203125 56.203125 
C 4.203125 48.71875 3.796875 39.4375 3.796875 31.640625 
C 3.796875 25.953125 3.90625 17.28125 7 9.671875 
C 11.296875 -0.609375 19 -2 22.90625 -2 
C 27.5 -2 34.5 -0.109375 38.59375 9.375 
C 41.59375 16.28125 42 24.359375 42 31.640625 
M 22.90625 -0.40625 
C 16.5 -0.40625 12.703125 5.078125 11.296875 12.6875 
C 10.203125 18.5625 10.203125 27.15625 10.203125 32.75 
C 10.203125 40.4375 10.203125 46.828125 11.5 52.921875 
C 13.40625 61.390625 19 64 22.90625 64 
C 27 64 32.296875 61.296875 34.203125 53.125 
C 35.5 47.4375 35.59375 40.734375 35.59375 32.75 
C 35.59375 26.25 35.59375 18.265625 34.40625 12.375 
C 32.296875 1.484375 26.40625 -0.40625 22.90625 -0.40625 
" id="CMR17-48"/>
       <path d="M 27.203125 35.375 
C 33.5 38.5625 39.90625 43.328125 39.90625 50.984375 
C 39.90625 60.03125 31.09375 65.296875 23 65.296875 
C 13.90625 65.296875 5.90625 58.734375 5.90625 49.6875 
C 5.90625 47.203125 6.5 42.921875 10.40625 39.140625 
C 11.40625 38.15625 15.59375 35.171875 18.296875 33.28125 
C 13.796875 30.984375 3.296875 25.53125 3.296875 14.59375 
C 3.296875 4.359375 13.09375 -2 22.796875 -2 
C 33.5 -2 42.5 5.65625 42.5 15.796875 
C 42.5 24.84375 36.40625 29.03125 32.40625 31.703125 
C 31 32.6875 30.203125 33.1875 27.203125 35.375 
M 14.09375 44.125 
C 13.296875 44.625 9.296875 47.703125 9.296875 52.375 
C 9.296875 58.4375 15.59375 63 22.796875 63 
C 30.703125 63 36.5 57.453125 36.5 50.984375 
C 36.5 41.734375 26.09375 36.46875 25.59375 36.46875 
C 25.5 36.46875 25.40625 36.46875 24.59375 37.078125 
z
M 32.5 23.734375 
C 34 22.640625 38.796875 19.375 38.796875 13.296875 
C 38.796875 5.953125 31.40625 0.390625 23 0.390625 
C 13.90625 0.390625 7 6.84375 7 14.6875 
C 7 22.546875 13.09375 29.09375 20 32.1875 
z
" id="CMR17-56"/>
      </defs>
      <g transform="translate(131.968471 472.540275)scale(0.14 -0.14)">
       <use transform="scale(0.996264)" xlink:href="#CMSY10-0"/>
       <use transform="translate(77.487468 0)scale(0.996264)" xlink:href="#CMR17-48"/>
       <use transform="translate(123.177945 0)scale(0.996264)" xlink:href="#CMMI12-58"/>
       <use transform="translate(150.275122 0)scale(0.996264)" xlink:href="#CMR17-56"/>
      </g>
     </g>
    </g>
    <g id="xtick_3">
     <g id="line2d_5">
      <path clip-path="url(#p6e95aa98bc)" d="M 228.189245 455.854399 
L 228.189245 29.2533 
" style="fill:none;stroke:#b0b0b0;stroke-linecap:square;stroke-width:0.8;"/>
     </g>
     <g id="line2d_6">
      <g>
       <use style="stroke:#000000;stroke-width:0.8;" x="228.189245" xlink:href="#m631c3f4988" y="455.854399"/>
      </g>
     </g>
     <g id="text_3">
      <!-- $-0.4$ -->
      <defs>
       <path d="M 33.59375 64.328125 
C 33.59375 66.40625 33.5 66.5 31.703125 66.5 
L 2 19.59375 
L 2 17 
L 27.796875 17 
L 27.796875 7.140625 
C 27.796875 3.5 27.59375 2.5 20.59375 2.5 
L 18.703125 2.5 
L 18.703125 0 
C 21.90625 0 27.296875 0 30.703125 0 
C 34.09375 0 39.5 0 42.703125 0 
L 42.703125 2.5 
L 40.796875 2.5 
C 33.796875 2.5 33.59375 3.5 33.59375 7.140625 
L 33.59375 17 
L 43.796875 17 
L 43.796875 19.59375 
L 33.59375 19.59375 
z
M 28.09375 57.765625 
L 28.09375 19.59375 
L 4 19.59375 
z
" id="CMR17-52"/>
      </defs>
      <g transform="translate(214.039837 472.540275)scale(0.14 -0.14)">
       <use transform="scale(0.996264)" xlink:href="#CMSY10-0"/>
       <use transform="translate(77.487468 0)scale(0.996264)" xlink:href="#CMR17-48"/>
       <use transform="translate(123.177945 0)scale(0.996264)" xlink:href="#CMMI12-58"/>
       <use transform="translate(150.275122 0)scale(0.996264)" xlink:href="#CMR17-52"/>
      </g>
     </g>
    </g>
    <g id="xtick_4">
     <g id="line2d_7">
      <path clip-path="url(#p6e95aa98bc)" d="M 310.260611 455.854399 
L 310.260611 29.2533 
" style="fill:none;stroke:#b0b0b0;stroke-linecap:square;stroke-width:0.8;"/>
     </g>
     <g id="line2d_8">
      <g>
       <use style="stroke:#000000;stroke-width:0.8;" x="310.260611" xlink:href="#m631c3f4988" y="455.854399"/>
      </g>
     </g>
     <g id="text_4">
      <!-- $0.0$ -->
      <g transform="translate(301.53532 472.540275)scale(0.14 -0.14)">
       <use transform="scale(0.996264)" xlink:href="#CMR17-48"/>
       <use transform="translate(45.690477 0)scale(0.996264)" xlink:href="#CMMI12-58"/>
       <use transform="translate(72.787654 0)scale(0.996264)" xlink:href="#CMR17-48"/>
      </g>
     </g>
    </g>
    <g id="xtick_5">
     <g id="line2d_9">
      <path clip-path="url(#p6e95aa98bc)" d="M 392.331977 455.854399 
L 392.331977 29.2533 
" style="fill:none;stroke:#b0b0b0;stroke-linecap:square;stroke-width:0.8;"/>
     </g>
     <g id="line2d_10">
      <g>
       <use style="stroke:#000000;stroke-width:0.8;" x="392.331977" xlink:href="#m631c3f4988" y="455.854399"/>
      </g>
     </g>
     <g id="text_5">
      <!-- $0.4$ -->
      <g transform="translate(383.606686 472.540275)scale(0.14 -0.14)">
       <use transform="scale(0.996264)" xlink:href="#CMR17-48"/>
       <use transform="translate(45.690477 0)scale(0.996264)" xlink:href="#CMMI12-58"/>
       <use transform="translate(72.787654 0)scale(0.996264)" xlink:href="#CMR17-52"/>
      </g>
     </g>
    </g>
    <g id="xtick_6">
     <g id="line2d_11">
      <path clip-path="url(#p6e95aa98bc)" d="M 474.403343 455.854399 
L 474.403343 29.2533 
" style="fill:none;stroke:#b0b0b0;stroke-linecap:square;stroke-width:0.8;"/>
     </g>
     <g id="line2d_12">
      <g>
       <use style="stroke:#000000;stroke-width:0.8;" x="474.403343" xlink:href="#m631c3f4988" y="455.854399"/>
      </g>
     </g>
     <g id="text_6">
      <!-- $0.8$ -->
      <g transform="translate(465.678052 472.540275)scale(0.14 -0.14)">
       <use transform="scale(0.996264)" xlink:href="#CMR17-48"/>
       <use transform="translate(45.690477 0)scale(0.996264)" xlink:href="#CMMI12-58"/>
       <use transform="translate(72.787654 0)scale(0.996264)" xlink:href="#CMR17-56"/>
      </g>
     </g>
    </g>
    <g id="xtick_7">
     <g id="line2d_13">
      <path clip-path="url(#p6e95aa98bc)" d="M 556.474709 455.854399 
L 556.474709 29.2533 
" style="fill:none;stroke:#b0b0b0;stroke-linecap:square;stroke-width:0.8;"/>
     </g>
     <g id="line2d_14">
      <g>
       <use style="stroke:#000000;stroke-width:0.8;" x="556.474709" xlink:href="#m631c3f4988" y="455.854399"/>
      </g>
     </g>
     <g id="text_7">
      <!-- $1.2$ -->
      <g transform="translate(547.749418 472.540275)scale(0.14 -0.14)">
       <use transform="scale(0.996264)" xlink:href="#CMR17-49"/>
       <use transform="translate(45.690477 0)scale(0.996264)" xlink:href="#CMMI12-58"/>
       <use transform="translate(72.787654 0)scale(0.996264)" xlink:href="#CMR17-50"/>
      </g>
     </g>
    </g>
    <g id="text_8">
     <!-- \rm{X [m]} -->
     <defs>
      <path d="M 36.5 37.46875 
L 51.296875 58.640625 
C 52.796875 60.71875 55.796875 65 64 65 
L 64 67.6875 
C 61.703125 67.484375 57.90625 67.484375 55.5 67.484375 
C 52.203125 67.484375 48.09375 67.484375 45.59375 67.6875 
L 45.59375 65.09375 
C 48.796875 64.796875 49.59375 62.8125 49.59375 61.21875 
C 49.59375 60.046875 49.09375 59.25 48.40625 58.25 
L 35.203125 39.265625 
L 20.40625 60.71875 
C 19.703125 61.8125 19.59375 62.109375 19.59375 62.40625 
C 19.59375 63.3125 20.703125 65 24 65 
L 24 67.484375 
C 20.796875 67.484375 15.90625 67.484375 12.59375 67.484375 
C 10 67.484375 5 67.484375 2.59375 67.6875 
L 2.59375 65 
C 8.09375 65 9.90625 64.8125 12.09375 61.734375 
L 31.40625 33.796875 
L 14 8.578125 
C 9.703125 2.390625 3.203125 2.390625 1.296875 2.390625 
L 1.296875 -0.203125 
C 3.59375 0 7.40625 0 9.796875 0 
C 12.5 0 17.203125 0 19.703125 -0.203125 
L 19.703125 2.390625 
C 16.59375 2.6875 15.703125 4.671875 15.703125 6.265625 
C 15.703125 7.546875 16.203125 8.25 16.703125 8.9375 
L 32.703125 32 
L 50.09375 6.59375 
C 50.90625 5.5 50.90625 5.203125 50.90625 4.90625 
C 50.90625 4.109375 50 2.390625 46.5 2.390625 
L 46.5 0 
C 49.703125 0 54.59375 0 57.90625 0 
C 60.5 0 65.5 0 67.90625 -0.203125 
L 67.90625 2.390625 
C 61.5 2.390625 60.5 2.875 58.5 5.671875 
z
" id="CMR17-88"/>
      <path d="M 23.5 -25 
L 23.5 -21.515625 
L 14.09375 -21.515625 
L 14.09375 71 
L 23.5 71 
L 23.5 74.484375 
L 10.59375 74.484375 
L 10.59375 -25 
z
" id="CMR17-91"/>
      <path d="M 67.59375 30.203125 
C 67.59375 35.1875 66.703125 43.59375 54.796875 43.59375 
C 48 43.59375 43.296875 39 41.5 33.59375 
L 41.40625 33.59375 
C 40.203125 41.796875 34.296875 43.59375 28.703125 43.59375 
C 20.796875 43.59375 16.703125 37.5625 15.203125 33.59375 
L 15.09375 33.59375 
L 15.09375 43.59375 
L 3.296875 42.5 
L 3.296875 39.90625 
C 9.203125 39.90625 10.09375 39.296875 10.09375 34.5 
L 10.09375 6.6875 
C 10.09375 2.875 9.703125 2.390625 3.296875 2.390625 
L 3.296875 -0.203125 
C 5.703125 0 10.09375 0 12.703125 0 
C 15.296875 0 19.796875 0 22.203125 -0.203125 
L 22.203125 2.390625 
C 15.796875 2.390625 15.40625 2.78125 15.40625 6.6875 
L 15.40625 25.90625 
C 15.40625 35.109375 21 42 28 42 
C 35.40625 42 36.203125 35.40625 36.203125 30.59375 
L 36.203125 6.6875 
C 36.203125 2.875 35.796875 2.390625 29.40625 2.390625 
L 29.40625 -0.203125 
C 31.796875 0 36.203125 0 38.796875 0 
C 41.40625 0 45.90625 0 48.296875 -0.203125 
L 48.296875 2.390625 
C 41.90625 2.390625 41.5 2.78125 41.5 6.6875 
L 41.5 25.90625 
C 41.5 35.109375 47.09375 42 54.09375 42 
C 61.5 42 62.296875 35.40625 62.296875 30.59375 
L 62.296875 6.6875 
C 62.296875 2.875 61.90625 2.390625 55.5 2.390625 
L 55.5 -0.203125 
C 57.90625 0 62.296875 0 64.90625 0 
C 67.5 0 72 0 74.40625 -0.203125 
L 74.40625 2.390625 
C 68 2.390625 67.59375 2.78125 67.59375 6.6875 
z
" id="CMR17-109"/>
      <path d="M 14.296875 74.484375 
L 1.40625 74.484375 
L 1.40625 71 
L 10.796875 71 
L 10.796875 -21.515625 
L 1.40625 -21.515625 
L 1.40625 -25 
L 14.296875 -25 
z
" id="CMR17-93"/>
     </defs>
     <g transform="translate(293.381487 489.713076)scale(0.14 -0.14)">
      <use transform="scale(0.996264)" xlink:href="#CMR17-88"/>
      <use transform="translate(99.148396 0)scale(0.996264)" xlink:href="#CMR17-91"/>
      <use transform="translate(124.019455 0)scale(0.996264)" xlink:href="#CMR17-109"/>
      <use transform="translate(200.939045 0)scale(0.996264)" xlink:href="#CMR17-93"/>
     </g>
    </g>
   </g>
   <g id="matplotlib.axis_2">
    <g id="ytick_1">
     <g id="line2d_15">
      <path clip-path="url(#p6e95aa98bc)" d="M 64.046513 29.2533 
L 556.474709 29.2533 
" style="fill:none;stroke:#b0b0b0;stroke-linecap:square;stroke-width:0.8;"/>
     </g>
     <g id="line2d_16">
      <defs>
       <path d="M 0 0 
L -3.5 0 
" id="md08f4289b2" style="stroke:#000000;stroke-width:0.8;"/>
      </defs>
      <g>
       <use style="stroke:#000000;stroke-width:0.8;" x="64.046513" xlink:href="#md08f4289b2" y="29.2533"/>
      </g>
     </g>
     <g id="text_9">
      <!-- $-0.4$ -->
      <g transform="translate(28.747696 34.096238)scale(0.14 -0.14)">
       <use transform="scale(0.996264)" xlink:href="#CMSY10-0"/>
       <use transform="translate(77.487468 0)scale(0.996264)" xlink:href="#CMR17-48"/>
       <use transform="translate(123.177945 0)scale(0.996264)" xlink:href="#CMMI12-58"/>
       <use transform="translate(150.275122 0)scale(0.996264)" xlink:href="#CMR17-52"/>
      </g>
     </g>
    </g>
    <g id="ytick_2">
     <g id="line2d_17">
      <path clip-path="url(#p6e95aa98bc)" d="M 64.046513 100.353483 
L 556.474709 100.353483 
" style="fill:none;stroke:#b0b0b0;stroke-linecap:square;stroke-width:0.8;"/>
     </g>
     <g id="line2d_18">
      <g>
       <use style="stroke:#000000;stroke-width:0.8;" x="64.046513" xlink:href="#md08f4289b2" y="100.353483"/>
      </g>
     </g>
     <g id="text_10">
      <!-- $0.0$ -->
      <g transform="translate(39.595931 105.196422)scale(0.14 -0.14)">
       <use transform="scale(0.996264)" xlink:href="#CMR17-48"/>
       <use transform="translate(45.690477 0)scale(0.996264)" xlink:href="#CMMI12-58"/>
       <use transform="translate(72.787654 0)scale(0.996264)" xlink:href="#CMR17-48"/>
      </g>
     </g>
    </g>
    <g id="ytick_3">
     <g id="line2d_19">
      <path clip-path="url(#p6e95aa98bc)" d="M 64.046513 171.453666 
L 556.474709 171.453666 
" style="fill:none;stroke:#b0b0b0;stroke-linecap:square;stroke-width:0.8;"/>
     </g>
     <g id="line2d_20">
      <g>
       <use style="stroke:#000000;stroke-width:0.8;" x="64.046513" xlink:href="#md08f4289b2" y="171.453666"/>
      </g>
     </g>
     <g id="text_11">
      <!-- $0.4$ -->
      <g transform="translate(39.595931 176.296605)scale(0.14 -0.14)">
       <use transform="scale(0.996264)" xlink:href="#CMR17-48"/>
       <use transform="translate(45.690477 0)scale(0.996264)" xlink:href="#CMMI12-58"/>
       <use transform="translate(72.787654 0)scale(0.996264)" xlink:href="#CMR17-52"/>
      </g>
     </g>
    </g>
    <g id="ytick_4">
     <g id="line2d_21">
      <path clip-path="url(#p6e95aa98bc)" d="M 64.046513 242.55385 
L 556.474709 242.55385 
" style="fill:none;stroke:#b0b0b0;stroke-linecap:square;stroke-width:0.8;"/>
     </g>
     <g id="line2d_22">
      <g>
       <use style="stroke:#000000;stroke-width:0.8;" x="64.046513" xlink:href="#md08f4289b2" y="242.55385"/>
      </g>
     </g>
     <g id="text_12">
      <!-- $0.8$ -->
      <g transform="translate(39.595931 247.396788)scale(0.14 -0.14)">
       <use transform="scale(0.996264)" xlink:href="#CMR17-48"/>
       <use transform="translate(45.690477 0)scale(0.996264)" xlink:href="#CMMI12-58"/>
       <use transform="translate(72.787654 0)scale(0.996264)" xlink:href="#CMR17-56"/>
      </g>
     </g>
    </g>
    <g id="ytick_5">
     <g id="line2d_23">
      <path clip-path="url(#p6e95aa98bc)" d="M 64.046513 313.654033 
L 556.474709 313.654033 
" style="fill:none;stroke:#b0b0b0;stroke-linecap:square;stroke-width:0.8;"/>
     </g>
     <g id="line2d_24">
      <g>
       <use style="stroke:#000000;stroke-width:0.8;" x="64.046513" xlink:href="#md08f4289b2" y="313.654033"/>
      </g>
     </g>
     <g id="text_13">
      <!-- $1.2$ -->
      <g transform="translate(39.595931 318.496971)scale(0.14 -0.14)">
       <use transform="scale(0.996264)" xlink:href="#CMR17-49"/>
       <use transform="translate(45.690477 0)scale(0.996264)" xlink:href="#CMMI12-58"/>
       <use transform="translate(72.787654 0)scale(0.996264)" xlink:href="#CMR17-50"/>
      </g>
     </g>
    </g>
    <g id="ytick_6">
     <g id="line2d_25">
      <path clip-path="url(#p6e95aa98bc)" d="M 64.046513 384.754216 
L 556.474709 384.754216 
" style="fill:none;stroke:#b0b0b0;stroke-linecap:square;stroke-width:0.8;"/>
     </g>
     <g id="line2d_26">
      <g>
       <use style="stroke:#000000;stroke-width:0.8;" x="64.046513" xlink:href="#md08f4289b2" y="384.754216"/>
      </g>
     </g>
     <g id="text_14">
      <!-- $1.6$ -->
      <defs>
       <path d="M 10.59375 34 
C 10.59375 57.65625 21.796875 63 28.296875 63 
C 30.40625 63 35.5 62.640625 37.5 59 
C 35.90625 59 32.90625 59 32.90625 55.515625 
C 32.90625 52.828125 35.09375 51.921875 36.5 51.921875 
C 37.40625 51.921875 40.09375 52.3125 40.09375 55.625 
C 40.09375 61.78125 35.09375 65.296875 28.203125 65.296875 
C 16.296875 65.296875 3.796875 52.96875 3.796875 31 
C 3.796875 3.953125 15.09375 -2 23.09375 -2 
C 32.796875 -2 42 6.671875 42 20.046875 
C 42 32.515625 33.90625 41.59375 23.703125 41.59375 
C 17.59375 41.59375 13.09375 37.609375 10.59375 30.625 
z
M 23.09375 0.390625 
C 10.796875 0.390625 10.796875 18.75 10.796875 22.4375 
C 10.796875 29.625 14.203125 40 23.5 40 
C 25.203125 40 30.09375 40 33.40625 33.125 
C 35.203125 29.21875 35.203125 25.140625 35.203125 20.140625 
C 35.203125 14.75 35.203125 10.78125 33.09375 6.78125 
C 30.90625 2.671875 27.703125 0.390625 23.09375 0.390625 
" id="CMR17-54"/>
      </defs>
      <g transform="translate(39.595931 389.597154)scale(0.14 -0.14)">
       <use transform="scale(0.996264)" xlink:href="#CMR17-49"/>
       <use transform="translate(45.690477 0)scale(0.996264)" xlink:href="#CMMI12-58"/>
       <use transform="translate(72.787654 0)scale(0.996264)" xlink:href="#CMR17-54"/>
      </g>
     </g>
    </g>
    <g id="ytick_7">
     <g id="line2d_27">
      <path clip-path="url(#p6e95aa98bc)" d="M 64.046513 455.854399 
L 556.474709 455.854399 
" style="fill:none;stroke:#b0b0b0;stroke-linecap:square;stroke-width:0.8;"/>
     </g>
     <g id="line2d_28">
      <g>
       <use style="stroke:#000000;stroke-width:0.8;" x="64.046513" xlink:href="#md08f4289b2" y="455.854399"/>
      </g>
     </g>
     <g id="text_15">
      <!-- $2.0$ -->
      <g transform="translate(39.595931 460.697337)scale(0.14 -0.14)">
       <use transform="scale(0.996264)" xlink:href="#CMR17-50"/>
       <use transform="translate(45.690477 0)scale(0.996264)" xlink:href="#CMMI12-58"/>
       <use transform="translate(72.787654 0)scale(0.996264)" xlink:href="#CMR17-48"/>
      </g>
     </g>
    </g>
    <g id="text_16">
     <!-- \rm{Z [m]} -->
     <defs>
      <path d="M 51.59375 66 
C 51.59375 67.90625 51.5 68 49.40625 68 
L 6.90625 68 
L 5.90625 46 
L 7.703125 46 
C 8.296875 57.34375 11.296875 65.40625 27.5 65.40625 
L 44 65.40625 
L 5.296875 3.1875 
C 4.59375 2.09375 4.59375 1.984375 4.59375 1.296875 
C 4.59375 0 4.796875 0 6.796875 0 
L 50.703125 0 
L 52.09375 25.984375 
L 50.296875 25.984375 
C 49.40625 12.9375 48.703125 2.78125 29.59375 2.78125 
L 12.203125 2.78125 
z
" id="CMR17-90"/>
     </defs>
     <g transform="translate(21.260772 258.48699)rotate(-90)scale(0.14 -0.14)">
      <use transform="scale(0.996264)" xlink:href="#CMR17-90"/>
      <use transform="translate(86.176138 0)scale(0.996264)" xlink:href="#CMR17-91"/>
      <use transform="translate(111.047196 0)scale(0.996264)" xlink:href="#CMR17-109"/>
      <use transform="translate(187.966786 0)scale(0.996264)" xlink:href="#CMR17-93"/>
     </g>
    </g>
   </g>
   <g id="patch_3">
    <path d="M 64.046513 455.854399 
L 64.046513 29.2533 
" style="fill:none;stroke:#000000;stroke-linecap:square;stroke-linejoin:miter;stroke-width:0.8;"/>
   </g>
   <g id="patch_4">
    <path d="M 556.474709 455.854399 
L 556.474709 29.2533 
" style="fill:none;stroke:#000000;stroke-linecap:square;stroke-linejoin:miter;stroke-width:0.8;"/>
   </g>
   <g id="patch_5">
    <path d="M 64.046513 455.854399 
L 556.474709 455.854399 
" style="fill:none;stroke:#000000;stroke-linecap:square;stroke-linejoin:miter;stroke-width:0.8;"/>
   </g>
   <g id="patch_6">
    <path d="M 64.046513 29.2533 
L 556.474709 29.2533 
" style="fill:none;stroke:#000000;stroke-linecap:square;stroke-linejoin:miter;stroke-width:0.8;"/>
   </g>
   <g id="patch_7">
    <path clip-path="url(#p6e95aa98bc)" d="M 258.606945 100.353483 
C 258.606945 88.489948 264.052727 77.100176 273.735954 68.71139 
C 283.41918 60.322603 296.566461 55.604806 310.260611 55.604806 
C 323.954761 55.604806 337.102042 60.322603 346.785269 68.71139 
C 356.468495 77.100176 361.914277 88.489948 361.914277 100.353483 
" style="fill:none;stroke:#000000;stroke-linejoin:miter;stroke-width:0.85;"/>
   </g>
   <g id="patch_8">
    <path clip-path="url(#p6e95aa98bc)" d="M 258.966007 100.353483 
L 361.555215 100.353483 
L 361.555215 102.486489 
L 258.966007 102.486489 
z
"/>
   </g>
   <g id="patch_9">
    <path clip-path="url(#p6e95aa98bc)" d="M 258.247883 100.353483 
L 258.966007 100.353483 
L 258.966007 102.486489 
L 258.247883 102.486489 
z
"/>
   </g>
   <g id="patch_10">
    <path clip-path="url(#p6e95aa98bc)" d="M 361.555215 100.353483 
L 362.273339 100.353483 
L 362.273339 102.486489 
L 361.555215 102.486489 
z
"/>
   </g>
   <g id="patch_11">
    <path clip-path="url(#p6e95aa98bc)" d="M 258.247883 102.486489 
L 258.966007 102.486489 
L 258.966007 107.356851 
L 258.247883 107.356851 
z
"/>
   </g>
   <g id="patch_12">
    <path clip-path="url(#p6e95aa98bc)" d="M 361.555215 102.486489 
L 362.273339 102.486489 
L 362.273339 107.356851 
L 361.555215 107.356851 
z
"/>
   </g>
   <g id="patch_13">
    <path clip-path="url(#p6e95aa98bc)" d="M 258.966007 107.356851 
L 361.555215 107.356851 
L 361.555215 107.890103 
L 258.966007 107.890103 
z
"/>
   </g>
   <g id="patch_14">
    <path clip-path="url(#p6e95aa98bc)" d="M 258.247883 107.356851 
L 258.966007 107.356851 
L 258.966007 107.890103 
L 258.247883 107.890103 
z
"/>
   </g>
   <g id="patch_15">
    <path clip-path="url(#p6e95aa98bc)" d="M 361.555215 107.356851 
L 362.273339 107.356851 
L 362.273339 107.890103 
L 361.555215 107.890103 
z
"/>
   </g>
   <g id="patch_16">
    <path clip-path="url(#p6e95aa98bc)" d="M 258.247883 107.890103 
L 258.966007 107.890103 
L 258.966007 107.89188 
L 258.247883 107.89188 
z
"/>
   </g>
   <g id="patch_17">
    <path clip-path="url(#p6e95aa98bc)" d="M 361.555215 107.890103 
L 362.273339 107.890103 
L 362.273339 107.89188 
L 361.555215 107.89188 
z
"/>
   </g>
   <g id="patch_18">
    <path clip-path="url(#p6e95aa98bc)" d="M 258.966007 107.89028 
L 361.555215 107.89028 
L 361.555215 108.423532 
L 258.966007 108.423532 
z
"/>
   </g>
   <g id="patch_19">
    <path clip-path="url(#p6e95aa98bc)" d="M 258.247883 107.89028 
L 258.966007 107.89028 
L 258.966007 108.423532 
L 258.247883 108.423532 
z
"/>
   </g>
   <g id="patch_20">
    <path clip-path="url(#p6e95aa98bc)" d="M 361.555215 107.89028 
L 362.273339 107.89028 
L 362.273339 108.423532 
L 361.555215 108.423532 
z
"/>
   </g>
   <g id="patch_21">
    <path clip-path="url(#p6e95aa98bc)" d="M 258.247883 108.423532 
L 258.966007 108.423532 
L 258.966007 108.425309 
L 258.247883 108.425309 
z
"/>
   </g>
   <g id="patch_22">
    <path clip-path="url(#p6e95aa98bc)" d="M 361.555215 108.423532 
L 362.273339 108.423532 
L 362.273339 108.425309 
L 361.555215 108.425309 
z
"/>
   </g>
   <g id="patch_23">
    <path clip-path="url(#p6e95aa98bc)" d="M 258.966007 108.42371 
L 361.555215 108.42371 
L 361.555215 108.956961 
L 258.966007 108.956961 
z
"/>
   </g>
   <g id="patch_24">
    <path clip-path="url(#p6e95aa98bc)" d="M 258.247883 108.42371 
L 258.966007 108.42371 
L 258.966007 108.956961 
L 258.247883 108.956961 
z
"/>
   </g>
   <g id="patch_25">
    <path clip-path="url(#p6e95aa98bc)" d="M 361.555215 108.42371 
L 362.273339 108.42371 
L 362.273339 108.956961 
L 361.555215 108.956961 
z
"/>
   </g>
   <g id="patch_26">
    <path clip-path="url(#p6e95aa98bc)" d="M 258.247883 108.956961 
L 258.966007 108.956961 
L 258.966007 108.958738 
L 258.247883 108.958738 
z
"/>
   </g>
   <g id="patch_27">
    <path clip-path="url(#p6e95aa98bc)" d="M 361.555215 108.956961 
L 362.273339 108.956961 
L 362.273339 108.958738 
L 361.555215 108.958738 
z
"/>
   </g>
   <g id="patch_28">
    <path clip-path="url(#p6e95aa98bc)" d="M 258.966007 108.957139 
L 361.555215 108.957139 
L 361.555215 109.49039 
L 258.966007 109.49039 
z
"/>
   </g>
   <g id="patch_29">
    <path clip-path="url(#p6e95aa98bc)" d="M 258.247883 108.957139 
L 258.966007 108.957139 
L 258.966007 109.49039 
L 258.247883 109.49039 
z
"/>
   </g>
   <g id="patch_30">
    <path clip-path="url(#p6e95aa98bc)" d="M 361.555215 108.957139 
L 362.273339 108.957139 
L 362.273339 109.49039 
L 361.555215 109.49039 
z
"/>
   </g>
   <g id="patch_31">
    <path clip-path="url(#p6e95aa98bc)" d="M 258.247883 109.49039 
L 258.966007 109.49039 
L 258.966007 109.492168 
L 258.247883 109.492168 
z
"/>
   </g>
   <g id="patch_32">
    <path clip-path="url(#p6e95aa98bc)" d="M 361.555215 109.49039 
L 362.273339 109.49039 
L 362.273339 109.492168 
L 361.555215 109.492168 
z
"/>
   </g>
   <g id="patch_33">
    <path clip-path="url(#p6e95aa98bc)" d="M 258.966007 109.490568 
L 361.555215 109.490568 
L 361.555215 110.023819 
L 258.966007 110.023819 
z
"/>
   </g>
   <g id="patch_34">
    <path clip-path="url(#p6e95aa98bc)" d="M 258.247883 109.490568 
L 258.966007 109.490568 
L 258.966007 110.023819 
L 258.247883 110.023819 
z
"/>
   </g>
   <g id="patch_35">
    <path clip-path="url(#p6e95aa98bc)" d="M 361.555215 109.490568 
L 362.273339 109.490568 
L 362.273339 110.023819 
L 361.555215 110.023819 
z
"/>
   </g>
   <g id="patch_36">
    <path clip-path="url(#p6e95aa98bc)" d="M 258.247883 110.023819 
L 258.966007 110.023819 
L 258.966007 110.025597 
L 258.247883 110.025597 
z
"/>
   </g>
   <g id="patch_37">
    <path clip-path="url(#p6e95aa98bc)" d="M 361.555215 110.023819 
L 362.273339 110.023819 
L 362.273339 110.025597 
L 361.555215 110.025597 
z
"/>
   </g>
   <g id="patch_38">
    <path clip-path="url(#p6e95aa98bc)" d="M 258.966007 110.023997 
L 361.555215 110.023997 
L 361.555215 110.557248 
L 258.966007 110.557248 
z
"/>
   </g>
   <g id="patch_39">
    <path clip-path="url(#p6e95aa98bc)" d="M 258.247883 110.023997 
L 258.966007 110.023997 
L 258.966007 110.557248 
L 258.247883 110.557248 
z
"/>
   </g>
   <g id="patch_40">
    <path clip-path="url(#p6e95aa98bc)" d="M 361.555215 110.023997 
L 362.273339 110.023997 
L 362.273339 110.557248 
L 361.555215 110.557248 
z
"/>
   </g>
   <g id="patch_41">
    <path clip-path="url(#p6e95aa98bc)" d="M 258.247883 110.557248 
L 258.966007 110.557248 
L 258.966007 116.777626 
L 258.247883 116.777626 
z
"/>
   </g>
   <g id="patch_42">
    <path clip-path="url(#p6e95aa98bc)" d="M 361.555215 110.557248 
L 362.273339 110.557248 
L 362.273339 116.777626 
L 361.555215 116.777626 
z
"/>
   </g>
   <g id="patch_43">
    <path clip-path="url(#p6e95aa98bc)" d="M 258.966007 116.777626 
L 361.555215 116.777626 
L 361.555215 117.133126 
L 258.966007 117.133126 
z
" style="fill:#bfbf00;"/>
   </g>
   <g id="patch_44">
    <path clip-path="url(#p6e95aa98bc)" d="M 258.247883 116.777626 
L 258.966007 116.777626 
L 258.966007 117.133126 
L 258.247883 117.133126 
z
" style="fill:#bfbf00;"/>
   </g>
   <g id="patch_45">
    <path clip-path="url(#p6e95aa98bc)" d="M 361.555215 116.777626 
L 362.273339 116.777626 
L 362.273339 117.133126 
L 361.555215 117.133126 
z
" style="fill:#bfbf00;"/>
   </g>
   <g id="patch_46">
    <path clip-path="url(#p6e95aa98bc)" d="M 258.247883 117.133126 
L 258.966007 117.133126 
L 258.966007 126.287275 
L 258.247883 126.287275 
z
" style="fill:#bfbf00;"/>
   </g>
   <g id="patch_47">
    <path clip-path="url(#p6e95aa98bc)" d="M 361.555215 117.133126 
L 362.273339 117.133126 
L 362.273339 126.287275 
L 361.555215 126.287275 
z
" style="fill:#bfbf00;"/>
   </g>
   <g id="patch_48">
    <path clip-path="url(#p6e95aa98bc)" d="M 258.247883 126.287275 
L 258.966007 126.287275 
L 258.966007 152.594343 
L 258.247883 152.594343 
z
" style="fill:#008000;"/>
   </g>
   <g id="patch_49">
    <path clip-path="url(#p6e95aa98bc)" d="M 361.555215 126.287275 
L 362.273339 126.287275 
L 362.273339 152.594343 
L 361.555215 152.594343 
z
" style="fill:#008000;"/>
   </g>
   <g id="patch_50">
    <path clip-path="url(#p6e95aa98bc)" d="M 258.966007 152.594343 
L 361.555215 152.594343 
L 361.555215 156.540403 
L 258.966007 156.540403 
z
" style="fill:#008000;"/>
   </g>
   <g id="patch_51">
    <path clip-path="url(#p6e95aa98bc)" d="M 258.247883 152.594343 
L 258.966007 152.594343 
L 258.966007 156.540403 
L 258.247883 156.540403 
z
" style="fill:#008000;"/>
   </g>
   <g id="patch_52">
    <path clip-path="url(#p6e95aa98bc)" d="M 361.555215 152.594343 
L 362.273339 152.594343 
L 362.273339 156.540403 
L 361.555215 156.540403 
z
" style="fill:#008000;"/>
   </g>
   <g id="patch_53">
    <path clip-path="url(#p6e95aa98bc)" d="M 258.247883 156.540403 
L 258.966007 156.540403 
L 258.966007 225.15208 
L 258.247883 225.15208 
z
" style="fill:#008000;"/>
   </g>
   <g id="patch_54">
    <path clip-path="url(#p6e95aa98bc)" d="M 361.555215 156.540403 
L 362.273339 156.540403 
L 362.273339 225.15208 
L 361.555215 225.15208 
z
" style="fill:#008000;"/>
   </g>
   <g id="patch_55">
    <path clip-path="url(#p6e95aa98bc)" d="M 258.966007 225.15208 
L 361.555215 225.15208 
L 361.555215 229.09814 
L 258.966007 229.09814 
z
" style="fill:#008000;"/>
   </g>
   <g id="patch_56">
    <path clip-path="url(#p6e95aa98bc)" d="M 258.247883 225.15208 
L 258.966007 225.15208 
L 258.966007 229.09814 
L 258.247883 229.09814 
z
" style="fill:#008000;"/>
   </g>
   <g id="patch_57">
    <path clip-path="url(#p6e95aa98bc)" d="M 361.555215 225.15208 
L 362.273339 225.15208 
L 362.273339 229.09814 
L 361.555215 229.09814 
z
" style="fill:#008000;"/>
   </g>
   <g id="patch_58">
    <path clip-path="url(#p6e95aa98bc)" d="M 258.247883 229.09814 
L 258.966007 229.09814 
L 258.966007 254.46313 
L 258.247883 254.46313 
z
" style="fill:#008000;"/>
   </g>
   <g id="patch_59">
    <path clip-path="url(#p6e95aa98bc)" d="M 361.555215 229.09814 
L 362.273339 229.09814 
L 362.273339 254.46313 
L 361.555215 254.46313 
z
" style="fill:#008000;"/>
   </g>
   <g id="patch_60">
    <path clip-path="url(#p6e95aa98bc)" d="M 258.247883 254.46313 
L 280.509741 254.46313 
L 280.509741 255.085257 
L 258.247883 255.085257 
z
" style="fill:#008000;"/>
   </g>
   <g id="patch_61">
    <path clip-path="url(#p6e95aa98bc)" d="M 340.011481 254.46313 
L 362.273339 254.46313 
L 362.273339 255.085257 
L 340.011481 255.085257 
z
" style="fill:#008000;"/>
   </g>
   <g id="patch_62">
    <path clip-path="url(#p6e95aa98bc)" d="M 280.509741 254.46313 
L 340.011481 254.46313 
L 340.011481 254.843516 
L 280.509741 254.843516 
z
" style="fill:#008000;"/>
   </g>
   <g id="patch_63">
    <path clip-path="url(#p6e95aa98bc)" d="M 279.791617 254.46313 
L 280.509741 254.46313 
L 280.509741 254.843516 
L 279.791617 254.843516 
z
" style="fill:#008000;"/>
   </g>
   <g id="patch_64">
    <path clip-path="url(#p6e95aa98bc)" d="M 340.011481 254.46313 
L 340.729606 254.46313 
L 340.729606 254.843516 
L 340.011481 254.843516 
z
" style="fill:#008000;"/>
   </g>
   <g id="patch_65">
    <path clip-path="url(#p6e95aa98bc)" d="M 279.791617 254.843516 
L 280.509741 254.843516 
L 280.509741 255.465643 
L 279.791617 255.465643 
z
" style="fill:#008000;"/>
   </g>
   <g id="patch_66">
    <path clip-path="url(#p6e95aa98bc)" d="M 340.011481 254.843516 
L 340.729606 254.843516 
L 340.729606 255.465643 
L 340.011481 255.465643 
z
" style="fill:#008000;"/>
   </g>
   <g id="patch_67">
    <path clip-path="url(#p6e95aa98bc)" d="M 280.509741 255.465643 
L 340.011481 255.465643 
L 340.011481 255.846029 
L 280.509741 255.846029 
z
" style="fill:#008000;"/>
   </g>
   <g id="patch_68">
    <path clip-path="url(#p6e95aa98bc)" d="M 279.791617 255.465643 
L 280.509741 255.465643 
L 280.509741 255.846029 
L 279.791617 255.846029 
z
" style="fill:#008000;"/>
   </g>
   <g id="patch_69">
    <path clip-path="url(#p6e95aa98bc)" d="M 340.011481 255.465643 
L 340.729606 255.465643 
L 340.729606 255.846029 
L 340.011481 255.846029 
z
" style="fill:#008000;"/>
   </g>
   <g id="patch_70">
    <path clip-path="url(#p6e95aa98bc)" d="M 279.791617 255.846029 
L 280.509741 255.846029 
L 280.509741 256.20153 
L 279.791617 256.20153 
z
" style="fill:#008000;"/>
   </g>
   <g id="patch_71">
    <path clip-path="url(#p6e95aa98bc)" d="M 340.011481 255.846029 
L 340.729606 255.846029 
L 340.729606 256.20153 
L 340.011481 256.20153 
z
" style="fill:#008000;"/>
   </g>
   <g id="patch_72">
    <path clip-path="url(#p6e95aa98bc)" d="M 279.791617 256.20153 
L 291.794554 256.20153 
L 291.794554 256.823656 
L 279.791617 256.823656 
z
" style="fill:#008000;"/>
   </g>
   <g id="patch_73">
    <path clip-path="url(#p6e95aa98bc)" d="M 328.726668 256.20153 
L 340.729606 256.20153 
L 340.729606 256.823656 
L 328.726668 256.823656 
z
" style="fill:#008000;"/>
   </g>
   <g id="patch_74">
    <path clip-path="url(#p6e95aa98bc)" d="M 291.076429 256.20153 
L 291.794554 256.20153 
L 291.794554 257.268032 
L 291.076429 257.268032 
z
" style="fill:#008000;"/>
   </g>
   <g id="patch_75">
    <path clip-path="url(#p6e95aa98bc)" d="M 328.726668 256.20153 
L 329.444793 256.20153 
L 329.444793 257.268032 
L 328.726668 257.268032 
z
" style="fill:#008000;"/>
   </g>
   <g id="patch_76">
    <path clip-path="url(#p6e95aa98bc)" d="M 258.247883 257.268032 
L 291.794554 257.268032 
L 291.794554 257.890159 
L 258.247883 257.890159 
z
" style="fill:#008000;"/>
   </g>
   <g id="patch_77">
    <path clip-path="url(#p6e95aa98bc)" d="M 328.726668 257.268032 
L 362.273339 257.268032 
L 362.273339 257.890159 
L 328.726668 257.890159 
z
" style="fill:#008000;"/>
   </g>
   <g id="patch_78">
    <path clip-path="url(#p6e95aa98bc)" d="M 258.247883 257.268032 
L 258.966007 257.268032 
L 258.966007 305.669482 
L 258.247883 305.669482 
z
" style="fill:#008000;"/>
   </g>
   <g id="patch_79">
    <path clip-path="url(#p6e95aa98bc)" d="M 361.555215 257.268032 
L 362.273339 257.268032 
L 362.273339 305.669482 
L 361.555215 305.669482 
z
" style="fill:#008000;"/>
   </g>
   <g id="patch_80">
    <path clip-path="url(#p6e95aa98bc)" d="M 258.966007 305.669482 
L 361.555215 305.669482 
L 361.555215 309.615542 
L 258.966007 309.615542 
z
" style="fill:#008000;"/>
   </g>
   <g id="patch_81">
    <path clip-path="url(#p6e95aa98bc)" d="M 258.247883 305.669482 
L 258.966007 305.669482 
L 258.966007 309.615542 
L 258.247883 309.615542 
z
" style="fill:#008000;"/>
   </g>
   <g id="patch_82">
    <path clip-path="url(#p6e95aa98bc)" d="M 361.555215 305.669482 
L 362.273339 305.669482 
L 362.273339 309.615542 
L 361.555215 309.615542 
z
" style="fill:#008000;"/>
   </g>
   <g id="patch_83">
    <path clip-path="url(#p6e95aa98bc)" d="M 258.247883 309.615542 
L 258.966007 309.615542 
L 258.966007 338.055616 
L 258.247883 338.055616 
z
" style="fill:#008000;"/>
   </g>
   <g id="patch_84">
    <path clip-path="url(#p6e95aa98bc)" d="M 361.555215 309.615542 
L 362.273339 309.615542 
L 362.273339 338.055616 
L 361.555215 338.055616 
z
" style="fill:#008000;"/>
   </g>
   <g id="patch_85">
    <path clip-path="url(#p6e95aa98bc)" d="M 258.966007 338.055616 
L 361.555215 338.055616 
L 361.555215 338.411117 
L 258.966007 338.411117 
z
" style="fill:#00bfbf;"/>
   </g>
   <g id="patch_86">
    <path clip-path="url(#p6e95aa98bc)" d="M 258.247883 338.055616 
L 258.966007 338.055616 
L 258.966007 338.411117 
L 258.247883 338.411117 
z
" style="fill:#00bfbf;"/>
   </g>
   <g id="patch_87">
    <path clip-path="url(#p6e95aa98bc)" d="M 361.555215 338.055616 
L 362.273339 338.055616 
L 362.273339 338.411117 
L 361.555215 338.411117 
z
" style="fill:#00bfbf;"/>
   </g>
   <g id="patch_88">
    <path clip-path="url(#p6e95aa98bc)" d="M 258.247883 338.411117 
L 258.966007 338.411117 
L 258.966007 347.298639 
L 258.247883 347.298639 
z
" style="fill:#00bfbf;"/>
   </g>
   <g id="patch_89">
    <path clip-path="url(#p6e95aa98bc)" d="M 361.555215 338.411117 
L 362.273339 338.411117 
L 362.273339 347.298639 
L 361.555215 347.298639 
z
" style="fill:#00bfbf;"/>
   </g>
   <g id="patch_90">
    <path clip-path="url(#p6e95aa98bc)" d="M 361.914277 347.298639 
C 361.914277 359.162175 356.468495 370.551946 346.785269 378.940733 
C 337.102042 387.329519 323.954761 392.047317 310.260611 392.047317 
C 296.566461 392.047317 283.41918 387.329519 273.735954 378.940733 
C 264.052727 370.551946 258.606945 359.162175 258.606945 347.298639 
" style="fill:none;stroke:#0000ff;stroke-linejoin:miter;stroke-width:0.85;"/>
   </g>
   <g id="text_17">
    <!-- \rm{PB2 Filters} -->
    <defs>
     <path d="M 19.796875 31.90625 
L 35.796875 31.90625 
C 48.703125 31.90625 58.09375 40.28125 58.09375 49.75 
C 58.09375 59.234375 48.90625 68 35.796875 68 
L 5.203125 68 
L 5.203125 65.40625 
C 12.09375 65.40625 13.203125 65.40625 13.203125 60.9375 
L 13.203125 6.96875 
C 13.203125 2.5 12.09375 2.5 5.203125 2.5 
L 5.203125 0 
C 8.09375 0 13.40625 0 16.5 0 
C 19.59375 0 24.90625 0 27.796875 0 
L 27.796875 2.5 
C 20.90625 2.5 19.796875 2.5 19.796875 6.96875 
z
M 19.59375 34 
L 19.59375 61.53125 
C 19.59375 64.921875 19.796875 65.40625 23.796875 65.40625 
L 33.90625 65.40625 
C 46.796875 65.40625 50.5 58.03125 50.5 49.75 
C 50.5 40.6875 46.09375 34 33.90625 34 
z
" id="CMR17-80"/>
     <path d="M 5.203125 68 
L 5.203125 65.40625 
C 12.09375 65.40625 13.203125 65.40625 13.203125 60.9375 
L 13.203125 7.0625 
C 13.203125 2.59375 12.09375 2.59375 5.203125 2.59375 
L 5.203125 0 
L 39.59375 0 
C 52.40625 0 60.703125 9.109375 60.703125 18.1875 
C 60.703125 27.203125 52.5 34.890625 41.796875 34.890625 
C 51.40625 36.8125 58.09375 43.296875 58.09375 51 
C 58.09375 59.40625 49.90625 68 37 68 
z
M 19.5 36 
L 19.5 61.515625 
C 19.5 64.921875 19.703125 65.40625 23.703125 65.40625 
L 36.5 65.40625 
C 46.40625 65.40625 50.796875 57.40625 50.796875 51.203125 
C 50.796875 43.609375 44.703125 36 33.90625 36 
z
M 23.703125 2.59375 
C 19.703125 2.59375 19.5 3.078125 19.5 6.453125 
L 19.5 34.40625 
L 38 34.40625 
C 48.296875 34.40625 53.296875 25.390625 53.296875 18.15625 
C 53.296875 10.921875 47.59375 2.59375 36.703125 2.59375 
z
" id="CMR17-66"/>
     <path d="M 54.40625 67.578125 
L 5.09375 67.578125 
L 5.09375 65 
C 12 65 13.09375 65 13.09375 60.53125 
L 13.09375 6.96875 
C 13.09375 2.5 12 2.5 5.09375 2.5 
L 5.09375 0 
C 8 0 13.59375 0 16.703125 0 
C 20.796875 0 25.59375 0 29.703125 0 
L 29.703125 2.5 
L 27.5 2.5 
C 19.90625 2.5 19.703125 3.484375 19.703125 7.0625 
L 19.703125 32.421875 
L 28.703125 32.421875 
C 38 32.421875 38.90625 29.1875 38.90625 21 
L 40.703125 21 
L 40.703125 46.890625 
L 38.90625 46.890625 
C 38.90625 38.34375 38 35 28.703125 35 
L 19.703125 35 
L 19.703125 61.109375 
C 19.703125 64.5 19.90625 65 23.90625 65 
L 36.796875 65 
C 51.90625 65 53.59375 58.890625 55 45.765625 
L 56.796875 45.765625 
z
" id="CMR17-70"/>
     <path d="M 15.5 61.078125 
C 15.5 63.265625 13.703125 65.15625 11.40625 65.15625 
C 9.203125 65.15625 7.296875 63.375 7.296875 61.078125 
C 7.296875 58.890625 9.09375 57 11.40625 57 
C 13.59375 57 15.5 58.796875 15.5 61.078125 
M 3.796875 42.28125 
L 3.796875 39.703125 
C 9.40625 39.703125 10.203125 39.09375 10.203125 34.328125 
L 10.203125 6.671875 
C 10.203125 2.875 9.796875 2.390625 3.40625 2.390625 
L 3.40625 -0.203125 
C 5.796875 0 10.09375 0 12.59375 0 
C 15 0 19.09375 0 21.40625 -0.203125 
L 21.40625 2.390625 
C 15.5 2.390625 15.296875 2.984375 15.296875 6.5625 
L 15.296875 43.375 
z
" id="CMR17-105"/>
     <path d="M 15.296875 68.6875 
L 3.40625 67.59375 
L 3.40625 65 
C 9.296875 65 10.203125 64.40625 10.203125 59.640625 
L 10.203125 6.65625 
C 10.203125 2.875 9.796875 2.390625 3.40625 2.390625 
L 3.40625 -0.203125 
C 5.796875 0 10.203125 0 12.703125 0 
C 15.296875 0 19.703125 0 22.09375 -0.203125 
L 22.09375 2.390625 
C 15.703125 2.390625 15.296875 2.78125 15.296875 6.65625 
z
" id="CMR17-108"/>
     <path d="M 15.09375 40 
L 29.09375 40 
L 29.09375 42.578125 
L 15.09375 42.578125 
L 15.09375 61 
L 13.296875 61 
C 13.09375 50.703125 9.59375 41.6875 1.09375 41.6875 
L 1.09375 40 
L 9.796875 40 
L 9.796875 12.046875 
C 9.796875 10.15625 9.796875 -1 21.40625 -1 
C 27.296875 -1 30.703125 4.78125 30.703125 12.140625 
L 30.703125 17.8125 
L 28.90625 17.8125 
L 28.90625 12.234375 
C 28.90625 5.375 26.203125 0.796875 22 0.796875 
C 19.09375 0.796875 15.09375 2.78125 15.09375 11.84375 
z
" id="CMR17-116"/>
     <path d="M 38.09375 23 
C 38.5 23.40625 38.5 23.609375 38.5 24.625 
C 38.5 34.96875 33.09375 44 21.703125 44 
C 11.09375 44 2.703125 33.890625 2.703125 21.609375 
C 2.703125 8.609375 12.203125 -1 22.796875 -1 
C 34 -1 38.40625 9.46875 38.40625 11.546875 
C 38.40625 12.25 37.796875 12.25 37.59375 12.25 
C 36.90625 12.25 36.796875 12.046875 36.40625 10.875 
C 34.203125 4.140625 28.703125 0.796875 23.5 0.796875 
C 19.203125 0.796875 14.90625 3.171875 12.203125 7.5 
C 9.09375 12.546875 9.09375 18.375 9.09375 23 
z
M 9.203125 24.5 
C 9.90625 39.140625 17.59375 42.40625 21.59375 42.40625 
C 28.40625 42.40625 33 35.890625 33.09375 24.5 
z
" id="CMR17-101"/>
     <path d="M 15 23.390625 
C 15 33 19.09375 42 26.59375 42 
C 27.296875 42 28 41.90625 28.703125 41.59375 
C 28.703125 41.59375 26.5 40.890625 26.5 38.3125 
C 26.5 35.90625 28.40625 34.90625 29.90625 34.90625 
C 31.09375 34.90625 33.296875 35.609375 33.296875 38.40625 
C 33.296875 41.609375 30.09375 43.59375 26.703125 43.59375 
C 19.09375 43.59375 15.796875 36.203125 14.796875 32.703125 
L 14.703125 32.703125 
L 14.703125 43.59375 
L 3.09375 42.5 
L 3.09375 39.90625 
C 9 39.90625 9.90625 39.296875 9.90625 34.5 
L 9.90625 6.6875 
C 9.90625 2.875 9.5 2.390625 3.09375 2.390625 
L 3.09375 -0.203125 
C 5.5 0 10.09375 0 12.703125 0 
C 15.59375 0 20.703125 0 23.40625 -0.203125 
L 23.40625 2.390625 
C 16.203125 2.390625 15 2.390625 15 6.875 
z
" id="CMR17-114"/>
     <path d="M 30.90625 42.109375 
C 30.90625 43.90625 30.796875 44 30.203125 44 
C 29.796875 44 29.703125 43.90625 28.5 42.421875 
C 28.203125 42.015625 27.296875 41.015625 27 40.625 
C 23.796875 44 19.296875 44 17.59375 44 
C 6.5 44 2.5 38.171875 2.5 32.375 
C 2.5 23.34375 12.703125 21.25 15.59375 20.640625 
C 21.90625 19.34375 24.09375 18.9375 26.203125 17.125 
C 27.5 15.9375 29.703125 13.734375 29.703125 10.125 
C 29.703125 5.90625 27.296875 0.5 18.09375 0.5 
C 9.40625 0.5 6.296875 7.0625 4.5 15.828125 
C 4.203125 17.21875 4.203125 17.328125 3.40625 17.328125 
C 2.59375 17.328125 2.5 17.21875 2.5 15.234375 
L 2.5 0.890625 
C 2.5 -0.890625 2.59375 -1 3.203125 -1 
C 3.703125 -1 3.796875 -0.890625 4.296875 -0.09375 
C 4.90625 0.796875 6.40625 3.1875 7 4.1875 
C 9 1.546875 12.5 -1 18.09375 -1 
C 28 -1 33.296875 4.40625 33.296875 12.234375 
C 33.296875 17.34375 30.59375 20.0625 29.296875 21.25 
C 26.296875 24.375 22.796875 25.0625 18.59375 25.859375 
C 13.09375 27.078125 6.09375 28.46875 6.09375 34.59375 
C 6.09375 37.1875 7.5 42.71875 17.59375 42.71875 
C 28.296875 42.71875 28.90625 32.75 29.09375 29.5625 
C 29.203125 29.078125 29.703125 28.96875 30 28.96875 
C 30.90625 28.96875 30.90625 29.28125 30.90625 30.96875 
z
" id="CMR17-115"/>
    </defs>
    <g transform="translate(268.850203 23.2533)scale(0.18 -0.18)">
     <use transform="scale(0.996264)" xlink:href="#CMR17-80"/>
     <use transform="translate(62.586301 0)scale(0.996264)" xlink:href="#CMR17-66"/>
     <use transform="translate(127.775055 0)scale(0.996264)" xlink:href="#CMR17-50"/>
     <use transform="translate(203.541498 0)scale(0.996264)" xlink:href="#CMR17-70"/>
     <use transform="translate(263.525345 0)scale(0.996264)" xlink:href="#CMR17-105"/>
     <use transform="translate(288.396404 0)scale(0.996264)" xlink:href="#CMR17-108"/>
     <use transform="translate(313.267462 0)scale(0.996264)" xlink:href="#CMR17-116"/>
     <use transform="translate(348.54823 0)scale(0.996264)" xlink:href="#CMR17-101"/>
     <use transform="translate(389.03389 0)scale(0.996264)" xlink:href="#CMR17-114"/>
     <use transform="translate(424.314658 0)scale(0.996264)" xlink:href="#CMR17-115"/>
    </g>
   </g>
   <g id="line2d_29">
    <path clip-path="url(#p6e95aa98bc)" d="M 261.771405 85.85888 
L 357.550276 364.5126 
" style="fill:none;opacity:0.2;stroke:#000000;stroke-linecap:square;stroke-width:0.2;"/>
   </g>
   <g id="line2d_30">
    <path clip-path="url(#p6e95aa98bc)" d="M 307.078024 56.001485 
L 323.441663 390.244039 
" style="fill:none;opacity:0.2;stroke:#000000;stroke-linecap:square;stroke-width:0.2;"/>
   </g>
   <g id="line2d_31">
    <path clip-path="url(#p6e95aa98bc)" d="M 262.871915 83.345145 
L 342.370966 381.952162 
" style="fill:none;opacity:0.2;stroke:#000000;stroke-linecap:square;stroke-width:0.2;"/>
   </g>
   <g id="line2d_32">
    <path clip-path="url(#p6e95aa98bc)" d="M 301.782335 56.527077 
L 297.008932 390.227724 
" style="fill:none;opacity:0.2;stroke:#000000;stroke-linecap:square;stroke-width:0.2;"/>
   </g>
   <g id="line2d_33">
    <path clip-path="url(#p6e95aa98bc)" d="M 261.661893 86.136809 
L 359.337768 360.223069 
" style="fill:none;opacity:0.2;stroke:#000000;stroke-linecap:square;stroke-width:0.2;"/>
   </g>
   <g id="line2d_34">
    <path clip-path="url(#p6e95aa98bc)" d="M 296.693542 57.4984 
L 335.77398 385.849499 
" style="fill:none;opacity:0.2;stroke:#000000;stroke-linecap:square;stroke-width:0.2;"/>
   </g>
   <g id="line2d_35">
    <path clip-path="url(#p6e95aa98bc)" d="M 356.388214 80.91657 
L 260.065433 356.449735 
" style="fill:none;opacity:0.2;stroke:#000000;stroke-linecap:square;stroke-width:0.2;"/>
   </g>
   <g id="line2d_36">
    <path clip-path="url(#p6e95aa98bc)" d="M 307.199377 55.995075 
L 286.758532 386.797469 
" style="fill:none;opacity:0.2;stroke:#000000;stroke-linecap:square;stroke-width:0.2;"/>
   </g>
   <g id="line2d_37">
    <path clip-path="url(#p6e95aa98bc)" d="M 336.171973 62.002365 
L 305.511494 391.545384 
" style="fill:none;opacity:0.2;stroke:#000000;stroke-linecap:square;stroke-width:0.2;"/>
   </g>
   <g id="line2d_38">
    <path clip-path="url(#p6e95aa98bc)" d="M 299.757879 56.85734 
L 319.92577 390.940273 
" style="fill:none;opacity:0.2;stroke:#000000;stroke-linecap:square;stroke-width:0.2;"/>
   </g>
   <g id="line2d_39">
    <path clip-path="url(#p6e95aa98bc)" d="M 320.801799 56.864322 
L 322.49552 390.453652 
" style="fill:none;opacity:0.2;stroke:#000000;stroke-linecap:square;stroke-width:0.2;"/>
   </g>
   <g id="line2d_40">
    <path clip-path="url(#p6e95aa98bc)" d="M 361.463836 97.70218 
L 276.628525 380.851339 
" style="fill:none;opacity:0.2;stroke:#000000;stroke-linecap:square;stroke-width:0.2;"/>
   </g>
   <g id="line2d_41">
    <path clip-path="url(#p6e95aa98bc)" d="M 275.142702 67.963385 
L 320.777424 390.792229 
" style="fill:none;opacity:0.2;stroke:#000000;stroke-linecap:square;stroke-width:0.2;"/>
   </g>
   <g id="line2d_42">
    <path clip-path="url(#p6e95aa98bc)" d="M 286.41392 61.009977 
L 307.307081 391.662528 
" style="fill:none;opacity:0.2;stroke:#000000;stroke-linecap:square;stroke-width:0.2;"/>
   </g>
   <g id="line2d_43">
    <path clip-path="url(#p6e95aa98bc)" d="M 268.399684 74.671777 
L 346.685614 378.586585 
" style="fill:none;opacity:0.2;stroke:#000000;stroke-linecap:square;stroke-width:0.2;"/>
   </g>
   <g id="line2d_44">
    <path clip-path="url(#p6e95aa98bc)" d="M 262.031269 85.222169 
L 342.372014 381.951434 
" style="fill:none;opacity:0.2;stroke:#000000;stroke-linecap:square;stroke-width:0.2;"/>
   </g>
   <g id="line2d_45">
    <path clip-path="url(#p6e95aa98bc)" d="M 262.4339 84.291639 
L 350.132245 375.255319 
" style="fill:none;opacity:0.2;stroke:#000000;stroke-linecap:square;stroke-width:0.2;"/>
   </g>
   <g id="line2d_46">
    <path clip-path="url(#p6e95aa98bc)" d="M 312.234241 55.948774 
L 297.385327 390.3136 
" style="fill:none;opacity:0.2;stroke:#000000;stroke-linecap:square;stroke-width:0.2;"/>
   </g>
   <g id="line2d_47">
    <path clip-path="url(#p6e95aa98bc)" d="M 358.029018 84.161946 
L 287.323598 387.045989 
" style="fill:none;opacity:0.2;stroke:#000000;stroke-linecap:square;stroke-width:0.2;"/>
   </g>
   <g id="line2d_48">
    <path clip-path="url(#p6e95aa98bc)" d="M 292.546265 58.649861 
L 319.804802 390.960249 
" style="fill:none;opacity:0.2;stroke:#000000;stroke-linecap:square;stroke-width:0.2;"/>
   </g>
   <g id="line2d_49">
    <path clip-path="url(#p6e95aa98bc)" d="M 342.89868 66.071963 
L 306.186154 391.595842 
" style="fill:none;opacity:0.2;stroke:#000000;stroke-linecap:square;stroke-width:0.2;"/>
   </g>
   <g id="line2d_50">
    <path clip-path="url(#p6e95aa98bc)" d="M 361.095618 94.418172 
L 263.063946 364.703103 
" style="fill:none;opacity:0.2;stroke:#000000;stroke-linecap:square;stroke-width:0.2;"/>
   </g>
   <g id="line2d_51">
    <path clip-path="url(#p6e95aa98bc)" d="M 328.030097 58.66747 
L 314.319166 391.596938 
" style="fill:none;opacity:0.2;stroke:#000000;stroke-linecap:square;stroke-width:0.2;"/>
   </g>
   <g id="line2d_52">
    <path clip-path="url(#p6e95aa98bc)" d="M 289.847878 59.586117 
L 345.881573 379.273805 
" style="fill:none;opacity:0.2;stroke:#000000;stroke-linecap:square;stroke-width:0.2;"/>
   </g>
   <g id="line2d_53">
    <path clip-path="url(#p6e95aa98bc)" d="M 316.931849 56.293301 
L 326.7097 389.389415 
" style="fill:none;opacity:0.2;stroke:#000000;stroke-linecap:square;stroke-width:0.2;"/>
   </g>
   <g id="line2d_54">
    <path clip-path="url(#p6e95aa98bc)" d="M 356.896094 81.848482 
L 269.312173 374.061688 
" style="fill:none;opacity:0.2;stroke:#000000;stroke-linecap:square;stroke-width:0.2;"/>
   </g>
   <g id="line2d_55">
    <path clip-path="url(#p6e95aa98bc)" d="M 298.937279 57.012135 
L 340.77292 383.019409 
" style="fill:none;opacity:0.2;stroke:#000000;stroke-linecap:square;stroke-width:0.2;"/>
   </g>
   <g id="line2d_56">
    <path clip-path="url(#p6e95aa98bc)" d="M 306.678498 56.024358 
L 329.880599 388.357088 
" style="fill:none;opacity:0.2;stroke:#000000;stroke-linecap:square;stroke-width:0.2;"/>
   </g>
   <g id="line2d_57">
    <path clip-path="url(#p6e95aa98bc)" d="M 311.326333 55.925461 
L 283.494911 385.206847 
" style="fill:none;opacity:0.2;stroke:#000000;stroke-linecap:square;stroke-width:0.2;"/>
   </g>
   <g id="line2d_58">
    <path clip-path="url(#p6e95aa98bc)" d="M 338.677252 63.3581 
L 315.046354 391.542422 
" style="fill:none;opacity:0.2;stroke:#000000;stroke-linecap:square;stroke-width:0.2;"/>
   </g>
   <g id="line2d_59">
    <path clip-path="url(#p6e95aa98bc)" d="M 325.603321 57.950278 
L 295.175363 389.771117 
" style="fill:none;opacity:0.2;stroke:#000000;stroke-linecap:square;stroke-width:0.2;"/>
   </g>
   <g id="line2d_60">
    <path clip-path="url(#p6e95aa98bc)" d="M 258.996237 98.828086 
L 351.684494 373.506807 
" style="fill:none;opacity:0.2;stroke:#000000;stroke-linecap:square;stroke-width:0.2;"/>
   </g>
   <g id="line2d_61">
    <path clip-path="url(#p6e95aa98bc)" d="M 300.952106 56.653701 
L 305.311584 391.528939 
" style="fill:none;opacity:0.2;stroke:#000000;stroke-linecap:square;stroke-width:0.2;"/>
   </g>
   <g id="line2d_62">
    <path clip-path="url(#p6e95aa98bc)" d="M 286.143402 61.133928 
L 343.675858 381.013546 
" style="fill:none;opacity:0.2;stroke:#000000;stroke-linecap:square;stroke-width:0.2;"/>
   </g>
   <g id="line2d_63">
    <path clip-path="url(#p6e95aa98bc)" d="M 343.133551 66.240806 
L 291.691043 388.7221 
" style="fill:none;opacity:0.2;stroke:#000000;stroke-linecap:square;stroke-width:0.2;"/>
   </g>
   <g id="line2d_64">
    <path clip-path="url(#p6e95aa98bc)" d="M 315.504373 56.148679 
L 285.435102 386.185091 
" style="fill:none;opacity:0.2;stroke:#000000;stroke-linecap:square;stroke-width:0.2;"/>
   </g>
   <g id="line2d_65">
    <path clip-path="url(#p6e95aa98bc)" d="M 292.395105 58.698283 
L 330.076374 388.286465 
" style="fill:none;opacity:0.2;stroke:#000000;stroke-linecap:square;stroke-width:0.2;"/>
   </g>
   <g id="line2d_66">
    <path clip-path="url(#p6e95aa98bc)" d="M 294.09836 58.179393 
L 300.419553 390.91076 
" style="fill:none;opacity:0.2;stroke:#000000;stroke-linecap:square;stroke-width:0.2;"/>
   </g>
   <g id="line2d_67">
    <path clip-path="url(#p6e95aa98bc)" d="M 348.253654 70.497866 
L 277.280385 381.333508 
" style="fill:none;opacity:0.2;stroke:#000000;stroke-linecap:square;stroke-width:0.2;"/>
   </g>
   <g id="line2d_68">
    <path clip-path="url(#p6e95aa98bc)" d="M 270.148585 72.656092 
L 343.275361 381.308378 
" style="fill:none;opacity:0.2;stroke:#000000;stroke-linecap:square;stroke-width:0.2;"/>
   </g>
   <g id="line2d_69">
    <path clip-path="url(#p6e95aa98bc)" d="M 354.224022 77.459722 
L 304.831838 391.486678 
" style="fill:none;opacity:0.2;stroke:#000000;stroke-linecap:square;stroke-width:0.2;"/>
   </g>
   <g id="line2d_70">
    <path clip-path="url(#p6e95aa98bc)" d="M 328.361568 58.774641 
L 281.884766 384.317516 
" style="fill:none;opacity:0.2;stroke:#000000;stroke-linecap:square;stroke-width:0.2;"/>
   </g>
   <g id="line2d_71">
    <path clip-path="url(#p6e95aa98bc)" d="M 266.877529 76.64341 
L 318.405828 391.172426 
" style="fill:none;opacity:0.2;stroke:#000000;stroke-linecap:square;stroke-width:0.2;"/>
   </g>
   <g id="line2d_72">
    <path clip-path="url(#p6e95aa98bc)" d="M 268.276133 74.823593 
L 351.647081 373.551131 
" style="fill:none;opacity:0.2;stroke:#000000;stroke-linecap:square;stroke-width:0.2;"/>
   </g>
   <g id="line2d_73">
    <path clip-path="url(#p6e95aa98bc)" d="M 265.390307 78.820695 
L 336.610559 385.424821 
" style="fill:none;opacity:0.2;stroke:#000000;stroke-linecap:square;stroke-width:0.2;"/>
   </g>
   <g id="line2d_74">
    <path clip-path="url(#p6e95aa98bc)" d="M 327.305299 58.440937 
L 273.914354 378.655238 
" style="fill:none;opacity:0.2;stroke:#000000;stroke-linecap:square;stroke-width:0.2;"/>
   </g>
   <g id="line2d_75">
    <path clip-path="url(#p6e95aa98bc)" d="M 316.522975 56.248284 
L 315.892559 391.46759 
" style="fill:none;opacity:0.2;stroke:#000000;stroke-linecap:square;stroke-width:0.2;"/>
   </g>
   <g id="line2d_76">
    <path clip-path="url(#p6e95aa98bc)" d="M 355.611729 79.590441 
L 274.683649 379.310548 
" style="fill:none;opacity:0.2;stroke:#000000;stroke-linecap:square;stroke-width:0.2;"/>
   </g>
   <g id="line2d_77">
    <path clip-path="url(#p6e95aa98bc)" d="M 360.703996 92.29151 
L 293.334769 389.247317 
" style="fill:none;opacity:0.2;stroke:#000000;stroke-linecap:square;stroke-width:0.2;"/>
   </g>
   <g id="line2d_78">
    <path clip-path="url(#p6e95aa98bc)" d="M 263.463869 82.156581 
L 338.119698 384.61093 
" style="fill:none;opacity:0.2;stroke:#000000;stroke-linecap:square;stroke-width:0.2;"/>
   </g>
   <g id="line2d_79">
    <path clip-path="url(#p6e95aa98bc)" d="M 361.543413 99.400307 
L 268.360066 372.931811 
" style="fill:none;opacity:0.2;stroke:#000000;stroke-linecap:square;stroke-width:0.2;"/>
   </g>
   <g id="line2d_80">
    <path clip-path="url(#p6e95aa98bc)" d="M 357.613362 83.270174 
L 274.7548 379.369781 
" style="fill:none;opacity:0.2;stroke:#000000;stroke-linecap:square;stroke-width:0.2;"/>
   </g>
   <g id="line2d_81">
    <path clip-path="url(#p6e95aa98bc)" d="M 347.299387 69.611088 
L 276.957329 381.096588 
" style="fill:none;opacity:0.2;stroke:#000000;stroke-linecap:square;stroke-width:0.2;"/>
   </g>
   <g id="line2d_82">
    <path clip-path="url(#p6e95aa98bc)" d="M 349.185161 71.412437 
L 273.327798 378.136564 
" style="fill:none;opacity:0.2;stroke:#000000;stroke-linecap:square;stroke-width:0.2;"/>
   </g>
   <g id="line2d_83">
    <path clip-path="url(#p6e95aa98bc)" d="M 361.278556 95.744389 
L 268.217958 372.756577 
" style="fill:none;opacity:0.2;stroke:#000000;stroke-linecap:square;stroke-width:0.2;"/>
   </g>
   <g id="line2d_84">
    <path clip-path="url(#p6e95aa98bc)" d="M 284.958886 61.698079 
L 320.470428 390.847094 
" style="fill:none;opacity:0.2;stroke:#000000;stroke-linecap:square;stroke-width:0.2;"/>
   </g>
   <g id="line2d_85">
    <path clip-path="url(#p6e95aa98bc)" d="M 361.304169 95.962374 
L 298.736641 390.60028 
" style="fill:none;opacity:0.2;stroke:#000000;stroke-linecap:square;stroke-width:0.2;"/>
   </g>
   <g id="line2d_86">
    <path clip-path="url(#p6e95aa98bc)" d="M 268.98102 73.975002 
L 309.36968 391.72955 
" style="fill:none;opacity:0.2;stroke:#000000;stroke-linecap:square;stroke-width:0.2;"/>
   </g>
   <g id="line2d_87">
    <path clip-path="url(#p6e95aa98bc)" d="M 259.254781 95.644829 
L 323.695007 390.18508 
" style="fill:none;opacity:0.2;stroke:#000000;stroke-linecap:square;stroke-width:0.2;"/>
   </g>
   <g id="line2d_88">
    <path clip-path="url(#p6e95aa98bc)" d="M 268.180165 74.942451 
L 317.015318 391.349277 
" style="fill:none;opacity:0.2;stroke:#000000;stroke-linecap:square;stroke-width:0.2;"/>
   </g>
   <g id="line2d_89">
    <path clip-path="url(#p6e95aa98bc)" d="M 352.830547 75.561899 
L 287.37725 387.069192 
" style="fill:none;opacity:0.2;stroke:#000000;stroke-linecap:square;stroke-width:0.2;"/>
   </g>
   <g id="line2d_90">
    <path clip-path="url(#p6e95aa98bc)" d="M 357.095046 82.229507 
L 274.260309 378.953349 
" style="fill:none;opacity:0.2;stroke:#000000;stroke-linecap:square;stroke-width:0.2;"/>
   </g>
   <g id="line2d_91">
    <path clip-path="url(#p6e95aa98bc)" d="M 334.314769 61.104879 
L 271.275455 376.178396 
" style="fill:none;opacity:0.2;stroke:#000000;stroke-linecap:square;stroke-width:0.2;"/>
   </g>
   <g id="line2d_92">
    <path clip-path="url(#p6e95aa98bc)" d="M 309.353057 55.922825 
L 284.911909 385.930939 
" style="fill:none;opacity:0.2;stroke:#000000;stroke-linecap:square;stroke-width:0.2;"/>
   </g>
   <g id="line2d_93">
    <path clip-path="url(#p6e95aa98bc)" d="M 277.094439 66.454497 
L 338.399161 384.453209 
" style="fill:none;opacity:0.2;stroke:#000000;stroke-linecap:square;stroke-width:0.2;"/>
   </g>
   <g id="line2d_94">
    <path clip-path="url(#p6e95aa98bc)" d="M 304.934561 56.156063 
L 335.971048 385.751112 
" style="fill:none;opacity:0.2;stroke:#000000;stroke-linecap:square;stroke-width:0.2;"/>
   </g>
   <g id="line2d_95">
    <path clip-path="url(#p6e95aa98bc)" d="M 315.781914 56.17405 
L 293.119113 389.181544 
" style="fill:none;opacity:0.2;stroke:#000000;stroke-linecap:square;stroke-width:0.2;"/>
   </g>
   <g id="line2d_96">
    <path clip-path="url(#p6e95aa98bc)" d="M 356.187749 80.563501 
L 259.998179 356.168361 
" style="fill:none;opacity:0.2;stroke:#000000;stroke-linecap:square;stroke-width:0.2;"/>
   </g>
   <g id="line2d_97">
    <path clip-path="url(#p6e95aa98bc)" d="M 266.543071 77.109044 
L 325.520475 389.724275 
" style="fill:none;opacity:0.2;stroke:#000000;stroke-linecap:square;stroke-width:0.2;"/>
   </g>
   <g id="line2d_98">
    <path clip-path="url(#p6e95aa98bc)" d="M 305.360948 56.11906 
L 331.3591 387.803128 
" style="fill:none;opacity:0.2;stroke:#000000;stroke-linecap:square;stroke-width:0.2;"/>
   </g>
   <g id="line2d_99">
    <path clip-path="url(#p6e95aa98bc)" d="M 340.916634 64.725182 
L 290.691796 388.375413 
" style="fill:none;opacity:0.2;stroke:#000000;stroke-linecap:square;stroke-width:0.2;"/>
   </g>
   <g id="line2d_100">
    <path clip-path="url(#p6e95aa98bc)" d="M 258.966193 100.23403 
L 353.13307 371.695836 
" style="fill:none;opacity:0.2;stroke:#000000;stroke-linecap:square;stroke-width:0.2;"/>
   </g>
   <g id="line2d_101">
    <path clip-path="url(#p6e95aa98bc)" d="M 312.100379 55.944461 
L 285.506055 386.219023 
" style="fill:none;opacity:0.2;stroke:#000000;stroke-linecap:square;stroke-width:0.2;"/>
   </g>
   <g id="line2d_102">
    <path clip-path="url(#p6e95aa98bc)" d="M 278.01139 65.796877 
L 346.875484 378.419812 
" style="fill:none;opacity:0.2;stroke:#000000;stroke-linecap:square;stroke-width:0.2;"/>
   </g>
   <g id="line2d_103">
    <path clip-path="url(#p6e95aa98bc)" d="M 260.258344 90.441402 
L 328.873382 388.707545 
" style="fill:none;opacity:0.2;stroke:#000000;stroke-linecap:square;stroke-width:0.2;"/>
   </g>
   <g id="line2d_104">
    <path clip-path="url(#p6e95aa98bc)" d="M 274.217321 68.735509 
L 358.46189 362.496918 
" style="fill:none;opacity:0.2;stroke:#000000;stroke-linecap:square;stroke-width:0.2;"/>
   </g>
   <g id="line2d_105">
    <path clip-path="url(#p6e95aa98bc)" d="M 346.244522 68.684789 
L 293.632774 389.33667 
" style="fill:none;opacity:0.2;stroke:#000000;stroke-linecap:square;stroke-width:0.2;"/>
   </g>
   <g id="line2d_106">
    <path clip-path="url(#p6e95aa98bc)" d="M 260.290658 90.319846 
L 353.235895 371.559682 
" style="fill:none;opacity:0.2;stroke:#000000;stroke-linecap:square;stroke-width:0.2;"/>
   </g>
   <g id="line2d_107">
    <path clip-path="url(#p6e95aa98bc)" d="M 326.104 58.088686 
L 317.618489 391.276703 
" style="fill:none;opacity:0.2;stroke:#000000;stroke-linecap:square;stroke-width:0.2;"/>
   </g>
   <g id="line2d_108">
    <path clip-path="url(#p6e95aa98bc)" d="M 286.303757 61.060238 
L 297.785389 390.401985 
" style="fill:none;opacity:0.2;stroke:#000000;stroke-linecap:square;stroke-width:0.2;"/>
   </g>
   <g id="line2d_109">
    <path clip-path="url(#p6e95aa98bc)" d="M 346.011587 68.487405 
L 304.917951 391.494555 
" style="fill:none;opacity:0.2;stroke:#000000;stroke-linecap:square;stroke-width:0.2;"/>
   </g>
   <g id="line2d_110">
    <path clip-path="url(#p6e95aa98bc)" d="M 283.003295 62.7091 
L 332.529542 387.330106 
" style="fill:none;opacity:0.2;stroke:#000000;stroke-linecap:square;stroke-width:0.2;"/>
   </g>
   <g id="line2d_111">
    <path clip-path="url(#p6e95aa98bc)" d="M 278.317222 65.584342 
L 333.820699 386.771524 
" style="fill:none;opacity:0.2;stroke:#000000;stroke-linecap:square;stroke-width:0.2;"/>
   </g>
   <g id="line2d_112">
    <path clip-path="url(#p6e95aa98bc)" d="M 349.850281 72.097664 
L 261.027375 359.769602 
" style="fill:none;opacity:0.2;stroke:#000000;stroke-linecap:square;stroke-width:0.2;"/>
   </g>
   <g id="line2d_113">
    <path clip-path="url(#p6e95aa98bc)" d="M 292.357631 58.71036 
L 337.521058 384.941322 
" style="fill:none;opacity:0.2;stroke:#000000;stroke-linecap:square;stroke-width:0.2;"/>
   </g>
   <g id="line2d_114">
    <path clip-path="url(#p6e95aa98bc)" d="M 344.583683 67.33012 
L 301.549096 391.090702 
" style="fill:none;opacity:0.2;stroke:#000000;stroke-linecap:square;stroke-width:0.2;"/>
   </g>
   <g id="line2d_115">
    <path clip-path="url(#p6e95aa98bc)" d="M 276.515333 66.88619 
L 349.772036 375.636538 
" style="fill:none;opacity:0.2;stroke:#000000;stroke-linecap:square;stroke-width:0.2;"/>
   </g>
   <g id="line2d_116">
    <path clip-path="url(#p6e95aa98bc)" d="M 325.596279 57.948366 
L 325.796867 389.648921 
" style="fill:none;opacity:0.2;stroke:#000000;stroke-linecap:square;stroke-width:0.2;"/>
   </g>
   <g id="line2d_117">
    <path clip-path="url(#p6e95aa98bc)" d="M 341.968031 65.422614 
L 280.240821 383.331244 
" style="fill:none;opacity:0.2;stroke:#000000;stroke-linecap:square;stroke-width:0.2;"/>
   </g>
   <g id="line2d_118">
    <path clip-path="url(#p6e95aa98bc)" d="M 308.4748 55.942808 
L 311.730758 391.717999 
" style="fill:none;opacity:0.2;stroke:#000000;stroke-linecap:square;stroke-width:0.2;"/>
   </g>
   <g id="line2d_119">
    <path clip-path="url(#p6e95aa98bc)" d="M 268.274023 74.826197 
L 344.866836 380.099467 
" style="fill:none;opacity:0.2;stroke:#000000;stroke-linecap:square;stroke-width:0.2;"/>
   </g>
   <g id="line2d_120">
    <path clip-path="url(#p6e95aa98bc)" d="M 342.345095 65.681981 
L 309.085842 391.724598 
" style="fill:none;opacity:0.2;stroke:#000000;stroke-linecap:square;stroke-width:0.2;"/>
   </g>
   <g id="line2d_121">
    <path clip-path="url(#p6e95aa98bc)" d="M 261.451188 86.689295 
L 334.732883 386.352773 
" style="fill:none;opacity:0.2;stroke:#000000;stroke-linecap:square;stroke-width:0.2;"/>
   </g>
   <g id="line2d_122">
    <path clip-path="url(#p6e95aa98bc)" d="M 326.04546 58.07225 
L 314.756764 391.565215 
" style="fill:none;opacity:0.2;stroke:#000000;stroke-linecap:square;stroke-width:0.2;"/>
   </g>
   <g id="line2d_123">
    <path clip-path="url(#p6e95aa98bc)" d="M 264.093886 80.986406 
L 313.304535 391.657942 
" style="fill:none;opacity:0.2;stroke:#000000;stroke-linecap:square;stroke-width:0.2;"/>
   </g>
   <g id="line2d_124">
    <path clip-path="url(#p6e95aa98bc)" d="M 284.08354 62.13803 
L 352.195309 372.88986 
" style="fill:none;opacity:0.2;stroke:#000000;stroke-linecap:square;stroke-width:0.2;"/>
   </g>
   <g id="line2d_125">
    <path clip-path="url(#p6e95aa98bc)" d="M 303.500049 56.30352 
L 307.322613 391.663302 
" style="fill:none;opacity:0.2;stroke:#000000;stroke-linecap:square;stroke-width:0.2;"/>
   </g>
   <g id="line2d_126">
    <path clip-path="url(#p6e95aa98bc)" d="M 273.890082 69.018014 
L 337.1154 385.159529 
" style="fill:none;opacity:0.2;stroke:#000000;stroke-linecap:square;stroke-width:0.2;"/>
   </g>
   <g id="line2d_127">
    <path clip-path="url(#p6e95aa98bc)" d="M 312.79835 55.970286 
L 334.205816 386.597214 
" style="fill:none;opacity:0.2;stroke:#000000;stroke-linecap:square;stroke-width:0.2;"/>
   </g>
   <g id="line2d_128">
    <path clip-path="url(#p6e95aa98bc)" d="M 259.456417 94.223363 
L 357.306897 365.006032 
" style="fill:none;opacity:0.2;stroke:#000000;stroke-linecap:square;stroke-width:0.2;"/>
   </g>
   <g id="line2d_129">
    <path clip-path="url(#p6e95aa98bc)" d="M 259.334749 95.034738 
L 360.116424 357.749733 
" style="fill:none;opacity:0.2;stroke:#000000;stroke-linecap:square;stroke-width:0.2;"/>
   </g>
   <g id="line2d_130">
    <path clip-path="url(#p6e95aa98bc)" d="M 343.547716 66.543576 
L 279.673589 382.971421 
" style="fill:none;opacity:0.2;stroke:#000000;stroke-linecap:square;stroke-width:0.2;"/>
   </g>
   <g id="line2d_131">
    <path clip-path="url(#p6e95aa98bc)" d="M 354.462541 77.807049 
L 270.279155 375.137357 
" style="fill:none;opacity:0.2;stroke:#000000;stroke-linecap:square;stroke-width:0.2;"/>
   </g>
   <g id="line2d_132">
    <path clip-path="url(#p6e95aa98bc)" d="M 328.657565 58.872258 
L 296.973568 390.219519 
" style="fill:none;opacity:0.2;stroke:#000000;stroke-linecap:square;stroke-width:0.2;"/>
   </g>
   <g id="line2d_133">
    <path clip-path="url(#p6e95aa98bc)" d="M 296.79734 57.473839 
L 308.473052 391.709262 
" style="fill:none;opacity:0.2;stroke:#000000;stroke-linecap:square;stroke-width:0.2;"/>
   </g>
   <g id="line2d_134">
    <path clip-path="url(#p6e95aa98bc)" d="M 263.352146 82.37377 
L 319.322148 391.037362 
" style="fill:none;opacity:0.2;stroke:#000000;stroke-linecap:square;stroke-width:0.2;"/>
   </g>
   <g id="line2d_135">
    <path clip-path="url(#p6e95aa98bc)" d="M 266.60611 77.020295 
L 357.05205 365.505774 
" style="fill:none;opacity:0.2;stroke:#000000;stroke-linecap:square;stroke-width:0.2;"/>
   </g>
   <g id="line2d_136">
    <path clip-path="url(#p6e95aa98bc)" d="M 348.634635 70.865823 
L 268.818294 373.484926 
" style="fill:none;opacity:0.2;stroke:#000000;stroke-linecap:square;stroke-width:0.2;"/>
   </g>
   <g id="line2d_137">
    <path clip-path="url(#p6e95aa98bc)" d="M 348.455034 70.691335 
L 303.016712 391.290901 
" style="fill:none;opacity:0.2;stroke:#000000;stroke-linecap:square;stroke-width:0.2;"/>
   </g>
   <g id="line2d_138">
    <path clip-path="url(#p6e95aa98bc)" d="M 280.462209 64.183224 
L 348.517936 376.899887 
" style="fill:none;opacity:0.2;stroke:#000000;stroke-linecap:square;stroke-width:0.2;"/>
   </g>
   <g id="line2d_139">
    <path clip-path="url(#p6e95aa98bc)" d="M 271.716413 71.032871 
L 335.853106 385.810116 
" style="fill:none;opacity:0.2;stroke:#000000;stroke-linecap:square;stroke-width:0.2;"/>
   </g>
   <g id="line2d_140">
    <path clip-path="url(#p6e95aa98bc)" d="M 259.543918 93.701768 
L 333.222957 387.03501 
" style="fill:none;opacity:0.2;stroke:#000000;stroke-linecap:square;stroke-width:0.2;"/>
   </g>
   <g id="line2d_141">
    <path clip-path="url(#p6e95aa98bc)" d="M 323.982536 57.535419 
L 294.932339 389.705763 
" style="fill:none;opacity:0.2;stroke:#000000;stroke-linecap:square;stroke-width:0.2;"/>
   </g>
   <g id="line2d_142">
    <path clip-path="url(#p6e95aa98bc)" d="M 319.247003 56.603126 
L 300.997178 391.005609 
" style="fill:none;opacity:0.2;stroke:#000000;stroke-linecap:square;stroke-width:0.2;"/>
   </g>
   <g id="line2d_143">
    <path clip-path="url(#p6e95aa98bc)" d="M 259.533834 93.75973 
L 321.313629 390.692326 
" style="fill:none;opacity:0.2;stroke:#000000;stroke-linecap:square;stroke-width:0.2;"/>
   </g>
   <g id="line2d_144">
    <path clip-path="url(#p6e95aa98bc)" d="M 357.569527 83.179267 
L 259.873962 355.62263 
" style="fill:none;opacity:0.2;stroke:#000000;stroke-linecap:square;stroke-width:0.2;"/>
   </g>
   <g id="line2d_145">
    <path clip-path="url(#p6e95aa98bc)" d="M 337.291494 62.58676 
L 285.39682 386.16673 
" style="fill:none;opacity:0.2;stroke:#000000;stroke-linecap:square;stroke-width:0.2;"/>
   </g>
   <g id="line2d_146">
    <path clip-path="url(#p6e95aa98bc)" d="M 309.167097 55.925968 
L 289.97253 388.112679 
" style="fill:none;opacity:0.2;stroke:#000000;stroke-linecap:square;stroke-width:0.2;"/>
   </g>
   <g id="line2d_147">
    <path clip-path="url(#p6e95aa98bc)" d="M 355.156728 78.861115 
L 263.845873 366.215585 
" style="fill:none;opacity:0.2;stroke:#000000;stroke-linecap:square;stroke-width:0.2;"/>
   </g>
   <g id="line2d_148">
    <path clip-path="url(#p6e95aa98bc)" d="M 275.889734 67.367458 
L 346.385659 378.846508 
" style="fill:none;opacity:0.2;stroke:#000000;stroke-linecap:square;stroke-width:0.2;"/>
   </g>
   <g id="line2d_149">
    <path clip-path="url(#p6e95aa98bc)" d="M 345.900808 68.394409 
L 292.438253 388.967709 
" style="fill:none;opacity:0.2;stroke:#000000;stroke-linecap:square;stroke-width:0.2;"/>
   </g>
   <g id="line2d_150">
    <path clip-path="url(#p6e95aa98bc)" d="M 360.181331 90.137572 
L 283.417558 385.165775 
" style="fill:none;opacity:0.2;stroke:#000000;stroke-linecap:square;stroke-width:0.2;"/>
   </g>
   <g id="line2d_151">
    <path clip-path="url(#p6e95aa98bc)" d="M 351.399003 73.809967 
L 299.870047 390.814997 
" style="fill:none;opacity:0.2;stroke:#000000;stroke-linecap:square;stroke-width:0.2;"/>
   </g>
   <g id="line2d_152">
    <path clip-path="url(#p6e95aa98bc)" d="M 355.522883 79.445445 
L 279.929733 383.135188 
" style="fill:none;opacity:0.2;stroke:#000000;stroke-linecap:square;stroke-width:0.2;"/>
   </g>
   <g id="line2d_153">
    <path clip-path="url(#p6e95aa98bc)" d="M 263.94376 81.25732 
L 343.798331 380.922155 
" style="fill:none;opacity:0.2;stroke:#000000;stroke-linecap:square;stroke-width:0.2;"/>
   </g>
   <g id="line2d_154">
    <path clip-path="url(#p6e95aa98bc)" d="M 270.531753 72.244667 
L 360.336609 356.927317 
" style="fill:none;opacity:0.2;stroke:#000000;stroke-linecap:square;stroke-width:0.2;"/>
   </g>
   <g id="line2d_155">
    <path clip-path="url(#p6e95aa98bc)" d="M 323.932336 57.523369 
L 318.492998 391.160213 
" style="fill:none;opacity:0.2;stroke:#000000;stroke-linecap:square;stroke-width:0.2;"/>
   </g>
   <g id="line2d_156">
    <path clip-path="url(#p6e95aa98bc)" d="M 266.907648 76.6021 
L 333.562321 386.886464 
" style="fill:none;opacity:0.2;stroke:#000000;stroke-linecap:square;stroke-width:0.2;"/>
   </g>
   <g id="line2d_157">
    <path clip-path="url(#p6e95aa98bc)" d="M 268.681771 74.330128 
L 339.277467 383.942689 
" style="fill:none;opacity:0.2;stroke:#000000;stroke-linecap:square;stroke-width:0.2;"/>
   </g>
   <g id="line2d_158">
    <path clip-path="url(#p6e95aa98bc)" d="M 299.96326 56.8205 
L 341.135749 382.784652 
" style="fill:none;opacity:0.2;stroke:#000000;stroke-linecap:square;stroke-width:0.2;"/>
   </g>
   <g id="line2d_159">
    <path clip-path="url(#p6e95aa98bc)" d="M 359.632059 88.299577 
L 269.95471 374.783985 
" style="fill:none;opacity:0.2;stroke:#000000;stroke-linecap:square;stroke-width:0.2;"/>
   </g>
   <g id="line2d_160">
    <path clip-path="url(#p6e95aa98bc)" d="M 269.437602 73.447009 
L 353.000672 371.869561 
" style="fill:none;opacity:0.2;stroke:#000000;stroke-linecap:square;stroke-width:0.2;"/>
   </g>
   <g id="line2d_161">
    <path clip-path="url(#p6e95aa98bc)" d="M 361.462159 97.677978 
L 287.310305 387.04023 
" style="fill:none;opacity:0.2;stroke:#000000;stroke-linecap:square;stroke-width:0.2;"/>
   </g>
   <g id="line2d_162">
    <path clip-path="url(#p6e95aa98bc)" d="M 361.375531 96.637242 
L 281.627604 384.168604 
" style="fill:none;opacity:0.2;stroke:#000000;stroke-linecap:square;stroke-width:0.2;"/>
   </g>
   <g id="line2d_163">
    <path clip-path="url(#p6e95aa98bc)" d="M 274.900709 68.161584 
L 325.901868 389.619904 
" style="fill:none;opacity:0.2;stroke:#000000;stroke-linecap:square;stroke-width:0.2;"/>
   </g>
   <g id="line2d_164">
    <path clip-path="url(#p6e95aa98bc)" d="M 331.774537 60.013336 
L 320.259323 390.883839 
" style="fill:none;opacity:0.2;stroke:#000000;stroke-linecap:square;stroke-width:0.2;"/>
   </g>
   <g id="line2d_165">
    <path clip-path="url(#p6e95aa98bc)" d="M 299.441587 56.915561 
L 342.546938 381.829232 
" style="fill:none;opacity:0.2;stroke:#000000;stroke-linecap:square;stroke-width:0.2;"/>
   </g>
   <g id="line2d_166">
    <path clip-path="url(#p6e95aa98bc)" d="M 356.59623 81.291521 
L 259.472651 353.528898 
" style="fill:none;opacity:0.2;stroke:#000000;stroke-linecap:square;stroke-width:0.2;"/>
   </g>
   <g id="line2d_167">
    <path clip-path="url(#p6e95aa98bc)" d="M 261.490267 86.584971 
L 360.492294 356.298149 
" style="fill:none;opacity:0.2;stroke:#000000;stroke-linecap:square;stroke-width:0.2;"/>
   </g>
   <g id="line2d_168">
    <path clip-path="url(#p6e95aa98bc)" d="M 348.474148 70.709817 
L 285.35853 386.148329 
" style="fill:none;opacity:0.2;stroke:#000000;stroke-linecap:square;stroke-width:0.2;"/>
   </g>
   <g id="line2d_169">
    <path clip-path="url(#p6e95aa98bc)" d="M 320.308126 56.776707 
L 314.954448 391.549811 
" style="fill:none;opacity:0.2;stroke:#000000;stroke-linecap:square;stroke-width:0.2;"/>
   </g>
   <g id="line2d_170">
    <path clip-path="url(#p6e95aa98bc)" d="M 307.008373 56.005277 
L 305.208817 391.520218 
" style="fill:none;opacity:0.2;stroke:#000000;stroke-linecap:square;stroke-width:0.2;"/>
   </g>
   <g id="line2d_171">
    <path clip-path="url(#p6e95aa98bc)" d="M 260.214369 90.60939 
L 350.883222 374.431791 
" style="fill:none;opacity:0.2;stroke:#000000;stroke-linecap:square;stroke-width:0.2;"/>
   </g>
   <g id="line2d_172">
    <path clip-path="url(#p6e95aa98bc)" d="M 328.143039 58.703733 
L 317.743141 391.260915 
" style="fill:none;opacity:0.2;stroke:#000000;stroke-linecap:square;stroke-width:0.2;"/>
   </g>
   <g id="line2d_173">
    <path clip-path="url(#p6e95aa98bc)" d="M 278.080725 65.748401 
L 347.204198 378.126876 
" style="fill:none;opacity:0.2;stroke:#000000;stroke-linecap:square;stroke-width:0.2;"/>
   </g>
   <g id="line2d_174">
    <path clip-path="url(#p6e95aa98bc)" d="M 349.724292 71.965698 
L 261.239578 360.381948 
" style="fill:none;opacity:0.2;stroke:#000000;stroke-linecap:square;stroke-width:0.2;"/>
   </g>
   <g id="line2d_175">
    <path clip-path="url(#p6e95aa98bc)" d="M 292.852457 58.553205 
L 319.913914 390.942243 
" style="fill:none;opacity:0.2;stroke:#000000;stroke-linecap:square;stroke-width:0.2;"/>
   </g>
   <g id="line2d_176">
    <path clip-path="url(#p6e95aa98bc)" d="M 358.424194 85.065778 
L 261.967462 362.276435 
" style="fill:none;opacity:0.2;stroke:#000000;stroke-linecap:square;stroke-width:0.2;"/>
   </g>
   <g id="line2d_177">
    <path clip-path="url(#p6e95aa98bc)" d="M 361.526585 98.868985 
L 266.532377 370.527977 
" style="fill:none;opacity:0.2;stroke:#000000;stroke-linecap:square;stroke-width:0.2;"/>
   </g>
   <g id="line2d_178">
    <path clip-path="url(#p6e95aa98bc)" d="M 327.62299 58.538918 
L 316.705722 391.384076 
" style="fill:none;opacity:0.2;stroke:#000000;stroke-linecap:square;stroke-width:0.2;"/>
   </g>
   <g id="line2d_179">
    <path clip-path="url(#p6e95aa98bc)" d="M 330.356466 59.468132 
L 323.278217 390.28144 
" style="fill:none;opacity:0.2;stroke:#000000;stroke-linecap:square;stroke-width:0.2;"/>
   </g>
   <g id="line2d_180">
    <path clip-path="url(#p6e95aa98bc)" d="M 283.148349 62.630565 
L 298.472897 390.546965 
" style="fill:none;opacity:0.2;stroke:#000000;stroke-linecap:square;stroke-width:0.2;"/>
   </g>
   <g id="line2d_181">
    <path clip-path="url(#p6e95aa98bc)" d="M 359.316641 87.368994 
L 287.107733 386.951948 
" style="fill:none;opacity:0.2;stroke:#000000;stroke-linecap:square;stroke-width:0.2;"/>
   </g>
   <g id="line2d_182">
    <path clip-path="url(#p6e95aa98bc)" d="M 360.493355 91.358419 
L 267.807861 372.24058 
" style="fill:none;opacity:0.2;stroke:#000000;stroke-linecap:square;stroke-width:0.2;"/>
   </g>
   <g id="line2d_183">
    <path clip-path="url(#p6e95aa98bc)" d="M 324.232364 57.596097 
L 328.187689 388.933981 
" style="fill:none;opacity:0.2;stroke:#000000;stroke-linecap:square;stroke-width:0.2;"/>
   </g>
   <g id="line2d_184">
    <path clip-path="url(#p6e95aa98bc)" d="M 307.669799 55.972588 
L 304.676408 391.472139 
" style="fill:none;opacity:0.2;stroke:#000000;stroke-linecap:square;stroke-width:0.2;"/>
   </g>
   <g id="line2d_185">
    <path clip-path="url(#p6e95aa98bc)" d="M 262.225789 84.764697 
L 322.02319 390.552101 
" style="fill:none;opacity:0.2;stroke:#000000;stroke-linecap:square;stroke-width:0.2;"/>
   </g>
   <g id="line2d_186">
    <path clip-path="url(#p6e95aa98bc)" d="M 314.103132 56.040728 
L 333.488992 386.918794 
" style="fill:none;opacity:0.2;stroke:#000000;stroke-linecap:square;stroke-width:0.2;"/>
   </g>
   <g id="line2d_187">
    <path clip-path="url(#p6e95aa98bc)" d="M 287.181685 60.667834 
L 306.947589 391.643468 
" style="fill:none;opacity:0.2;stroke:#000000;stroke-linecap:square;stroke-width:0.2;"/>
   </g>
   <g id="line2d_188">
    <path clip-path="url(#p6e95aa98bc)" d="M 360.937992 93.480576 
L 289.014442 387.745151 
" style="fill:none;opacity:0.2;stroke:#000000;stroke-linecap:square;stroke-width:0.2;"/>
   </g>
   <g id="line2d_189">
    <path clip-path="url(#p6e95aa98bc)" d="M 266.304782 77.448799 
L 351.664489 373.530522 
" style="fill:none;opacity:0.2;stroke:#000000;stroke-linecap:square;stroke-width:0.2;"/>
   </g>
   <g id="line2d_190">
    <path clip-path="url(#p6e95aa98bc)" d="M 268.534976 74.507067 
L 354.223521 370.193122 
" style="fill:none;opacity:0.2;stroke:#000000;stroke-linecap:square;stroke-width:0.2;"/>
   </g>
   <g id="line2d_191">
    <path clip-path="url(#p6e95aa98bc)" d="M 291.653196 58.942771 
L 334.001978 386.689922 
" style="fill:none;opacity:0.2;stroke:#000000;stroke-linecap:square;stroke-width:0.2;"/>
   </g>
   <g id="line2d_192">
    <path clip-path="url(#p6e95aa98bc)" d="M 317.824923 56.401713 
L 329.241883 388.581812 
" style="fill:none;opacity:0.2;stroke:#000000;stroke-linecap:square;stroke-width:0.2;"/>
   </g>
   <g id="line2d_193">
    <path clip-path="url(#p6e95aa98bc)" d="M 293.148952 58.461423 
L 297.591862 390.359601 
" style="fill:none;opacity:0.2;stroke:#000000;stroke-linecap:square;stroke-width:0.2;"/>
   </g>
   <g id="line2d_194">
    <path clip-path="url(#p6e95aa98bc)" d="M 305.049551 56.145777 
L 303.245381 391.318706 
" style="fill:none;opacity:0.2;stroke:#000000;stroke-linecap:square;stroke-width:0.2;"/>
   </g>
   <g id="line2d_195">
    <path clip-path="url(#p6e95aa98bc)" d="M 265.150235 79.200504 
L 349.137793 376.287431 
" style="fill:none;opacity:0.2;stroke:#000000;stroke-linecap:square;stroke-width:0.2;"/>
   </g>
   <g id="line2d_196">
    <path clip-path="url(#p6e95aa98bc)" d="M 309.057557 55.928093 
L 338.460119 384.418507 
" style="fill:none;opacity:0.2;stroke:#000000;stroke-linecap:square;stroke-width:0.2;"/>
   </g>
   <g id="line2d_197">
    <path clip-path="url(#p6e95aa98bc)" d="M 293.856337 58.249583 
L 307.180458 391.656065 
" style="fill:none;opacity:0.2;stroke:#000000;stroke-linecap:square;stroke-width:0.2;"/>
   </g>
   <g id="line2d_198">
    <path clip-path="url(#p6e95aa98bc)" d="M 268.637786 74.382953 
L 340.587622 383.137644 
" style="fill:none;opacity:0.2;stroke:#000000;stroke-linecap:square;stroke-width:0.2;"/>
   </g>
   <g id="line2d_199">
    <path clip-path="url(#p6e95aa98bc)" d="M 260.031095 91.344905 
L 351.749467 373.42956 
" style="fill:none;opacity:0.2;stroke:#000000;stroke-linecap:square;stroke-width:0.2;"/>
   </g>
   <g id="line2d_200">
    <path clip-path="url(#p6e95aa98bc)" d="M 330.118324 59.380898 
L 297.336376 390.302582 
" style="fill:none;opacity:0.2;stroke:#000000;stroke-linecap:square;stroke-width:0.2;"/>
   </g>
   <g id="line2d_201">
    <path clip-path="url(#p6e95aa98bc)" d="M 271.577781 71.170214 
L 318.920916 391.098325 
" style="fill:none;opacity:0.2;stroke:#000000;stroke-linecap:square;stroke-width:0.2;"/>
   </g>
   <g id="legend_1">
    <g id="patch_91">
     <path d="M 455.597565 138.013442 
L 546.674709 138.013442 
Q 549.474709 138.013442 549.474709 135.213442 
L 549.474709 39.0533 
Q 549.474709 36.2533 546.674709 36.2533 
L 455.597565 36.2533 
Q 452.797565 36.2533 452.797565 39.0533 
L 452.797565 135.213442 
Q 452.797565 138.013442 455.597565 138.013442 
z
" style="fill:#ffffff;opacity:0.8;stroke:#cccccc;stroke-linejoin:miter;"/>
    </g>
    <g id="patch_92">
     <path d="M 458.397565 51.6533 
L 486.397565 51.6533 
L 486.397565 41.8533 
L 458.397565 41.8533 
z
" style="stroke:#000000;stroke-linejoin:miter;"/>
    </g>
    <g id="text_18">
     <!-- \rm{300.0 K} -->
     <defs>
      <path d="M 22.09375 33.703125 
C 31 33.703125 34.90625 25.96875 34.90625 17.03125 
C 34.90625 5 28.5 0.390625 22.703125 0.390625 
C 17.40625 0.390625 8.796875 3.03125 6.09375 10.828125 
C 6.59375 10.625 7.09375 10.625 7.59375 10.625 
C 10 10.625 11.796875 12.21875 11.796875 14.8125 
C 11.796875 17.703125 9.59375 19 7.59375 19 
C 5.90625 19 3.296875 18.203125 3.296875 14.46875 
C 3.296875 5.234375 12.296875 -2 22.90625 -2 
C 34 -2 42.5 6.71875 42.5 16.953125 
C 42.5 26.671875 34.5 33.6875 25 34.796875 
C 32.59375 36.375 39.90625 43.0625 39.90625 52.015625 
C 39.90625 59.6875 32 65.296875 23 65.296875 
C 13.90625 65.296875 5.90625 59.828125 5.90625 52.015625 
C 5.90625 48.59375 8.5 48 9.796875 48 
C 11.90625 48 13.703125 49.296875 13.703125 51.890625 
C 13.703125 54.46875 11.90625 55.765625 9.796875 55.765625 
C 9.40625 55.765625 8.90625 55.765625 8.5 55.5625 
C 11.40625 61.859375 19.296875 63 22.796875 63 
C 26.296875 63 32.90625 61.328125 32.90625 51.875 
C 32.90625 49.109375 32.5 44.1875 29.09375 39.84375 
C 26.09375 36 22.703125 36 19.40625 35.59375 
C 18.90625 35.59375 16.59375 35.59375 16.203125 35.59375 
C 15.5 35.484375 15.09375 35.390625 15.09375 34.59375 
C 15.09375 33.8125 15.203125 33.703125 17.203125 33.703125 
z
" id="CMR17-51"/>
      <path d="M 16.59375 4.078125 
C 16.59375 6.5625 14.59375 8.15625 12.5 8.15625 
C 10.5 8.15625 8.40625 6.5625 8.40625 4.078125 
C 8.40625 1.59375 10.40625 0 12.5 0 
C 14.5 0 16.59375 1.59375 16.59375 4.078125 
" id="CMR17-46"/>
      <path d="M 36.90625 41.734375 
L 54.203125 59.078125 
C 57.796875 62.59375 61.59375 65.40625 67.203125 65.40625 
L 67.203125 68 
C 65.203125 68 62.703125 68 60.703125 68 
C 58 68 53.296875 68 50.703125 68.09375 
L 50.703125 65.5 
C 53.296875 65.3125 53.703125 63.515625 53.703125 62.796875 
C 53.703125 62.109375 53.296875 61.015625 52.90625 60.421875 
L 19.703125 27.15625 
L 19.703125 60.9375 
C 19.703125 65.40625 20.796875 65.40625 27.703125 65.40625 
L 27.703125 68 
C 24.796875 68 19.5 68 16.40625 68 
C 13.296875 68 8 68 5.09375 68 
L 5.09375 65.40625 
C 12 65.40625 13.09375 65.40625 13.09375 60.9375 
L 13.09375 6.96875 
C 13.09375 2.5 12 2.5 5.09375 2.5 
L 5.09375 0 
C 8 0 13.296875 0 16.40625 0 
C 19.5 0 24.796875 0 27.703125 0 
L 27.703125 2.5 
C 20.796875 2.5 19.703125 2.5 19.703125 6.984375 
L 19.703125 24.671875 
L 32.5 37.34375 
L 51.40625 8.390625 
C 52 7.390625 52.703125 6.09375 52.703125 5.09375 
C 52.703125 2.5 49.90625 2.5 48.59375 2.5 
L 48.59375 0 
C 51.796875 0 56.40625 0 59.703125 0 
C 62.09375 0 66.203125 0 68.5 -0.09375 
L 68.5 2.5 
C 63.703125 2.5 62.203125 3.09375 59.203125 7.6875 
z
" id="CMR17-75"/>
     </defs>
     <g transform="translate(497.597565 51.6533)scale(0.14 -0.14)">
      <use transform="scale(0.996264)" xlink:href="#CMR17-51"/>
      <use transform="translate(45.690477 0)scale(0.996264)" xlink:href="#CMR17-48"/>
      <use transform="translate(91.380954 0)scale(0.996264)" xlink:href="#CMR17-48"/>
      <use transform="translate(137.071431 0)scale(0.996264)" xlink:href="#CMR17-46"/>
      <use transform="translate(161.94249 0)scale(0.996264)" xlink:href="#CMR17-48"/>
      <use transform="translate(237.708933 0)scale(0.996264)" xlink:href="#CMR17-75"/>
     </g>
    </g>
    <g id="patch_93">
     <path d="M 458.397565 71.165329 
L 486.397565 71.165329 
L 486.397565 61.365329 
L 458.397565 61.365329 
z
" style="fill:#bfbf00;stroke:#bfbf00;stroke-linejoin:miter;"/>
    </g>
    <g id="text_19">
     <!-- \rm{40.0 K} -->
     <g transform="translate(497.597565 71.165329)scale(0.14 -0.14)">
      <use transform="scale(0.996264)" xlink:href="#CMR17-52"/>
      <use transform="translate(45.690477 0)scale(0.996264)" xlink:href="#CMR17-48"/>
      <use transform="translate(91.380954 0)scale(0.996264)" xlink:href="#CMR17-46"/>
      <use transform="translate(116.252013 0)scale(0.996264)" xlink:href="#CMR17-48"/>
      <use transform="translate(192.018456 0)scale(0.996264)" xlink:href="#CMR17-75"/>
     </g>
    </g>
    <g id="patch_94">
     <path d="M 458.397565 90.677357 
L 486.397565 90.677357 
L 486.397565 80.877357 
L 458.397565 80.877357 
z
" style="fill:#008000;stroke:#008000;stroke-linejoin:miter;"/>
    </g>
    <g id="text_20">
     <!-- \rm{4.0 K} -->
     <g transform="translate(497.597565 90.677357)scale(0.14 -0.14)">
      <use transform="scale(0.996264)" xlink:href="#CMR17-52"/>
      <use transform="translate(45.690477 0)scale(0.996264)" xlink:href="#CMR17-46"/>
      <use transform="translate(70.561536 0)scale(0.996264)" xlink:href="#CMR17-48"/>
      <use transform="translate(146.327979 0)scale(0.996264)" xlink:href="#CMR17-75"/>
     </g>
    </g>
    <g id="patch_95">
     <path d="M 458.397565 110.189385 
L 486.397565 110.189385 
L 486.397565 100.389385 
L 458.397565 100.389385 
z
" style="fill:#00bfbf;stroke:#00bfbf;stroke-linejoin:miter;"/>
    </g>
    <g id="text_21">
     <!-- \rm{0.3 K} -->
     <g transform="translate(497.597565 110.189385)scale(0.14 -0.14)">
      <use transform="scale(0.996264)" xlink:href="#CMR17-48"/>
      <use transform="translate(45.690477 0)scale(0.996264)" xlink:href="#CMR17-46"/>
      <use transform="translate(70.561536 0)scale(0.996264)" xlink:href="#CMR17-51"/>
      <use transform="translate(146.327979 0)scale(0.996264)" xlink:href="#CMR17-75"/>
     </g>
    </g>
    <g id="patch_96">
     <path d="M 458.397565 129.701414 
L 486.397565 129.701414 
L 486.397565 119.901414 
L 458.397565 119.901414 
z
" style="fill:#0000ff;stroke:#0000ff;stroke-linejoin:miter;"/>
    </g>
    <g id="text_22">
     <!-- \rm{0.2 K} -->
     <g transform="translate(497.597565 129.701414)scale(0.14 -0.14)">
      <use transform="scale(0.996264)" xlink:href="#CMR17-48"/>
      <use transform="translate(45.690477 0)scale(0.996264)" xlink:href="#CMR17-46"/>
      <use transform="translate(70.561536 0)scale(0.996264)" xlink:href="#CMR17-50"/>
      <use transform="translate(146.327979 0)scale(0.996264)" xlink:href="#CMR17-75"/>
     </g>
    </g>
   </g>
  </g>
 </g>
 <defs>
  <clipPath id="p6e95aa98bc">
   <rect height="426.601099" width="492.428196" x="64.046513" y="29.2533"/>
  </clipPath>
 </defs>
</svg>
