<?xml version="1.0" encoding="utf-8" standalone="no"?>
<!DOCTYPE svg PUBLIC "-//W3C//DTD SVG 1.1//EN"
  "http://www.w3.org/Graphics/SVG/1.1/DTD/svg11.dtd">
<!-- Created with matplotlib (http://matplotlib.org/) -->
<svg height="504pt" version="1.1" viewBox="0 0 576 504" width="576pt" xmlns="http://www.w3.org/2000/svg" xmlns:xlink="http://www.w3.org/1999/xlink">
 <defs>
  <style type="text/css">
*{stroke-linecap:butt;stroke-linejoin:round;}
  </style>
 </defs>
 <g id="figure_1">
  <g id="patch_1">
   <path d="M 0 504 
L 576 504 
L 576 0 
L 0 0 
z
" style="fill:#ffffff;"/>
  </g>
  <g id="axes_1">
   <g id="patch_2">
    <path d="M 70.875002 455.854399 
L 553.060465 455.854399 
L 553.060465 29.2533 
L 70.875002 29.2533 
z
" style="fill:#ffffff;"/>
   </g>
   <g id="matplotlib.axis_1">
    <g id="xtick_1">
     <g id="line2d_1">
      <path clip-path="url(#pf287806d3c)" d="M 70.875002 455.854399 
L 70.875002 29.2533 
" style="fill:none;stroke:#b0b0b0;stroke-linecap:square;stroke-width:0.8;"/>
     </g>
     <g id="line2d_2">
      <defs>
       <path d="M 0 0 
L 0 3.5 
" id="ma724190c96" style="stroke:#000000;stroke-width:0.8;"/>
      </defs>
      <g>
       <use style="stroke:#000000;stroke-width:0.8;" x="70.875002" xlink:href="#ma724190c96" y="455.854399"/>
      </g>
     </g>
     <g id="text_1">
      <!-- $-1.00$ -->
      <defs>
       <path d="M 66.09375 23 
C 67.5 23 69.40625 23 69.40625 25 
C 69.40625 27 67.5 27 66.09375 27 
L 11.59375 27 
C 10.203125 27 8.296875 27 8.296875 25 
C 8.296875 23 10.203125 23 11.59375 23 
z
" id="CMSY10-0"/>
       <path d="M 26.59375 63.3125 
C 26.59375 65.40625 26.5 65.5 25.09375 65.5 
C 21.203125 61.1875 15.296875 59.796875 9.703125 59.796875 
C 9.40625 59.796875 8.90625 59.796875 8.796875 59.5 
C 8.703125 59.296875 8.703125 59.09375 8.703125 57 
C 11.796875 57 17 57.59375 21 59.984375 
L 21 7.203125 
C 21 3.6875 20.796875 2.5 12.203125 2.5 
L 9.203125 2.5 
L 9.203125 0 
C 14 0 19 0 23.796875 0 
C 28.59375 0 33.59375 0 38.40625 0 
L 38.40625 2.5 
L 35.40625 2.5 
C 26.796875 2.5 26.59375 3.59375 26.59375 7.15625 
z
" id="CMR17-49"/>
       <path d="M 18.40625 4.796875 
C 18.40625 7.6875 16 9.671875 13.59375 9.671875 
C 10.703125 9.671875 8.703125 7.28125 8.703125 4.890625 
C 8.703125 2 11.09375 0 13.5 0 
C 16.40625 0 18.40625 2.390625 18.40625 4.796875 
" id="CMMI12-58"/>
       <path d="M 42 31.640625 
C 42 37.75 41.90625 48.125 37.703125 56.109375 
C 34 63.109375 28.09375 65.59375 22.90625 65.59375 
C 18.09375 65.59375 12 63.40625 8.203125 56.203125 
C 4.203125 48.71875 3.796875 39.4375 3.796875 31.640625 
C 3.796875 25.953125 3.90625 17.28125 7 9.671875 
C 11.296875 -0.609375 19 -2 22.90625 -2 
C 27.5 -2 34.5 -0.109375 38.59375 9.375 
C 41.59375 16.28125 42 24.359375 42 31.640625 
M 22.90625 -0.40625 
C 16.5 -0.40625 12.703125 5.078125 11.296875 12.6875 
C 10.203125 18.5625 10.203125 27.15625 10.203125 32.75 
C 10.203125 40.4375 10.203125 46.828125 11.5 52.921875 
C 13.40625 61.390625 19 64 22.90625 64 
C 27 64 32.296875 61.296875 34.203125 53.125 
C 35.5 47.4375 35.59375 40.734375 35.59375 32.75 
C 35.59375 26.25 35.59375 18.265625 34.40625 12.375 
C 32.296875 1.484375 26.40625 -0.40625 22.90625 -0.40625 
" id="CMR17-48"/>
      </defs>
      <g transform="translate(53.311349 472.540275)scale(0.14 -0.14)">
       <use transform="scale(0.996264)" xlink:href="#CMSY10-0"/>
       <use transform="translate(77.487468 0)scale(0.996264)" xlink:href="#CMR17-49"/>
       <use transform="translate(123.177945 0)scale(0.996264)" xlink:href="#CMMI12-58"/>
       <use transform="translate(150.275122 0)scale(0.996264)" xlink:href="#CMR17-48"/>
       <use transform="translate(195.965599 0)scale(0.996264)" xlink:href="#CMR17-48"/>
      </g>
     </g>
    </g>
    <g id="xtick_2">
     <g id="line2d_3">
      <path clip-path="url(#pf287806d3c)" d="M 131.148185 455.854399 
L 131.148185 29.2533 
" style="fill:none;stroke:#b0b0b0;stroke-linecap:square;stroke-width:0.8;"/>
     </g>
     <g id="line2d_4">
      <g>
       <use style="stroke:#000000;stroke-width:0.8;" x="131.148185" xlink:href="#ma724190c96" y="455.854399"/>
      </g>
     </g>
     <g id="text_2">
      <!-- $-0.75$ -->
      <defs>
       <path d="M 45.09375 61.578125 
L 45.09375 63.765625 
L 21.59375 63.765625 
C 9.90625 63.765625 9.703125 65.078125 9.296875 67 
L 7.5 67 
L 4.59375 48.34375 
L 6.40625 48.34375 
C 6.703125 50.234375 7.40625 55.3125 8.59375 57.203125 
C 9.203125 58 16.59375 58 18.296875 58 
L 40.296875 58 
L 29.203125 41.578125 
C 21.796875 30.53125 16.703125 15.609375 16.703125 2.578125 
C 16.703125 1.390625 16.703125 -2 20.296875 -2 
C 23.90625 -2 23.90625 1.390625 23.90625 2.671875 
L 23.90625 7.265625 
C 23.90625 23.5625 26.703125 34.3125 31.296875 41.1875 
z
" id="CMR17-55"/>
       <path d="M 11.40625 57.6875 
C 12.40625 57.28125 16.5 56 20.703125 56 
C 30 56 35.09375 61.015625 38 63.921875 
C 38 64.734375 38 65.25 37.40625 65.25 
C 37.296875 65.25 37.09375 65.25 36.296875 64.828125 
C 32.796875 63.3125 28.703125 62.078125 23.703125 62.078125 
C 20.703125 62.078125 16.203125 62.5 11.296875 64.734375 
C 10.203125 65.25 10 65.25 9.90625 65.25 
C 9.40625 65.25 9.296875 65.140625 9.296875 63.15625 
L 9.296875 34.28125 
C 9.296875 32.5 9.296875 32 10.296875 32 
C 10.796875 32 11 32.203125 11.5 32.90625 
C 14.703125 37.484375 19.09375 39.40625 24.09375 39.40625 
C 27.59375 39.40625 35.09375 37.21875 35.09375 20.140625 
C 35.09375 16.953125 35.09375 11.171875 32.09375 6.578125 
C 29.59375 2.484375 25.703125 0.390625 21.40625 0.390625 
C 14.796875 0.390625 8.09375 5 6.296875 12.71875 
C 6.703125 12.609375 7.5 12.421875 7.90625 12.421875 
C 9.203125 12.421875 11.703125 13.125 11.703125 16.21875 
C 11.703125 18.90625 9.796875 20 7.90625 20 
C 5.59375 20 4.09375 18.59375 4.09375 15.796875 
C 4.09375 7.09375 11 -2 21.59375 -2 
C 31.90625 -2 41.703125 6.875 41.703125 19.75 
C 41.703125 31.71875 33.90625 41 24.203125 41 
C 19.09375 41 14.796875 39.09375 11.40625 35.453125 
z
" id="CMR17-53"/>
      </defs>
      <g transform="translate(113.584532 472.540275)scale(0.14 -0.14)">
       <use transform="scale(0.996264)" xlink:href="#CMSY10-0"/>
       <use transform="translate(77.487468 0)scale(0.996264)" xlink:href="#CMR17-48"/>
       <use transform="translate(123.177945 0)scale(0.996264)" xlink:href="#CMMI12-58"/>
       <use transform="translate(150.275122 0)scale(0.996264)" xlink:href="#CMR17-55"/>
       <use transform="translate(195.965599 0)scale(0.996264)" xlink:href="#CMR17-53"/>
      </g>
     </g>
    </g>
    <g id="xtick_3">
     <g id="line2d_5">
      <path clip-path="url(#pf287806d3c)" d="M 191.421368 455.854399 
L 191.421368 29.2533 
" style="fill:none;stroke:#b0b0b0;stroke-linecap:square;stroke-width:0.8;"/>
     </g>
     <g id="line2d_6">
      <g>
       <use style="stroke:#000000;stroke-width:0.8;" x="191.421368" xlink:href="#ma724190c96" y="455.854399"/>
      </g>
     </g>
     <g id="text_3">
      <!-- $-0.50$ -->
      <g transform="translate(173.857715 472.540275)scale(0.14 -0.14)">
       <use transform="scale(0.996264)" xlink:href="#CMSY10-0"/>
       <use transform="translate(77.487468 0)scale(0.996264)" xlink:href="#CMR17-48"/>
       <use transform="translate(123.177945 0)scale(0.996264)" xlink:href="#CMMI12-58"/>
       <use transform="translate(150.275122 0)scale(0.996264)" xlink:href="#CMR17-53"/>
       <use transform="translate(195.965599 0)scale(0.996264)" xlink:href="#CMR17-48"/>
      </g>
     </g>
    </g>
    <g id="xtick_4">
     <g id="line2d_7">
      <path clip-path="url(#pf287806d3c)" d="M 251.69455 455.854399 
L 251.69455 29.2533 
" style="fill:none;stroke:#b0b0b0;stroke-linecap:square;stroke-width:0.8;"/>
     </g>
     <g id="line2d_8">
      <g>
       <use style="stroke:#000000;stroke-width:0.8;" x="251.69455" xlink:href="#ma724190c96" y="455.854399"/>
      </g>
     </g>
     <g id="text_4">
      <!-- $-0.25$ -->
      <defs>
       <path d="M 41.703125 15.453125 
L 39.90625 15.453125 
C 38.90625 8.375 38.09375 7.171875 37.703125 6.5625 
C 37.203125 5.765625 30 5.765625 28.59375 5.765625 
L 9.40625 5.765625 
C 13 9.671875 20 16.75 28.5 24.953125 
C 34.59375 30.734375 41.703125 37.53125 41.703125 47.421875 
C 41.703125 59.21875 32.296875 66 21.796875 66 
C 10.796875 66 4.09375 56.3125 4.09375 47.34375 
C 4.09375 43.4375 7 42.9375 8.203125 42.9375 
C 9.203125 42.9375 12.203125 43.546875 12.203125 47.03125 
C 12.203125 50.109375 9.59375 51 8.203125 51 
C 7.59375 51 7 50.90625 6.59375 50.703125 
C 8.5 59.21875 14.296875 63.40625 20.40625 63.40625 
C 29.09375 63.40625 34.796875 56.515625 34.796875 47.421875 
C 34.796875 38.734375 29.703125 31.25 24 24.75 
L 4.09375 2.28125 
L 4.09375 0 
L 39.296875 0 
z
" id="CMR17-50"/>
      </defs>
      <g transform="translate(234.130898 472.540275)scale(0.14 -0.14)">
       <use transform="scale(0.996264)" xlink:href="#CMSY10-0"/>
       <use transform="translate(77.487468 0)scale(0.996264)" xlink:href="#CMR17-48"/>
       <use transform="translate(123.177945 0)scale(0.996264)" xlink:href="#CMMI12-58"/>
       <use transform="translate(150.275122 0)scale(0.996264)" xlink:href="#CMR17-50"/>
       <use transform="translate(195.965599 0)scale(0.996264)" xlink:href="#CMR17-53"/>
      </g>
     </g>
    </g>
    <g id="xtick_5">
     <g id="line2d_9">
      <path clip-path="url(#pf287806d3c)" d="M 311.967733 455.854399 
L 311.967733 29.2533 
" style="fill:none;stroke:#b0b0b0;stroke-linecap:square;stroke-width:0.8;"/>
     </g>
     <g id="line2d_10">
      <g>
       <use style="stroke:#000000;stroke-width:0.8;" x="311.967733" xlink:href="#ma724190c96" y="455.854399"/>
      </g>
     </g>
     <g id="text_5">
      <!-- $0.00$ -->
      <g transform="translate(299.828198 472.540275)scale(0.14 -0.14)">
       <use transform="scale(0.996264)" xlink:href="#CMR17-48"/>
       <use transform="translate(45.690477 0)scale(0.996264)" xlink:href="#CMMI12-58"/>
       <use transform="translate(72.787654 0)scale(0.996264)" xlink:href="#CMR17-48"/>
       <use transform="translate(118.478131 0)scale(0.996264)" xlink:href="#CMR17-48"/>
      </g>
     </g>
    </g>
    <g id="xtick_6">
     <g id="line2d_11">
      <path clip-path="url(#pf287806d3c)" d="M 372.240916 455.854399 
L 372.240916 29.2533 
" style="fill:none;stroke:#b0b0b0;stroke-linecap:square;stroke-width:0.8;"/>
     </g>
     <g id="line2d_12">
      <g>
       <use style="stroke:#000000;stroke-width:0.8;" x="372.240916" xlink:href="#ma724190c96" y="455.854399"/>
      </g>
     </g>
     <g id="text_6">
      <!-- $0.25$ -->
      <g transform="translate(360.101381 472.540275)scale(0.14 -0.14)">
       <use transform="scale(0.996264)" xlink:href="#CMR17-48"/>
       <use transform="translate(45.690477 0)scale(0.996264)" xlink:href="#CMMI12-58"/>
       <use transform="translate(72.787654 0)scale(0.996264)" xlink:href="#CMR17-50"/>
       <use transform="translate(118.478131 0)scale(0.996264)" xlink:href="#CMR17-53"/>
      </g>
     </g>
    </g>
    <g id="xtick_7">
     <g id="line2d_13">
      <path clip-path="url(#pf287806d3c)" d="M 432.514099 455.854399 
L 432.514099 29.2533 
" style="fill:none;stroke:#b0b0b0;stroke-linecap:square;stroke-width:0.8;"/>
     </g>
     <g id="line2d_14">
      <g>
       <use style="stroke:#000000;stroke-width:0.8;" x="432.514099" xlink:href="#ma724190c96" y="455.854399"/>
      </g>
     </g>
     <g id="text_7">
      <!-- $0.50$ -->
      <g transform="translate(420.374564 472.540275)scale(0.14 -0.14)">
       <use transform="scale(0.996264)" xlink:href="#CMR17-48"/>
       <use transform="translate(45.690477 0)scale(0.996264)" xlink:href="#CMMI12-58"/>
       <use transform="translate(72.787654 0)scale(0.996264)" xlink:href="#CMR17-53"/>
       <use transform="translate(118.478131 0)scale(0.996264)" xlink:href="#CMR17-48"/>
      </g>
     </g>
    </g>
    <g id="xtick_8">
     <g id="line2d_15">
      <path clip-path="url(#pf287806d3c)" d="M 492.787282 455.854399 
L 492.787282 29.2533 
" style="fill:none;stroke:#b0b0b0;stroke-linecap:square;stroke-width:0.8;"/>
     </g>
     <g id="line2d_16">
      <g>
       <use style="stroke:#000000;stroke-width:0.8;" x="492.787282" xlink:href="#ma724190c96" y="455.854399"/>
      </g>
     </g>
     <g id="text_8">
      <!-- $0.75$ -->
      <g transform="translate(480.647746 472.540275)scale(0.14 -0.14)">
       <use transform="scale(0.996264)" xlink:href="#CMR17-48"/>
       <use transform="translate(45.690477 0)scale(0.996264)" xlink:href="#CMMI12-58"/>
       <use transform="translate(72.787654 0)scale(0.996264)" xlink:href="#CMR17-55"/>
       <use transform="translate(118.478131 0)scale(0.996264)" xlink:href="#CMR17-53"/>
      </g>
     </g>
    </g>
    <g id="xtick_9">
     <g id="line2d_17">
      <path clip-path="url(#pf287806d3c)" d="M 553.060465 455.854399 
L 553.060465 29.2533 
" style="fill:none;stroke:#b0b0b0;stroke-linecap:square;stroke-width:0.8;"/>
     </g>
     <g id="line2d_18">
      <g>
       <use style="stroke:#000000;stroke-width:0.8;" x="553.060465" xlink:href="#ma724190c96" y="455.854399"/>
      </g>
     </g>
     <g id="text_9">
      <!-- $1.00$ -->
      <g transform="translate(540.920929 472.540275)scale(0.14 -0.14)">
       <use transform="scale(0.996264)" xlink:href="#CMR17-49"/>
       <use transform="translate(45.690477 0)scale(0.996264)" xlink:href="#CMMI12-58"/>
       <use transform="translate(72.787654 0)scale(0.996264)" xlink:href="#CMR17-48"/>
       <use transform="translate(118.478131 0)scale(0.996264)" xlink:href="#CMR17-48"/>
      </g>
     </g>
    </g>
    <g id="text_10">
     <!-- \rm{X [m]} -->
     <defs>
      <path d="M 36.5 37.46875 
L 51.296875 58.640625 
C 52.796875 60.71875 55.796875 65 64 65 
L 64 67.6875 
C 61.703125 67.484375 57.90625 67.484375 55.5 67.484375 
C 52.203125 67.484375 48.09375 67.484375 45.59375 67.6875 
L 45.59375 65.09375 
C 48.796875 64.796875 49.59375 62.8125 49.59375 61.21875 
C 49.59375 60.046875 49.09375 59.25 48.40625 58.25 
L 35.203125 39.265625 
L 20.40625 60.71875 
C 19.703125 61.8125 19.59375 62.109375 19.59375 62.40625 
C 19.59375 63.3125 20.703125 65 24 65 
L 24 67.484375 
C 20.796875 67.484375 15.90625 67.484375 12.59375 67.484375 
C 10 67.484375 5 67.484375 2.59375 67.6875 
L 2.59375 65 
C 8.09375 65 9.90625 64.8125 12.09375 61.734375 
L 31.40625 33.796875 
L 14 8.578125 
C 9.703125 2.390625 3.203125 2.390625 1.296875 2.390625 
L 1.296875 -0.203125 
C 3.59375 0 7.40625 0 9.796875 0 
C 12.5 0 17.203125 0 19.703125 -0.203125 
L 19.703125 2.390625 
C 16.59375 2.6875 15.703125 4.671875 15.703125 6.265625 
C 15.703125 7.546875 16.203125 8.25 16.703125 8.9375 
L 32.703125 32 
L 50.09375 6.59375 
C 50.90625 5.5 50.90625 5.203125 50.90625 4.90625 
C 50.90625 4.109375 50 2.390625 46.5 2.390625 
L 46.5 0 
C 49.703125 0 54.59375 0 57.90625 0 
C 60.5 0 65.5 0 67.90625 -0.203125 
L 67.90625 2.390625 
C 61.5 2.390625 60.5 2.875 58.5 5.671875 
z
" id="CMR17-88"/>
      <path d="M 23.5 -25 
L 23.5 -21.515625 
L 14.09375 -21.515625 
L 14.09375 71 
L 23.5 71 
L 23.5 74.484375 
L 10.59375 74.484375 
L 10.59375 -25 
z
" id="CMR17-91"/>
      <path d="M 67.59375 30.203125 
C 67.59375 35.1875 66.703125 43.59375 54.796875 43.59375 
C 48 43.59375 43.296875 39 41.5 33.59375 
L 41.40625 33.59375 
C 40.203125 41.796875 34.296875 43.59375 28.703125 43.59375 
C 20.796875 43.59375 16.703125 37.5625 15.203125 33.59375 
L 15.09375 33.59375 
L 15.09375 43.59375 
L 3.296875 42.5 
L 3.296875 39.90625 
C 9.203125 39.90625 10.09375 39.296875 10.09375 34.5 
L 10.09375 6.6875 
C 10.09375 2.875 9.703125 2.390625 3.296875 2.390625 
L 3.296875 -0.203125 
C 5.703125 0 10.09375 0 12.703125 0 
C 15.296875 0 19.796875 0 22.203125 -0.203125 
L 22.203125 2.390625 
C 15.796875 2.390625 15.40625 2.78125 15.40625 6.6875 
L 15.40625 25.90625 
C 15.40625 35.109375 21 42 28 42 
C 35.40625 42 36.203125 35.40625 36.203125 30.59375 
L 36.203125 6.6875 
C 36.203125 2.875 35.796875 2.390625 29.40625 2.390625 
L 29.40625 -0.203125 
C 31.796875 0 36.203125 0 38.796875 0 
C 41.40625 0 45.90625 0 48.296875 -0.203125 
L 48.296875 2.390625 
C 41.90625 2.390625 41.5 2.78125 41.5 6.6875 
L 41.5 25.90625 
C 41.5 35.109375 47.09375 42 54.09375 42 
C 61.5 42 62.296875 35.40625 62.296875 30.59375 
L 62.296875 6.6875 
C 62.296875 2.875 61.90625 2.390625 55.5 2.390625 
L 55.5 -0.203125 
C 57.90625 0 62.296875 0 64.90625 0 
C 67.5 0 72 0 74.40625 -0.203125 
L 74.40625 2.390625 
C 68 2.390625 67.59375 2.78125 67.59375 6.6875 
z
" id="CMR17-109"/>
      <path d="M 14.296875 74.484375 
L 1.40625 74.484375 
L 1.40625 71 
L 10.796875 71 
L 10.796875 -21.515625 
L 1.40625 -21.515625 
L 1.40625 -25 
L 14.296875 -25 
z
" id="CMR17-93"/>
     </defs>
     <g transform="translate(295.088609 489.713076)scale(0.14 -0.14)">
      <use transform="scale(0.996264)" xlink:href="#CMR17-88"/>
      <use transform="translate(99.148396 0)scale(0.996264)" xlink:href="#CMR17-91"/>
      <use transform="translate(124.019455 0)scale(0.996264)" xlink:href="#CMR17-109"/>
      <use transform="translate(200.939045 0)scale(0.996264)" xlink:href="#CMR17-93"/>
     </g>
    </g>
   </g>
   <g id="matplotlib.axis_2">
    <g id="ytick_1">
     <g id="line2d_19">
      <path clip-path="url(#pf287806d3c)" d="M 70.875002 58.339739 
L 553.060465 58.339739 
" style="fill:none;stroke:#b0b0b0;stroke-linecap:square;stroke-width:0.8;"/>
     </g>
     <g id="line2d_20">
      <defs>
       <path d="M 0 0 
L -3.5 0 
" id="m71733f3d57" style="stroke:#000000;stroke-width:0.8;"/>
      </defs>
      <g>
       <use style="stroke:#000000;stroke-width:0.8;" x="70.875002" xlink:href="#m71733f3d57" y="58.339739"/>
      </g>
     </g>
     <g id="text_11">
      <!-- $-0.25$ -->
      <g transform="translate(28.747696 63.182677)scale(0.14 -0.14)">
       <use transform="scale(0.996264)" xlink:href="#CMSY10-0"/>
       <use transform="translate(77.487468 0)scale(0.996264)" xlink:href="#CMR17-48"/>
       <use transform="translate(123.177945 0)scale(0.996264)" xlink:href="#CMMI12-58"/>
       <use transform="translate(150.275122 0)scale(0.996264)" xlink:href="#CMR17-50"/>
       <use transform="translate(195.965599 0)scale(0.996264)" xlink:href="#CMR17-53"/>
      </g>
     </g>
    </g>
    <g id="ytick_2">
     <g id="line2d_21">
      <path clip-path="url(#pf287806d3c)" d="M 70.875002 106.817136 
L 553.060465 106.817136 
" style="fill:none;stroke:#b0b0b0;stroke-linecap:square;stroke-width:0.8;"/>
     </g>
     <g id="line2d_22">
      <g>
       <use style="stroke:#000000;stroke-width:0.8;" x="70.875002" xlink:href="#m71733f3d57" y="106.817136"/>
      </g>
     </g>
     <g id="text_12">
      <!-- $0.00$ -->
      <g transform="translate(39.595931 111.660075)scale(0.14 -0.14)">
       <use transform="scale(0.996264)" xlink:href="#CMR17-48"/>
       <use transform="translate(45.690477 0)scale(0.996264)" xlink:href="#CMMI12-58"/>
       <use transform="translate(72.787654 0)scale(0.996264)" xlink:href="#CMR17-48"/>
       <use transform="translate(118.478131 0)scale(0.996264)" xlink:href="#CMR17-48"/>
      </g>
     </g>
    </g>
    <g id="ytick_3">
     <g id="line2d_23">
      <path clip-path="url(#pf287806d3c)" d="M 70.875002 155.294534 
L 553.060465 155.294534 
" style="fill:none;stroke:#b0b0b0;stroke-linecap:square;stroke-width:0.8;"/>
     </g>
     <g id="line2d_24">
      <g>
       <use style="stroke:#000000;stroke-width:0.8;" x="70.875002" xlink:href="#m71733f3d57" y="155.294534"/>
      </g>
     </g>
     <g id="text_13">
      <!-- $0.25$ -->
      <g transform="translate(39.595931 160.137472)scale(0.14 -0.14)">
       <use transform="scale(0.996264)" xlink:href="#CMR17-48"/>
       <use transform="translate(45.690477 0)scale(0.996264)" xlink:href="#CMMI12-58"/>
       <use transform="translate(72.787654 0)scale(0.996264)" xlink:href="#CMR17-50"/>
       <use transform="translate(118.478131 0)scale(0.996264)" xlink:href="#CMR17-53"/>
      </g>
     </g>
    </g>
    <g id="ytick_4">
     <g id="line2d_25">
      <path clip-path="url(#pf287806d3c)" d="M 70.875002 203.771931 
L 553.060465 203.771931 
" style="fill:none;stroke:#b0b0b0;stroke-linecap:square;stroke-width:0.8;"/>
     </g>
     <g id="line2d_26">
      <g>
       <use style="stroke:#000000;stroke-width:0.8;" x="70.875002" xlink:href="#m71733f3d57" y="203.771931"/>
      </g>
     </g>
     <g id="text_14">
      <!-- $0.50$ -->
      <g transform="translate(39.595931 208.61487)scale(0.14 -0.14)">
       <use transform="scale(0.996264)" xlink:href="#CMR17-48"/>
       <use transform="translate(45.690477 0)scale(0.996264)" xlink:href="#CMMI12-58"/>
       <use transform="translate(72.787654 0)scale(0.996264)" xlink:href="#CMR17-53"/>
       <use transform="translate(118.478131 0)scale(0.996264)" xlink:href="#CMR17-48"/>
      </g>
     </g>
    </g>
    <g id="ytick_5">
     <g id="line2d_27">
      <path clip-path="url(#pf287806d3c)" d="M 70.875002 252.249329 
L 553.060465 252.249329 
" style="fill:none;stroke:#b0b0b0;stroke-linecap:square;stroke-width:0.8;"/>
     </g>
     <g id="line2d_28">
      <g>
       <use style="stroke:#000000;stroke-width:0.8;" x="70.875002" xlink:href="#m71733f3d57" y="252.249329"/>
      </g>
     </g>
     <g id="text_15">
      <!-- $0.75$ -->
      <g transform="translate(39.595931 257.092267)scale(0.14 -0.14)">
       <use transform="scale(0.996264)" xlink:href="#CMR17-48"/>
       <use transform="translate(45.690477 0)scale(0.996264)" xlink:href="#CMMI12-58"/>
       <use transform="translate(72.787654 0)scale(0.996264)" xlink:href="#CMR17-55"/>
       <use transform="translate(118.478131 0)scale(0.996264)" xlink:href="#CMR17-53"/>
      </g>
     </g>
    </g>
    <g id="ytick_6">
     <g id="line2d_29">
      <path clip-path="url(#pf287806d3c)" d="M 70.875002 300.726727 
L 553.060465 300.726727 
" style="fill:none;stroke:#b0b0b0;stroke-linecap:square;stroke-width:0.8;"/>
     </g>
     <g id="line2d_30">
      <g>
       <use style="stroke:#000000;stroke-width:0.8;" x="70.875002" xlink:href="#m71733f3d57" y="300.726727"/>
      </g>
     </g>
     <g id="text_16">
      <!-- $1.00$ -->
      <g transform="translate(39.595931 305.569665)scale(0.14 -0.14)">
       <use transform="scale(0.996264)" xlink:href="#CMR17-49"/>
       <use transform="translate(45.690477 0)scale(0.996264)" xlink:href="#CMMI12-58"/>
       <use transform="translate(72.787654 0)scale(0.996264)" xlink:href="#CMR17-48"/>
       <use transform="translate(118.478131 0)scale(0.996264)" xlink:href="#CMR17-48"/>
      </g>
     </g>
    </g>
    <g id="ytick_7">
     <g id="line2d_31">
      <path clip-path="url(#pf287806d3c)" d="M 70.875002 349.204124 
L 553.060465 349.204124 
" style="fill:none;stroke:#b0b0b0;stroke-linecap:square;stroke-width:0.8;"/>
     </g>
     <g id="line2d_32">
      <g>
       <use style="stroke:#000000;stroke-width:0.8;" x="70.875002" xlink:href="#m71733f3d57" y="349.204124"/>
      </g>
     </g>
     <g id="text_17">
      <!-- $1.25$ -->
      <g transform="translate(39.595931 354.047063)scale(0.14 -0.14)">
       <use transform="scale(0.996264)" xlink:href="#CMR17-49"/>
       <use transform="translate(45.690477 0)scale(0.996264)" xlink:href="#CMMI12-58"/>
       <use transform="translate(72.787654 0)scale(0.996264)" xlink:href="#CMR17-50"/>
       <use transform="translate(118.478131 0)scale(0.996264)" xlink:href="#CMR17-53"/>
      </g>
     </g>
    </g>
    <g id="ytick_8">
     <g id="line2d_33">
      <path clip-path="url(#pf287806d3c)" d="M 70.875002 397.681522 
L 553.060465 397.681522 
" style="fill:none;stroke:#b0b0b0;stroke-linecap:square;stroke-width:0.8;"/>
     </g>
     <g id="line2d_34">
      <g>
       <use style="stroke:#000000;stroke-width:0.8;" x="70.875002" xlink:href="#m71733f3d57" y="397.681522"/>
      </g>
     </g>
     <g id="text_18">
      <!-- $1.50$ -->
      <g transform="translate(39.595931 402.52446)scale(0.14 -0.14)">
       <use transform="scale(0.996264)" xlink:href="#CMR17-49"/>
       <use transform="translate(45.690477 0)scale(0.996264)" xlink:href="#CMMI12-58"/>
       <use transform="translate(72.787654 0)scale(0.996264)" xlink:href="#CMR17-53"/>
       <use transform="translate(118.478131 0)scale(0.996264)" xlink:href="#CMR17-48"/>
      </g>
     </g>
    </g>
    <g id="ytick_9">
     <g id="line2d_35">
      <path clip-path="url(#pf287806d3c)" d="M 70.875002 446.15892 
L 553.060465 446.15892 
" style="fill:none;stroke:#b0b0b0;stroke-linecap:square;stroke-width:0.8;"/>
     </g>
     <g id="line2d_36">
      <g>
       <use style="stroke:#000000;stroke-width:0.8;" x="70.875002" xlink:href="#m71733f3d57" y="446.15892"/>
      </g>
     </g>
     <g id="text_19">
      <!-- $1.75$ -->
      <g transform="translate(39.595931 451.001858)scale(0.14 -0.14)">
       <use transform="scale(0.996264)" xlink:href="#CMR17-49"/>
       <use transform="translate(45.690477 0)scale(0.996264)" xlink:href="#CMMI12-58"/>
       <use transform="translate(72.787654 0)scale(0.996264)" xlink:href="#CMR17-55"/>
       <use transform="translate(118.478131 0)scale(0.996264)" xlink:href="#CMR17-53"/>
      </g>
     </g>
    </g>
    <g id="text_20">
     <!-- \rm{Z [m]} -->
     <defs>
      <path d="M 51.59375 66 
C 51.59375 67.90625 51.5 68 49.40625 68 
L 6.90625 68 
L 5.90625 46 
L 7.703125 46 
C 8.296875 57.34375 11.296875 65.40625 27.5 65.40625 
L 44 65.40625 
L 5.296875 3.1875 
C 4.59375 2.09375 4.59375 1.984375 4.59375 1.296875 
C 4.59375 0 4.796875 0 6.796875 0 
L 50.703125 0 
L 52.09375 25.984375 
L 50.296875 25.984375 
C 49.40625 12.9375 48.703125 2.78125 29.59375 2.78125 
L 12.203125 2.78125 
z
" id="CMR17-90"/>
     </defs>
     <g transform="translate(21.260772 258.48699)rotate(-90)scale(0.14 -0.14)">
      <use transform="scale(0.996264)" xlink:href="#CMR17-90"/>
      <use transform="translate(86.176138 0)scale(0.996264)" xlink:href="#CMR17-91"/>
      <use transform="translate(111.047196 0)scale(0.996264)" xlink:href="#CMR17-109"/>
      <use transform="translate(187.966786 0)scale(0.996264)" xlink:href="#CMR17-93"/>
     </g>
    </g>
   </g>
   <g id="patch_3">
    <path d="M 70.875002 455.854399 
L 70.875002 29.2533 
" style="fill:none;stroke:#000000;stroke-linecap:square;stroke-linejoin:miter;stroke-width:0.8;"/>
   </g>
   <g id="patch_4">
    <path d="M 553.060465 455.854399 
L 553.060465 29.2533 
" style="fill:none;stroke:#000000;stroke-linecap:square;stroke-linejoin:miter;stroke-width:0.8;"/>
   </g>
   <g id="patch_5">
    <path d="M 70.875002 455.854399 
L 553.060465 455.854399 
" style="fill:none;stroke:#000000;stroke-linecap:square;stroke-linejoin:miter;stroke-width:0.8;"/>
   </g>
   <g id="patch_6">
    <path d="M 70.875002 29.2533 
L 553.060465 29.2533 
" style="fill:none;stroke:#000000;stroke-linecap:square;stroke-linejoin:miter;stroke-width:0.8;"/>
   </g>
   <g id="patch_7">
    <path clip-path="url(#pf287806d3c)" d="M 251.272638 106.817136 
C 251.272638 93.875097 257.671647 81.449892 269.04982 72.298489 
C 280.427993 63.147085 295.876567 58.000397 311.967733 58.000397 
C 328.0589 58.000397 343.507474 63.147085 354.885647 72.298489 
C 366.26382 81.449892 372.662828 93.875097 372.662828 106.817136 
" style="fill:none;stroke:#000000;stroke-linejoin:miter;stroke-width:0.85;"/>
   </g>
   <g id="patch_8">
    <path clip-path="url(#pf287806d3c)" d="M 251.69455 106.817136 
L 372.240916 106.817136 
L 372.240916 109.144051 
L 251.69455 109.144051 
z
"/>
   </g>
   <g id="patch_9">
    <path clip-path="url(#pf287806d3c)" d="M 250.850726 106.817136 
L 251.69455 106.817136 
L 251.69455 109.144051 
L 250.850726 109.144051 
z
"/>
   </g>
   <g id="patch_10">
    <path clip-path="url(#pf287806d3c)" d="M 372.240916 106.817136 
L 373.084741 106.817136 
L 373.084741 109.144051 
L 372.240916 109.144051 
z
"/>
   </g>
   <g id="patch_11">
    <path clip-path="url(#pf287806d3c)" d="M 250.850726 109.144051 
L 251.69455 109.144051 
L 251.69455 114.457174 
L 250.850726 114.457174 
z
"/>
   </g>
   <g id="patch_12">
    <path clip-path="url(#pf287806d3c)" d="M 372.240916 109.144051 
L 373.084741 109.144051 
L 373.084741 114.457174 
L 372.240916 114.457174 
z
"/>
   </g>
   <g id="patch_13">
    <path clip-path="url(#pf287806d3c)" d="M 251.69455 114.457174 
L 372.240916 114.457174 
L 372.240916 115.038903 
L 251.69455 115.038903 
z
"/>
   </g>
   <g id="patch_14">
    <path clip-path="url(#pf287806d3c)" d="M 250.850726 114.457174 
L 251.69455 114.457174 
L 251.69455 115.038903 
L 250.850726 115.038903 
z
"/>
   </g>
   <g id="patch_15">
    <path clip-path="url(#pf287806d3c)" d="M 372.240916 114.457174 
L 373.084741 114.457174 
L 373.084741 115.038903 
L 372.240916 115.038903 
z
"/>
   </g>
   <g id="patch_16">
    <path clip-path="url(#pf287806d3c)" d="M 250.850726 115.038903 
L 251.69455 115.038903 
L 251.69455 115.040842 
L 250.850726 115.040842 
z
"/>
   </g>
   <g id="patch_17">
    <path clip-path="url(#pf287806d3c)" d="M 372.240916 115.038903 
L 373.084741 115.038903 
L 373.084741 115.040842 
L 372.240916 115.040842 
z
"/>
   </g>
   <g id="patch_18">
    <path clip-path="url(#pf287806d3c)" d="M 251.69455 115.039097 
L 372.240916 115.039097 
L 372.240916 115.620826 
L 251.69455 115.620826 
z
"/>
   </g>
   <g id="patch_19">
    <path clip-path="url(#pf287806d3c)" d="M 250.850726 115.039097 
L 251.69455 115.039097 
L 251.69455 115.620826 
L 250.850726 115.620826 
z
"/>
   </g>
   <g id="patch_20">
    <path clip-path="url(#pf287806d3c)" d="M 372.240916 115.039097 
L 373.084741 115.039097 
L 373.084741 115.620826 
L 372.240916 115.620826 
z
"/>
   </g>
   <g id="patch_21">
    <path clip-path="url(#pf287806d3c)" d="M 250.850726 115.620826 
L 251.69455 115.620826 
L 251.69455 115.622765 
L 250.850726 115.622765 
z
"/>
   </g>
   <g id="patch_22">
    <path clip-path="url(#pf287806d3c)" d="M 372.240916 115.620826 
L 373.084741 115.620826 
L 373.084741 115.622765 
L 372.240916 115.622765 
z
"/>
   </g>
   <g id="patch_23">
    <path clip-path="url(#pf287806d3c)" d="M 251.69455 115.62102 
L 372.240916 115.62102 
L 372.240916 116.202748 
L 251.69455 116.202748 
z
"/>
   </g>
   <g id="patch_24">
    <path clip-path="url(#pf287806d3c)" d="M 250.850726 115.62102 
L 251.69455 115.62102 
L 251.69455 116.202748 
L 250.850726 116.202748 
z
"/>
   </g>
   <g id="patch_25">
    <path clip-path="url(#pf287806d3c)" d="M 372.240916 115.62102 
L 373.084741 115.62102 
L 373.084741 116.202748 
L 372.240916 116.202748 
z
"/>
   </g>
   <g id="patch_26">
    <path clip-path="url(#pf287806d3c)" d="M 250.850726 116.202748 
L 251.69455 116.202748 
L 251.69455 116.204687 
L 250.850726 116.204687 
z
"/>
   </g>
   <g id="patch_27">
    <path clip-path="url(#pf287806d3c)" d="M 372.240916 116.202748 
L 373.084741 116.202748 
L 373.084741 116.204687 
L 372.240916 116.204687 
z
"/>
   </g>
   <g id="patch_28">
    <path clip-path="url(#pf287806d3c)" d="M 251.69455 116.202942 
L 372.240916 116.202942 
L 372.240916 116.784671 
L 251.69455 116.784671 
z
"/>
   </g>
   <g id="patch_29">
    <path clip-path="url(#pf287806d3c)" d="M 250.850726 116.202942 
L 251.69455 116.202942 
L 251.69455 116.784671 
L 250.850726 116.784671 
z
"/>
   </g>
   <g id="patch_30">
    <path clip-path="url(#pf287806d3c)" d="M 372.240916 116.202942 
L 373.084741 116.202942 
L 373.084741 116.784671 
L 372.240916 116.784671 
z
"/>
   </g>
   <g id="patch_31">
    <path clip-path="url(#pf287806d3c)" d="M 250.850726 116.784671 
L 251.69455 116.784671 
L 251.69455 116.78661 
L 250.850726 116.78661 
z
"/>
   </g>
   <g id="patch_32">
    <path clip-path="url(#pf287806d3c)" d="M 372.240916 116.784671 
L 373.084741 116.784671 
L 373.084741 116.78661 
L 372.240916 116.78661 
z
"/>
   </g>
   <g id="patch_33">
    <path clip-path="url(#pf287806d3c)" d="M 251.69455 116.784865 
L 372.240916 116.784865 
L 372.240916 117.366594 
L 251.69455 117.366594 
z
"/>
   </g>
   <g id="patch_34">
    <path clip-path="url(#pf287806d3c)" d="M 250.850726 116.784865 
L 251.69455 116.784865 
L 251.69455 117.366594 
L 250.850726 117.366594 
z
"/>
   </g>
   <g id="patch_35">
    <path clip-path="url(#pf287806d3c)" d="M 372.240916 116.784865 
L 373.084741 116.784865 
L 373.084741 117.366594 
L 372.240916 117.366594 
z
"/>
   </g>
   <g id="patch_36">
    <path clip-path="url(#pf287806d3c)" d="M 250.850726 117.366594 
L 251.69455 117.366594 
L 251.69455 117.368533 
L 250.850726 117.368533 
z
"/>
   </g>
   <g id="patch_37">
    <path clip-path="url(#pf287806d3c)" d="M 372.240916 117.366594 
L 373.084741 117.366594 
L 373.084741 117.368533 
L 372.240916 117.368533 
z
"/>
   </g>
   <g id="patch_38">
    <path clip-path="url(#pf287806d3c)" d="M 251.69455 117.366788 
L 372.240916 117.366788 
L 372.240916 117.948516 
L 251.69455 117.948516 
z
"/>
   </g>
   <g id="patch_39">
    <path clip-path="url(#pf287806d3c)" d="M 250.850726 117.366788 
L 251.69455 117.366788 
L 251.69455 117.948516 
L 250.850726 117.948516 
z
"/>
   </g>
   <g id="patch_40">
    <path clip-path="url(#pf287806d3c)" d="M 372.240916 117.366788 
L 373.084741 117.366788 
L 373.084741 117.948516 
L 372.240916 117.948516 
z
"/>
   </g>
   <g id="patch_41">
    <path clip-path="url(#pf287806d3c)" d="M 250.850726 117.948516 
L 251.69455 117.948516 
L 251.69455 124.734382 
L 250.850726 124.734382 
z
"/>
   </g>
   <g id="patch_42">
    <path clip-path="url(#pf287806d3c)" d="M 372.240916 117.948516 
L 373.084741 117.948516 
L 373.084741 124.734382 
L 372.240916 124.734382 
z
"/>
   </g>
   <g id="patch_43">
    <path clip-path="url(#pf287806d3c)" d="M 251.69455 124.734382 
L 372.240916 124.734382 
L 372.240916 125.122202 
L 251.69455 125.122202 
z
" style="fill:#bfbf00;"/>
   </g>
   <g id="patch_44">
    <path clip-path="url(#pf287806d3c)" d="M 250.850726 124.734382 
L 251.69455 124.734382 
L 251.69455 125.122202 
L 250.850726 125.122202 
z
" style="fill:#bfbf00;"/>
   </g>
   <g id="patch_45">
    <path clip-path="url(#pf287806d3c)" d="M 372.240916 124.734382 
L 373.084741 124.734382 
L 373.084741 125.122202 
L 372.240916 125.122202 
z
" style="fill:#bfbf00;"/>
   </g>
   <g id="patch_46">
    <path clip-path="url(#pf287806d3c)" d="M 250.850726 125.122202 
L 251.69455 125.122202 
L 251.69455 135.108546 
L 250.850726 135.108546 
z
" style="fill:#bfbf00;"/>
   </g>
   <g id="patch_47">
    <path clip-path="url(#pf287806d3c)" d="M 372.240916 125.122202 
L 373.084741 125.122202 
L 373.084741 135.108546 
L 372.240916 135.108546 
z
" style="fill:#bfbf00;"/>
   </g>
   <g id="patch_48">
    <path clip-path="url(#pf287806d3c)" d="M 250.850726 135.108546 
L 251.69455 135.108546 
L 251.69455 163.807165 
L 250.850726 163.807165 
z
" style="fill:#008000;"/>
   </g>
   <g id="patch_49">
    <path clip-path="url(#pf287806d3c)" d="M 372.240916 135.108546 
L 373.084741 135.108546 
L 373.084741 163.807165 
L 372.240916 163.807165 
z
" style="fill:#008000;"/>
   </g>
   <g id="patch_50">
    <path clip-path="url(#pf287806d3c)" d="M 251.69455 163.807165 
L 372.240916 163.807165 
L 372.240916 168.111958 
L 251.69455 168.111958 
z
" style="fill:#008000;"/>
   </g>
   <g id="patch_51">
    <path clip-path="url(#pf287806d3c)" d="M 250.850726 163.807165 
L 251.69455 163.807165 
L 251.69455 168.111958 
L 250.850726 168.111958 
z
" style="fill:#008000;"/>
   </g>
   <g id="patch_52">
    <path clip-path="url(#pf287806d3c)" d="M 372.240916 163.807165 
L 373.084741 163.807165 
L 373.084741 168.111958 
L 372.240916 168.111958 
z
" style="fill:#008000;"/>
   </g>
   <g id="patch_53">
    <path clip-path="url(#pf287806d3c)" d="M 250.850726 168.111958 
L 251.69455 168.111958 
L 251.69455 242.96106 
L 250.850726 242.96106 
z
" style="fill:#008000;"/>
   </g>
   <g id="patch_54">
    <path clip-path="url(#pf287806d3c)" d="M 372.240916 168.111958 
L 373.084741 168.111958 
L 373.084741 242.96106 
L 372.240916 242.96106 
z
" style="fill:#008000;"/>
   </g>
   <g id="patch_55">
    <path clip-path="url(#pf287806d3c)" d="M 251.69455 242.96106 
L 372.240916 242.96106 
L 372.240916 247.265853 
L 251.69455 247.265853 
z
" style="fill:#008000;"/>
   </g>
   <g id="patch_56">
    <path clip-path="url(#pf287806d3c)" d="M 250.850726 242.96106 
L 251.69455 242.96106 
L 251.69455 247.265853 
L 250.850726 247.265853 
z
" style="fill:#008000;"/>
   </g>
   <g id="patch_57">
    <path clip-path="url(#pf287806d3c)" d="M 372.240916 242.96106 
L 373.084741 242.96106 
L 373.084741 247.265853 
L 372.240916 247.265853 
z
" style="fill:#008000;"/>
   </g>
   <g id="patch_58">
    <path clip-path="url(#pf287806d3c)" d="M 250.850726 247.265853 
L 251.69455 247.265853 
L 251.69455 274.936751 
L 250.850726 274.936751 
z
" style="fill:#008000;"/>
   </g>
   <g id="patch_59">
    <path clip-path="url(#pf287806d3c)" d="M 372.240916 247.265853 
L 373.084741 247.265853 
L 373.084741 274.936751 
L 372.240916 274.936751 
z
" style="fill:#008000;"/>
   </g>
   <g id="patch_60">
    <path clip-path="url(#pf287806d3c)" d="M 250.850726 274.936751 
L 277.009287 274.936751 
L 277.009287 275.615435 
L 250.850726 275.615435 
z
" style="fill:#008000;"/>
   </g>
   <g id="patch_61">
    <path clip-path="url(#pf287806d3c)" d="M 346.926179 274.936751 
L 373.084741 274.936751 
L 373.084741 275.615435 
L 346.926179 275.615435 
z
" style="fill:#008000;"/>
   </g>
   <g id="patch_62">
    <path clip-path="url(#pf287806d3c)" d="M 277.009287 274.936751 
L 346.926179 274.936751 
L 346.926179 275.351718 
L 277.009287 275.351718 
z
" style="fill:#008000;"/>
   </g>
   <g id="patch_63">
    <path clip-path="url(#pf287806d3c)" d="M 276.165463 274.936751 
L 277.009287 274.936751 
L 277.009287 275.351718 
L 276.165463 275.351718 
z
" style="fill:#008000;"/>
   </g>
   <g id="patch_64">
    <path clip-path="url(#pf287806d3c)" d="M 346.926179 274.936751 
L 347.770004 274.936751 
L 347.770004 275.351718 
L 346.926179 275.351718 
z
" style="fill:#008000;"/>
   </g>
   <g id="patch_65">
    <path clip-path="url(#pf287806d3c)" d="M 276.165463 275.351718 
L 277.009287 275.351718 
L 277.009287 276.030401 
L 276.165463 276.030401 
z
" style="fill:#008000;"/>
   </g>
   <g id="patch_66">
    <path clip-path="url(#pf287806d3c)" d="M 346.926179 275.351718 
L 347.770004 275.351718 
L 347.770004 276.030401 
L 346.926179 276.030401 
z
" style="fill:#008000;"/>
   </g>
   <g id="patch_67">
    <path clip-path="url(#pf287806d3c)" d="M 277.009287 276.030401 
L 346.926179 276.030401 
L 346.926179 276.445368 
L 277.009287 276.445368 
z
" style="fill:#008000;"/>
   </g>
   <g id="patch_68">
    <path clip-path="url(#pf287806d3c)" d="M 276.165463 276.030401 
L 277.009287 276.030401 
L 277.009287 276.445368 
L 276.165463 276.445368 
z
" style="fill:#008000;"/>
   </g>
   <g id="patch_69">
    <path clip-path="url(#pf287806d3c)" d="M 346.926179 276.030401 
L 347.770004 276.030401 
L 347.770004 276.445368 
L 346.926179 276.445368 
z
" style="fill:#008000;"/>
   </g>
   <g id="patch_70">
    <path clip-path="url(#pf287806d3c)" d="M 276.165463 276.445368 
L 277.009287 276.445368 
L 277.009287 276.833187 
L 276.165463 276.833187 
z
" style="fill:#008000;"/>
   </g>
   <g id="patch_71">
    <path clip-path="url(#pf287806d3c)" d="M 346.926179 276.445368 
L 347.770004 276.445368 
L 347.770004 276.833187 
L 346.926179 276.833187 
z
" style="fill:#008000;"/>
   </g>
   <g id="patch_72">
    <path clip-path="url(#pf287806d3c)" d="M 276.165463 276.833187 
L 290.269387 276.833187 
L 290.269387 277.511871 
L 276.165463 277.511871 
z
" style="fill:#008000;"/>
   </g>
   <g id="patch_73">
    <path clip-path="url(#pf287806d3c)" d="M 333.666079 276.833187 
L 347.770004 276.833187 
L 347.770004 277.511871 
L 333.666079 277.511871 
z
" style="fill:#008000;"/>
   </g>
   <g id="patch_74">
    <path clip-path="url(#pf287806d3c)" d="M 289.425563 276.833187 
L 290.269387 276.833187 
L 290.269387 277.996645 
L 289.425563 277.996645 
z
" style="fill:#008000;"/>
   </g>
   <g id="patch_75">
    <path clip-path="url(#pf287806d3c)" d="M 333.666079 276.833187 
L 334.509904 276.833187 
L 334.509904 277.996645 
L 333.666079 277.996645 
z
" style="fill:#008000;"/>
   </g>
   <g id="patch_76">
    <path clip-path="url(#pf287806d3c)" d="M 250.850726 277.996645 
L 290.269387 277.996645 
L 290.269387 278.675328 
L 250.850726 278.675328 
z
" style="fill:#008000;"/>
   </g>
   <g id="patch_77">
    <path clip-path="url(#pf287806d3c)" d="M 333.666079 277.996645 
L 373.084741 277.996645 
L 373.084741 278.675328 
L 333.666079 278.675328 
z
" style="fill:#008000;"/>
   </g>
   <g id="patch_78">
    <path clip-path="url(#pf287806d3c)" d="M 250.850726 277.996645 
L 251.69455 277.996645 
L 251.69455 330.798226 
L 250.850726 330.798226 
z
" style="fill:#008000;"/>
   </g>
   <g id="patch_79">
    <path clip-path="url(#pf287806d3c)" d="M 372.240916 277.996645 
L 373.084741 277.996645 
L 373.084741 330.798226 
L 372.240916 330.798226 
z
" style="fill:#008000;"/>
   </g>
   <g id="patch_80">
    <path clip-path="url(#pf287806d3c)" d="M 251.69455 330.798226 
L 372.240916 330.798226 
L 372.240916 335.103019 
L 251.69455 335.103019 
z
" style="fill:#008000;"/>
   </g>
   <g id="patch_81">
    <path clip-path="url(#pf287806d3c)" d="M 250.850726 330.798226 
L 251.69455 330.798226 
L 251.69455 335.103019 
L 250.850726 335.103019 
z
" style="fill:#008000;"/>
   </g>
   <g id="patch_82">
    <path clip-path="url(#pf287806d3c)" d="M 372.240916 330.798226 
L 373.084741 330.798226 
L 373.084741 335.103019 
L 372.240916 335.103019 
z
" style="fill:#008000;"/>
   </g>
   <g id="patch_83">
    <path clip-path="url(#pf287806d3c)" d="M 250.850726 335.103019 
L 251.69455 335.103019 
L 251.69455 366.128553 
L 250.850726 366.128553 
z
" style="fill:#008000;"/>
   </g>
   <g id="patch_84">
    <path clip-path="url(#pf287806d3c)" d="M 372.240916 335.103019 
L 373.084741 335.103019 
L 373.084741 366.128553 
L 372.240916 366.128553 
z
" style="fill:#008000;"/>
   </g>
   <g id="patch_85">
    <path clip-path="url(#pf287806d3c)" d="M 251.69455 366.128553 
L 372.240916 366.128553 
L 372.240916 366.516373 
L 251.69455 366.516373 
z
" style="fill:#00bfbf;"/>
   </g>
   <g id="patch_86">
    <path clip-path="url(#pf287806d3c)" d="M 250.850726 366.128553 
L 251.69455 366.128553 
L 251.69455 366.516373 
L 250.850726 366.516373 
z
" style="fill:#00bfbf;"/>
   </g>
   <g id="patch_87">
    <path clip-path="url(#pf287806d3c)" d="M 372.240916 366.128553 
L 373.084741 366.128553 
L 373.084741 366.516373 
L 372.240916 366.516373 
z
" style="fill:#00bfbf;"/>
   </g>
   <g id="patch_88">
    <path clip-path="url(#pf287806d3c)" d="M 250.850726 366.516373 
L 251.69455 366.516373 
L 251.69455 376.211852 
L 250.850726 376.211852 
z
" style="fill:#00bfbf;"/>
   </g>
   <g id="patch_89">
    <path clip-path="url(#pf287806d3c)" d="M 372.240916 366.516373 
L 373.084741 366.516373 
L 373.084741 376.211852 
L 372.240916 376.211852 
z
" style="fill:#00bfbf;"/>
   </g>
   <g id="patch_90">
    <path clip-path="url(#pf287806d3c)" d="M 372.662828 376.211852 
C 372.662828 389.153891 366.26382 401.579096 354.885647 410.7305 
C 343.507474 419.881903 328.0589 425.028591 311.967733 425.028591 
C 295.876567 425.028591 280.427993 419.881903 269.04982 410.7305 
C 257.671647 401.579096 251.272638 389.153891 251.272638 376.211852 
" style="fill:none;stroke:#0000ff;stroke-linejoin:miter;stroke-width:0.85;"/>
   </g>
   <g id="text_21">
    <!-- \rm{PB2 Filters} -->
    <defs>
     <path d="M 19.796875 31.90625 
L 35.796875 31.90625 
C 48.703125 31.90625 58.09375 40.28125 58.09375 49.75 
C 58.09375 59.234375 48.90625 68 35.796875 68 
L 5.203125 68 
L 5.203125 65.40625 
C 12.09375 65.40625 13.203125 65.40625 13.203125 60.9375 
L 13.203125 6.96875 
C 13.203125 2.5 12.09375 2.5 5.203125 2.5 
L 5.203125 0 
C 8.09375 0 13.40625 0 16.5 0 
C 19.59375 0 24.90625 0 27.796875 0 
L 27.796875 2.5 
C 20.90625 2.5 19.796875 2.5 19.796875 6.96875 
z
M 19.59375 34 
L 19.59375 61.53125 
C 19.59375 64.921875 19.796875 65.40625 23.796875 65.40625 
L 33.90625 65.40625 
C 46.796875 65.40625 50.5 58.03125 50.5 49.75 
C 50.5 40.6875 46.09375 34 33.90625 34 
z
" id="CMR17-80"/>
     <path d="M 5.203125 68 
L 5.203125 65.40625 
C 12.09375 65.40625 13.203125 65.40625 13.203125 60.9375 
L 13.203125 7.0625 
C 13.203125 2.59375 12.09375 2.59375 5.203125 2.59375 
L 5.203125 0 
L 39.59375 0 
C 52.40625 0 60.703125 9.109375 60.703125 18.1875 
C 60.703125 27.203125 52.5 34.890625 41.796875 34.890625 
C 51.40625 36.8125 58.09375 43.296875 58.09375 51 
C 58.09375 59.40625 49.90625 68 37 68 
z
M 19.5 36 
L 19.5 61.515625 
C 19.5 64.921875 19.703125 65.40625 23.703125 65.40625 
L 36.5 65.40625 
C 46.40625 65.40625 50.796875 57.40625 50.796875 51.203125 
C 50.796875 43.609375 44.703125 36 33.90625 36 
z
M 23.703125 2.59375 
C 19.703125 2.59375 19.5 3.078125 19.5 6.453125 
L 19.5 34.40625 
L 38 34.40625 
C 48.296875 34.40625 53.296875 25.390625 53.296875 18.15625 
C 53.296875 10.921875 47.59375 2.59375 36.703125 2.59375 
z
" id="CMR17-66"/>
     <path d="M 54.40625 67.578125 
L 5.09375 67.578125 
L 5.09375 65 
C 12 65 13.09375 65 13.09375 60.53125 
L 13.09375 6.96875 
C 13.09375 2.5 12 2.5 5.09375 2.5 
L 5.09375 0 
C 8 0 13.59375 0 16.703125 0 
C 20.796875 0 25.59375 0 29.703125 0 
L 29.703125 2.5 
L 27.5 2.5 
C 19.90625 2.5 19.703125 3.484375 19.703125 7.0625 
L 19.703125 32.421875 
L 28.703125 32.421875 
C 38 32.421875 38.90625 29.1875 38.90625 21 
L 40.703125 21 
L 40.703125 46.890625 
L 38.90625 46.890625 
C 38.90625 38.34375 38 35 28.703125 35 
L 19.703125 35 
L 19.703125 61.109375 
C 19.703125 64.5 19.90625 65 23.90625 65 
L 36.796875 65 
C 51.90625 65 53.59375 58.890625 55 45.765625 
L 56.796875 45.765625 
z
" id="CMR17-70"/>
     <path d="M 15.5 61.078125 
C 15.5 63.265625 13.703125 65.15625 11.40625 65.15625 
C 9.203125 65.15625 7.296875 63.375 7.296875 61.078125 
C 7.296875 58.890625 9.09375 57 11.40625 57 
C 13.59375 57 15.5 58.796875 15.5 61.078125 
M 3.796875 42.28125 
L 3.796875 39.703125 
C 9.40625 39.703125 10.203125 39.09375 10.203125 34.328125 
L 10.203125 6.671875 
C 10.203125 2.875 9.796875 2.390625 3.40625 2.390625 
L 3.40625 -0.203125 
C 5.796875 0 10.09375 0 12.59375 0 
C 15 0 19.09375 0 21.40625 -0.203125 
L 21.40625 2.390625 
C 15.5 2.390625 15.296875 2.984375 15.296875 6.5625 
L 15.296875 43.375 
z
" id="CMR17-105"/>
     <path d="M 15.296875 68.6875 
L 3.40625 67.59375 
L 3.40625 65 
C 9.296875 65 10.203125 64.40625 10.203125 59.640625 
L 10.203125 6.65625 
C 10.203125 2.875 9.796875 2.390625 3.40625 2.390625 
L 3.40625 -0.203125 
C 5.796875 0 10.203125 0 12.703125 0 
C 15.296875 0 19.703125 0 22.09375 -0.203125 
L 22.09375 2.390625 
C 15.703125 2.390625 15.296875 2.78125 15.296875 6.65625 
z
" id="CMR17-108"/>
     <path d="M 15.09375 40 
L 29.09375 40 
L 29.09375 42.578125 
L 15.09375 42.578125 
L 15.09375 61 
L 13.296875 61 
C 13.09375 50.703125 9.59375 41.6875 1.09375 41.6875 
L 1.09375 40 
L 9.796875 40 
L 9.796875 12.046875 
C 9.796875 10.15625 9.796875 -1 21.40625 -1 
C 27.296875 -1 30.703125 4.78125 30.703125 12.140625 
L 30.703125 17.8125 
L 28.90625 17.8125 
L 28.90625 12.234375 
C 28.90625 5.375 26.203125 0.796875 22 0.796875 
C 19.09375 0.796875 15.09375 2.78125 15.09375 11.84375 
z
" id="CMR17-116"/>
     <path d="M 38.09375 23 
C 38.5 23.40625 38.5 23.609375 38.5 24.625 
C 38.5 34.96875 33.09375 44 21.703125 44 
C 11.09375 44 2.703125 33.890625 2.703125 21.609375 
C 2.703125 8.609375 12.203125 -1 22.796875 -1 
C 34 -1 38.40625 9.46875 38.40625 11.546875 
C 38.40625 12.25 37.796875 12.25 37.59375 12.25 
C 36.90625 12.25 36.796875 12.046875 36.40625 10.875 
C 34.203125 4.140625 28.703125 0.796875 23.5 0.796875 
C 19.203125 0.796875 14.90625 3.171875 12.203125 7.5 
C 9.09375 12.546875 9.09375 18.375 9.09375 23 
z
M 9.203125 24.5 
C 9.90625 39.140625 17.59375 42.40625 21.59375 42.40625 
C 28.40625 42.40625 33 35.890625 33.09375 24.5 
z
" id="CMR17-101"/>
     <path d="M 15 23.390625 
C 15 33 19.09375 42 26.59375 42 
C 27.296875 42 28 41.90625 28.703125 41.59375 
C 28.703125 41.59375 26.5 40.890625 26.5 38.3125 
C 26.5 35.90625 28.40625 34.90625 29.90625 34.90625 
C 31.09375 34.90625 33.296875 35.609375 33.296875 38.40625 
C 33.296875 41.609375 30.09375 43.59375 26.703125 43.59375 
C 19.09375 43.59375 15.796875 36.203125 14.796875 32.703125 
L 14.703125 32.703125 
L 14.703125 43.59375 
L 3.09375 42.5 
L 3.09375 39.90625 
C 9 39.90625 9.90625 39.296875 9.90625 34.5 
L 9.90625 6.6875 
C 9.90625 2.875 9.5 2.390625 3.09375 2.390625 
L 3.09375 -0.203125 
C 5.5 0 10.09375 0 12.703125 0 
C 15.59375 0 20.703125 0 23.40625 -0.203125 
L 23.40625 2.390625 
C 16.203125 2.390625 15 2.390625 15 6.875 
z
" id="CMR17-114"/>
     <path d="M 30.90625 42.109375 
C 30.90625 43.90625 30.796875 44 30.203125 44 
C 29.796875 44 29.703125 43.90625 28.5 42.421875 
C 28.203125 42.015625 27.296875 41.015625 27 40.625 
C 23.796875 44 19.296875 44 17.59375 44 
C 6.5 44 2.5 38.171875 2.5 32.375 
C 2.5 23.34375 12.703125 21.25 15.59375 20.640625 
C 21.90625 19.34375 24.09375 18.9375 26.203125 17.125 
C 27.5 15.9375 29.703125 13.734375 29.703125 10.125 
C 29.703125 5.90625 27.296875 0.5 18.09375 0.5 
C 9.40625 0.5 6.296875 7.0625 4.5 15.828125 
C 4.203125 17.21875 4.203125 17.328125 3.40625 17.328125 
C 2.59375 17.328125 2.5 17.21875 2.5 15.234375 
L 2.5 0.890625 
C 2.5 -0.890625 2.59375 -1 3.203125 -1 
C 3.703125 -1 3.796875 -0.890625 4.296875 -0.09375 
C 4.90625 0.796875 6.40625 3.1875 7 4.1875 
C 9 1.546875 12.5 -1 18.09375 -1 
C 28 -1 33.296875 4.40625 33.296875 12.234375 
C 33.296875 17.34375 30.59375 20.0625 29.296875 21.25 
C 26.296875 24.375 22.796875 25.0625 18.59375 25.859375 
C 13.09375 27.078125 6.09375 28.46875 6.09375 34.59375 
C 6.09375 37.1875 7.5 42.71875 17.59375 42.71875 
C 28.296875 42.71875 28.90625 32.75 29.09375 29.5625 
C 29.203125 29.078125 29.703125 28.96875 30 28.96875 
C 30.90625 28.96875 30.90625 29.28125 30.90625 30.96875 
z
" id="CMR17-115"/>
    </defs>
    <g transform="translate(270.557326 23.2533)scale(0.18 -0.18)">
     <use transform="scale(0.996264)" xlink:href="#CMR17-80"/>
     <use transform="translate(62.586301 0)scale(0.996264)" xlink:href="#CMR17-66"/>
     <use transform="translate(127.775055 0)scale(0.996264)" xlink:href="#CMR17-50"/>
     <use transform="translate(203.541498 0)scale(0.996264)" xlink:href="#CMR17-70"/>
     <use transform="translate(263.525345 0)scale(0.996264)" xlink:href="#CMR17-105"/>
     <use transform="translate(288.396404 0)scale(0.996264)" xlink:href="#CMR17-108"/>
     <use transform="translate(313.267462 0)scale(0.996264)" xlink:href="#CMR17-116"/>
     <use transform="translate(348.54823 0)scale(0.996264)" xlink:href="#CMR17-101"/>
     <use transform="translate(389.03389 0)scale(0.996264)" xlink:href="#CMR17-114"/>
     <use transform="translate(424.314658 0)scale(0.996264)" xlink:href="#CMR17-115"/>
    </g>
   </g>
   <g id="legend_1">
    <g id="patch_91">
     <path d="M 452.18332 138.013442 
L 543.260465 138.013442 
Q 546.060465 138.013442 546.060465 135.213442 
L 546.060465 39.0533 
Q 546.060465 36.2533 543.260465 36.2533 
L 452.18332 36.2533 
Q 449.38332 36.2533 449.38332 39.0533 
L 449.38332 135.213442 
Q 449.38332 138.013442 452.18332 138.013442 
z
" style="fill:#ffffff;opacity:0.8;stroke:#cccccc;stroke-linejoin:miter;"/>
    </g>
    <g id="patch_92">
     <path d="M 454.98332 51.6533 
L 482.98332 51.6533 
L 482.98332 41.8533 
L 454.98332 41.8533 
z
" style="stroke:#000000;stroke-linejoin:miter;"/>
    </g>
    <g id="text_22">
     <!-- \rm{300.0 K} -->
     <defs>
      <path d="M 22.09375 33.703125 
C 31 33.703125 34.90625 25.96875 34.90625 17.03125 
C 34.90625 5 28.5 0.390625 22.703125 0.390625 
C 17.40625 0.390625 8.796875 3.03125 6.09375 10.828125 
C 6.59375 10.625 7.09375 10.625 7.59375 10.625 
C 10 10.625 11.796875 12.21875 11.796875 14.8125 
C 11.796875 17.703125 9.59375 19 7.59375 19 
C 5.90625 19 3.296875 18.203125 3.296875 14.46875 
C 3.296875 5.234375 12.296875 -2 22.90625 -2 
C 34 -2 42.5 6.71875 42.5 16.953125 
C 42.5 26.671875 34.5 33.6875 25 34.796875 
C 32.59375 36.375 39.90625 43.0625 39.90625 52.015625 
C 39.90625 59.6875 32 65.296875 23 65.296875 
C 13.90625 65.296875 5.90625 59.828125 5.90625 52.015625 
C 5.90625 48.59375 8.5 48 9.796875 48 
C 11.90625 48 13.703125 49.296875 13.703125 51.890625 
C 13.703125 54.46875 11.90625 55.765625 9.796875 55.765625 
C 9.40625 55.765625 8.90625 55.765625 8.5 55.5625 
C 11.40625 61.859375 19.296875 63 22.796875 63 
C 26.296875 63 32.90625 61.328125 32.90625 51.875 
C 32.90625 49.109375 32.5 44.1875 29.09375 39.84375 
C 26.09375 36 22.703125 36 19.40625 35.59375 
C 18.90625 35.59375 16.59375 35.59375 16.203125 35.59375 
C 15.5 35.484375 15.09375 35.390625 15.09375 34.59375 
C 15.09375 33.8125 15.203125 33.703125 17.203125 33.703125 
z
" id="CMR17-51"/>
      <path d="M 16.59375 4.078125 
C 16.59375 6.5625 14.59375 8.15625 12.5 8.15625 
C 10.5 8.15625 8.40625 6.5625 8.40625 4.078125 
C 8.40625 1.59375 10.40625 0 12.5 0 
C 14.5 0 16.59375 1.59375 16.59375 4.078125 
" id="CMR17-46"/>
      <path d="M 36.90625 41.734375 
L 54.203125 59.078125 
C 57.796875 62.59375 61.59375 65.40625 67.203125 65.40625 
L 67.203125 68 
C 65.203125 68 62.703125 68 60.703125 68 
C 58 68 53.296875 68 50.703125 68.09375 
L 50.703125 65.5 
C 53.296875 65.3125 53.703125 63.515625 53.703125 62.796875 
C 53.703125 62.109375 53.296875 61.015625 52.90625 60.421875 
L 19.703125 27.15625 
L 19.703125 60.9375 
C 19.703125 65.40625 20.796875 65.40625 27.703125 65.40625 
L 27.703125 68 
C 24.796875 68 19.5 68 16.40625 68 
C 13.296875 68 8 68 5.09375 68 
L 5.09375 65.40625 
C 12 65.40625 13.09375 65.40625 13.09375 60.9375 
L 13.09375 6.96875 
C 13.09375 2.5 12 2.5 5.09375 2.5 
L 5.09375 0 
C 8 0 13.296875 0 16.40625 0 
C 19.5 0 24.796875 0 27.703125 0 
L 27.703125 2.5 
C 20.796875 2.5 19.703125 2.5 19.703125 6.984375 
L 19.703125 24.671875 
L 32.5 37.34375 
L 51.40625 8.390625 
C 52 7.390625 52.703125 6.09375 52.703125 5.09375 
C 52.703125 2.5 49.90625 2.5 48.59375 2.5 
L 48.59375 0 
C 51.796875 0 56.40625 0 59.703125 0 
C 62.09375 0 66.203125 0 68.5 -0.09375 
L 68.5 2.5 
C 63.703125 2.5 62.203125 3.09375 59.203125 7.6875 
z
" id="CMR17-75"/>
     </defs>
     <g transform="translate(494.18332 51.6533)scale(0.14 -0.14)">
      <use transform="scale(0.996264)" xlink:href="#CMR17-51"/>
      <use transform="translate(45.690477 0)scale(0.996264)" xlink:href="#CMR17-48"/>
      <use transform="translate(91.380954 0)scale(0.996264)" xlink:href="#CMR17-48"/>
      <use transform="translate(137.071431 0)scale(0.996264)" xlink:href="#CMR17-46"/>
      <use transform="translate(161.94249 0)scale(0.996264)" xlink:href="#CMR17-48"/>
      <use transform="translate(237.708933 0)scale(0.996264)" xlink:href="#CMR17-75"/>
     </g>
    </g>
    <g id="patch_93">
     <path d="M 454.98332 71.165329 
L 482.98332 71.165329 
L 482.98332 61.365329 
L 454.98332 61.365329 
z
" style="fill:#bfbf00;stroke:#bfbf00;stroke-linejoin:miter;"/>
    </g>
    <g id="text_23">
     <!-- \rm{40.0 K} -->
     <defs>
      <path d="M 33.59375 64.328125 
C 33.59375 66.40625 33.5 66.5 31.703125 66.5 
L 2 19.59375 
L 2 17 
L 27.796875 17 
L 27.796875 7.140625 
C 27.796875 3.5 27.59375 2.5 20.59375 2.5 
L 18.703125 2.5 
L 18.703125 0 
C 21.90625 0 27.296875 0 30.703125 0 
C 34.09375 0 39.5 0 42.703125 0 
L 42.703125 2.5 
L 40.796875 2.5 
C 33.796875 2.5 33.59375 3.5 33.59375 7.140625 
L 33.59375 17 
L 43.796875 17 
L 43.796875 19.59375 
L 33.59375 19.59375 
z
M 28.09375 57.765625 
L 28.09375 19.59375 
L 4 19.59375 
z
" id="CMR17-52"/>
     </defs>
     <g transform="translate(494.18332 71.165329)scale(0.14 -0.14)">
      <use transform="scale(0.996264)" xlink:href="#CMR17-52"/>
      <use transform="translate(45.690477 0)scale(0.996264)" xlink:href="#CMR17-48"/>
      <use transform="translate(91.380954 0)scale(0.996264)" xlink:href="#CMR17-46"/>
      <use transform="translate(116.252013 0)scale(0.996264)" xlink:href="#CMR17-48"/>
      <use transform="translate(192.018456 0)scale(0.996264)" xlink:href="#CMR17-75"/>
     </g>
    </g>
    <g id="patch_94">
     <path d="M 454.98332 90.677357 
L 482.98332 90.677357 
L 482.98332 80.877357 
L 454.98332 80.877357 
z
" style="fill:#008000;stroke:#008000;stroke-linejoin:miter;"/>
    </g>
    <g id="text_24">
     <!-- \rm{4.0 K} -->
     <g transform="translate(494.18332 90.677357)scale(0.14 -0.14)">
      <use transform="scale(0.996264)" xlink:href="#CMR17-52"/>
      <use transform="translate(45.690477 0)scale(0.996264)" xlink:href="#CMR17-46"/>
      <use transform="translate(70.561536 0)scale(0.996264)" xlink:href="#CMR17-48"/>
      <use transform="translate(146.327979 0)scale(0.996264)" xlink:href="#CMR17-75"/>
     </g>
    </g>
    <g id="patch_95">
     <path d="M 454.98332 110.189385 
L 482.98332 110.189385 
L 482.98332 100.389385 
L 454.98332 100.389385 
z
" style="fill:#00bfbf;stroke:#00bfbf;stroke-linejoin:miter;"/>
    </g>
    <g id="text_25">
     <!-- \rm{0.3 K} -->
     <g transform="translate(494.18332 110.189385)scale(0.14 -0.14)">
      <use transform="scale(0.996264)" xlink:href="#CMR17-48"/>
      <use transform="translate(45.690477 0)scale(0.996264)" xlink:href="#CMR17-46"/>
      <use transform="translate(70.561536 0)scale(0.996264)" xlink:href="#CMR17-51"/>
      <use transform="translate(146.327979 0)scale(0.996264)" xlink:href="#CMR17-75"/>
     </g>
    </g>
    <g id="patch_96">
     <path d="M 454.98332 129.701414 
L 482.98332 129.701414 
L 482.98332 119.901414 
L 454.98332 119.901414 
z
" style="fill:#0000ff;stroke:#0000ff;stroke-linejoin:miter;"/>
    </g>
    <g id="text_26">
     <!-- \rm{0.2 K} -->
     <g transform="translate(494.18332 129.701414)scale(0.14 -0.14)">
      <use transform="scale(0.996264)" xlink:href="#CMR17-48"/>
      <use transform="translate(45.690477 0)scale(0.996264)" xlink:href="#CMR17-46"/>
      <use transform="translate(70.561536 0)scale(0.996264)" xlink:href="#CMR17-50"/>
      <use transform="translate(146.327979 0)scale(0.996264)" xlink:href="#CMR17-75"/>
     </g>
    </g>
   </g>
  </g>
 </g>
 <defs>
  <clipPath id="pf287806d3c">
   <rect height="426.601099" width="482.185463" x="70.875002" y="29.2533"/>
  </clipPath>
 </defs>
</svg>
