<?xml version="1.0" encoding="utf-8" standalone="no"?>
<!DOCTYPE svg PUBLIC "-//W3C//DTD SVG 1.1//EN"
  "http://www.w3.org/Graphics/SVG/1.1/DTD/svg11.dtd">
<!-- Created with matplotlib (http://matplotlib.org/) -->
<svg height="504pt" version="1.1" viewBox="0 0 576 504" width="576pt" xmlns="http://www.w3.org/2000/svg" xmlns:xlink="http://www.w3.org/1999/xlink">
 <defs>
  <style type="text/css">
*{stroke-linecap:butt;stroke-linejoin:round;}
  </style>
 </defs>
 <g id="figure_1">
  <g id="patch_1">
   <path d="M 0 504 
L 576 504 
L 576 0 
L 0 0 
z
" style="fill:#ffffff;"/>
  </g>
  <g id="axes_1">
   <g id="patch_2">
    <path d="M 64.046513 455.854399 
L 556.474709 455.854399 
L 556.474709 29.2533 
L 64.046513 29.2533 
z
" style="fill:#ffffff;"/>
   </g>
   <g id="matplotlib.axis_1">
    <g id="xtick_1">
     <g id="line2d_1">
      <path clip-path="url(#pa88304634d)" d="M 64.046513 455.854399 
L 64.046513 29.2533 
" style="fill:none;stroke:#b0b0b0;stroke-linecap:square;stroke-width:0.8;"/>
     </g>
     <g id="line2d_2">
      <defs>
       <path d="M 0 0 
L 0 3.5 
" id="mfd3f664e93" style="stroke:#000000;stroke-width:0.8;"/>
      </defs>
      <g>
       <use style="stroke:#000000;stroke-width:0.8;" x="64.046513" xlink:href="#mfd3f664e93" y="455.854399"/>
      </g>
     </g>
     <g id="text_1">
      <!-- $-1.2$ -->
      <defs>
       <path d="M 66.09375 23 
C 67.5 23 69.40625 23 69.40625 25 
C 69.40625 27 67.5 27 66.09375 27 
L 11.59375 27 
C 10.203125 27 8.296875 27 8.296875 25 
C 8.296875 23 10.203125 23 11.59375 23 
z
" id="CMSY10-0"/>
       <path d="M 26.59375 63.3125 
C 26.59375 65.40625 26.5 65.5 25.09375 65.5 
C 21.203125 61.1875 15.296875 59.796875 9.703125 59.796875 
C 9.40625 59.796875 8.90625 59.796875 8.796875 59.5 
C 8.703125 59.296875 8.703125 59.09375 8.703125 57 
C 11.796875 57 17 57.59375 21 59.984375 
L 21 7.203125 
C 21 3.6875 20.796875 2.5 12.203125 2.5 
L 9.203125 2.5 
L 9.203125 0 
C 14 0 19 0 23.796875 0 
C 28.59375 0 33.59375 0 38.40625 0 
L 38.40625 2.5 
L 35.40625 2.5 
C 26.796875 2.5 26.59375 3.59375 26.59375 7.15625 
z
" id="CMR17-49"/>
       <path d="M 18.40625 4.796875 
C 18.40625 7.6875 16 9.671875 13.59375 9.671875 
C 10.703125 9.671875 8.703125 7.28125 8.703125 4.890625 
C 8.703125 2 11.09375 0 13.5 0 
C 16.40625 0 18.40625 2.390625 18.40625 4.796875 
" id="CMMI12-58"/>
       <path d="M 41.703125 15.453125 
L 39.90625 15.453125 
C 38.90625 8.375 38.09375 7.171875 37.703125 6.5625 
C 37.203125 5.765625 30 5.765625 28.59375 5.765625 
L 9.40625 5.765625 
C 13 9.671875 20 16.75 28.5 24.953125 
C 34.59375 30.734375 41.703125 37.53125 41.703125 47.421875 
C 41.703125 59.21875 32.296875 66 21.796875 66 
C 10.796875 66 4.09375 56.3125 4.09375 47.34375 
C 4.09375 43.4375 7 42.9375 8.203125 42.9375 
C 9.203125 42.9375 12.203125 43.546875 12.203125 47.03125 
C 12.203125 50.109375 9.59375 51 8.203125 51 
C 7.59375 51 7 50.90625 6.59375 50.703125 
C 8.5 59.21875 14.296875 63.40625 20.40625 63.40625 
C 29.09375 63.40625 34.796875 56.515625 34.796875 47.421875 
C 34.796875 38.734375 29.703125 31.25 24 24.75 
L 4.09375 2.28125 
L 4.09375 0 
L 39.296875 0 
z
" id="CMR17-50"/>
      </defs>
      <g transform="translate(49.897105 472.540275)scale(0.14 -0.14)">
       <use transform="scale(0.996264)" xlink:href="#CMSY10-0"/>
       <use transform="translate(77.487468 0)scale(0.996264)" xlink:href="#CMR17-49"/>
       <use transform="translate(123.177945 0)scale(0.996264)" xlink:href="#CMMI12-58"/>
       <use transform="translate(150.275122 0)scale(0.996264)" xlink:href="#CMR17-50"/>
      </g>
     </g>
    </g>
    <g id="xtick_2">
     <g id="line2d_3">
      <path clip-path="url(#pa88304634d)" d="M 146.117879 455.854399 
L 146.117879 29.2533 
" style="fill:none;stroke:#b0b0b0;stroke-linecap:square;stroke-width:0.8;"/>
     </g>
     <g id="line2d_4">
      <g>
       <use style="stroke:#000000;stroke-width:0.8;" x="146.117879" xlink:href="#mfd3f664e93" y="455.854399"/>
      </g>
     </g>
     <g id="text_2">
      <!-- $-0.8$ -->
      <defs>
       <path d="M 42 31.640625 
C 42 37.75 41.90625 48.125 37.703125 56.109375 
C 34 63.109375 28.09375 65.59375 22.90625 65.59375 
C 18.09375 65.59375 12 63.40625 8.203125 56.203125 
C 4.203125 48.71875 3.796875 39.4375 3.796875 31.640625 
C 3.796875 25.953125 3.90625 17.28125 7 9.671875 
C 11.296875 -0.609375 19 -2 22.90625 -2 
C 27.5 -2 34.5 -0.109375 38.59375 9.375 
C 41.59375 16.28125 42 24.359375 42 31.640625 
M 22.90625 -0.40625 
C 16.5 -0.40625 12.703125 5.078125 11.296875 12.6875 
C 10.203125 18.5625 10.203125 27.15625 10.203125 32.75 
C 10.203125 40.4375 10.203125 46.828125 11.5 52.921875 
C 13.40625 61.390625 19 64 22.90625 64 
C 27 64 32.296875 61.296875 34.203125 53.125 
C 35.5 47.4375 35.59375 40.734375 35.59375 32.75 
C 35.59375 26.25 35.59375 18.265625 34.40625 12.375 
C 32.296875 1.484375 26.40625 -0.40625 22.90625 -0.40625 
" id="CMR17-48"/>
       <path d="M 27.203125 35.375 
C 33.5 38.5625 39.90625 43.328125 39.90625 50.984375 
C 39.90625 60.03125 31.09375 65.296875 23 65.296875 
C 13.90625 65.296875 5.90625 58.734375 5.90625 49.6875 
C 5.90625 47.203125 6.5 42.921875 10.40625 39.140625 
C 11.40625 38.15625 15.59375 35.171875 18.296875 33.28125 
C 13.796875 30.984375 3.296875 25.53125 3.296875 14.59375 
C 3.296875 4.359375 13.09375 -2 22.796875 -2 
C 33.5 -2 42.5 5.65625 42.5 15.796875 
C 42.5 24.84375 36.40625 29.03125 32.40625 31.703125 
C 31 32.6875 30.203125 33.1875 27.203125 35.375 
M 14.09375 44.125 
C 13.296875 44.625 9.296875 47.703125 9.296875 52.375 
C 9.296875 58.4375 15.59375 63 22.796875 63 
C 30.703125 63 36.5 57.453125 36.5 50.984375 
C 36.5 41.734375 26.09375 36.46875 25.59375 36.46875 
C 25.5 36.46875 25.40625 36.46875 24.59375 37.078125 
z
M 32.5 23.734375 
C 34 22.640625 38.796875 19.375 38.796875 13.296875 
C 38.796875 5.953125 31.40625 0.390625 23 0.390625 
C 13.90625 0.390625 7 6.84375 7 14.6875 
C 7 22.546875 13.09375 29.09375 20 32.1875 
z
" id="CMR17-56"/>
      </defs>
      <g transform="translate(131.968471 472.540275)scale(0.14 -0.14)">
       <use transform="scale(0.996264)" xlink:href="#CMSY10-0"/>
       <use transform="translate(77.487468 0)scale(0.996264)" xlink:href="#CMR17-48"/>
       <use transform="translate(123.177945 0)scale(0.996264)" xlink:href="#CMMI12-58"/>
       <use transform="translate(150.275122 0)scale(0.996264)" xlink:href="#CMR17-56"/>
      </g>
     </g>
    </g>
    <g id="xtick_3">
     <g id="line2d_5">
      <path clip-path="url(#pa88304634d)" d="M 228.189245 455.854399 
L 228.189245 29.2533 
" style="fill:none;stroke:#b0b0b0;stroke-linecap:square;stroke-width:0.8;"/>
     </g>
     <g id="line2d_6">
      <g>
       <use style="stroke:#000000;stroke-width:0.8;" x="228.189245" xlink:href="#mfd3f664e93" y="455.854399"/>
      </g>
     </g>
     <g id="text_3">
      <!-- $-0.4$ -->
      <defs>
       <path d="M 33.59375 64.328125 
C 33.59375 66.40625 33.5 66.5 31.703125 66.5 
L 2 19.59375 
L 2 17 
L 27.796875 17 
L 27.796875 7.140625 
C 27.796875 3.5 27.59375 2.5 20.59375 2.5 
L 18.703125 2.5 
L 18.703125 0 
C 21.90625 0 27.296875 0 30.703125 0 
C 34.09375 0 39.5 0 42.703125 0 
L 42.703125 2.5 
L 40.796875 2.5 
C 33.796875 2.5 33.59375 3.5 33.59375 7.140625 
L 33.59375 17 
L 43.796875 17 
L 43.796875 19.59375 
L 33.59375 19.59375 
z
M 28.09375 57.765625 
L 28.09375 19.59375 
L 4 19.59375 
z
" id="CMR17-52"/>
      </defs>
      <g transform="translate(214.039837 472.540275)scale(0.14 -0.14)">
       <use transform="scale(0.996264)" xlink:href="#CMSY10-0"/>
       <use transform="translate(77.487468 0)scale(0.996264)" xlink:href="#CMR17-48"/>
       <use transform="translate(123.177945 0)scale(0.996264)" xlink:href="#CMMI12-58"/>
       <use transform="translate(150.275122 0)scale(0.996264)" xlink:href="#CMR17-52"/>
      </g>
     </g>
    </g>
    <g id="xtick_4">
     <g id="line2d_7">
      <path clip-path="url(#pa88304634d)" d="M 310.260611 455.854399 
L 310.260611 29.2533 
" style="fill:none;stroke:#b0b0b0;stroke-linecap:square;stroke-width:0.8;"/>
     </g>
     <g id="line2d_8">
      <g>
       <use style="stroke:#000000;stroke-width:0.8;" x="310.260611" xlink:href="#mfd3f664e93" y="455.854399"/>
      </g>
     </g>
     <g id="text_4">
      <!-- $0.0$ -->
      <g transform="translate(301.53532 472.540275)scale(0.14 -0.14)">
       <use transform="scale(0.996264)" xlink:href="#CMR17-48"/>
       <use transform="translate(45.690477 0)scale(0.996264)" xlink:href="#CMMI12-58"/>
       <use transform="translate(72.787654 0)scale(0.996264)" xlink:href="#CMR17-48"/>
      </g>
     </g>
    </g>
    <g id="xtick_5">
     <g id="line2d_9">
      <path clip-path="url(#pa88304634d)" d="M 392.331977 455.854399 
L 392.331977 29.2533 
" style="fill:none;stroke:#b0b0b0;stroke-linecap:square;stroke-width:0.8;"/>
     </g>
     <g id="line2d_10">
      <g>
       <use style="stroke:#000000;stroke-width:0.8;" x="392.331977" xlink:href="#mfd3f664e93" y="455.854399"/>
      </g>
     </g>
     <g id="text_5">
      <!-- $0.4$ -->
      <g transform="translate(383.606686 472.540275)scale(0.14 -0.14)">
       <use transform="scale(0.996264)" xlink:href="#CMR17-48"/>
       <use transform="translate(45.690477 0)scale(0.996264)" xlink:href="#CMMI12-58"/>
       <use transform="translate(72.787654 0)scale(0.996264)" xlink:href="#CMR17-52"/>
      </g>
     </g>
    </g>
    <g id="xtick_6">
     <g id="line2d_11">
      <path clip-path="url(#pa88304634d)" d="M 474.403343 455.854399 
L 474.403343 29.2533 
" style="fill:none;stroke:#b0b0b0;stroke-linecap:square;stroke-width:0.8;"/>
     </g>
     <g id="line2d_12">
      <g>
       <use style="stroke:#000000;stroke-width:0.8;" x="474.403343" xlink:href="#mfd3f664e93" y="455.854399"/>
      </g>
     </g>
     <g id="text_6">
      <!-- $0.8$ -->
      <g transform="translate(465.678052 472.540275)scale(0.14 -0.14)">
       <use transform="scale(0.996264)" xlink:href="#CMR17-48"/>
       <use transform="translate(45.690477 0)scale(0.996264)" xlink:href="#CMMI12-58"/>
       <use transform="translate(72.787654 0)scale(0.996264)" xlink:href="#CMR17-56"/>
      </g>
     </g>
    </g>
    <g id="xtick_7">
     <g id="line2d_13">
      <path clip-path="url(#pa88304634d)" d="M 556.474709 455.854399 
L 556.474709 29.2533 
" style="fill:none;stroke:#b0b0b0;stroke-linecap:square;stroke-width:0.8;"/>
     </g>
     <g id="line2d_14">
      <g>
       <use style="stroke:#000000;stroke-width:0.8;" x="556.474709" xlink:href="#mfd3f664e93" y="455.854399"/>
      </g>
     </g>
     <g id="text_7">
      <!-- $1.2$ -->
      <g transform="translate(547.749418 472.540275)scale(0.14 -0.14)">
       <use transform="scale(0.996264)" xlink:href="#CMR17-49"/>
       <use transform="translate(45.690477 0)scale(0.996264)" xlink:href="#CMMI12-58"/>
       <use transform="translate(72.787654 0)scale(0.996264)" xlink:href="#CMR17-50"/>
      </g>
     </g>
    </g>
    <g id="text_8">
     <!-- \rm{X [m]} -->
     <defs>
      <path d="M 36.5 37.46875 
L 51.296875 58.640625 
C 52.796875 60.71875 55.796875 65 64 65 
L 64 67.6875 
C 61.703125 67.484375 57.90625 67.484375 55.5 67.484375 
C 52.203125 67.484375 48.09375 67.484375 45.59375 67.6875 
L 45.59375 65.09375 
C 48.796875 64.796875 49.59375 62.8125 49.59375 61.21875 
C 49.59375 60.046875 49.09375 59.25 48.40625 58.25 
L 35.203125 39.265625 
L 20.40625 60.71875 
C 19.703125 61.8125 19.59375 62.109375 19.59375 62.40625 
C 19.59375 63.3125 20.703125 65 24 65 
L 24 67.484375 
C 20.796875 67.484375 15.90625 67.484375 12.59375 67.484375 
C 10 67.484375 5 67.484375 2.59375 67.6875 
L 2.59375 65 
C 8.09375 65 9.90625 64.8125 12.09375 61.734375 
L 31.40625 33.796875 
L 14 8.578125 
C 9.703125 2.390625 3.203125 2.390625 1.296875 2.390625 
L 1.296875 -0.203125 
C 3.59375 0 7.40625 0 9.796875 0 
C 12.5 0 17.203125 0 19.703125 -0.203125 
L 19.703125 2.390625 
C 16.59375 2.6875 15.703125 4.671875 15.703125 6.265625 
C 15.703125 7.546875 16.203125 8.25 16.703125 8.9375 
L 32.703125 32 
L 50.09375 6.59375 
C 50.90625 5.5 50.90625 5.203125 50.90625 4.90625 
C 50.90625 4.109375 50 2.390625 46.5 2.390625 
L 46.5 0 
C 49.703125 0 54.59375 0 57.90625 0 
C 60.5 0 65.5 0 67.90625 -0.203125 
L 67.90625 2.390625 
C 61.5 2.390625 60.5 2.875 58.5 5.671875 
z
" id="CMR17-88"/>
      <path d="M 23.5 -25 
L 23.5 -21.515625 
L 14.09375 -21.515625 
L 14.09375 71 
L 23.5 71 
L 23.5 74.484375 
L 10.59375 74.484375 
L 10.59375 -25 
z
" id="CMR17-91"/>
      <path d="M 67.59375 30.203125 
C 67.59375 35.1875 66.703125 43.59375 54.796875 43.59375 
C 48 43.59375 43.296875 39 41.5 33.59375 
L 41.40625 33.59375 
C 40.203125 41.796875 34.296875 43.59375 28.703125 43.59375 
C 20.796875 43.59375 16.703125 37.5625 15.203125 33.59375 
L 15.09375 33.59375 
L 15.09375 43.59375 
L 3.296875 42.5 
L 3.296875 39.90625 
C 9.203125 39.90625 10.09375 39.296875 10.09375 34.5 
L 10.09375 6.6875 
C 10.09375 2.875 9.703125 2.390625 3.296875 2.390625 
L 3.296875 -0.203125 
C 5.703125 0 10.09375 0 12.703125 0 
C 15.296875 0 19.796875 0 22.203125 -0.203125 
L 22.203125 2.390625 
C 15.796875 2.390625 15.40625 2.78125 15.40625 6.6875 
L 15.40625 25.90625 
C 15.40625 35.109375 21 42 28 42 
C 35.40625 42 36.203125 35.40625 36.203125 30.59375 
L 36.203125 6.6875 
C 36.203125 2.875 35.796875 2.390625 29.40625 2.390625 
L 29.40625 -0.203125 
C 31.796875 0 36.203125 0 38.796875 0 
C 41.40625 0 45.90625 0 48.296875 -0.203125 
L 48.296875 2.390625 
C 41.90625 2.390625 41.5 2.78125 41.5 6.6875 
L 41.5 25.90625 
C 41.5 35.109375 47.09375 42 54.09375 42 
C 61.5 42 62.296875 35.40625 62.296875 30.59375 
L 62.296875 6.6875 
C 62.296875 2.875 61.90625 2.390625 55.5 2.390625 
L 55.5 -0.203125 
C 57.90625 0 62.296875 0 64.90625 0 
C 67.5 0 72 0 74.40625 -0.203125 
L 74.40625 2.390625 
C 68 2.390625 67.59375 2.78125 67.59375 6.6875 
z
" id="CMR17-109"/>
      <path d="M 14.296875 74.484375 
L 1.40625 74.484375 
L 1.40625 71 
L 10.796875 71 
L 10.796875 -21.515625 
L 1.40625 -21.515625 
L 1.40625 -25 
L 14.296875 -25 
z
" id="CMR17-93"/>
     </defs>
     <g transform="translate(293.381487 489.713076)scale(0.14 -0.14)">
      <use transform="scale(0.996264)" xlink:href="#CMR17-88"/>
      <use transform="translate(99.148396 0)scale(0.996264)" xlink:href="#CMR17-91"/>
      <use transform="translate(124.019455 0)scale(0.996264)" xlink:href="#CMR17-109"/>
      <use transform="translate(200.939045 0)scale(0.996264)" xlink:href="#CMR17-93"/>
     </g>
    </g>
   </g>
   <g id="matplotlib.axis_2">
    <g id="ytick_1">
     <g id="line2d_15">
      <path clip-path="url(#pa88304634d)" d="M 64.046513 29.2533 
L 556.474709 29.2533 
" style="fill:none;stroke:#b0b0b0;stroke-linecap:square;stroke-width:0.8;"/>
     </g>
     <g id="line2d_16">
      <defs>
       <path d="M 0 0 
L -3.5 0 
" id="mf820c4b7a2" style="stroke:#000000;stroke-width:0.8;"/>
      </defs>
      <g>
       <use style="stroke:#000000;stroke-width:0.8;" x="64.046513" xlink:href="#mf820c4b7a2" y="29.2533"/>
      </g>
     </g>
     <g id="text_9">
      <!-- $-0.4$ -->
      <g transform="translate(28.747696 34.096238)scale(0.14 -0.14)">
       <use transform="scale(0.996264)" xlink:href="#CMSY10-0"/>
       <use transform="translate(77.487468 0)scale(0.996264)" xlink:href="#CMR17-48"/>
       <use transform="translate(123.177945 0)scale(0.996264)" xlink:href="#CMMI12-58"/>
       <use transform="translate(150.275122 0)scale(0.996264)" xlink:href="#CMR17-52"/>
      </g>
     </g>
    </g>
    <g id="ytick_2">
     <g id="line2d_17">
      <path clip-path="url(#pa88304634d)" d="M 64.046513 100.353483 
L 556.474709 100.353483 
" style="fill:none;stroke:#b0b0b0;stroke-linecap:square;stroke-width:0.8;"/>
     </g>
     <g id="line2d_18">
      <g>
       <use style="stroke:#000000;stroke-width:0.8;" x="64.046513" xlink:href="#mf820c4b7a2" y="100.353483"/>
      </g>
     </g>
     <g id="text_10">
      <!-- $0.0$ -->
      <g transform="translate(39.595931 105.196422)scale(0.14 -0.14)">
       <use transform="scale(0.996264)" xlink:href="#CMR17-48"/>
       <use transform="translate(45.690477 0)scale(0.996264)" xlink:href="#CMMI12-58"/>
       <use transform="translate(72.787654 0)scale(0.996264)" xlink:href="#CMR17-48"/>
      </g>
     </g>
    </g>
    <g id="ytick_3">
     <g id="line2d_19">
      <path clip-path="url(#pa88304634d)" d="M 64.046513 171.453666 
L 556.474709 171.453666 
" style="fill:none;stroke:#b0b0b0;stroke-linecap:square;stroke-width:0.8;"/>
     </g>
     <g id="line2d_20">
      <g>
       <use style="stroke:#000000;stroke-width:0.8;" x="64.046513" xlink:href="#mf820c4b7a2" y="171.453666"/>
      </g>
     </g>
     <g id="text_11">
      <!-- $0.4$ -->
      <g transform="translate(39.595931 176.296605)scale(0.14 -0.14)">
       <use transform="scale(0.996264)" xlink:href="#CMR17-48"/>
       <use transform="translate(45.690477 0)scale(0.996264)" xlink:href="#CMMI12-58"/>
       <use transform="translate(72.787654 0)scale(0.996264)" xlink:href="#CMR17-52"/>
      </g>
     </g>
    </g>
    <g id="ytick_4">
     <g id="line2d_21">
      <path clip-path="url(#pa88304634d)" d="M 64.046513 242.55385 
L 556.474709 242.55385 
" style="fill:none;stroke:#b0b0b0;stroke-linecap:square;stroke-width:0.8;"/>
     </g>
     <g id="line2d_22">
      <g>
       <use style="stroke:#000000;stroke-width:0.8;" x="64.046513" xlink:href="#mf820c4b7a2" y="242.55385"/>
      </g>
     </g>
     <g id="text_12">
      <!-- $0.8$ -->
      <g transform="translate(39.595931 247.396788)scale(0.14 -0.14)">
       <use transform="scale(0.996264)" xlink:href="#CMR17-48"/>
       <use transform="translate(45.690477 0)scale(0.996264)" xlink:href="#CMMI12-58"/>
       <use transform="translate(72.787654 0)scale(0.996264)" xlink:href="#CMR17-56"/>
      </g>
     </g>
    </g>
    <g id="ytick_5">
     <g id="line2d_23">
      <path clip-path="url(#pa88304634d)" d="M 64.046513 313.654033 
L 556.474709 313.654033 
" style="fill:none;stroke:#b0b0b0;stroke-linecap:square;stroke-width:0.8;"/>
     </g>
     <g id="line2d_24">
      <g>
       <use style="stroke:#000000;stroke-width:0.8;" x="64.046513" xlink:href="#mf820c4b7a2" y="313.654033"/>
      </g>
     </g>
     <g id="text_13">
      <!-- $1.2$ -->
      <g transform="translate(39.595931 318.496971)scale(0.14 -0.14)">
       <use transform="scale(0.996264)" xlink:href="#CMR17-49"/>
       <use transform="translate(45.690477 0)scale(0.996264)" xlink:href="#CMMI12-58"/>
       <use transform="translate(72.787654 0)scale(0.996264)" xlink:href="#CMR17-50"/>
      </g>
     </g>
    </g>
    <g id="ytick_6">
     <g id="line2d_25">
      <path clip-path="url(#pa88304634d)" d="M 64.046513 384.754216 
L 556.474709 384.754216 
" style="fill:none;stroke:#b0b0b0;stroke-linecap:square;stroke-width:0.8;"/>
     </g>
     <g id="line2d_26">
      <g>
       <use style="stroke:#000000;stroke-width:0.8;" x="64.046513" xlink:href="#mf820c4b7a2" y="384.754216"/>
      </g>
     </g>
     <g id="text_14">
      <!-- $1.6$ -->
      <defs>
       <path d="M 10.59375 34 
C 10.59375 57.65625 21.796875 63 28.296875 63 
C 30.40625 63 35.5 62.640625 37.5 59 
C 35.90625 59 32.90625 59 32.90625 55.515625 
C 32.90625 52.828125 35.09375 51.921875 36.5 51.921875 
C 37.40625 51.921875 40.09375 52.3125 40.09375 55.625 
C 40.09375 61.78125 35.09375 65.296875 28.203125 65.296875 
C 16.296875 65.296875 3.796875 52.96875 3.796875 31 
C 3.796875 3.953125 15.09375 -2 23.09375 -2 
C 32.796875 -2 42 6.671875 42 20.046875 
C 42 32.515625 33.90625 41.59375 23.703125 41.59375 
C 17.59375 41.59375 13.09375 37.609375 10.59375 30.625 
z
M 23.09375 0.390625 
C 10.796875 0.390625 10.796875 18.75 10.796875 22.4375 
C 10.796875 29.625 14.203125 40 23.5 40 
C 25.203125 40 30.09375 40 33.40625 33.125 
C 35.203125 29.21875 35.203125 25.140625 35.203125 20.140625 
C 35.203125 14.75 35.203125 10.78125 33.09375 6.78125 
C 30.90625 2.671875 27.703125 0.390625 23.09375 0.390625 
" id="CMR17-54"/>
      </defs>
      <g transform="translate(39.595931 389.597154)scale(0.14 -0.14)">
       <use transform="scale(0.996264)" xlink:href="#CMR17-49"/>
       <use transform="translate(45.690477 0)scale(0.996264)" xlink:href="#CMMI12-58"/>
       <use transform="translate(72.787654 0)scale(0.996264)" xlink:href="#CMR17-54"/>
      </g>
     </g>
    </g>
    <g id="ytick_7">
     <g id="line2d_27">
      <path clip-path="url(#pa88304634d)" d="M 64.046513 455.854399 
L 556.474709 455.854399 
" style="fill:none;stroke:#b0b0b0;stroke-linecap:square;stroke-width:0.8;"/>
     </g>
     <g id="line2d_28">
      <g>
       <use style="stroke:#000000;stroke-width:0.8;" x="64.046513" xlink:href="#mf820c4b7a2" y="455.854399"/>
      </g>
     </g>
     <g id="text_15">
      <!-- $2.0$ -->
      <g transform="translate(39.595931 460.697337)scale(0.14 -0.14)">
       <use transform="scale(0.996264)" xlink:href="#CMR17-50"/>
       <use transform="translate(45.690477 0)scale(0.996264)" xlink:href="#CMMI12-58"/>
       <use transform="translate(72.787654 0)scale(0.996264)" xlink:href="#CMR17-48"/>
      </g>
     </g>
    </g>
    <g id="text_16">
     <!-- \rm{Z [m]} -->
     <defs>
      <path d="M 51.59375 66 
C 51.59375 67.90625 51.5 68 49.40625 68 
L 6.90625 68 
L 5.90625 46 
L 7.703125 46 
C 8.296875 57.34375 11.296875 65.40625 27.5 65.40625 
L 44 65.40625 
L 5.296875 3.1875 
C 4.59375 2.09375 4.59375 1.984375 4.59375 1.296875 
C 4.59375 0 4.796875 0 6.796875 0 
L 50.703125 0 
L 52.09375 25.984375 
L 50.296875 25.984375 
C 49.40625 12.9375 48.703125 2.78125 29.59375 2.78125 
L 12.203125 2.78125 
z
" id="CMR17-90"/>
     </defs>
     <g transform="translate(21.260772 258.48699)rotate(-90)scale(0.14 -0.14)">
      <use transform="scale(0.996264)" xlink:href="#CMR17-90"/>
      <use transform="translate(86.176138 0)scale(0.996264)" xlink:href="#CMR17-91"/>
      <use transform="translate(111.047196 0)scale(0.996264)" xlink:href="#CMR17-109"/>
      <use transform="translate(187.966786 0)scale(0.996264)" xlink:href="#CMR17-93"/>
     </g>
    </g>
   </g>
   <g id="patch_3">
    <path d="M 64.046513 455.854399 
L 64.046513 29.2533 
" style="fill:none;stroke:#000000;stroke-linecap:square;stroke-linejoin:miter;stroke-width:0.8;"/>
   </g>
   <g id="patch_4">
    <path d="M 556.474709 455.854399 
L 556.474709 29.2533 
" style="fill:none;stroke:#000000;stroke-linecap:square;stroke-linejoin:miter;stroke-width:0.8;"/>
   </g>
   <g id="patch_5">
    <path d="M 64.046513 455.854399 
L 556.474709 455.854399 
" style="fill:none;stroke:#000000;stroke-linecap:square;stroke-linejoin:miter;stroke-width:0.8;"/>
   </g>
   <g id="patch_6">
    <path d="M 64.046513 29.2533 
L 556.474709 29.2533 
" style="fill:none;stroke:#000000;stroke-linecap:square;stroke-linejoin:miter;stroke-width:0.8;"/>
   </g>
   <g id="patch_7">
    <path clip-path="url(#pa88304634d)" d="M 249.168738 100.353483 
C 249.168738 86.322231 255.609579 72.85131 267.062133 62.929716 
C 278.514688 53.008123 294.064253 47.428284 310.260611 47.428284 
C 326.456969 47.428284 342.006534 53.008123 353.459089 62.929716 
C 364.911643 72.85131 371.352484 86.322231 371.352484 100.353483 
" style="fill:none;stroke:#000000;stroke-linejoin:miter;stroke-width:0.85;"/>
   </g>
   <g id="patch_8">
    <path clip-path="url(#pa88304634d)" d="M 249.5278 100.353483 
L 370.993422 100.353483 
L 370.993422 101.482199 
L 249.5278 101.482199 
z
"/>
   </g>
   <g id="patch_9">
    <path clip-path="url(#pa88304634d)" d="M 248.809676 100.353483 
L 249.5278 100.353483 
L 249.5278 101.482199 
L 248.809676 101.482199 
z
"/>
   </g>
   <g id="patch_10">
    <path clip-path="url(#pa88304634d)" d="M 370.993422 100.353483 
L 371.711546 100.353483 
L 371.711546 101.482199 
L 370.993422 101.482199 
z
"/>
   </g>
   <g id="patch_11">
    <path clip-path="url(#pa88304634d)" d="M 248.809676 101.482199 
L 249.5278 101.482199 
L 249.5278 106.352561 
L 248.809676 106.352561 
z
"/>
   </g>
   <g id="patch_12">
    <path clip-path="url(#pa88304634d)" d="M 370.993422 101.482199 
L 371.711546 101.482199 
L 371.711546 106.352561 
L 370.993422 106.352561 
z
"/>
   </g>
   <g id="patch_13">
    <path clip-path="url(#pa88304634d)" d="M 249.5278 106.352561 
L 370.993422 106.352561 
L 370.993422 106.530312 
L 249.5278 106.530312 
z
"/>
   </g>
   <g id="patch_14">
    <path clip-path="url(#pa88304634d)" d="M 248.809676 106.352561 
L 249.5278 106.352561 
L 249.5278 106.353272 
L 248.809676 106.353272 
z
"/>
   </g>
   <g id="patch_15">
    <path clip-path="url(#pa88304634d)" d="M 370.993422 106.352561 
L 371.711546 106.352561 
L 371.711546 106.353272 
L 370.993422 106.353272 
z
"/>
   </g>
   <g id="patch_16">
    <path clip-path="url(#pa88304634d)" d="M 248.809676 106.353272 
L 249.5278 106.353272 
L 249.5278 107.242025 
L 248.809676 107.242025 
z
"/>
   </g>
   <g id="patch_17">
    <path clip-path="url(#pa88304634d)" d="M 370.993422 106.353272 
L 371.711546 106.353272 
L 371.711546 107.242025 
L 370.993422 107.242025 
z
"/>
   </g>
   <g id="patch_18">
    <path clip-path="url(#pa88304634d)" d="M 249.5278 107.242025 
L 370.993422 107.242025 
L 370.993422 107.419775 
L 249.5278 107.419775 
z
"/>
   </g>
   <g id="patch_19">
    <path clip-path="url(#pa88304634d)" d="M 248.809676 107.242025 
L 249.5278 107.242025 
L 249.5278 107.242736 
L 248.809676 107.242736 
z
"/>
   </g>
   <g id="patch_20">
    <path clip-path="url(#pa88304634d)" d="M 370.993422 107.242025 
L 371.711546 107.242025 
L 371.711546 107.242736 
L 370.993422 107.242736 
z
"/>
   </g>
   <g id="patch_21">
    <path clip-path="url(#pa88304634d)" d="M 248.809676 107.242736 
L 249.5278 107.242736 
L 249.5278 108.721619 
L 248.809676 108.721619 
z
"/>
   </g>
   <g id="patch_22">
    <path clip-path="url(#pa88304634d)" d="M 370.993422 107.242736 
L 371.711546 107.242736 
L 371.711546 108.721619 
L 370.993422 108.721619 
z
"/>
   </g>
   <g id="patch_23">
    <path clip-path="url(#pa88304634d)" d="M 249.5278 108.721619 
L 370.993422 108.721619 
L 370.993422 108.89937 
L 249.5278 108.89937 
z
" style="fill:#ff0000;"/>
   </g>
   <g id="patch_24">
    <path clip-path="url(#pa88304634d)" d="M 248.809676 108.721619 
L 249.5278 108.721619 
L 249.5278 108.72233 
L 248.809676 108.72233 
z
" style="fill:#ff0000;"/>
   </g>
   <g id="patch_25">
    <path clip-path="url(#pa88304634d)" d="M 370.993422 108.721619 
L 371.711546 108.721619 
L 371.711546 108.72233 
L 370.993422 108.72233 
z
" style="fill:#ff0000;"/>
   </g>
   <g id="patch_26">
    <path clip-path="url(#pa88304634d)" d="M 248.809676 108.72233 
L 249.5278 108.72233 
L 249.5278 109.611083 
L 248.809676 109.611083 
z
" style="fill:#ff0000;"/>
   </g>
   <g id="patch_27">
    <path clip-path="url(#pa88304634d)" d="M 370.993422 108.72233 
L 371.711546 108.72233 
L 371.711546 109.611083 
L 370.993422 109.611083 
z
" style="fill:#ff0000;"/>
   </g>
   <g id="patch_28">
    <path clip-path="url(#pa88304634d)" d="M 249.5278 109.611083 
L 370.993422 109.611083 
L 370.993422 109.788833 
L 249.5278 109.788833 
z
" style="fill:#ff0000;"/>
   </g>
   <g id="patch_29">
    <path clip-path="url(#pa88304634d)" d="M 248.809676 109.611083 
L 249.5278 109.611083 
L 249.5278 109.611794 
L 248.809676 109.611794 
z
" style="fill:#ff0000;"/>
   </g>
   <g id="patch_30">
    <path clip-path="url(#pa88304634d)" d="M 370.993422 109.611083 
L 371.711546 109.611083 
L 371.711546 109.611794 
L 370.993422 109.611794 
z
" style="fill:#ff0000;"/>
   </g>
   <g id="patch_31">
    <path clip-path="url(#pa88304634d)" d="M 248.809676 109.611794 
L 249.5278 109.611794 
L 249.5278 110.500546 
L 248.809676 110.500546 
z
" style="fill:#ff0000;"/>
   </g>
   <g id="patch_32">
    <path clip-path="url(#pa88304634d)" d="M 370.993422 109.611794 
L 371.711546 109.611794 
L 371.711546 110.500546 
L 370.993422 110.500546 
z
" style="fill:#ff0000;"/>
   </g>
   <g id="patch_33">
    <path clip-path="url(#pa88304634d)" d="M 249.5278 110.500546 
L 370.993422 110.500546 
L 370.993422 110.678296 
L 249.5278 110.678296 
z
" style="fill:#ff0000;"/>
   </g>
   <g id="patch_34">
    <path clip-path="url(#pa88304634d)" d="M 248.809676 110.500546 
L 249.5278 110.500546 
L 249.5278 110.501257 
L 248.809676 110.501257 
z
" style="fill:#ff0000;"/>
   </g>
   <g id="patch_35">
    <path clip-path="url(#pa88304634d)" d="M 370.993422 110.500546 
L 371.711546 110.500546 
L 371.711546 110.501257 
L 370.993422 110.501257 
z
" style="fill:#ff0000;"/>
   </g>
   <g id="patch_36">
    <path clip-path="url(#pa88304634d)" d="M 248.809676 110.501257 
L 249.5278 110.501257 
L 249.5278 112.472509 
L 248.809676 112.472509 
z
" style="fill:#ff0000;"/>
   </g>
   <g id="patch_37">
    <path clip-path="url(#pa88304634d)" d="M 370.993422 110.501257 
L 371.711546 110.501257 
L 371.711546 112.472509 
L 370.993422 112.472509 
z
" style="fill:#ff0000;"/>
   </g>
   <g id="patch_38">
    <path clip-path="url(#pa88304634d)" d="M 249.5278 112.472509 
L 370.993422 112.472509 
L 370.993422 112.65026 
L 249.5278 112.65026 
z
" style="fill:#bfbf00;"/>
   </g>
   <g id="patch_39">
    <path clip-path="url(#pa88304634d)" d="M 248.809676 112.472509 
L 249.5278 112.472509 
L 249.5278 112.47322 
L 248.809676 112.47322 
z
" style="fill:#bfbf00;"/>
   </g>
   <g id="patch_40">
    <path clip-path="url(#pa88304634d)" d="M 370.993422 112.472509 
L 371.711546 112.472509 
L 371.711546 112.47322 
L 370.993422 112.47322 
z
" style="fill:#bfbf00;"/>
   </g>
   <g id="patch_41">
    <path clip-path="url(#pa88304634d)" d="M 248.809676 112.47322 
L 249.5278 112.47322 
L 249.5278 113.361973 
L 248.809676 113.361973 
z
" style="fill:#bfbf00;"/>
   </g>
   <g id="patch_42">
    <path clip-path="url(#pa88304634d)" d="M 370.993422 112.47322 
L 371.711546 112.47322 
L 371.711546 113.361973 
L 370.993422 113.361973 
z
" style="fill:#bfbf00;"/>
   </g>
   <g id="patch_43">
    <path clip-path="url(#pa88304634d)" d="M 249.5278 113.361973 
L 370.993422 113.361973 
L 370.993422 113.539723 
L 249.5278 113.539723 
z
" style="fill:#bfbf00;"/>
   </g>
   <g id="patch_44">
    <path clip-path="url(#pa88304634d)" d="M 248.809676 113.361973 
L 249.5278 113.361973 
L 249.5278 113.362684 
L 248.809676 113.362684 
z
" style="fill:#bfbf00;"/>
   </g>
   <g id="patch_45">
    <path clip-path="url(#pa88304634d)" d="M 370.993422 113.361973 
L 371.711546 113.361973 
L 371.711546 113.362684 
L 370.993422 113.362684 
z
" style="fill:#bfbf00;"/>
   </g>
   <g id="patch_46">
    <path clip-path="url(#pa88304634d)" d="M 248.809676 113.362684 
L 249.5278 113.362684 
L 249.5278 114.251436 
L 248.809676 114.251436 
z
" style="fill:#bfbf00;"/>
   </g>
   <g id="patch_47">
    <path clip-path="url(#pa88304634d)" d="M 370.993422 113.362684 
L 371.711546 113.362684 
L 371.711546 114.251436 
L 370.993422 114.251436 
z
" style="fill:#bfbf00;"/>
   </g>
   <g id="patch_48">
    <path clip-path="url(#pa88304634d)" d="M 249.5278 114.251436 
L 370.993422 114.251436 
L 370.993422 114.429187 
L 249.5278 114.429187 
z
" style="fill:#bfbf00;"/>
   </g>
   <g id="patch_49">
    <path clip-path="url(#pa88304634d)" d="M 248.809676 114.251436 
L 249.5278 114.251436 
L 249.5278 114.252147 
L 248.809676 114.252147 
z
" style="fill:#bfbf00;"/>
   </g>
   <g id="patch_50">
    <path clip-path="url(#pa88304634d)" d="M 370.993422 114.251436 
L 371.711546 114.251436 
L 371.711546 114.252147 
L 370.993422 114.252147 
z
" style="fill:#bfbf00;"/>
   </g>
   <g id="patch_51">
    <path clip-path="url(#pa88304634d)" d="M 248.809676 114.252147 
L 249.5278 114.252147 
L 249.5278 115.587053 
L 248.809676 115.587053 
z
" style="fill:#bfbf00;"/>
   </g>
   <g id="patch_52">
    <path clip-path="url(#pa88304634d)" d="M 370.993422 114.252147 
L 371.711546 114.252147 
L 371.711546 115.587053 
L 370.993422 115.587053 
z
" style="fill:#bfbf00;"/>
   </g>
   <g id="patch_53">
    <path clip-path="url(#pa88304634d)" d="M 249.5278 115.587053 
L 370.993422 115.587053 
L 370.993422 115.967439 
L 249.5278 115.967439 
z
" style="fill:#bfbf00;"/>
   </g>
   <g id="patch_54">
    <path clip-path="url(#pa88304634d)" d="M 248.809676 115.587053 
L 249.5278 115.587053 
L 249.5278 115.967439 
L 248.809676 115.967439 
z
" style="fill:#bfbf00;"/>
   </g>
   <g id="patch_55">
    <path clip-path="url(#pa88304634d)" d="M 370.993422 115.587053 
L 371.711546 115.587053 
L 371.711546 115.967439 
L 370.993422 115.967439 
z
" style="fill:#bfbf00;"/>
   </g>
   <g id="patch_56">
    <path clip-path="url(#pa88304634d)" d="M 248.809676 115.967439 
L 249.5278 115.967439 
L 249.5278 117.309455 
L 248.809676 117.309455 
z
" style="fill:#bfbf00;"/>
   </g>
   <g id="patch_57">
    <path clip-path="url(#pa88304634d)" d="M 370.993422 115.967439 
L 371.711546 115.967439 
L 371.711546 117.309455 
L 370.993422 117.309455 
z
" style="fill:#bfbf00;"/>
   </g>
   <g id="patch_58">
    <path clip-path="url(#pa88304634d)" d="M 249.5278 117.309455 
L 370.993422 117.309455 
L 370.993422 117.487205 
L 249.5278 117.487205 
z
" style="fill:#bfbf00;"/>
   </g>
   <g id="patch_59">
    <path clip-path="url(#pa88304634d)" d="M 248.809676 117.309455 
L 249.5278 117.309455 
L 249.5278 117.310166 
L 248.809676 117.310166 
z
" style="fill:#bfbf00;"/>
   </g>
   <g id="patch_60">
    <path clip-path="url(#pa88304634d)" d="M 370.993422 117.309455 
L 371.711546 117.309455 
L 371.711546 117.310166 
L 370.993422 117.310166 
z
" style="fill:#bfbf00;"/>
   </g>
   <g id="patch_61">
    <path clip-path="url(#pa88304634d)" d="M 248.809676 117.310166 
L 249.5278 117.310166 
L 249.5278 119.281419 
L 248.809676 119.281419 
z
" style="fill:#bfbf00;"/>
   </g>
   <g id="patch_62">
    <path clip-path="url(#pa88304634d)" d="M 370.993422 117.310166 
L 371.711546 117.310166 
L 371.711546 119.281419 
L 370.993422 119.281419 
z
" style="fill:#bfbf00;"/>
   </g>
   <g id="patch_63">
    <path clip-path="url(#pa88304634d)" d="M 249.5278 119.281419 
L 370.993422 119.281419 
L 370.993422 119.459169 
L 249.5278 119.459169 
z
" style="fill:#008000;"/>
   </g>
   <g id="patch_64">
    <path clip-path="url(#pa88304634d)" d="M 248.809676 119.281419 
L 249.5278 119.281419 
L 249.5278 119.28213 
L 248.809676 119.28213 
z
" style="fill:#008000;"/>
   </g>
   <g id="patch_65">
    <path clip-path="url(#pa88304634d)" d="M 370.993422 119.281419 
L 371.711546 119.281419 
L 371.711546 119.28213 
L 370.993422 119.28213 
z
" style="fill:#008000;"/>
   </g>
   <g id="patch_66">
    <path clip-path="url(#pa88304634d)" d="M 248.809676 119.28213 
L 249.5278 119.28213 
L 249.5278 120.631256 
L 248.809676 120.631256 
z
" style="fill:#008000;"/>
   </g>
   <g id="patch_67">
    <path clip-path="url(#pa88304634d)" d="M 370.993422 119.28213 
L 371.711546 119.28213 
L 371.711546 120.631256 
L 370.993422 120.631256 
z
" style="fill:#008000;"/>
   </g>
   <g id="patch_68">
    <path clip-path="url(#pa88304634d)" d="M 249.5278 120.631256 
L 370.993422 120.631256 
L 370.993422 121.000976 
L 249.5278 121.000976 
z
" style="fill:#008000;"/>
   </g>
   <g id="patch_69">
    <path clip-path="url(#pa88304634d)" d="M 248.809676 120.631256 
L 249.5278 120.631256 
L 249.5278 121.000976 
L 248.809676 121.000976 
z
" style="fill:#008000;"/>
   </g>
   <g id="patch_70">
    <path clip-path="url(#pa88304634d)" d="M 370.993422 120.631256 
L 371.711546 120.631256 
L 371.711546 121.000976 
L 370.993422 121.000976 
z
" style="fill:#008000;"/>
   </g>
   <g id="patch_71">
    <path clip-path="url(#pa88304634d)" d="M 248.809676 121.000976 
L 249.5278 121.000976 
L 249.5278 211.923535 
L 248.809676 211.923535 
z
" style="fill:#008000;"/>
   </g>
   <g id="patch_72">
    <path clip-path="url(#pa88304634d)" d="M 370.993422 121.000976 
L 371.711546 121.000976 
L 371.711546 211.923535 
L 370.993422 211.923535 
z
" style="fill:#008000;"/>
   </g>
   <g id="patch_73">
    <path clip-path="url(#pa88304634d)" d="M 248.809676 211.923535 
L 280.099384 211.923535 
L 280.099384 212.545662 
L 248.809676 212.545662 
z
" style="fill:#008000;"/>
   </g>
   <g id="patch_74">
    <path clip-path="url(#pa88304634d)" d="M 340.421838 211.923535 
L 371.711546 211.923535 
L 371.711546 212.545662 
L 340.421838 212.545662 
z
" style="fill:#008000;"/>
   </g>
   <g id="patch_75">
    <path clip-path="url(#pa88304634d)" d="M 279.38126 211.923535 
L 283.997774 211.923535 
L 283.997774 212.545662 
L 279.38126 212.545662 
z
" style="fill:#00bfbf;"/>
   </g>
   <g id="patch_76">
    <path clip-path="url(#pa88304634d)" d="M 336.523448 211.923535 
L 341.139963 211.923535 
L 341.139963 212.545662 
L 336.523448 212.545662 
z
" style="fill:#00bfbf;"/>
   </g>
   <g id="patch_77">
    <path clip-path="url(#pa88304634d)" d="M 283.27965 211.923535 
L 283.997774 211.923535 
L 283.997774 212.401684 
L 283.27965 212.401684 
z
" style="fill:#00bfbf;"/>
   </g>
   <g id="patch_78">
    <path clip-path="url(#pa88304634d)" d="M 336.523448 211.923535 
L 337.241573 211.923535 
L 337.241573 212.401684 
L 336.523448 212.401684 
z
" style="fill:#00bfbf;"/>
   </g>
   <g id="patch_79">
    <path clip-path="url(#pa88304634d)" d="M 275.48287 212.401684 
L 283.997774 212.401684 
L 283.997774 213.023811 
L 275.48287 213.023811 
z
" style="fill:#00bfbf;"/>
   </g>
   <g id="patch_80">
    <path clip-path="url(#pa88304634d)" d="M 336.523448 212.401684 
L 345.038352 212.401684 
L 345.038352 213.023811 
L 336.523448 213.023811 
z
" style="fill:#00bfbf;"/>
   </g>
   <g id="patch_81">
    <path clip-path="url(#pa88304634d)" d="M 275.48287 212.401684 
L 276.200994 212.401684 
L 276.200994 215.986911 
L 275.48287 215.986911 
z
" style="fill:#00bfbf;"/>
   </g>
   <g id="patch_82">
    <path clip-path="url(#pa88304634d)" d="M 344.320228 212.401684 
L 345.038352 212.401684 
L 345.038352 215.986911 
L 344.320228 215.986911 
z
" style="fill:#00bfbf;"/>
   </g>
   <g id="patch_83">
    <path clip-path="url(#pa88304634d)" d="M 276.200994 215.986911 
L 344.320228 215.986911 
L 344.320228 216.342412 
L 276.200994 216.342412 
z
" style="fill:#00bfbf;"/>
   </g>
   <g id="patch_84">
    <path clip-path="url(#pa88304634d)" d="M 275.48287 215.986911 
L 276.200994 215.986911 
L 276.200994 216.342412 
L 275.48287 216.342412 
z
" style="fill:#00bfbf;"/>
   </g>
   <g id="patch_85">
    <path clip-path="url(#pa88304634d)" d="M 344.320228 215.986911 
L 345.038352 215.986911 
L 345.038352 216.342412 
L 344.320228 216.342412 
z
" style="fill:#00bfbf;"/>
   </g>
   <g id="patch_86">
    <path clip-path="url(#pa88304634d)" d="M 260.094489 216.342412 
L 276.200994 216.342412 
L 276.200994 216.964538 
L 260.094489 216.964538 
z
" style="fill:#00bfbf;"/>
   </g>
   <g id="patch_87">
    <path clip-path="url(#pa88304634d)" d="M 344.320228 216.342412 
L 360.426734 216.342412 
L 360.426734 216.964538 
L 344.320228 216.964538 
z
" style="fill:#00bfbf;"/>
   </g>
   <g id="patch_88">
    <path clip-path="url(#pa88304634d)" d="M 260.094489 216.342412 
L 260.812613 216.342412 
L 260.812613 224.117217 
L 260.094489 224.117217 
z
" style="fill:#00bfbf;"/>
   </g>
   <g id="patch_89">
    <path clip-path="url(#pa88304634d)" d="M 359.708609 216.342412 
L 360.426734 216.342412 
L 360.426734 224.117217 
L 359.708609 224.117217 
z
" style="fill:#00bfbf;"/>
   </g>
   <g id="patch_90">
    <path clip-path="url(#pa88304634d)" d="M 260.812613 224.117217 
L 359.708609 224.117217 
L 359.708609 224.719791 
L 260.812613 224.719791 
z
" style="fill:#00bfbf;"/>
   </g>
   <g id="patch_91">
    <path clip-path="url(#pa88304634d)" d="M 260.094489 224.117217 
L 260.812613 224.117217 
L 260.812613 224.719791 
L 260.094489 224.719791 
z
" style="fill:#00bfbf;"/>
   </g>
   <g id="patch_92">
    <path clip-path="url(#pa88304634d)" d="M 359.708609 224.117217 
L 360.426734 224.117217 
L 360.426734 224.719791 
L 359.708609 224.719791 
z
" style="fill:#00bfbf;"/>
   </g>
   <g id="patch_93">
    <path clip-path="url(#pa88304634d)" d="M 249.63039 224.719791 
L 260.812613 224.719791 
L 260.812613 225.341917 
L 249.63039 225.341917 
z
" style="fill:#00bfbf;"/>
   </g>
   <g id="patch_94">
    <path clip-path="url(#pa88304634d)" d="M 359.708609 224.719791 
L 370.890833 224.719791 
L 370.890833 225.341917 
L 359.708609 225.341917 
z
" style="fill:#00bfbf;"/>
   </g>
   <g id="patch_95">
    <path clip-path="url(#pa88304634d)" d="M 249.63039 224.719791 
L 250.348514 224.719791 
L 250.348514 308.504246 
L 249.63039 308.504246 
z
" style="fill:#00bfbf;"/>
   </g>
   <g id="patch_96">
    <path clip-path="url(#pa88304634d)" d="M 370.172708 224.719791 
L 370.890833 224.719791 
L 370.890833 308.504246 
L 370.172708 308.504246 
z
" style="fill:#00bfbf;"/>
   </g>
   <g id="patch_97">
    <path clip-path="url(#pa88304634d)" d="M 249.63039 308.504246 
L 274.456978 308.504246 
L 274.456978 309.126373 
L 249.63039 309.126373 
z
" style="fill:#00bfbf;"/>
   </g>
   <g id="patch_98">
    <path clip-path="url(#pa88304634d)" d="M 346.064245 308.504246 
L 370.890833 308.504246 
L 370.890833 309.126373 
L 346.064245 309.126373 
z
" style="fill:#00bfbf;"/>
   </g>
   <g id="patch_99">
    <path clip-path="url(#pa88304634d)" d="M 274.456978 308.504246 
L 346.064245 308.504246 
L 346.064245 308.932625 
L 274.456978 308.932625 
z
" style="fill:#0000ff;"/>
   </g>
   <g id="patch_100">
    <path clip-path="url(#pa88304634d)" d="M 273.738853 308.504246 
L 274.456978 308.504246 
L 274.456978 308.932625 
L 273.738853 308.932625 
z
" style="fill:#0000ff;"/>
   </g>
   <g id="patch_101">
    <path clip-path="url(#pa88304634d)" d="M 346.064245 308.504246 
L 346.782369 308.504246 
L 346.782369 308.932625 
L 346.064245 308.932625 
z
" style="fill:#0000ff;"/>
   </g>
   <g id="patch_102">
    <path clip-path="url(#pa88304634d)" d="M 346.423307 308.932625 
C 346.423307 317.238278 342.610718 325.212249 335.831498 331.085233 
C 329.052278 336.958216 319.847876 340.261143 310.260611 340.261143 
C 300.673346 340.261143 291.468944 336.958216 284.689724 331.085233 
C 277.910504 325.212249 274.097916 317.238278 274.097916 308.932625 
" style="fill:none;stroke:#0000ff;stroke-linejoin:miter;stroke-width:0.85;"/>
   </g>
   <g id="text_17">
    <!-- \rm{V2AS5 Filters} -->
    <defs>
     <path d="M 59 58.515625 
C 59.90625 60.71875 61.5 65 68.203125 65 
L 68.203125 67.6875 
C 65.90625 67.484375 63.296875 67.484375 60.796875 67.484375 
C 58.40625 67.484375 54.296875 67.484375 52 67.6875 
L 52 65 
C 57 65 57.203125 61.5 57.203125 60.90625 
C 57.203125 59.796875 56.90625 59.109375 56.59375 58.3125 
L 36.90625 6.96875 
L 16.296875 60.625 
C 16 61.328125 15.796875 61.828125 15.796875 62.3125 
C 15.796875 65 19.796875 65 21.90625 65 
L 21.90625 67.484375 
C 18.703125 67.484375 14 67.484375 10.703125 67.484375 
C 8.09375 67.484375 3.40625 67.484375 1 67.6875 
L 1 65 
C 6.796875 65 7.90625 64.609375 9.09375 61.421875 
L 32.90625 -0.40625 
C 33.40625 -1.796875 33.5 -2 34.59375 -2 
C 35.703125 -2 35.796875 -1.796875 36.296875 -0.40625 
z
" id="CMR17-86"/>
     <path d="M 36.296875 68.40625 
C 35.796875 69.703125 35.59375 70 34.59375 70 
C 33.59375 70 33.40625 69.703125 32.90625 68.40625 
L 11.703125 8.84375 
C 9.796875 3.484375 5.796875 2.390625 2.296875 2.390625 
L 2.296875 -0.203125 
C 4.09375 0 8.09375 0 10 0 
C 12.5 0 16.5 0 18.90625 -0.203125 
L 18.90625 2.390625 
C 14.203125 2.390625 13.5 5.640625 13.5 6.859375 
C 13.5 7.765625 13.703125 8.28125 13.90625 8.890625 
L 19.203125 24 
L 45.40625 24 
L 51.40625 6.90625 
C 51.90625 5.703125 51.90625 5.5 51.90625 5.109375 
C 51.90625 2.390625 47.59375 2.390625 45.703125 2.390625 
L 45.703125 0 
C 48.59375 0 53.796875 0 56.90625 0 
C 59.5 0 64.5 0 66.90625 -0.203125 
L 66.90625 2.390625 
C 61.59375 2.390625 59.796875 2.390625 58.5 6.046875 
z
M 32.296875 60.53125 
L 44.5 26.59375 
L 20.09375 26.59375 
z
" id="CMR17-65"/>
     <path d="M 43.796875 68.109375 
C 43.796875 69.890625 43.703125 70 43.09375 70 
C 42.5 70 42.296875 69.59375 41.90625 68.703125 
L 38.90625 62.125 
C 35.09375 67.546875 29.296875 70 23 70 
C 12.796875 70 4.59375 61.953125 4.59375 51.796875 
C 4.59375 48.734375 5.296875 44.34375 8.703125 40.171875 
C 12.40625 35.609375 15.90625 34.8125 23.90625 32.71875 
C 26.90625 31.921875 31.90625 30.625 32.90625 30.234375 
C 38.59375 27.84375 41.59375 21.890625 41.59375 16.3125 
C 41.59375 9.140625 36.5 1.5 27.796875 1.5 
C 17.09375 1.5 7.09375 7.46875 6.40625 21.40625 
C 6.296875 23 6.203125 23.09375 5.5 23.09375 
C 4.703125 23.09375 4.59375 23 4.59375 21 
L 4.59375 0.890625 
C 4.59375 -0.890625 4.703125 -1 5.296875 -1 
C 6 -1 6.203125 -0.5 7.59375 2.59375 
C 7.703125 2.890625 7.703125 3.09375 9.59375 6.875 
C 14.59375 0.375 23 -1 27.796875 -1 
C 38.703125 -1 46.40625 8.046875 46.40625 18.578125 
C 46.40625 23.734375 44.5 27.703125 43.40625 29.5 
C 39.203125 35.859375 34.703125 37.046875 29.90625 38.234375 
C 29.203125 38.546875 29 38.546875 23.40625 39.9375 
C 18 41.328125 15.703125 42.03125 13.203125 44.71875 
C 10.40625 47.796875 9.40625 50.984375 9.40625 54.171875 
C 9.40625 60.640625 14.59375 67.703125 23.09375 67.703125 
C 33.703125 67.703125 40.296875 60.234375 41.796875 47.796875 
C 42.09375 46 42.203125 45.90625 42.90625 45.90625 
C 43.796875 45.90625 43.796875 46.203125 43.796875 47.890625 
z
" id="CMR17-83"/>
     <path d="M 11.40625 57.6875 
C 12.40625 57.28125 16.5 56 20.703125 56 
C 30 56 35.09375 61.015625 38 63.921875 
C 38 64.734375 38 65.25 37.40625 65.25 
C 37.296875 65.25 37.09375 65.25 36.296875 64.828125 
C 32.796875 63.3125 28.703125 62.078125 23.703125 62.078125 
C 20.703125 62.078125 16.203125 62.5 11.296875 64.734375 
C 10.203125 65.25 10 65.25 9.90625 65.25 
C 9.40625 65.25 9.296875 65.140625 9.296875 63.15625 
L 9.296875 34.28125 
C 9.296875 32.5 9.296875 32 10.296875 32 
C 10.796875 32 11 32.203125 11.5 32.90625 
C 14.703125 37.484375 19.09375 39.40625 24.09375 39.40625 
C 27.59375 39.40625 35.09375 37.21875 35.09375 20.140625 
C 35.09375 16.953125 35.09375 11.171875 32.09375 6.578125 
C 29.59375 2.484375 25.703125 0.390625 21.40625 0.390625 
C 14.796875 0.390625 8.09375 5 6.296875 12.71875 
C 6.703125 12.609375 7.5 12.421875 7.90625 12.421875 
C 9.203125 12.421875 11.703125 13.125 11.703125 16.21875 
C 11.703125 18.90625 9.796875 20 7.90625 20 
C 5.59375 20 4.09375 18.59375 4.09375 15.796875 
C 4.09375 7.09375 11 -2 21.59375 -2 
C 31.90625 -2 41.703125 6.875 41.703125 19.75 
C 41.703125 31.71875 33.90625 41 24.203125 41 
C 19.09375 41 14.796875 39.09375 11.40625 35.453125 
z
" id="CMR17-53"/>
     <path d="M 54.40625 67.578125 
L 5.09375 67.578125 
L 5.09375 65 
C 12 65 13.09375 65 13.09375 60.53125 
L 13.09375 6.96875 
C 13.09375 2.5 12 2.5 5.09375 2.5 
L 5.09375 0 
C 8 0 13.59375 0 16.703125 0 
C 20.796875 0 25.59375 0 29.703125 0 
L 29.703125 2.5 
L 27.5 2.5 
C 19.90625 2.5 19.703125 3.484375 19.703125 7.0625 
L 19.703125 32.421875 
L 28.703125 32.421875 
C 38 32.421875 38.90625 29.1875 38.90625 21 
L 40.703125 21 
L 40.703125 46.890625 
L 38.90625 46.890625 
C 38.90625 38.34375 38 35 28.703125 35 
L 19.703125 35 
L 19.703125 61.109375 
C 19.703125 64.5 19.90625 65 23.90625 65 
L 36.796875 65 
C 51.90625 65 53.59375 58.890625 55 45.765625 
L 56.796875 45.765625 
z
" id="CMR17-70"/>
     <path d="M 15.5 61.078125 
C 15.5 63.265625 13.703125 65.15625 11.40625 65.15625 
C 9.203125 65.15625 7.296875 63.375 7.296875 61.078125 
C 7.296875 58.890625 9.09375 57 11.40625 57 
C 13.59375 57 15.5 58.796875 15.5 61.078125 
M 3.796875 42.28125 
L 3.796875 39.703125 
C 9.40625 39.703125 10.203125 39.09375 10.203125 34.328125 
L 10.203125 6.671875 
C 10.203125 2.875 9.796875 2.390625 3.40625 2.390625 
L 3.40625 -0.203125 
C 5.796875 0 10.09375 0 12.59375 0 
C 15 0 19.09375 0 21.40625 -0.203125 
L 21.40625 2.390625 
C 15.5 2.390625 15.296875 2.984375 15.296875 6.5625 
L 15.296875 43.375 
z
" id="CMR17-105"/>
     <path d="M 15.296875 68.6875 
L 3.40625 67.59375 
L 3.40625 65 
C 9.296875 65 10.203125 64.40625 10.203125 59.640625 
L 10.203125 6.65625 
C 10.203125 2.875 9.796875 2.390625 3.40625 2.390625 
L 3.40625 -0.203125 
C 5.796875 0 10.203125 0 12.703125 0 
C 15.296875 0 19.703125 0 22.09375 -0.203125 
L 22.09375 2.390625 
C 15.703125 2.390625 15.296875 2.78125 15.296875 6.65625 
z
" id="CMR17-108"/>
     <path d="M 15.09375 40 
L 29.09375 40 
L 29.09375 42.578125 
L 15.09375 42.578125 
L 15.09375 61 
L 13.296875 61 
C 13.09375 50.703125 9.59375 41.6875 1.09375 41.6875 
L 1.09375 40 
L 9.796875 40 
L 9.796875 12.046875 
C 9.796875 10.15625 9.796875 -1 21.40625 -1 
C 27.296875 -1 30.703125 4.78125 30.703125 12.140625 
L 30.703125 17.8125 
L 28.90625 17.8125 
L 28.90625 12.234375 
C 28.90625 5.375 26.203125 0.796875 22 0.796875 
C 19.09375 0.796875 15.09375 2.78125 15.09375 11.84375 
z
" id="CMR17-116"/>
     <path d="M 38.09375 23 
C 38.5 23.40625 38.5 23.609375 38.5 24.625 
C 38.5 34.96875 33.09375 44 21.703125 44 
C 11.09375 44 2.703125 33.890625 2.703125 21.609375 
C 2.703125 8.609375 12.203125 -1 22.796875 -1 
C 34 -1 38.40625 9.46875 38.40625 11.546875 
C 38.40625 12.25 37.796875 12.25 37.59375 12.25 
C 36.90625 12.25 36.796875 12.046875 36.40625 10.875 
C 34.203125 4.140625 28.703125 0.796875 23.5 0.796875 
C 19.203125 0.796875 14.90625 3.171875 12.203125 7.5 
C 9.09375 12.546875 9.09375 18.375 9.09375 23 
z
M 9.203125 24.5 
C 9.90625 39.140625 17.59375 42.40625 21.59375 42.40625 
C 28.40625 42.40625 33 35.890625 33.09375 24.5 
z
" id="CMR17-101"/>
     <path d="M 15 23.390625 
C 15 33 19.09375 42 26.59375 42 
C 27.296875 42 28 41.90625 28.703125 41.59375 
C 28.703125 41.59375 26.5 40.890625 26.5 38.3125 
C 26.5 35.90625 28.40625 34.90625 29.90625 34.90625 
C 31.09375 34.90625 33.296875 35.609375 33.296875 38.40625 
C 33.296875 41.609375 30.09375 43.59375 26.703125 43.59375 
C 19.09375 43.59375 15.796875 36.203125 14.796875 32.703125 
L 14.703125 32.703125 
L 14.703125 43.59375 
L 3.09375 42.5 
L 3.09375 39.90625 
C 9 39.90625 9.90625 39.296875 9.90625 34.5 
L 9.90625 6.6875 
C 9.90625 2.875 9.5 2.390625 3.09375 2.390625 
L 3.09375 -0.203125 
C 5.5 0 10.09375 0 12.703125 0 
C 15.59375 0 20.703125 0 23.40625 -0.203125 
L 23.40625 2.390625 
C 16.203125 2.390625 15 2.390625 15 6.875 
z
" id="CMR17-114"/>
     <path d="M 30.90625 42.109375 
C 30.90625 43.90625 30.796875 44 30.203125 44 
C 29.796875 44 29.703125 43.90625 28.5 42.421875 
C 28.203125 42.015625 27.296875 41.015625 27 40.625 
C 23.796875 44 19.296875 44 17.59375 44 
C 6.5 44 2.5 38.171875 2.5 32.375 
C 2.5 23.34375 12.703125 21.25 15.59375 20.640625 
C 21.90625 19.34375 24.09375 18.9375 26.203125 17.125 
C 27.5 15.9375 29.703125 13.734375 29.703125 10.125 
C 29.703125 5.90625 27.296875 0.5 18.09375 0.5 
C 9.40625 0.5 6.296875 7.0625 4.5 15.828125 
C 4.203125 17.21875 4.203125 17.328125 3.40625 17.328125 
C 2.59375 17.328125 2.5 17.21875 2.5 15.234375 
L 2.5 0.890625 
C 2.5 -0.890625 2.59375 -1 3.203125 -1 
C 3.703125 -1 3.796875 -0.890625 4.296875 -0.09375 
C 4.90625 0.796875 6.40625 3.1875 7 4.1875 
C 9 1.546875 12.5 -1 18.09375 -1 
C 28 -1 33.296875 4.40625 33.296875 12.234375 
C 33.296875 17.34375 30.59375 20.0625 29.296875 21.25 
C 26.296875 24.375 22.796875 25.0625 18.59375 25.859375 
C 13.09375 27.078125 6.09375 28.46875 6.09375 34.59375 
C 6.09375 37.1875 7.5 42.71875 17.59375 42.71875 
C 28.296875 42.71875 28.90625 32.75 29.09375 29.5625 
C 29.203125 29.078125 29.703125 28.96875 30 28.96875 
C 30.90625 28.96875 30.90625 29.28125 30.90625 30.96875 
z
" id="CMR17-115"/>
    </defs>
    <g transform="translate(259.224192 23.2533)scale(0.18 -0.18)">
     <use transform="scale(0.996264)" xlink:href="#CMR17-86"/>
     <use transform="translate(69.07243 0)scale(0.996264)" xlink:href="#CMR17-50"/>
     <use transform="translate(114.762907 0)scale(0.996264)" xlink:href="#CMR17-65"/>
     <use transform="translate(183.835337 0)scale(0.996264)" xlink:href="#CMR17-83"/>
     <use transform="translate(234.730707 0)scale(0.996264)" xlink:href="#CMR17-53"/>
     <use transform="translate(310.49715 0)scale(0.996264)" xlink:href="#CMR17-70"/>
     <use transform="translate(370.480997 0)scale(0.996264)" xlink:href="#CMR17-105"/>
     <use transform="translate(395.352055 0)scale(0.996264)" xlink:href="#CMR17-108"/>
     <use transform="translate(420.223114 0)scale(0.996264)" xlink:href="#CMR17-116"/>
     <use transform="translate(455.503881 0)scale(0.996264)" xlink:href="#CMR17-101"/>
     <use transform="translate(495.989542 0)scale(0.996264)" xlink:href="#CMR17-114"/>
     <use transform="translate(531.27031 0)scale(0.996264)" xlink:href="#CMR17-115"/>
    </g>
   </g>
   <g id="line2d_29">
    <path clip-path="url(#pa88304634d)" d="M 351.448341 61.687536 
L 289.00247 333.890977 
" style="fill:none;opacity:0.2;stroke:#000000;stroke-linecap:square;stroke-width:0.2;"/>
   </g>
   <g id="line2d_30">
    <path clip-path="url(#pa88304634d)" d="M 298.555668 48.725751 
L 292.608687 335.91836 
" style="fill:none;opacity:0.2;stroke:#000000;stroke-linecap:square;stroke-width:0.2;"/>
   </g>
   <g id="line2d_31">
    <path clip-path="url(#pa88304634d)" d="M 274.049169 58.114598 
L 301.256515 338.953212 
" style="fill:none;opacity:0.2;stroke:#000000;stroke-linecap:square;stroke-width:0.2;"/>
   </g>
   <g id="line2d_32">
    <path clip-path="url(#pa88304634d)" d="M 271.142284 60.106994 
L 331.183733 334.102552 
" style="fill:none;opacity:0.2;stroke:#000000;stroke-linecap:square;stroke-width:0.2;"/>
   </g>
   <g id="line2d_33">
    <path clip-path="url(#pa88304634d)" d="M 346.525522 58.14904 
L 286.902366 332.440007 
" style="fill:none;opacity:0.2;stroke:#000000;stroke-linecap:square;stroke-width:0.2;"/>
   </g>
   <g id="line2d_34">
    <path clip-path="url(#pa88304634d)" d="M 312.666416 47.780645 
L 278.013138 322.409442 
" style="fill:none;opacity:0.2;stroke:#000000;stroke-linecap:square;stroke-width:0.2;"/>
   </g>
   <g id="line2d_35">
    <path clip-path="url(#pa88304634d)" d="M 324.589737 49.224733 
L 275.237398 315.373463 
" style="fill:none;opacity:0.2;stroke:#000000;stroke-linecap:square;stroke-width:0.2;"/>
   </g>
   <g id="line2d_36">
    <path clip-path="url(#pa88304634d)" d="M 340.857164 54.904002 
L 275.945074 317.782007 
" style="fill:none;opacity:0.2;stroke:#000000;stroke-linecap:square;stroke-width:0.2;"/>
   </g>
   <g id="line2d_37">
    <path clip-path="url(#pa88304634d)" d="M 358.975982 68.934703 
L 277.512391 321.470491 
" style="fill:none;opacity:0.2;stroke:#000000;stroke-linecap:square;stroke-width:0.2;"/>
   </g>
   <g id="line2d_38">
    <path clip-path="url(#pa88304634d)" d="M 303.484719 48.067833 
L 323.460753 337.765078 
" style="fill:none;opacity:0.2;stroke:#000000;stroke-linecap:square;stroke-width:0.2;"/>
   </g>
   <g id="line2d_39">
    <path clip-path="url(#pa88304634d)" d="M 304.234711 47.99897 
L 297.801375 338.011457 
" style="fill:none;opacity:0.2;stroke:#000000;stroke-linecap:square;stroke-width:0.2;"/>
   </g>
   <g id="line2d_40">
    <path clip-path="url(#pa88304634d)" d="M 308.842224 47.753698 
L 332.122636 333.496344 
" style="fill:none;opacity:0.2;stroke:#000000;stroke-linecap:square;stroke-width:0.2;"/>
   </g>
   <g id="line2d_41">
    <path clip-path="url(#pa88304634d)" d="M 346.88965 58.385706 
L 280.673466 326.399285 
" style="fill:none;opacity:0.2;stroke:#000000;stroke-linecap:square;stroke-width:0.2;"/>
   </g>
   <g id="line2d_42">
    <path clip-path="url(#pa88304634d)" d="M 253.343828 81.997398 
L 327.301024 336.211772 
" style="fill:none;opacity:0.2;stroke:#000000;stroke-linecap:square;stroke-width:0.2;"/>
   </g>
   <g id="line2d_43">
    <path clip-path="url(#pa88304634d)" d="M 283.112894 53.288418 
L 308.820053 339.924963 
" style="fill:none;opacity:0.2;stroke:#000000;stroke-linecap:square;stroke-width:0.2;"/>
   </g>
   <g id="line2d_44">
    <path clip-path="url(#pa88304634d)" d="M 314.296668 47.855659 
L 277.742317 321.911865 
" style="fill:none;opacity:0.2;stroke:#000000;stroke-linecap:square;stroke-width:0.2;"/>
   </g>
   <g id="line2d_45">
    <path clip-path="url(#pa88304634d)" d="M 318.696293 48.249355 
L 278.145331 322.644306 
" style="fill:none;opacity:0.2;stroke:#000000;stroke-linecap:square;stroke-width:0.2;"/>
   </g>
   <g id="line2d_46">
    <path clip-path="url(#pa88304634d)" d="M 286.341289 51.99179 
L 287.170959 332.638322 
" style="fill:none;opacity:0.2;stroke:#000000;stroke-linecap:square;stroke-width:0.2;"/>
   </g>
   <g id="line2d_47">
    <path clip-path="url(#pa88304634d)" d="M 323.92059 49.087458 
L 294.644399 336.844234 
" style="fill:none;opacity:0.2;stroke:#000000;stroke-linecap:square;stroke-width:0.2;"/>
   </g>
   <g id="line2d_48">
    <path clip-path="url(#pa88304634d)" d="M 257.430615 74.400456 
L 341.876192 323.489795 
" style="fill:none;opacity:0.2;stroke:#000000;stroke-linecap:square;stroke-width:0.2;"/>
   </g>
   <g id="line2d_49">
    <path clip-path="url(#pa88304634d)" d="M 250.275443 92.123252 
L 327.338726 336.194071 
" style="fill:none;opacity:0.2;stroke:#000000;stroke-linecap:square;stroke-width:0.2;"/>
   </g>
   <g id="line2d_50">
    <path clip-path="url(#pa88304634d)" d="M 331.880581 51.186012 
L 277.812494 322.043016 
" style="fill:none;opacity:0.2;stroke:#000000;stroke-linecap:square;stroke-width:0.2;"/>
   </g>
   <g id="line2d_51">
    <path clip-path="url(#pa88304634d)" d="M 270.062632 60.913523 
L 303.388181 339.373314 
" style="fill:none;opacity:0.2;stroke:#000000;stroke-linecap:square;stroke-width:0.2;"/>
   </g>
   <g id="line2d_52">
    <path clip-path="url(#pa88304634d)" d="M 328.912427 50.282023 
L 303.132935 339.329231 
" style="fill:none;opacity:0.2;stroke:#000000;stroke-linecap:square;stroke-width:0.2;"/>
   </g>
   <g id="line2d_53">
    <path clip-path="url(#pa88304634d)" d="M 289.468743 50.918685 
L 289.467661 334.183382 
" style="fill:none;opacity:0.2;stroke:#000000;stroke-linecap:square;stroke-width:0.2;"/>
   </g>
   <g id="line2d_54">
    <path clip-path="url(#pa88304634d)" d="M 288.366313 51.277204 
L 327.618506 336.061127 
" style="fill:none;opacity:0.2;stroke:#000000;stroke-linecap:square;stroke-width:0.2;"/>
   </g>
   <g id="line2d_55">
    <path clip-path="url(#pa88304634d)" d="M 250.564577 90.673226 
L 341.973459 323.330133 
" style="fill:none;opacity:0.2;stroke:#000000;stroke-linecap:square;stroke-width:0.2;"/>
   </g>
   <g id="line2d_56">
    <path clip-path="url(#pa88304634d)" d="M 319.548645 48.358269 
L 297.751485 337.995378 
" style="fill:none;opacity:0.2;stroke:#000000;stroke-linecap:square;stroke-width:0.2;"/>
   </g>
   <g id="line2d_57">
    <path clip-path="url(#pa88304634d)" d="M 363.754683 75.442282 
L 285.695351 331.497732 
" style="fill:none;opacity:0.2;stroke:#000000;stroke-linecap:square;stroke-width:0.2;"/>
   </g>
   <g id="line2d_58">
    <path clip-path="url(#pa88304634d)" d="M 353.798923 63.671243 
L 313.531247 339.820393 
" style="fill:none;opacity:0.2;stroke:#000000;stroke-linecap:square;stroke-width:0.2;"/>
   </g>
   <g id="line2d_59">
    <path clip-path="url(#pa88304634d)" d="M 329.288472 50.388326 
L 294.67602 336.857495 
" style="fill:none;opacity:0.2;stroke:#000000;stroke-linecap:square;stroke-width:0.2;"/>
   </g>
   <g id="line2d_60">
    <path clip-path="url(#pa88304634d)" d="M 295.763189 49.260352 
L 305.491553 339.673687 
" style="fill:none;opacity:0.2;stroke:#000000;stroke-linecap:square;stroke-width:0.2;"/>
   </g>
   <g id="line2d_61">
    <path clip-path="url(#pa88304634d)" d="M 305.374774 47.909881 
L 280.608713 326.316678 
" style="fill:none;opacity:0.2;stroke:#000000;stroke-linecap:square;stroke-width:0.2;"/>
   </g>
   <g id="line2d_62">
    <path clip-path="url(#pa88304634d)" d="M 311.332863 47.747548 
L 275.177078 315.122177 
" style="fill:none;opacity:0.2;stroke:#000000;stroke-linecap:square;stroke-width:0.2;"/>
   </g>
   <g id="line2d_63">
    <path clip-path="url(#pa88304634d)" d="M 333.607506 51.782302 
L 301.175591 338.934908 
" style="fill:none;opacity:0.2;stroke:#000000;stroke-linecap:square;stroke-width:0.2;"/>
   </g>
   <g id="line2d_64">
    <path clip-path="url(#pa88304634d)" d="M 331.341947 51.010781 
L 309.870809 339.948242 
" style="fill:none;opacity:0.2;stroke:#000000;stroke-linecap:square;stroke-width:0.2;"/>
   </g>
   <g id="line2d_65">
    <path clip-path="url(#pa88304634d)" d="M 312.25618 47.767758 
L 304.709028 339.574943 
" style="fill:none;opacity:0.2;stroke:#000000;stroke-linecap:square;stroke-width:0.2;"/>
   </g>
   <g id="line2d_66">
    <path clip-path="url(#pa88304634d)" d="M 304.924408 47.942832 
L 282.231502 328.231755 
" style="fill:none;opacity:0.2;stroke:#000000;stroke-linecap:square;stroke-width:0.2;"/>
   </g>
   <g id="line2d_67">
    <path clip-path="url(#pa88304634d)" d="M 358.735393 68.656656 
L 283.920266 329.941346 
" style="fill:none;opacity:0.2;stroke:#000000;stroke-linecap:square;stroke-width:0.2;"/>
   </g>
   <g id="line2d_68">
    <path clip-path="url(#pa88304634d)" d="M 367.521468 82.818902 
L 295.246444 337.09107 
" style="fill:none;opacity:0.2;stroke:#000000;stroke-linecap:square;stroke-width:0.2;"/>
   </g>
   <g id="line2d_69">
    <path clip-path="url(#pa88304634d)" d="M 315.520206 47.937021 
L 345.156515 315.872724 
" style="fill:none;opacity:0.2;stroke:#000000;stroke-linecap:square;stroke-width:0.2;"/>
   </g>
   <g id="line2d_70">
    <path clip-path="url(#pa88304634d)" d="M 263.892338 66.373605 
L 345.673156 313.504623 
" style="fill:none;opacity:0.2;stroke:#000000;stroke-linecap:square;stroke-width:0.2;"/>
   </g>
   <g id="line2d_71">
    <path clip-path="url(#pa88304634d)" d="M 370.521795 93.80923 
L 290.458668 334.77433 
" style="fill:none;opacity:0.2;stroke:#000000;stroke-linecap:square;stroke-width:0.2;"/>
   </g>
   <g id="line2d_72">
    <path clip-path="url(#pa88304634d)" d="M 363.420436 74.910945 
L 291.210144 335.194883 
" style="fill:none;opacity:0.2;stroke:#000000;stroke-linecap:square;stroke-width:0.2;"/>
   </g>
   <g id="line2d_73">
    <path clip-path="url(#pa88304634d)" d="M 280.259896 54.60686 
L 296.734881 337.651603 
" style="fill:none;opacity:0.2;stroke:#000000;stroke-linecap:square;stroke-width:0.2;"/>
   </g>
   <g id="line2d_74">
    <path clip-path="url(#pa88304634d)" d="M 295.898675 49.231643 
L 344.355431 318.400666 
" style="fill:none;opacity:0.2;stroke:#000000;stroke-linecap:square;stroke-width:0.2;"/>
   </g>
   <g id="line2d_75">
    <path clip-path="url(#pa88304634d)" d="M 257.813985 73.823308 
L 330.549065 334.48953 
" style="fill:none;opacity:0.2;stroke:#000000;stroke-linecap:square;stroke-width:0.2;"/>
   </g>
   <g id="line2d_76">
    <path clip-path="url(#pa88304634d)" d="M 365.045112 77.644411 
L 299.894307 338.621549 
" style="fill:none;opacity:0.2;stroke:#000000;stroke-linecap:square;stroke-width:0.2;"/>
   </g>
   <g id="line2d_77">
    <path clip-path="url(#pa88304634d)" d="M 367.428233 82.592049 
L 275.697681 317.02724 
" style="fill:none;opacity:0.2;stroke:#000000;stroke-linecap:square;stroke-width:0.2;"/>
   </g>
   <g id="line2d_78">
    <path clip-path="url(#pa88304634d)" d="M 263.569968 66.706534 
L 311.894368 339.917771 
" style="fill:none;opacity:0.2;stroke:#000000;stroke-linecap:square;stroke-width:0.2;"/>
   </g>
   <g id="line2d_79">
    <path clip-path="url(#pa88304634d)" d="M 326.094143 49.558866 
L 342.042853 323.214829 
" style="fill:none;opacity:0.2;stroke:#000000;stroke-linecap:square;stroke-width:0.2;"/>
   </g>
   <g id="line2d_80">
    <path clip-path="url(#pa88304634d)" d="M 306.289358 47.85195 
L 285.786616 331.572038 
" style="fill:none;opacity:0.2;stroke:#000000;stroke-linecap:square;stroke-width:0.2;"/>
   </g>
   <g id="line2d_81">
    <path clip-path="url(#pa88304634d)" d="M 340.553505 54.751596 
L 305.332085 339.654804 
" style="fill:none;opacity:0.2;stroke:#000000;stroke-linecap:square;stroke-width:0.2;"/>
   </g>
   <g id="line2d_82">
    <path clip-path="url(#pa88304634d)" d="M 324.914867 49.293942 
L 287.407444 332.80969 
" style="fill:none;opacity:0.2;stroke:#000000;stroke-linecap:square;stroke-width:0.2;"/>
   </g>
   <g id="line2d_83">
    <path clip-path="url(#pa88304634d)" d="M 361.873631 72.623476 
L 306.89362 339.812622 
" style="fill:none;opacity:0.2;stroke:#000000;stroke-linecap:square;stroke-width:0.2;"/>
   </g>
   <g id="line2d_84">
    <path clip-path="url(#pa88304634d)" d="M 327.097322 49.801572 
L 283.338981 329.380857 
" style="fill:none;opacity:0.2;stroke:#000000;stroke-linecap:square;stroke-width:0.2;"/>
   </g>
   <g id="line2d_85">
    <path clip-path="url(#pa88304634d)" d="M 280.977923 54.259008 
L 302.413827 339.196001 
" style="fill:none;opacity:0.2;stroke:#000000;stroke-linecap:square;stroke-width:0.2;"/>
   </g>
   <g id="line2d_86">
    <path clip-path="url(#pa88304634d)" d="M 298.887528 48.670114 
L 337.606256 328.954134 
" style="fill:none;opacity:0.2;stroke:#000000;stroke-linecap:square;stroke-width:0.2;"/>
   </g>
   <g id="line2d_87">
    <path clip-path="url(#pa88304634d)" d="M 360.832955 71.219926 
L 297.780777 338.004827 
" style="fill:none;opacity:0.2;stroke:#000000;stroke-linecap:square;stroke-width:0.2;"/>
   </g>
   <g id="line2d_88">
    <path clip-path="url(#pa88304634d)" d="M 368.891125 86.630089 
L 278.634042 323.471871 
" style="fill:none;opacity:0.2;stroke:#000000;stroke-linecap:square;stroke-width:0.2;"/>
   </g>
   <g id="line2d_89">
    <path clip-path="url(#pa88304634d)" d="M 312.651666 47.78014 
L 312.775559 339.873464 
" style="fill:none;opacity:0.2;stroke:#000000;stroke-linecap:square;stroke-width:0.2;"/>
   </g>
   <g id="line2d_90">
    <path clip-path="url(#pa88304634d)" d="M 279.346444 55.065595 
L 343.075284 321.339407 
" style="fill:none;opacity:0.2;stroke:#000000;stroke-linecap:square;stroke-width:0.2;"/>
   </g>
   <g id="line2d_91">
    <path clip-path="url(#pa88304634d)" d="M 354.009894 63.860116 
L 319.270003 338.952019 
" style="fill:none;opacity:0.2;stroke:#000000;stroke-linecap:square;stroke-width:0.2;"/>
   </g>
   <g id="line2d_92">
    <path clip-path="url(#pa88304634d)" d="M 308.095609 47.772789 
L 277.611233 321.66249 
" style="fill:none;opacity:0.2;stroke:#000000;stroke-linecap:square;stroke-width:0.2;"/>
   </g>
   <g id="line2d_93">
    <path clip-path="url(#pa88304634d)" d="M 357.281558 67.053538 
L 316.490471 339.476925 
" style="fill:none;opacity:0.2;stroke:#000000;stroke-linecap:square;stroke-width:0.2;"/>
   </g>
   <g id="line2d_94">
    <path clip-path="url(#pa88304634d)" d="M 361.36185 71.921008 
L 290.292689 334.678297 
" style="fill:none;opacity:0.2;stroke:#000000;stroke-linecap:square;stroke-width:0.2;"/>
   </g>
   <g id="line2d_95">
    <path clip-path="url(#pa88304634d)" d="M 253.576196 81.465464 
L 332.817533 333.020185 
" style="fill:none;opacity:0.2;stroke:#000000;stroke-linecap:square;stroke-width:0.2;"/>
   </g>
   <g id="line2d_96">
    <path clip-path="url(#pa88304634d)" d="M 320.048044 48.427067 
L 334.429385 331.816806 
" style="fill:none;opacity:0.2;stroke:#000000;stroke-linecap:square;stroke-width:0.2;"/>
   </g>
   <g id="line2d_97">
    <path clip-path="url(#pa88304634d)" d="M 263.36653 66.919543 
L 335.994544 330.498024 
" style="fill:none;opacity:0.2;stroke:#000000;stroke-linecap:square;stroke-width:0.2;"/>
   </g>
   <g id="line2d_98">
    <path clip-path="url(#pa88304634d)" d="M 288.947456 51.085579 
L 325.939171 336.817989 
" style="fill:none;opacity:0.2;stroke:#000000;stroke-linecap:square;stroke-width:0.2;"/>
   </g>
   <g id="line2d_99">
    <path clip-path="url(#pa88304634d)" d="M 330.417425 50.721678 
L 287.852618 333.124285 
" style="fill:none;opacity:0.2;stroke:#000000;stroke-linecap:square;stroke-width:0.2;"/>
   </g>
   <g id="line2d_100">
    <path clip-path="url(#pa88304634d)" d="M 347.161368 58.564734 
L 289.103072 333.955052 
" style="fill:none;opacity:0.2;stroke:#000000;stroke-linecap:square;stroke-width:0.2;"/>
   </g>
   <g id="line2d_101">
    <path clip-path="url(#pa88304634d)" d="M 319.026017 48.290218 
L 319.970506 338.787652 
" style="fill:none;opacity:0.2;stroke:#000000;stroke-linecap:square;stroke-width:0.2;"/>
   </g>
   <g id="line2d_102">
    <path clip-path="url(#pa88304634d)" d="M 363.311069 74.740192 
L 287.686503 333.008098 
" style="fill:none;opacity:0.2;stroke:#000000;stroke-linecap:square;stroke-width:0.2;"/>
   </g>
   <g id="line2d_103">
    <path clip-path="url(#pa88304634d)" d="M 260.067556 70.731732 
L 315.411915 339.627363 
" style="fill:none;opacity:0.2;stroke:#000000;stroke-linecap:square;stroke-width:0.2;"/>
   </g>
   <g id="line2d_104">
    <path clip-path="url(#pa88304634d)" d="M 249.652047 96.989723 
L 324.478926 337.399421 
" style="fill:none;opacity:0.2;stroke:#000000;stroke-linecap:square;stroke-width:0.2;"/>
   </g>
   <g id="line2d_105">
    <path clip-path="url(#pa88304634d)" d="M 361.867487 72.614895 
L 275.887519 317.612747 
" style="fill:none;opacity:0.2;stroke:#000000;stroke-linecap:square;stroke-width:0.2;"/>
   </g>
   <g id="line2d_106">
    <path clip-path="url(#pa88304634d)" d="M 363.957982 75.772742 
L 290.440549 334.763903 
" style="fill:none;opacity:0.2;stroke:#000000;stroke-linecap:square;stroke-width:0.2;"/>
   </g>
   <g id="line2d_107">
    <path clip-path="url(#pa88304634d)" d="M 344.781073 57.065039 
L 293.071634 336.141728 
" style="fill:none;opacity:0.2;stroke:#000000;stroke-linecap:square;stroke-width:0.2;"/>
   </g>
   <g id="line2d_108">
    <path clip-path="url(#pa88304634d)" d="M 352.918908 62.903299 
L 320.293918 338.707286 
" style="fill:none;opacity:0.2;stroke:#000000;stroke-linecap:square;stroke-width:0.2;"/>
   </g>
   <g id="line2d_109">
    <path clip-path="url(#pa88304634d)" d="M 362.483828 73.494586 
L 312.789365 339.87262 
" style="fill:none;opacity:0.2;stroke:#000000;stroke-linecap:square;stroke-width:0.2;"/>
   </g>
   <g id="line2d_110">
    <path clip-path="url(#pa88304634d)" d="M 351.385378 61.637271 
L 306.93958 339.816357 
" style="fill:none;opacity:0.2;stroke:#000000;stroke-linecap:square;stroke-width:0.2;"/>
   </g>
   <g id="line2d_111">
    <path clip-path="url(#pa88304634d)" d="M 299.632175 48.551296 
L 336.090051 330.41216 
" style="fill:none;opacity:0.2;stroke:#000000;stroke-linecap:square;stroke-width:0.2;"/>
   </g>
   <g id="line2d_112">
    <path clip-path="url(#pa88304634d)" d="M 346.911966 58.400331 
L 320.680252 338.607533 
" style="fill:none;opacity:0.2;stroke:#000000;stroke-linecap:square;stroke-width:0.2;"/>
   </g>
   <g id="line2d_113">
    <path clip-path="url(#pa88304634d)" d="M 270.340922 60.701953 
L 337.188212 329.374956 
" style="fill:none;opacity:0.2;stroke:#000000;stroke-linecap:square;stroke-width:0.2;"/>
   </g>
   <g id="line2d_114">
    <path clip-path="url(#pa88304634d)" d="M 363.06079 74.354956 
L 280.052487 325.582444 
" style="fill:none;opacity:0.2;stroke:#000000;stroke-linecap:square;stroke-width:0.2;"/>
   </g>
   <g id="line2d_115">
    <path clip-path="url(#pa88304634d)" d="M 365.953906 79.368982 
L 274.506077 310.556472 
" style="fill:none;opacity:0.2;stroke:#000000;stroke-linecap:square;stroke-width:0.2;"/>
   </g>
   <g id="line2d_116">
    <path clip-path="url(#pa88304634d)" d="M 341.667886 55.320954 
L 295.290642 337.108725 
" style="fill:none;opacity:0.2;stroke:#000000;stroke-linecap:square;stroke-width:0.2;"/>
   </g>
   <g id="line2d_117">
    <path clip-path="url(#pa88304634d)" d="M 268.197954 62.401018 
L 305.279279 339.648411 
" style="fill:none;opacity:0.2;stroke:#000000;stroke-linecap:square;stroke-width:0.2;"/>
   </g>
   <g id="line2d_118">
    <path clip-path="url(#pa88304634d)" d="M 257.696628 73.998197 
L 343.755058 319.891581 
" style="fill:none;opacity:0.2;stroke:#000000;stroke-linecap:square;stroke-width:0.2;"/>
   </g>
   <g id="line2d_119">
    <path clip-path="url(#pa88304634d)" d="M 261.250722 69.280367 
L 338.525193 327.972265 
" style="fill:none;opacity:0.2;stroke:#000000;stroke-linecap:square;stroke-width:0.2;"/>
   </g>
   <g id="line2d_120">
    <path clip-path="url(#pa88304634d)" d="M 281.430411 54.045431 
L 337.165485 329.397402 
" style="fill:none;opacity:0.2;stroke:#000000;stroke-linecap:square;stroke-width:0.2;"/>
   </g>
   <g id="line2d_121">
    <path clip-path="url(#pa88304634d)" d="M 283.436694 53.149284 
L 340.834636 325.073409 
" style="fill:none;opacity:0.2;stroke:#000000;stroke-linecap:square;stroke-width:0.2;"/>
   </g>
   <g id="line2d_122">
    <path clip-path="url(#pa88304634d)" d="M 271.540133 59.819278 
L 320.538108 338.644712 
" style="fill:none;opacity:0.2;stroke:#000000;stroke-linecap:square;stroke-width:0.2;"/>
   </g>
   <g id="line2d_123">
    <path clip-path="url(#pa88304634d)" d="M 288.042801 51.386446 
L 342.998177 321.491356 
" style="fill:none;opacity:0.2;stroke:#000000;stroke-linecap:square;stroke-width:0.2;"/>
   </g>
   <g id="line2d_124">
    <path clip-path="url(#pa88304634d)" d="M 251.413356 87.344957 
L 341.583324 323.957442 
" style="fill:none;opacity:0.2;stroke:#000000;stroke-linecap:square;stroke-width:0.2;"/>
   </g>
   <g id="line2d_125">
    <path clip-path="url(#pa88304634d)" d="M 288.767862 51.144168 
L 306.35647 339.765123 
" style="fill:none;opacity:0.2;stroke:#000000;stroke-linecap:square;stroke-width:0.2;"/>
   </g>
   <g id="line2d_126">
    <path clip-path="url(#pa88304634d)" d="M 319.420286 48.341182 
L 337.317713 329.246217 
" style="fill:none;opacity:0.2;stroke:#000000;stroke-linecap:square;stroke-width:0.2;"/>
   </g>
   <g id="line2d_127">
    <path clip-path="url(#pa88304634d)" d="M 354.911708 64.689293 
L 274.58823 311.586084 
" style="fill:none;opacity:0.2;stroke:#000000;stroke-linecap:square;stroke-width:0.2;"/>
   </g>
   <g id="line2d_128">
    <path clip-path="url(#pa88304634d)" d="M 320.297286 48.462786 
L 278.94521 323.968877 
" style="fill:none;opacity:0.2;stroke:#000000;stroke-linecap:square;stroke-width:0.2;"/>
   </g>
   <g id="line2d_129">
    <path clip-path="url(#pa88304634d)" d="M 363.970253 75.792871 
L 285.55073 331.37891 
" style="fill:none;opacity:0.2;stroke:#000000;stroke-linecap:square;stroke-width:0.2;"/>
   </g>
   <g id="line2d_130">
    <path clip-path="url(#pa88304634d)" d="M 254.512505 79.478499 
L 335.721124 330.740234 
" style="fill:none;opacity:0.2;stroke:#000000;stroke-linecap:square;stroke-width:0.2;"/>
   </g>
   <g id="line2d_131">
    <path clip-path="url(#pa88304634d)" d="M 292.225719 50.112689 
L 279.395945 324.65278 
" style="fill:none;opacity:0.2;stroke:#000000;stroke-linecap:square;stroke-width:0.2;"/>
   </g>
   <g id="line2d_132">
    <path clip-path="url(#pa88304634d)" d="M 276.242437 56.767629 
L 328.473905 335.63692 
" style="fill:none;opacity:0.2;stroke:#000000;stroke-linecap:square;stroke-width:0.2;"/>
   </g>
   <g id="line2d_133">
    <path clip-path="url(#pa88304634d)" d="M 317.720129 48.137725 
L 317.939412 339.228322 
" style="fill:none;opacity:0.2;stroke:#000000;stroke-linecap:square;stroke-width:0.2;"/>
   </g>
   <g id="line2d_134">
    <path clip-path="url(#pa88304634d)" d="M 261.103619 69.455252 
L 319.789323 338.831432 
" style="fill:none;opacity:0.2;stroke:#000000;stroke-linecap:square;stroke-width:0.2;"/>
   </g>
   <g id="line2d_135">
    <path clip-path="url(#pa88304634d)" d="M 305.531834 47.899077 
L 277.787156 321.995847 
" style="fill:none;opacity:0.2;stroke:#000000;stroke-linecap:square;stroke-width:0.2;"/>
   </g>
   <g id="line2d_136">
    <path clip-path="url(#pa88304634d)" d="M 324.244341 49.15301 
L 325.061211 337.175799 
" style="fill:none;opacity:0.2;stroke:#000000;stroke-linecap:square;stroke-width:0.2;"/>
   </g>
   <g id="line2d_137">
    <path clip-path="url(#pa88304634d)" d="M 353.021253 62.991 
L 280.953861 326.750533 
" style="fill:none;opacity:0.2;stroke:#000000;stroke-linecap:square;stroke-width:0.2;"/>
   </g>
   <g id="line2d_138">
    <path clip-path="url(#pa88304634d)" d="M 341.403976 55.183604 
L 274.751608 312.903637 
" style="fill:none;opacity:0.2;stroke:#000000;stroke-linecap:square;stroke-width:0.2;"/>
   </g>
   <g id="line2d_139">
    <path clip-path="url(#pa88304634d)" d="M 307.127869 47.809391 
L 330.529401 334.501237 
" style="fill:none;opacity:0.2;stroke:#000000;stroke-linecap:square;stroke-width:0.2;"/>
   </g>
   <g id="line2d_140">
    <path clip-path="url(#pa88304634d)" d="M 341.334806 55.147865 
L 302.888214 339.285392 
" style="fill:none;opacity:0.2;stroke:#000000;stroke-linecap:square;stroke-width:0.2;"/>
   </g>
   <g id="line2d_141">
    <path clip-path="url(#pa88304634d)" d="M 347.841718 59.022281 
L 320.522353 338.648799 
" style="fill:none;opacity:0.2;stroke:#000000;stroke-linecap:square;stroke-width:0.2;"/>
   </g>
   <g id="line2d_142">
    <path clip-path="url(#pa88304634d)" d="M 308.463019 47.762399 
L 318.81504 339.051743 
" style="fill:none;opacity:0.2;stroke:#000000;stroke-linecap:square;stroke-width:0.2;"/>
   </g>
   <g id="line2d_143">
    <path clip-path="url(#pa88304634d)" d="M 325.439012 49.408992 
L 330.092764 334.756937 
" style="fill:none;opacity:0.2;stroke:#000000;stroke-linecap:square;stroke-width:0.2;"/>
   </g>
   <g id="line2d_144">
    <path clip-path="url(#pa88304634d)" d="M 299.791626 48.526933 
L 306.511145 339.779528 
" style="fill:none;opacity:0.2;stroke:#000000;stroke-linecap:square;stroke-width:0.2;"/>
   </g>
   <g id="line2d_145">
    <path clip-path="url(#pa88304634d)" d="M 316.112858 47.984188 
L 327.758614 335.99349 
" style="fill:none;opacity:0.2;stroke:#000000;stroke-linecap:square;stroke-width:0.2;"/>
   </g>
   <g id="line2d_146">
    <path clip-path="url(#pa88304634d)" d="M 354.615569 64.413024 
L 293.932633 336.536857 
" style="fill:none;opacity:0.2;stroke:#000000;stroke-linecap:square;stroke-width:0.2;"/>
   </g>
   <g id="line2d_147">
    <path clip-path="url(#pa88304634d)" d="M 323.560571 49.016461 
L 327.165212 336.275116 
" style="fill:none;opacity:0.2;stroke:#000000;stroke-linecap:square;stroke-width:0.2;"/>
   </g>
   <g id="line2d_148">
    <path clip-path="url(#pa88304634d)" d="M 283.790468 52.999639 
L 312.711743 339.877308 
" style="fill:none;opacity:0.2;stroke:#000000;stroke-linecap:square;stroke-width:0.2;"/>
   </g>
   <g id="line2d_149">
    <path clip-path="url(#pa88304634d)" d="M 252.037394 85.385133 
L 331.556823 333.866607 
" style="fill:none;opacity:0.2;stroke:#000000;stroke-linecap:square;stroke-width:0.2;"/>
   </g>
   <g id="line2d_150">
    <path clip-path="url(#pa88304634d)" d="M 321.496223 48.647552 
L 296.048225 337.401643 
" style="fill:none;opacity:0.2;stroke:#000000;stroke-linecap:square;stroke-width:0.2;"/>
   </g>
   <g id="line2d_151">
    <path clip-path="url(#pa88304634d)" d="M 262.694365 67.639936 
L 312.210791 339.904034 
" style="fill:none;opacity:0.2;stroke:#000000;stroke-linecap:square;stroke-width:0.2;"/>
   </g>
   <g id="line2d_152">
    <path clip-path="url(#pa88304634d)" d="M 297.868869 48.846182 
L 315.316176 339.639308 
" style="fill:none;opacity:0.2;stroke:#000000;stroke-linecap:square;stroke-width:0.2;"/>
   </g>
   <g id="line2d_153">
    <path clip-path="url(#pa88304634d)" d="M 368.14077 84.417842 
L 282.517398 328.539343 
" style="fill:none;opacity:0.2;stroke:#000000;stroke-linecap:square;stroke-width:0.2;"/>
   </g>
   <g id="line2d_154">
    <path clip-path="url(#pa88304634d)" d="M 330.81795 50.845126 
L 333.206304 332.742999 
" style="fill:none;opacity:0.2;stroke:#000000;stroke-linecap:square;stroke-width:0.2;"/>
   </g>
   <g id="line2d_155">
    <path clip-path="url(#pa88304634d)" d="M 288.270499 51.309365 
L 334.73653 331.570477 
" style="fill:none;opacity:0.2;stroke:#000000;stroke-linecap:square;stroke-width:0.2;"/>
   </g>
   <g id="line2d_156">
    <path clip-path="url(#pa88304634d)" d="M 265.062793 65.209956 
L 319.362777 338.931008 
" style="fill:none;opacity:0.2;stroke:#000000;stroke-linecap:square;stroke-width:0.2;"/>
   </g>
   <g id="line2d_157">
    <path clip-path="url(#pa88304634d)" d="M 309.684644 47.741714 
L 291.276713 335.231036 
" style="fill:none;opacity:0.2;stroke:#000000;stroke-linecap:square;stroke-width:0.2;"/>
   </g>
   <g id="line2d_158">
    <path clip-path="url(#pa88304634d)" d="M 256.438966 75.977581 
L 340.063386 326.121952 
" style="fill:none;opacity:0.2;stroke:#000000;stroke-linecap:square;stroke-width:0.2;"/>
   </g>
   <g id="line2d_159">
    <path clip-path="url(#pa88304634d)" d="M 292.358615 50.077029 
L 285.63431 331.447742 
" style="fill:none;opacity:0.2;stroke:#000000;stroke-linecap:square;stroke-width:0.2;"/>
   </g>
   <g id="line2d_160">
    <path clip-path="url(#pa88304634d)" d="M 257.833111 73.794952 
L 321.607822 338.351107 
" style="fill:none;opacity:0.2;stroke:#000000;stroke-linecap:square;stroke-width:0.2;"/>
   </g>
   <g id="line2d_161">
    <path clip-path="url(#pa88304634d)" d="M 357.587318 67.380226 
L 289.219547 334.028654 
" style="fill:none;opacity:0.2;stroke:#000000;stroke-linecap:square;stroke-width:0.2;"/>
   </g>
   <g id="line2d_162">
    <path clip-path="url(#pa88304634d)" d="M 325.271129 49.371673 
L 281.992195 327.967992 
" style="fill:none;opacity:0.2;stroke:#000000;stroke-linecap:square;stroke-width:0.2;"/>
   </g>
   <g id="line2d_163">
    <path clip-path="url(#pa88304634d)" d="M 363.988531 75.822892 
L 286.188126 331.89285 
" style="fill:none;opacity:0.2;stroke:#000000;stroke-linecap:square;stroke-width:0.2;"/>
   </g>
   <g id="line2d_164">
    <path clip-path="url(#pa88304634d)" d="M 369.52063 88.836802 
L 294.124432 336.621373 
" style="fill:none;opacity:0.2;stroke:#000000;stroke-linecap:square;stroke-width:0.2;"/>
   </g>
   <g id="line2d_165">
    <path clip-path="url(#pa88304634d)" d="M 363.953681 75.765691 
L 276.295299 318.743796 
" style="fill:none;opacity:0.2;stroke:#000000;stroke-linecap:square;stroke-width:0.2;"/>
   </g>
   <g id="line2d_166">
    <path clip-path="url(#pa88304634d)" d="M 266.105393 64.228908 
L 308.722331 339.921439 
" style="fill:none;opacity:0.2;stroke:#000000;stroke-linecap:square;stroke-width:0.2;"/>
   </g>
   <g id="line2d_167">
    <path clip-path="url(#pa88304634d)" d="M 285.010147 52.502351 
L 339.945982 326.273752 
" style="fill:none;opacity:0.2;stroke:#000000;stroke-linecap:square;stroke-width:0.2;"/>
   </g>
   <g id="line2d_168">
    <path clip-path="url(#pa88304634d)" d="M 306.884224 47.820718 
L 331.879103 333.657581 
" style="fill:none;opacity:0.2;stroke:#000000;stroke-linecap:square;stroke-width:0.2;"/>
   </g>
   <g id="line2d_169">
    <path clip-path="url(#pa88304634d)" d="M 329.433352 50.429909 
L 304.821866 339.590126 
" style="fill:none;opacity:0.2;stroke:#000000;stroke-linecap:square;stroke-width:0.2;"/>
   </g>
   <g id="line2d_170">
    <path clip-path="url(#pa88304634d)" d="M 258.753819 72.475633 
L 323.022467 337.912795 
" style="fill:none;opacity:0.2;stroke:#000000;stroke-linecap:square;stroke-width:0.2;"/>
   </g>
   <g id="line2d_171">
    <path clip-path="url(#pa88304634d)" d="M 356.734823 66.482398 
L 280.720614 326.459075 
" style="fill:none;opacity:0.2;stroke:#000000;stroke-linecap:square;stroke-width:0.2;"/>
   </g>
   <g id="line2d_172">
    <path clip-path="url(#pa88304634d)" d="M 267.931835 62.623728 
L 335.240945 331.153104 
" style="fill:none;opacity:0.2;stroke:#000000;stroke-linecap:square;stroke-width:0.2;"/>
   </g>
   <g id="line2d_173">
    <path clip-path="url(#pa88304634d)" d="M 369.161222 87.527468 
L 277.019626 320.456234 
" style="fill:none;opacity:0.2;stroke:#000000;stroke-linecap:square;stroke-width:0.2;"/>
   </g>
   <g id="line2d_174">
    <path clip-path="url(#pa88304634d)" d="M 294.416394 49.561367 
L 288.496418 333.56146 
" style="fill:none;opacity:0.2;stroke:#000000;stroke-linecap:square;stroke-width:0.2;"/>
   </g>
   <g id="line2d_175">
    <path clip-path="url(#pa88304634d)" d="M 264.781817 65.483065 
L 344.390382 318.305683 
" style="fill:none;opacity:0.2;stroke:#000000;stroke-linecap:square;stroke-width:0.2;"/>
   </g>
   <g id="line2d_176">
    <path clip-path="url(#pa88304634d)" d="M 312.680259 47.781121 
L 316.74249 339.437541 
" style="fill:none;opacity:0.2;stroke:#000000;stroke-linecap:square;stroke-width:0.2;"/>
   </g>
   <g id="line2d_177">
    <path clip-path="url(#pa88304634d)" d="M 328.267974 50.105278 
L 325.385086 337.04673 
" style="fill:none;opacity:0.2;stroke:#000000;stroke-linecap:square;stroke-width:0.2;"/>
   </g>
   <g id="line2d_178">
    <path clip-path="url(#pa88304634d)" d="M 317.429006 48.107129 
L 287.932168 333.179425 
" style="fill:none;opacity:0.2;stroke:#000000;stroke-linecap:square;stroke-width:0.2;"/>
   </g>
   <g id="line2d_179">
    <path clip-path="url(#pa88304634d)" d="M 253.042185 82.715254 
L 329.027276 335.347793 
" style="fill:none;opacity:0.2;stroke:#000000;stroke-linecap:square;stroke-width:0.2;"/>
   </g>
   <g id="line2d_180">
    <path clip-path="url(#pa88304634d)" d="M 280.895298 54.298474 
L 334.529369 331.737252 
" style="fill:none;opacity:0.2;stroke:#000000;stroke-linecap:square;stroke-width:0.2;"/>
   </g>
   <g id="line2d_181">
    <path clip-path="url(#pa88304634d)" d="M 333.084593 51.59613 
L 286.011397 331.75285 
" style="fill:none;opacity:0.2;stroke:#000000;stroke-linecap:square;stroke-width:0.2;"/>
   </g>
   <g id="line2d_182">
    <path clip-path="url(#pa88304634d)" d="M 298.609812 48.71656 
L 317.647454 339.282756 
" style="fill:none;opacity:0.2;stroke:#000000;stroke-linecap:square;stroke-width:0.2;"/>
   </g>
   <g id="line2d_183">
    <path clip-path="url(#pa88304634d)" d="M 292.145354 50.134393 
L 294.995621 336.989675 
" style="fill:none;opacity:0.2;stroke:#000000;stroke-linecap:square;stroke-width:0.2;"/>
   </g>
   <g id="line2d_184">
    <path clip-path="url(#pa88304634d)" d="M 369.318095 88.080797 
L 300.472721 338.768531 
" style="fill:none;opacity:0.2;stroke:#000000;stroke-linecap:square;stroke-width:0.2;"/>
   </g>
   <g id="line2d_185">
    <path clip-path="url(#pa88304634d)" d="M 278.005486 55.773007 
L 345.431702 314.737273 
" style="fill:none;opacity:0.2;stroke:#000000;stroke-linecap:square;stroke-width:0.2;"/>
   </g>
   <g id="line2d_186">
    <path clip-path="url(#pa88304634d)" d="M 288.520493 51.225789 
L 297.060741 337.765171 
" style="fill:none;opacity:0.2;stroke:#000000;stroke-linecap:square;stroke-width:0.2;"/>
   </g>
   <g id="line2d_187">
    <path clip-path="url(#pa88304634d)" d="M 357.414772 67.195214 
L 297.716029 337.983906 
" style="fill:none;opacity:0.2;stroke:#000000;stroke-linecap:square;stroke-width:0.2;"/>
   </g>
   <g id="line2d_188">
    <path clip-path="url(#pa88304634d)" d="M 289.808641 50.812385 
L 340.06888 326.114802 
" style="fill:none;opacity:0.2;stroke:#000000;stroke-linecap:square;stroke-width:0.2;"/>
   </g>
   <g id="line2d_189">
    <path clip-path="url(#pa88304634d)" d="M 256.739969 75.485151 
L 320.797669 338.5764 
" style="fill:none;opacity:0.2;stroke:#000000;stroke-linecap:square;stroke-width:0.2;"/>
   </g>
   <g id="line2d_190">
    <path clip-path="url(#pa88304634d)" d="M 273.344871 58.574667 
L 328.438813 335.654859 
" style="fill:none;opacity:0.2;stroke:#000000;stroke-linecap:square;stroke-width:0.2;"/>
   </g>
   <g id="line2d_191">
    <path clip-path="url(#pa88304634d)" d="M 272.665965 59.031523 
L 297.653595 337.963615 
" style="fill:none;opacity:0.2;stroke:#000000;stroke-linecap:square;stroke-width:0.2;"/>
   </g>
   <g id="line2d_192">
    <path clip-path="url(#pa88304634d)" d="M 319.457804 48.346151 
L 306.106893 339.740638 
" style="fill:none;opacity:0.2;stroke:#000000;stroke-linecap:square;stroke-width:0.2;"/>
   </g>
   <g id="line2d_193">
    <path clip-path="url(#pa88304634d)" d="M 254.54115 79.421179 
L 324.388989 337.433008 
" style="fill:none;opacity:0.2;stroke:#000000;stroke-linecap:square;stroke-width:0.2;"/>
   </g>
   <g id="line2d_194">
    <path clip-path="url(#pa88304634d)" d="M 295.317442 49.356826 
L 320.987158 338.525351 
" style="fill:none;opacity:0.2;stroke:#000000;stroke-linecap:square;stroke-width:0.2;"/>
   </g>
   <g id="line2d_195">
    <path clip-path="url(#pa88304634d)" d="M 334.591825 52.146246 
L 286.800211 332.363534 
" style="fill:none;opacity:0.2;stroke:#000000;stroke-linecap:square;stroke-width:0.2;"/>
   </g>
   <g id="line2d_196">
    <path clip-path="url(#pa88304634d)" d="M 283.95034 52.932818 
L 289.233325 334.03732 
" style="fill:none;opacity:0.2;stroke:#000000;stroke-linecap:square;stroke-width:0.2;"/>
   </g>
   <g id="line2d_197">
    <path clip-path="url(#pa88304634d)" d="M 353.285546 63.219413 
L 277.604573 321.649662 
" style="fill:none;opacity:0.2;stroke:#000000;stroke-linecap:square;stroke-width:0.2;"/>
   </g>
   <g id="line2d_198">
    <path clip-path="url(#pa88304634d)" d="M 366.381006 80.241097 
L 307.108598 339.829648 
" style="fill:none;opacity:0.2;stroke:#000000;stroke-linecap:square;stroke-width:0.2;"/>
   </g>
   <g id="line2d_199">
    <path clip-path="url(#pa88304634d)" d="M 254.413443 79.67818 
L 337.722574 328.834289 
" style="fill:none;opacity:0.2;stroke:#000000;stroke-linecap:square;stroke-width:0.2;"/>
   </g>
   <g id="line2d_200">
    <path clip-path="url(#pa88304634d)" d="M 277.471217 56.066492 
L 307.567506 339.862209 
" style="fill:none;opacity:0.2;stroke:#000000;stroke-linecap:square;stroke-width:0.2;"/>
   </g>
   <g id="line2d_201">
    <path clip-path="url(#pa88304634d)" d="M 249.928754 94.31768 
L 344.062027 319.159786 
" style="fill:none;opacity:0.2;stroke:#000000;stroke-linecap:square;stroke-width:0.2;"/>
   </g>
   <g id="line2d_202">
    <path clip-path="url(#pa88304634d)" d="M 282.122111 53.727205 
L 331.136897 334.131723 
" style="fill:none;opacity:0.2;stroke:#000000;stroke-linecap:square;stroke-width:0.2;"/>
   </g>
   <g id="line2d_203">
    <path clip-path="url(#pa88304634d)" d="M 306.604877 47.834752 
L 331.86271 333.668332 
" style="fill:none;opacity:0.2;stroke:#000000;stroke-linecap:square;stroke-width:0.2;"/>
   </g>
   <g id="line2d_204">
    <path clip-path="url(#pa88304634d)" d="M 364.952302 77.47713 
L 275.508506 316.394633 
" style="fill:none;opacity:0.2;stroke:#000000;stroke-linecap:square;stroke-width:0.2;"/>
   </g>
   <g id="line2d_205">
    <path clip-path="url(#pa88304634d)" d="M 366.283088 80.03725 
L 283.660175 329.693941 
" style="fill:none;opacity:0.2;stroke:#000000;stroke-linecap:square;stroke-width:0.2;"/>
   </g>
   <g id="line2d_206">
    <path clip-path="url(#pa88304634d)" d="M 284.529227 52.695015 
L 312.121411 339.908161 
" style="fill:none;opacity:0.2;stroke:#000000;stroke-linecap:square;stroke-width:0.2;"/>
   </g>
   <g id="line2d_207">
    <path clip-path="url(#pa88304634d)" d="M 305.98479 47.869906 
L 282.109752 328.098297 
" style="fill:none;opacity:0.2;stroke:#000000;stroke-linecap:square;stroke-width:0.2;"/>
   </g>
   <g id="legend_1">
    <g id="patch_103">
     <path d="M 455.597565 157.52547 
L 546.674709 157.52547 
Q 549.474709 157.52547 549.474709 154.72547 
L 549.474709 39.0533 
Q 549.474709 36.2533 546.674709 36.2533 
L 455.597565 36.2533 
Q 452.797565 36.2533 452.797565 39.0533 
L 452.797565 154.72547 
Q 452.797565 157.52547 455.597565 157.52547 
z
" style="fill:#ffffff;opacity:0.8;stroke:#cccccc;stroke-linejoin:miter;"/>
    </g>
    <g id="patch_104">
     <path d="M 458.397565 51.6533 
L 486.397565 51.6533 
L 486.397565 41.8533 
L 458.397565 41.8533 
z
" style="stroke:#000000;stroke-linejoin:miter;"/>
    </g>
    <g id="text_18">
     <!-- \rm{300.0 K} -->
     <defs>
      <path d="M 22.09375 33.703125 
C 31 33.703125 34.90625 25.96875 34.90625 17.03125 
C 34.90625 5 28.5 0.390625 22.703125 0.390625 
C 17.40625 0.390625 8.796875 3.03125 6.09375 10.828125 
C 6.59375 10.625 7.09375 10.625 7.59375 10.625 
C 10 10.625 11.796875 12.21875 11.796875 14.8125 
C 11.796875 17.703125 9.59375 19 7.59375 19 
C 5.90625 19 3.296875 18.203125 3.296875 14.46875 
C 3.296875 5.234375 12.296875 -2 22.90625 -2 
C 34 -2 42.5 6.71875 42.5 16.953125 
C 42.5 26.671875 34.5 33.6875 25 34.796875 
C 32.59375 36.375 39.90625 43.0625 39.90625 52.015625 
C 39.90625 59.6875 32 65.296875 23 65.296875 
C 13.90625 65.296875 5.90625 59.828125 5.90625 52.015625 
C 5.90625 48.59375 8.5 48 9.796875 48 
C 11.90625 48 13.703125 49.296875 13.703125 51.890625 
C 13.703125 54.46875 11.90625 55.765625 9.796875 55.765625 
C 9.40625 55.765625 8.90625 55.765625 8.5 55.5625 
C 11.40625 61.859375 19.296875 63 22.796875 63 
C 26.296875 63 32.90625 61.328125 32.90625 51.875 
C 32.90625 49.109375 32.5 44.1875 29.09375 39.84375 
C 26.09375 36 22.703125 36 19.40625 35.59375 
C 18.90625 35.59375 16.59375 35.59375 16.203125 35.59375 
C 15.5 35.484375 15.09375 35.390625 15.09375 34.59375 
C 15.09375 33.8125 15.203125 33.703125 17.203125 33.703125 
z
" id="CMR17-51"/>
      <path d="M 16.59375 4.078125 
C 16.59375 6.5625 14.59375 8.15625 12.5 8.15625 
C 10.5 8.15625 8.40625 6.5625 8.40625 4.078125 
C 8.40625 1.59375 10.40625 0 12.5 0 
C 14.5 0 16.59375 1.59375 16.59375 4.078125 
" id="CMR17-46"/>
      <path d="M 36.90625 41.734375 
L 54.203125 59.078125 
C 57.796875 62.59375 61.59375 65.40625 67.203125 65.40625 
L 67.203125 68 
C 65.203125 68 62.703125 68 60.703125 68 
C 58 68 53.296875 68 50.703125 68.09375 
L 50.703125 65.5 
C 53.296875 65.3125 53.703125 63.515625 53.703125 62.796875 
C 53.703125 62.109375 53.296875 61.015625 52.90625 60.421875 
L 19.703125 27.15625 
L 19.703125 60.9375 
C 19.703125 65.40625 20.796875 65.40625 27.703125 65.40625 
L 27.703125 68 
C 24.796875 68 19.5 68 16.40625 68 
C 13.296875 68 8 68 5.09375 68 
L 5.09375 65.40625 
C 12 65.40625 13.09375 65.40625 13.09375 60.9375 
L 13.09375 6.96875 
C 13.09375 2.5 12 2.5 5.09375 2.5 
L 5.09375 0 
C 8 0 13.296875 0 16.40625 0 
C 19.5 0 24.796875 0 27.703125 0 
L 27.703125 2.5 
C 20.796875 2.5 19.703125 2.5 19.703125 6.984375 
L 19.703125 24.671875 
L 32.5 37.34375 
L 51.40625 8.390625 
C 52 7.390625 52.703125 6.09375 52.703125 5.09375 
C 52.703125 2.5 49.90625 2.5 48.59375 2.5 
L 48.59375 0 
C 51.796875 0 56.40625 0 59.703125 0 
C 62.09375 0 66.203125 0 68.5 -0.09375 
L 68.5 2.5 
C 63.703125 2.5 62.203125 3.09375 59.203125 7.6875 
z
" id="CMR17-75"/>
     </defs>
     <g transform="translate(497.597565 51.6533)scale(0.14 -0.14)">
      <use transform="scale(0.996264)" xlink:href="#CMR17-51"/>
      <use transform="translate(45.690477 0)scale(0.996264)" xlink:href="#CMR17-48"/>
      <use transform="translate(91.380954 0)scale(0.996264)" xlink:href="#CMR17-48"/>
      <use transform="translate(137.071431 0)scale(0.996264)" xlink:href="#CMR17-46"/>
      <use transform="translate(161.94249 0)scale(0.996264)" xlink:href="#CMR17-48"/>
      <use transform="translate(237.708933 0)scale(0.996264)" xlink:href="#CMR17-75"/>
     </g>
    </g>
    <g id="patch_105">
     <path d="M 458.397565 71.165329 
L 486.397565 71.165329 
L 486.397565 61.365329 
L 458.397565 61.365329 
z
" style="fill:#ff0000;stroke:#ff0000;stroke-linejoin:miter;"/>
    </g>
    <g id="text_19">
     <!-- \rm{80.0 K} -->
     <g transform="translate(497.597565 71.165329)scale(0.14 -0.14)">
      <use transform="scale(0.996264)" xlink:href="#CMR17-56"/>
      <use transform="translate(45.690477 0)scale(0.996264)" xlink:href="#CMR17-48"/>
      <use transform="translate(91.380954 0)scale(0.996264)" xlink:href="#CMR17-46"/>
      <use transform="translate(116.252013 0)scale(0.996264)" xlink:href="#CMR17-48"/>
      <use transform="translate(192.018456 0)scale(0.996264)" xlink:href="#CMR17-75"/>
     </g>
    </g>
    <g id="patch_106">
     <path d="M 458.397565 90.677357 
L 486.397565 90.677357 
L 486.397565 80.877357 
L 458.397565 80.877357 
z
" style="fill:#bfbf00;stroke:#bfbf00;stroke-linejoin:miter;"/>
    </g>
    <g id="text_20">
     <!-- \rm{40.0 K} -->
     <g transform="translate(497.597565 90.677357)scale(0.14 -0.14)">
      <use transform="scale(0.996264)" xlink:href="#CMR17-52"/>
      <use transform="translate(45.690477 0)scale(0.996264)" xlink:href="#CMR17-48"/>
      <use transform="translate(91.380954 0)scale(0.996264)" xlink:href="#CMR17-46"/>
      <use transform="translate(116.252013 0)scale(0.996264)" xlink:href="#CMR17-48"/>
      <use transform="translate(192.018456 0)scale(0.996264)" xlink:href="#CMR17-75"/>
     </g>
    </g>
    <g id="patch_107">
     <path d="M 458.397565 110.189385 
L 486.397565 110.189385 
L 486.397565 100.389385 
L 458.397565 100.389385 
z
" style="fill:#008000;stroke:#008000;stroke-linejoin:miter;"/>
    </g>
    <g id="text_21">
     <!-- \rm{4.0 K} -->
     <g transform="translate(497.597565 110.189385)scale(0.14 -0.14)">
      <use transform="scale(0.996264)" xlink:href="#CMR17-52"/>
      <use transform="translate(45.690477 0)scale(0.996264)" xlink:href="#CMR17-46"/>
      <use transform="translate(70.561536 0)scale(0.996264)" xlink:href="#CMR17-48"/>
      <use transform="translate(146.327979 0)scale(0.996264)" xlink:href="#CMR17-75"/>
     </g>
    </g>
    <g id="patch_108">
     <path d="M 458.397565 129.701414 
L 486.397565 129.701414 
L 486.397565 119.901414 
L 458.397565 119.901414 
z
" style="fill:#00bfbf;stroke:#00bfbf;stroke-linejoin:miter;"/>
    </g>
    <g id="text_22">
     <!-- \rm{1.0 K} -->
     <g transform="translate(497.597565 129.701414)scale(0.14 -0.14)">
      <use transform="scale(0.996264)" xlink:href="#CMR17-49"/>
      <use transform="translate(45.690477 0)scale(0.996264)" xlink:href="#CMR17-46"/>
      <use transform="translate(70.561536 0)scale(0.996264)" xlink:href="#CMR17-48"/>
      <use transform="translate(146.327979 0)scale(0.996264)" xlink:href="#CMR17-75"/>
     </g>
    </g>
    <g id="patch_109">
     <path d="M 458.397565 149.213442 
L 486.397565 149.213442 
L 486.397565 139.413442 
L 458.397565 139.413442 
z
" style="fill:#0000ff;stroke:#0000ff;stroke-linejoin:miter;"/>
    </g>
    <g id="text_23">
     <!-- \rm{0.1 K} -->
     <g transform="translate(497.597565 149.213442)scale(0.14 -0.14)">
      <use transform="scale(0.996264)" xlink:href="#CMR17-48"/>
      <use transform="translate(45.690477 0)scale(0.996264)" xlink:href="#CMR17-46"/>
      <use transform="translate(70.561536 0)scale(0.996264)" xlink:href="#CMR17-49"/>
      <use transform="translate(146.327979 0)scale(0.996264)" xlink:href="#CMR17-75"/>
     </g>
    </g>
   </g>
  </g>
 </g>
 <defs>
  <clipPath id="pa88304634d">
   <rect height="426.601099" width="492.428196" x="64.046513" y="29.2533"/>
  </clipPath>
 </defs>
</svg>
