<?xml version="1.0" encoding="utf-8" standalone="no"?>
<!DOCTYPE svg PUBLIC "-//W3C//DTD SVG 1.1//EN"
  "http://www.w3.org/Graphics/SVG/1.1/DTD/svg11.dtd">
<!-- Created with matplotlib (http://matplotlib.org/) -->
<svg height="504pt" version="1.1" viewBox="0 0 576 504" width="576pt" xmlns="http://www.w3.org/2000/svg" xmlns:xlink="http://www.w3.org/1999/xlink">
 <defs>
  <style type="text/css">
*{stroke-linecap:butt;stroke-linejoin:round;stroke-miterlimit:100000;}
  </style>
 </defs>
 <g id="figure_1">
  <g id="patch_1">
   <path d="M 0 504 
L 576 504 
L 576 0 
L 0 0 
z
" style="fill:#ffffff;"/>
  </g>
  <g id="axes_1">
   <g id="patch_2">
    <path d="M 63.167243 456.223147 
L 554.314709 456.223147 
L 554.314709 30.736976 
L 63.167243 30.736976 
z
" style="fill:#ffffff;"/>
   </g>
   <g id="patch_3">
    <path d="M 63.167243 30.736976 
L 554.314709 30.736976 
" style="fill:none;stroke:#000000;stroke-linecap:square;stroke-linejoin:miter;"/>
   </g>
   <g id="patch_4">
    <path d="M 554.314709 456.223147 
L 554.314709 30.736976 
" style="fill:none;stroke:#000000;stroke-linecap:square;stroke-linejoin:miter;"/>
   </g>
   <g id="patch_5">
    <path d="M 63.167243 456.223147 
L 554.314709 456.223147 
" style="fill:none;stroke:#000000;stroke-linecap:square;stroke-linejoin:miter;"/>
   </g>
   <g id="patch_6">
    <path d="M 63.167243 456.223147 
L 63.167243 30.736976 
" style="fill:none;stroke:#000000;stroke-linecap:square;stroke-linejoin:miter;"/>
   </g>
   <g id="matplotlib.axis_1">
    <g id="xtick_1">
     <g id="line2d_1">
      <path clip-path="url(#p7165086b9e)" d="M 63.167243 456.223147 
L 63.167243 30.736976 
" style="fill:none;stroke:#000000;stroke-dasharray:1.000000,3.000000;stroke-dashoffset:0.0;stroke-width:0.5;"/>
     </g>
     <g id="line2d_2">
      <defs>
       <path d="M 0 0 
L 0 -4 
" id="m28d971ddb1" style="stroke:#000000;stroke-width:0.5;"/>
      </defs>
      <g>
       <use style="stroke:#000000;stroke-width:0.5;" x="63.1672434669" xlink:href="#m28d971ddb1" y="456.223147426"/>
      </g>
     </g>
     <g id="line2d_3">
      <defs>
       <path d="M 0 0 
L 0 4 
" id="mde5e179641" style="stroke:#000000;stroke-width:0.5;"/>
      </defs>
      <g>
       <use style="stroke:#000000;stroke-width:0.5;" x="63.1672434669" xlink:href="#mde5e179641" y="30.7369764749"/>
      </g>
     </g>
     <g id="text_1">
      <!-- $-1.0$ -->
      <defs>
       <path d="M 65.90625 23 
C 67.59375 23 69.40625 23 69.40625 25 
C 69.40625 27 67.59375 27 65.90625 27 
L 11.796875 27 
C 10.09375 27 8.296875 27 8.296875 25 
C 8.296875 23 10.09375 23 11.796875 23 
z
" id="CMSY10-0"/>
       <path d="M 26.59375 63.40625 
C 26.59375 65.5 26.5 65.5 25.09375 65.5 
C 21.203125 61.1875 15.296875 59.796875 9.703125 59.796875 
C 9.40625 59.796875 8.90625 59.796875 8.796875 59.5 
C 8.703125 59.296875 8.703125 59.09375 8.703125 57 
C 11.796875 57 17 57.59375 21 59.984375 
L 21 7.203125 
C 21 3.6875 20.796875 2.5 12.203125 2.5 
L 9.203125 2.5 
L 9.203125 0 
C 14 0 19 0 23.796875 0 
C 28.59375 0 33.59375 0 38.40625 0 
L 38.40625 2.5 
L 35.40625 2.5 
C 26.796875 2.5 26.59375 3.59375 26.59375 7.15625 
z
" id="CMR17-49"/>
       <path d="M 42 31.640625 
C 42 37.75 41.90625 48.125 37.703125 56.109375 
C 34 63.109375 28.09375 65.59375 22.90625 65.59375 
C 18.09375 65.59375 12 63.40625 8.203125 56.203125 
C 4.203125 48.71875 3.796875 39.4375 3.796875 31.640625 
C 3.796875 25.953125 3.90625 17.28125 7 9.671875 
C 11.296875 -0.609375 19 -2 22.90625 -2 
C 27.5 -2 34.5 -0.109375 38.59375 9.375 
C 41.59375 16.28125 42 24.359375 42 31.640625 
M 22.90625 -0.40625 
C 16.5 -0.40625 12.703125 5.078125 11.296875 12.6875 
C 10.203125 18.5625 10.203125 27.15625 10.203125 32.75 
C 10.203125 40.4375 10.203125 46.828125 11.5 52.921875 
C 13.40625 61.390625 19 64 22.90625 64 
C 27 64 32.296875 61.296875 34.203125 53.125 
C 35.5 47.4375 35.59375 40.734375 35.59375 32.75 
C 35.59375 26.25 35.59375 18.265625 34.40625 12.375 
C 32.296875 1.484375 26.40625 -0.40625 22.90625 -0.40625 
" id="CMR17-48"/>
       <path d="M 18.40625 4.796875 
C 18.40625 7.6875 16 9.671875 13.59375 9.671875 
C 10.703125 9.671875 8.703125 7.28125 8.703125 4.890625 
C 8.703125 2 11.09375 0 13.5 0 
C 16.40625 0 18.40625 2.390625 18.40625 4.796875 
" id="CMMI12-58"/>
      </defs>
      <g transform="translate(49.017834877 470.160795795)scale(0.14 -0.14)">
       <use transform="scale(0.996264009963)" xlink:href="#CMSY10-0"/>
       <use transform="translate(77.4874676506 0.0)scale(0.996264009963)" xlink:href="#CMR17-49"/>
       <use transform="translate(123.177944768 0.0)scale(0.996264009963)" xlink:href="#CMMI12-58"/>
       <use transform="translate(150.275121857 0.0)scale(0.996264009963)" xlink:href="#CMR17-48"/>
      </g>
     </g>
    </g>
    <g id="xtick_2">
     <g id="line2d_4">
      <path clip-path="url(#p7165086b9e)" d="M 185.95411 456.223147 
L 185.95411 30.736976 
" style="fill:none;stroke:#000000;stroke-dasharray:1.000000,3.000000;stroke-dashoffset:0.0;stroke-width:0.5;"/>
     </g>
     <g id="line2d_5">
      <g>
       <use style="stroke:#000000;stroke-width:0.5;" x="185.954109844" xlink:href="#m28d971ddb1" y="456.223147426"/>
      </g>
     </g>
     <g id="line2d_6">
      <g>
       <use style="stroke:#000000;stroke-width:0.5;" x="185.954109844" xlink:href="#mde5e179641" y="30.7369764749"/>
      </g>
     </g>
     <g id="text_2">
      <!-- $-0.5$ -->
      <defs>
       <path d="M 11.40625 57.6875 
C 12.40625 57.28125 16.5 56 20.703125 56 
C 30 56 35.09375 61.109375 38 64.0625 
C 38 64.953125 38 65.5 37.40625 65.5 
C 37.296875 65.5 37.09375 65.5 36.296875 65.046875 
C 32.796875 63.40625 28.703125 62.078125 23.703125 62.078125 
C 20.703125 62.078125 16.203125 62.484375 11.296875 64.671875 
C 10.203125 65.171875 10 65.171875 9.90625 65.171875 
C 9.40625 65.171875 9.296875 65.0625 9.296875 63.078125 
L 9.296875 34.421875 
C 9.296875 32.640625 9.296875 32.140625 10.296875 32.140625 
C 10.796875 32.140625 11 32.34375 11.5 33.03125 
C 14.703125 37.515625 19.09375 39.40625 24.09375 39.40625 
C 27.59375 39.40625 35.09375 37.21875 35.09375 20.140625 
C 35.09375 16.953125 35.09375 11.171875 32.09375 6.578125 
C 29.59375 2.484375 25.703125 0.390625 21.40625 0.390625 
C 14.796875 0.390625 8.09375 5 6.296875 12.71875 
C 6.703125 12.609375 7.5 12.421875 7.90625 12.421875 
C 9.203125 12.421875 11.703125 13.125 11.703125 16.21875 
C 11.703125 18.90625 9.796875 20 7.90625 20 
C 5.59375 20 4.09375 18.59375 4.09375 15.796875 
C 4.09375 7.09375 11 -2 21.59375 -2 
C 31.90625 -2 41.703125 6.875 41.703125 19.75 
C 41.703125 31.71875 33.90625 41 24.203125 41 
C 19.09375 41 14.796875 39.109375 11.40625 35.53125 
z
" id="CMR17-53"/>
      </defs>
      <g transform="translate(171.804701255 470.160795795)scale(0.14 -0.14)">
       <use transform="scale(0.996264009963)" xlink:href="#CMSY10-0"/>
       <use transform="translate(77.4874676506 0.0)scale(0.996264009963)" xlink:href="#CMR17-48"/>
       <use transform="translate(123.177944768 0.0)scale(0.996264009963)" xlink:href="#CMMI12-58"/>
       <use transform="translate(150.275121857 0.0)scale(0.996264009963)" xlink:href="#CMR17-53"/>
      </g>
     </g>
    </g>
    <g id="xtick_3">
     <g id="line2d_7">
      <path clip-path="url(#p7165086b9e)" d="M 308.740976 456.223147 
L 308.740976 30.736976 
" style="fill:none;stroke:#000000;stroke-dasharray:1.000000,3.000000;stroke-dashoffset:0.0;stroke-width:0.5;"/>
     </g>
     <g id="line2d_8">
      <g>
       <use style="stroke:#000000;stroke-width:0.5;" x="308.740976222" xlink:href="#m28d971ddb1" y="456.223147426"/>
      </g>
     </g>
     <g id="line2d_9">
      <g>
       <use style="stroke:#000000;stroke-width:0.5;" x="308.740976222" xlink:href="#mde5e179641" y="30.7369764749"/>
      </g>
     </g>
     <g id="text_3">
      <!-- $0.0$ -->
      <g transform="translate(300.015685199 470.160795795)scale(0.14 -0.14)">
       <use transform="scale(0.996264009963)" xlink:href="#CMR17-48"/>
       <use transform="translate(45.6904771171 0.0)scale(0.996264009963)" xlink:href="#CMMI12-58"/>
       <use transform="translate(72.7876542069 0.0)scale(0.996264009963)" xlink:href="#CMR17-48"/>
      </g>
     </g>
    </g>
    <g id="xtick_4">
     <g id="line2d_10">
      <path clip-path="url(#p7165086b9e)" d="M 431.527843 456.223147 
L 431.527843 30.736976 
" style="fill:none;stroke:#000000;stroke-dasharray:1.000000,3.000000;stroke-dashoffset:0.0;stroke-width:0.5;"/>
     </g>
     <g id="line2d_11">
      <g>
       <use style="stroke:#000000;stroke-width:0.5;" x="431.5278426" xlink:href="#m28d971ddb1" y="456.223147426"/>
      </g>
     </g>
     <g id="line2d_12">
      <g>
       <use style="stroke:#000000;stroke-width:0.5;" x="431.5278426" xlink:href="#mde5e179641" y="30.7369764749"/>
      </g>
     </g>
     <g id="text_4">
      <!-- $0.5$ -->
      <g transform="translate(422.802551577 470.160795795)scale(0.14 -0.14)">
       <use transform="scale(0.996264009963)" xlink:href="#CMR17-48"/>
       <use transform="translate(45.6904771171 0.0)scale(0.996264009963)" xlink:href="#CMMI12-58"/>
       <use transform="translate(72.7876542069 0.0)scale(0.996264009963)" xlink:href="#CMR17-53"/>
      </g>
     </g>
    </g>
    <g id="xtick_5">
     <g id="line2d_13">
      <path clip-path="url(#p7165086b9e)" d="M 554.314709 456.223147 
L 554.314709 30.736976 
" style="fill:none;stroke:#000000;stroke-dasharray:1.000000,3.000000;stroke-dashoffset:0.0;stroke-width:0.5;"/>
     </g>
     <g id="line2d_14">
      <g>
       <use style="stroke:#000000;stroke-width:0.5;" x="554.314708977" xlink:href="#m28d971ddb1" y="456.223147426"/>
      </g>
     </g>
     <g id="line2d_15">
      <g>
       <use style="stroke:#000000;stroke-width:0.5;" x="554.314708977" xlink:href="#mde5e179641" y="30.7369764749"/>
      </g>
     </g>
     <g id="text_5">
      <!-- $1.0$ -->
      <g transform="translate(545.589417954 470.160795795)scale(0.14 -0.14)">
       <use transform="scale(0.996264009963)" xlink:href="#CMR17-49"/>
       <use transform="translate(45.6904771171 0.0)scale(0.996264009963)" xlink:href="#CMMI12-58"/>
       <use transform="translate(72.7876542069 0.0)scale(0.996264009963)" xlink:href="#CMR17-48"/>
      </g>
     </g>
    </g>
    <g id="text_6">
     <!-- \rm{X [m]} -->
     <defs>
      <path d="M 20.09375 46 
L 2.296875 46 
L 2.296875 41.21875 
L 6.40625 41.21875 
C 10.09375 41.21875 10.703125 40.515625 10.703125 36.203125 
L 10.703125 12.296875 
L 10.703125 8.40625 
C 10.703125 4.296875 9.59375 3.59375 3.203125 3.59375 
L 2.796875 3.59375 
L 2.796875 0 
L 28 0 
L 28 3.59375 
L 27.59375 3.59375 
C 21.203125 3.59375 20.09375 4.296875 20.09375 8.390625 
L 20.09375 12.28125 
L 20.09375 26.453125 
C 20.09375 35.328125 25 41.921875 31.5 41.921875 
C 34.09375 41.921875 36.90625 40.515625 38.09375 38.625 
C 39.5 36.734375 40.09375 33.828125 40.09375 29.734375 
L 40.09375 12.28125 
L 40.09375 8.28125 
C 40.09375 4.296875 39 3.59375 32.5 3.59375 
L 32.09375 3.59375 
L 32.09375 0 
L 57.40625 0 
L 57.40625 3.59375 
L 57 3.59375 
C 50.59375 3.59375 49.5 4.296875 49.5 8.28125 
L 49.5 12.28125 
L 49.5 25.546875 
C 49.5 35.53125 54 41.921875 61 41.921875 
C 64.296875 41.921875 67 40.015625 68.296875 36.921875 
C 69.203125 34.734375 69.5 32.53125 69.5 28.640625 
L 69.5 12.28125 
L 69.5 8.28125 
C 69.5 4.296875 68.40625 3.59375 61.90625 3.59375 
L 61.5 3.59375 
L 61.5 0 
L 86.796875 0 
L 86.796875 3.59375 
L 86.40625 3.59375 
C 80 3.59375 78.90625 4.296875 78.90625 8.390625 
L 78.90625 12.28125 
L 78.90625 30.640625 
C 78.90625 36.828125 78.296875 38.921875 75.703125 42.3125 
C 72.796875 46.015625 68.703125 48 63.90625 48 
C 57.40625 48 52.59375 44.9375 48.296875 38.109375 
C 46.59375 44.046875 41.203125 48 34.5 48 
C 28.5 48 24 45.140625 20.09375 38.921875 
z
" id="Century_Schoolbook_L_Roman-109"/>
      <path d="M 17.59375 68.40625 
L 17.59375 -7 
L 3.59375 -7 
L 3.59375 -10.6875 
L 26.59375 -10.6875 
L 26.59375 72 
L 3.59375 72 
L 3.59375 68.40625 
z
" id="Century_Schoolbook_L_Roman-93"/>
      <path d="M 15.59375 -7.40625 
L 15.59375 68.296875 
L 29.703125 68.296875 
L 29.703125 72 
L 6.59375 72 
L 6.59375 -11 
L 29.703125 -11 
L 29.703125 -7.40625 
z
" id="Century_Schoolbook_L_Roman-91"/>
      <path d="M 38.90625 39.890625 
L 52.203125 57.9375 
C 57.796875 65.40625 60.59375 67.3125 65.90625 67.3125 
L 67.5 67.3125 
L 67.5 72 
L 40 72 
L 40 67.3125 
L 41.40625 67.3125 
C 46.203125 67.3125 48.296875 66.109375 48.296875 63.40625 
C 48.296875 62.3125 48 61.609375 46.90625 60.03125 
L 36.09375 44.375 
L 22.796875 63.515625 
C 22.09375 64.515625 21.703125 65.515625 21.703125 66.015625 
C 21.703125 67 22.703125 67.3125 26.5 67.3125 
L 30.296875 67.3125 
L 30.296875 72 
L -0.59375 72 
L -0.59375 67.3125 
L 1.09375 67.3125 
C 6 67.3125 7.203125 66.8125 9.5 63.515625 
L 29.203125 35.109375 
L 13 12.671875 
C 9.09375 7.09375 5 4.6875 -0.09375 4.6875 
L -0.5 4.6875 
L -0.5 0 
L 27.90625 0 
L 27.90625 4.6875 
L 25.40625 4.6875 
C 21.40625 4.6875 18.90625 6.484375 18.90625 9.484375 
C 18.90625 10.78125 19.5 12.359375 20.5 13.859375 
L 32.09375 30.609375 
L 47 9.40625 
C 47.796875 8.203125 48.296875 7.09375 48.296875 6.296875 
C 48.296875 4.6875 47.90625 4.6875 41.59375 4.6875 
L 38.796875 4.6875 
L 38.796875 0 
L 71.59375 0 
L 71.59375 4.6875 
L 70.40625 4.6875 
C 64 4.6875 63.296875 4.984375 59.90625 9.875 
z
" id="Century_Schoolbook_L_Roman-88"/>
     </defs>
     <g transform="translate(291.048579424 488.069222082)scale(0.14 -0.14)">
      <use transform="scale(0.996264009963)" xlink:href="#Century_Schoolbook_L_Roman-88"/>
      <use transform="translate(97.8313441294 0.0)scale(0.996264009963)" xlink:href="#Century_Schoolbook_L_Roman-91"/>
      <use transform="translate(131.006573859 0.0)scale(0.996264009963)" xlink:href="#Century_Schoolbook_L_Roman-109"/>
      <use transform="translate(219.573480551 0.0)scale(0.996264009963)" xlink:href="#Century_Schoolbook_L_Roman-93"/>
     </g>
    </g>
   </g>
   <g id="matplotlib.axis_2">
    <g id="ytick_1">
     <g id="line2d_16">
      <path clip-path="url(#p7165086b9e)" d="M 63.167243 30.736976 
L 554.314709 30.736976 
" style="fill:none;stroke:#000000;stroke-dasharray:1.000000,3.000000;stroke-dashoffset:0.0;stroke-width:0.5;"/>
     </g>
     <g id="line2d_17">
      <defs>
       <path d="M 0 0 
L 4 0 
" id="m527a69750a" style="stroke:#000000;stroke-width:0.5;"/>
      </defs>
      <g>
       <use style="stroke:#000000;stroke-width:0.5;" x="63.1672434669" xlink:href="#m527a69750a" y="30.7369764749"/>
      </g>
     </g>
     <g id="line2d_18">
      <defs>
       <path d="M 0 0 
L -4 0 
" id="md4ef8f6d25" style="stroke:#000000;stroke-width:0.5;"/>
      </defs>
      <g>
       <use style="stroke:#000000;stroke-width:0.5;" x="554.314708977" xlink:href="#md4ef8f6d25" y="30.7369764749"/>
      </g>
     </g>
     <g id="text_7">
      <!-- $-0.4$ -->
      <defs>
       <path d="M 33.59375 64.40625 
C 33.59375 66.5 33.5 66.5 31.703125 66.5 
L 2 19.59375 
L 2 17 
L 27.796875 17 
L 27.796875 7.140625 
C 27.796875 3.5 27.59375 2.5 20.59375 2.5 
L 18.703125 2.5 
L 18.703125 0 
C 21.90625 0 27.296875 0 30.703125 0 
C 34.09375 0 39.5 0 42.703125 0 
L 42.703125 2.5 
L 40.796875 2.5 
C 33.796875 2.5 33.59375 3.5 33.59375 7.140625 
L 33.59375 17 
L 43.796875 17 
L 43.796875 19.59375 
L 33.59375 19.59375 
z
M 28.09375 57.859375 
L 28.09375 19.59375 
L 4 19.59375 
z
" id="CMR17-52"/>
      </defs>
      <g transform="translate(30.8684262872 34.2204117008)scale(0.14 -0.14)">
       <use transform="scale(0.996264009963)" xlink:href="#CMSY10-0"/>
       <use transform="translate(77.4874676506 0.0)scale(0.996264009963)" xlink:href="#CMR17-48"/>
       <use transform="translate(123.177944768 0.0)scale(0.996264009963)" xlink:href="#CMMI12-58"/>
       <use transform="translate(150.275121857 0.0)scale(0.996264009963)" xlink:href="#CMR17-52"/>
      </g>
     </g>
    </g>
    <g id="ytick_2">
     <g id="line2d_19">
      <path clip-path="url(#p7165086b9e)" d="M 63.167243 78.013218 
L 554.314709 78.013218 
" style="fill:none;stroke:#000000;stroke-dasharray:1.000000,3.000000;stroke-dashoffset:0.0;stroke-width:0.5;"/>
     </g>
     <g id="line2d_20">
      <g>
       <use style="stroke:#000000;stroke-width:0.5;" x="63.1672434669" xlink:href="#m527a69750a" y="78.0132176917"/>
      </g>
     </g>
     <g id="line2d_21">
      <g>
       <use style="stroke:#000000;stroke-width:0.5;" x="554.314708977" xlink:href="#md4ef8f6d25" y="78.0132176917"/>
      </g>
     </g>
     <g id="text_8">
      <!-- $-0.2$ -->
      <defs>
       <path d="M 41.703125 15.453125 
L 39.90625 15.453125 
C 38.90625 8.375 38.09375 7.171875 37.703125 6.5625 
C 37.203125 5.765625 30 5.765625 28.59375 5.765625 
L 9.40625 5.765625 
C 13 9.671875 20 16.75 28.5 24.953125 
C 34.59375 30.734375 41.703125 37.53125 41.703125 47.421875 
C 41.703125 59.21875 32.296875 66 21.796875 66 
C 10.796875 66 4.09375 56.3125 4.09375 47.34375 
C 4.09375 43.4375 7 42.9375 8.203125 42.9375 
C 9.203125 42.9375 12.203125 43.546875 12.203125 47.03125 
C 12.203125 50.109375 9.59375 51 8.203125 51 
C 7.59375 51 7 50.90625 6.59375 50.703125 
C 8.5 59.21875 14.296875 63.40625 20.40625 63.40625 
C 29.09375 63.40625 34.796875 56.515625 34.796875 47.421875 
C 34.796875 38.734375 29.703125 31.25 24 24.75 
L 4.09375 2.28125 
L 4.09375 0 
L 39.296875 0 
z
" id="CMR17-50"/>
      </defs>
      <g transform="translate(30.8684262872 81.4966529175)scale(0.14 -0.14)">
       <use transform="scale(0.996264009963)" xlink:href="#CMSY10-0"/>
       <use transform="translate(77.4874676506 0.0)scale(0.996264009963)" xlink:href="#CMR17-48"/>
       <use transform="translate(123.177944768 0.0)scale(0.996264009963)" xlink:href="#CMMI12-58"/>
       <use transform="translate(150.275121857 0.0)scale(0.996264009963)" xlink:href="#CMR17-50"/>
      </g>
     </g>
    </g>
    <g id="ytick_3">
     <g id="line2d_22">
      <path clip-path="url(#p7165086b9e)" d="M 63.167243 125.289459 
L 554.314709 125.289459 
" style="fill:none;stroke:#000000;stroke-dasharray:1.000000,3.000000;stroke-dashoffset:0.0;stroke-width:0.5;"/>
     </g>
     <g id="line2d_23">
      <g>
       <use style="stroke:#000000;stroke-width:0.5;" x="63.1672434669" xlink:href="#m527a69750a" y="125.289458908"/>
      </g>
     </g>
     <g id="line2d_24">
      <g>
       <use style="stroke:#000000;stroke-width:0.5;" x="554.314708977" xlink:href="#md4ef8f6d25" y="125.289458908"/>
      </g>
     </g>
     <g id="text_9">
      <!-- $0.0$ -->
      <g transform="translate(41.716661421 128.772894134)scale(0.14 -0.14)">
       <use transform="scale(0.996264009963)" xlink:href="#CMR17-48"/>
       <use transform="translate(45.6904771171 0.0)scale(0.996264009963)" xlink:href="#CMMI12-58"/>
       <use transform="translate(72.7876542069 0.0)scale(0.996264009963)" xlink:href="#CMR17-48"/>
      </g>
     </g>
    </g>
    <g id="ytick_4">
     <g id="line2d_25">
      <path clip-path="url(#p7165086b9e)" d="M 63.167243 172.5657 
L 554.314709 172.5657 
" style="fill:none;stroke:#000000;stroke-dasharray:1.000000,3.000000;stroke-dashoffset:0.0;stroke-width:0.5;"/>
     </g>
     <g id="line2d_26">
      <g>
       <use style="stroke:#000000;stroke-width:0.5;" x="63.1672434669" xlink:href="#m527a69750a" y="172.565700125"/>
      </g>
     </g>
     <g id="line2d_27">
      <g>
       <use style="stroke:#000000;stroke-width:0.5;" x="554.314708977" xlink:href="#md4ef8f6d25" y="172.565700125"/>
      </g>
     </g>
     <g id="text_10">
      <!-- $0.2$ -->
      <g transform="translate(41.716661421 176.049135351)scale(0.14 -0.14)">
       <use transform="scale(0.996264009963)" xlink:href="#CMR17-48"/>
       <use transform="translate(45.6904771171 0.0)scale(0.996264009963)" xlink:href="#CMMI12-58"/>
       <use transform="translate(72.7876542069 0.0)scale(0.996264009963)" xlink:href="#CMR17-50"/>
      </g>
     </g>
    </g>
    <g id="ytick_5">
     <g id="line2d_28">
      <path clip-path="url(#p7165086b9e)" d="M 63.167243 219.841941 
L 554.314709 219.841941 
" style="fill:none;stroke:#000000;stroke-dasharray:1.000000,3.000000;stroke-dashoffset:0.0;stroke-width:0.5;"/>
     </g>
     <g id="line2d_29">
      <g>
       <use style="stroke:#000000;stroke-width:0.5;" x="63.1672434669" xlink:href="#m527a69750a" y="219.841941342"/>
      </g>
     </g>
     <g id="line2d_30">
      <g>
       <use style="stroke:#000000;stroke-width:0.5;" x="554.314708977" xlink:href="#md4ef8f6d25" y="219.841941342"/>
      </g>
     </g>
     <g id="text_11">
      <!-- $0.4$ -->
      <g transform="translate(41.716661421 223.325376568)scale(0.14 -0.14)">
       <use transform="scale(0.996264009963)" xlink:href="#CMR17-48"/>
       <use transform="translate(45.6904771171 0.0)scale(0.996264009963)" xlink:href="#CMMI12-58"/>
       <use transform="translate(72.7876542069 0.0)scale(0.996264009963)" xlink:href="#CMR17-52"/>
      </g>
     </g>
    </g>
    <g id="ytick_6">
     <g id="line2d_31">
      <path clip-path="url(#p7165086b9e)" d="M 63.167243 267.118183 
L 554.314709 267.118183 
" style="fill:none;stroke:#000000;stroke-dasharray:1.000000,3.000000;stroke-dashoffset:0.0;stroke-width:0.5;"/>
     </g>
     <g id="line2d_32">
      <g>
       <use style="stroke:#000000;stroke-width:0.5;" x="63.1672434669" xlink:href="#m527a69750a" y="267.118182559"/>
      </g>
     </g>
     <g id="line2d_33">
      <g>
       <use style="stroke:#000000;stroke-width:0.5;" x="554.314708977" xlink:href="#md4ef8f6d25" y="267.118182559"/>
      </g>
     </g>
     <g id="text_12">
      <!-- $0.6$ -->
      <defs>
       <path d="M 10.59375 34 
C 10.59375 57.65625 21.796875 63 28.296875 63 
C 30.40625 63 35.5 62.640625 37.5 59 
C 35.90625 59 32.90625 59 32.90625 55.515625 
C 32.90625 52.828125 35.09375 51.921875 36.5 51.921875 
C 37.40625 51.921875 40.09375 52.3125 40.09375 55.625 
C 40.09375 61.78125 35.09375 65.296875 28.203125 65.296875 
C 16.296875 65.296875 3.796875 52.96875 3.796875 31 
C 3.796875 3.953125 15.09375 -2 23.09375 -2 
C 32.796875 -2 42 6.671875 42 20.046875 
C 42 32.515625 33.90625 41.59375 23.703125 41.59375 
C 17.59375 41.59375 13.09375 37.609375 10.59375 30.625 
z
M 23.09375 0.390625 
C 10.796875 0.390625 10.796875 18.75 10.796875 22.4375 
C 10.796875 29.625 14.203125 40 23.5 40 
C 25.203125 40 30.09375 40 33.40625 33.125 
C 35.203125 29.21875 35.203125 25.140625 35.203125 20.140625 
C 35.203125 14.75 35.203125 10.78125 33.09375 6.78125 
C 30.90625 2.671875 27.703125 0.390625 23.09375 0.390625 
" id="CMR17-54"/>
      </defs>
      <g transform="translate(41.716661421 270.601617784)scale(0.14 -0.14)">
       <use transform="scale(0.996264009963)" xlink:href="#CMR17-48"/>
       <use transform="translate(45.6904771171 0.0)scale(0.996264009963)" xlink:href="#CMMI12-58"/>
       <use transform="translate(72.7876542069 0.0)scale(0.996264009963)" xlink:href="#CMR17-54"/>
      </g>
     </g>
    </g>
    <g id="ytick_7">
     <g id="line2d_34">
      <path clip-path="url(#p7165086b9e)" d="M 63.167243 314.394424 
L 554.314709 314.394424 
" style="fill:none;stroke:#000000;stroke-dasharray:1.000000,3.000000;stroke-dashoffset:0.0;stroke-width:0.5;"/>
     </g>
     <g id="line2d_35">
      <g>
       <use style="stroke:#000000;stroke-width:0.5;" x="63.1672434669" xlink:href="#m527a69750a" y="314.394423775"/>
      </g>
     </g>
     <g id="line2d_36">
      <g>
       <use style="stroke:#000000;stroke-width:0.5;" x="554.314708977" xlink:href="#md4ef8f6d25" y="314.394423775"/>
      </g>
     </g>
     <g id="text_13">
      <!-- $0.8$ -->
      <defs>
       <path d="M 27.203125 35.375 
C 33.5 38.546875 39.90625 43.328125 39.90625 50.984375 
C 39.90625 60.015625 31.09375 65.296875 23 65.296875 
C 13.90625 65.296875 5.90625 58.734375 5.90625 49.6875 
C 5.90625 47.203125 6.5 42.921875 10.40625 39.140625 
C 11.40625 38.15625 15.59375 35.171875 18.296875 33.28125 
C 13.796875 30.984375 3.296875 25.53125 3.296875 14.59375 
C 3.296875 4.359375 13.09375 -2 22.796875 -2 
C 33.5 -2 42.5 5.65625 42.5 15.78125 
C 42.5 24.84375 36.40625 29.015625 32.40625 31.703125 
z
M 14.09375 44.09375 
C 13.296875 44.59375 9.296875 47.671875 9.296875 52.359375 
C 9.296875 58.421875 15.59375 63 22.796875 63 
C 30.703125 63 36.5 57.4375 36.5 50.96875 
C 36.5 41.703125 26.09375 36.421875 25.59375 36.421875 
C 25.5 36.421875 25.40625 36.421875 24.59375 37.03125 
z
M 32.5 23.734375 
C 34 22.640625 38.796875 19.375 38.796875 13.296875 
C 38.796875 5.953125 31.40625 0.390625 23 0.390625 
C 13.90625 0.390625 7 6.84375 7 14.6875 
C 7 22.546875 13.09375 29.09375 20 32.1875 
z
" id="CMR17-56"/>
      </defs>
      <g transform="translate(41.716661421 317.877859001)scale(0.14 -0.14)">
       <use transform="scale(0.996264009963)" xlink:href="#CMR17-48"/>
       <use transform="translate(45.6904771171 0.0)scale(0.996264009963)" xlink:href="#CMMI12-58"/>
       <use transform="translate(72.7876542069 0.0)scale(0.996264009963)" xlink:href="#CMR17-56"/>
      </g>
     </g>
    </g>
    <g id="ytick_8">
     <g id="line2d_37">
      <path clip-path="url(#p7165086b9e)" d="M 63.167243 361.670665 
L 554.314709 361.670665 
" style="fill:none;stroke:#000000;stroke-dasharray:1.000000,3.000000;stroke-dashoffset:0.0;stroke-width:0.5;"/>
     </g>
     <g id="line2d_38">
      <g>
       <use style="stroke:#000000;stroke-width:0.5;" x="63.1672434669" xlink:href="#m527a69750a" y="361.670664992"/>
      </g>
     </g>
     <g id="line2d_39">
      <g>
       <use style="stroke:#000000;stroke-width:0.5;" x="554.314708977" xlink:href="#md4ef8f6d25" y="361.670664992"/>
      </g>
     </g>
     <g id="text_14">
      <!-- $1.0$ -->
      <g transform="translate(41.716661421 365.154100218)scale(0.14 -0.14)">
       <use transform="scale(0.996264009963)" xlink:href="#CMR17-49"/>
       <use transform="translate(45.6904771171 0.0)scale(0.996264009963)" xlink:href="#CMMI12-58"/>
       <use transform="translate(72.7876542069 0.0)scale(0.996264009963)" xlink:href="#CMR17-48"/>
      </g>
     </g>
    </g>
    <g id="ytick_9">
     <g id="line2d_40">
      <path clip-path="url(#p7165086b9e)" d="M 63.167243 408.946906 
L 554.314709 408.946906 
" style="fill:none;stroke:#000000;stroke-dasharray:1.000000,3.000000;stroke-dashoffset:0.0;stroke-width:0.5;"/>
     </g>
     <g id="line2d_41">
      <g>
       <use style="stroke:#000000;stroke-width:0.5;" x="63.1672434669" xlink:href="#m527a69750a" y="408.946906209"/>
      </g>
     </g>
     <g id="line2d_42">
      <g>
       <use style="stroke:#000000;stroke-width:0.5;" x="554.314708977" xlink:href="#md4ef8f6d25" y="408.946906209"/>
      </g>
     </g>
     <g id="text_15">
      <!-- $1.2$ -->
      <g transform="translate(41.716661421 412.430341435)scale(0.14 -0.14)">
       <use transform="scale(0.996264009963)" xlink:href="#CMR17-49"/>
       <use transform="translate(45.6904771171 0.0)scale(0.996264009963)" xlink:href="#CMMI12-58"/>
       <use transform="translate(72.7876542069 0.0)scale(0.996264009963)" xlink:href="#CMR17-50"/>
      </g>
     </g>
    </g>
    <g id="ytick_10">
     <g id="line2d_43">
      <path clip-path="url(#p7165086b9e)" d="M 63.167243 456.223147 
L 554.314709 456.223147 
" style="fill:none;stroke:#000000;stroke-dasharray:1.000000,3.000000;stroke-dashoffset:0.0;stroke-width:0.5;"/>
     </g>
     <g id="line2d_44">
      <g>
       <use style="stroke:#000000;stroke-width:0.5;" x="63.1672434669" xlink:href="#m527a69750a" y="456.223147426"/>
      </g>
     </g>
     <g id="line2d_45">
      <g>
       <use style="stroke:#000000;stroke-width:0.5;" x="554.314708977" xlink:href="#md4ef8f6d25" y="456.223147426"/>
      </g>
     </g>
     <g id="text_16">
      <!-- $1.4$ -->
      <g transform="translate(41.716661421 459.706582651)scale(0.14 -0.14)">
       <use transform="scale(0.996264009963)" xlink:href="#CMR17-49"/>
       <use transform="translate(45.6904771171 0.0)scale(0.996264009963)" xlink:href="#CMMI12-58"/>
       <use transform="translate(72.7876542069 0.0)scale(0.996264009963)" xlink:href="#CMR17-52"/>
      </g>
     </g>
    </g>
    <g id="text_17">
     <!-- \rm{Z [m]} -->
     <defs>
      <path d="M 56.90625 72 
L 7.296875 72 
L 5.296875 46.78125 
L 9.796875 46.78125 
C 13 63.40625 16.90625 67.3125 30.296875 67.3125 
L 43.296875 67.3125 
L 2.40625 3.59375 
L 2.40625 0 
L 55.703125 0 
L 57.5 27.734375 
L 52.796875 27.734375 
C 51.40625 18.453125 49.703125 13.46875 46.796875 9.875 
C 44.296875 6.59375 38.90625 4.6875 32.40625 4.6875 
L 15.796875 4.6875 
L 56.90625 68.40625 
z
" id="Century_Schoolbook_L_Roman-90"/>
     </defs>
     <g transform="translate(22.8976483694 260.523943111)rotate(-90.0)scale(0.14 -0.14)">
      <use transform="scale(0.996264009963)" xlink:href="#Century_Schoolbook_L_Roman-90"/>
      <use transform="translate(88.5668002802 0.0)scale(0.996264009963)" xlink:href="#Century_Schoolbook_L_Roman-91"/>
      <use transform="translate(121.74203001 0.0)scale(0.996264009963)" xlink:href="#Century_Schoolbook_L_Roman-109"/>
      <use transform="translate(210.308936702 0.0)scale(0.996264009963)" xlink:href="#Century_Schoolbook_L_Roman-93"/>
     </g>
    </g>
   </g>
   <g id="patch_7">
    <path clip-path="url(#p7165086b9e)" d="M 253.793854 125.289459 
C 253.793854 111.26746 259.586861 97.805423 269.887493 87.890373 
C 280.188126 77.975322 294.173682 72.399164 308.740976 72.399164 
C 323.30827 72.399164 337.293827 77.975322 347.594459 87.890373 
C 357.895092 97.805423 363.688099 111.26746 363.688099 125.289459 
" style="fill:none;stroke:#000000;stroke-linejoin:miter;stroke-width:0.85;"/>
   </g>
   <g id="patch_8">
    <path clip-path="url(#p7165086b9e)" d="M 254.223608 125.289459 
L 363.258345 125.289459 
L 363.258345 126.79048 
L 254.223608 126.79048 
z
"/>
   </g>
   <g id="patch_9">
    <path clip-path="url(#p7165086b9e)" d="M 253.364099 125.289459 
L 254.223608 125.289459 
L 254.223608 126.79048 
L 253.364099 126.79048 
z
"/>
   </g>
   <g id="patch_10">
    <path clip-path="url(#p7165086b9e)" d="M 363.258345 125.289459 
L 364.117853 125.289459 
L 364.117853 126.79048 
L 363.258345 126.79048 
z
"/>
   </g>
   <g id="patch_11">
    <path clip-path="url(#p7165086b9e)" d="M 253.364099 126.79048 
L 254.223608 126.79048 
L 254.223608 133.267325 
L 253.364099 133.267325 
z
"/>
   </g>
   <g id="patch_12">
    <path clip-path="url(#p7165086b9e)" d="M 363.258345 126.79048 
L 364.117853 126.79048 
L 364.117853 133.267325 
L 363.258345 133.267325 
z
"/>
   </g>
   <g id="patch_13">
    <path clip-path="url(#p7165086b9e)" d="M 254.223608 133.267325 
L 363.258345 133.267325 
L 363.258345 133.503706 
L 254.223608 133.503706 
z
"/>
   </g>
   <g id="patch_14">
    <path clip-path="url(#p7165086b9e)" d="M 253.364099 133.267325 
L 254.223608 133.267325 
L 254.223608 133.26827 
L 253.364099 133.26827 
z
"/>
   </g>
   <g id="patch_15">
    <path clip-path="url(#p7165086b9e)" d="M 363.258345 133.267325 
L 364.117853 133.267325 
L 364.117853 133.26827 
L 363.258345 133.26827 
z
"/>
   </g>
   <g id="patch_16">
    <path clip-path="url(#p7165086b9e)" d="M 253.364099 133.26827 
L 254.223608 133.26827 
L 254.223608 134.450176 
L 253.364099 134.450176 
z
"/>
   </g>
   <g id="patch_17">
    <path clip-path="url(#p7165086b9e)" d="M 363.258345 133.26827 
L 364.117853 133.26827 
L 364.117853 134.450176 
L 363.258345 134.450176 
z
"/>
   </g>
   <g id="patch_18">
    <path clip-path="url(#p7165086b9e)" d="M 254.223608 134.450176 
L 363.258345 134.450176 
L 363.258345 134.686557 
L 254.223608 134.686557 
z
"/>
   </g>
   <g id="patch_19">
    <path clip-path="url(#p7165086b9e)" d="M 253.364099 134.450176 
L 254.223608 134.450176 
L 254.223608 134.451122 
L 253.364099 134.451122 
z
"/>
   </g>
   <g id="patch_20">
    <path clip-path="url(#p7165086b9e)" d="M 363.258345 134.450176 
L 364.117853 134.450176 
L 364.117853 134.451122 
L 363.258345 134.451122 
z
"/>
   </g>
   <g id="patch_21">
    <path clip-path="url(#p7165086b9e)" d="M 253.364099 134.451122 
L 254.223608 134.451122 
L 254.223608 136.417813 
L 253.364099 136.417813 
z
"/>
   </g>
   <g id="patch_22">
    <path clip-path="url(#p7165086b9e)" d="M 363.258345 134.451122 
L 364.117853 134.451122 
L 364.117853 136.417813 
L 363.258345 136.417813 
z
"/>
   </g>
   <g id="patch_23">
    <path clip-path="url(#p7165086b9e)" d="M 254.223608 136.417813 
L 363.258345 136.417813 
L 363.258345 136.654195 
L 254.223608 136.654195 
z
" style="fill:#ff0000;"/>
   </g>
   <g id="patch_24">
    <path clip-path="url(#p7165086b9e)" d="M 253.364099 136.417813 
L 254.223608 136.417813 
L 254.223608 136.418759 
L 253.364099 136.418759 
z
" style="fill:#ff0000;"/>
   </g>
   <g id="patch_25">
    <path clip-path="url(#p7165086b9e)" d="M 363.258345 136.417813 
L 364.117853 136.417813 
L 364.117853 136.418759 
L 363.258345 136.418759 
z
" style="fill:#ff0000;"/>
   </g>
   <g id="patch_26">
    <path clip-path="url(#p7165086b9e)" d="M 253.364099 136.418759 
L 254.223608 136.418759 
L 254.223608 137.600665 
L 253.364099 137.600665 
z
" style="fill:#ff0000;"/>
   </g>
   <g id="patch_27">
    <path clip-path="url(#p7165086b9e)" d="M 363.258345 136.418759 
L 364.117853 136.418759 
L 364.117853 137.600665 
L 363.258345 137.600665 
z
" style="fill:#ff0000;"/>
   </g>
   <g id="patch_28">
    <path clip-path="url(#p7165086b9e)" d="M 254.223608 137.600665 
L 363.258345 137.600665 
L 363.258345 137.837046 
L 254.223608 137.837046 
z
" style="fill:#ff0000;"/>
   </g>
   <g id="patch_29">
    <path clip-path="url(#p7165086b9e)" d="M 253.364099 137.600665 
L 254.223608 137.600665 
L 254.223608 137.60161 
L 253.364099 137.60161 
z
" style="fill:#ff0000;"/>
   </g>
   <g id="patch_30">
    <path clip-path="url(#p7165086b9e)" d="M 363.258345 137.600665 
L 364.117853 137.600665 
L 364.117853 137.60161 
L 363.258345 137.60161 
z
" style="fill:#ff0000;"/>
   </g>
   <g id="patch_31">
    <path clip-path="url(#p7165086b9e)" d="M 253.364099 137.60161 
L 254.223608 137.60161 
L 254.223608 138.783516 
L 253.364099 138.783516 
z
" style="fill:#ff0000;"/>
   </g>
   <g id="patch_32">
    <path clip-path="url(#p7165086b9e)" d="M 363.258345 137.60161 
L 364.117853 137.60161 
L 364.117853 138.783516 
L 363.258345 138.783516 
z
" style="fill:#ff0000;"/>
   </g>
   <g id="patch_33">
    <path clip-path="url(#p7165086b9e)" d="M 254.223608 138.783516 
L 363.258345 138.783516 
L 363.258345 139.256279 
L 254.223608 139.256279 
z
" style="fill:#ff0000;"/>
   </g>
   <g id="patch_34">
    <path clip-path="url(#p7165086b9e)" d="M 253.364099 138.783516 
L 254.223608 138.783516 
L 254.223608 139.256279 
L 253.364099 139.256279 
z
" style="fill:#ff0000;"/>
   </g>
   <g id="patch_35">
    <path clip-path="url(#p7165086b9e)" d="M 363.258345 138.783516 
L 364.117853 138.783516 
L 364.117853 139.256279 
L 363.258345 139.256279 
z
" style="fill:#ff0000;"/>
   </g>
   <g id="patch_36">
    <path clip-path="url(#p7165086b9e)" d="M 253.364099 139.256279 
L 254.223608 139.256279 
L 254.223608 141.40593 
L 253.364099 141.40593 
z
" style="fill:#ff0000;"/>
   </g>
   <g id="patch_37">
    <path clip-path="url(#p7165086b9e)" d="M 363.258345 139.256279 
L 364.117853 139.256279 
L 364.117853 141.40593 
L 363.258345 141.40593 
z
" style="fill:#ff0000;"/>
   </g>
   <g id="patch_38">
    <path clip-path="url(#p7165086b9e)" d="M 254.223608 141.40593 
L 363.258345 141.40593 
L 363.258345 141.642311 
L 254.223608 141.642311 
z
" style="fill:#bfbf00;"/>
   </g>
   <g id="patch_39">
    <path clip-path="url(#p7165086b9e)" d="M 253.364099 141.40593 
L 254.223608 141.40593 
L 254.223608 141.406875 
L 253.364099 141.406875 
z
" style="fill:#bfbf00;"/>
   </g>
   <g id="patch_40">
    <path clip-path="url(#p7165086b9e)" d="M 363.258345 141.40593 
L 364.117853 141.40593 
L 364.117853 141.406875 
L 363.258345 141.406875 
z
" style="fill:#bfbf00;"/>
   </g>
   <g id="patch_41">
    <path clip-path="url(#p7165086b9e)" d="M 253.364099 141.406875 
L 254.223608 141.406875 
L 254.223608 142.588781 
L 253.364099 142.588781 
z
" style="fill:#bfbf00;"/>
   </g>
   <g id="patch_42">
    <path clip-path="url(#p7165086b9e)" d="M 363.258345 141.406875 
L 364.117853 141.406875 
L 364.117853 142.588781 
L 363.258345 142.588781 
z
" style="fill:#bfbf00;"/>
   </g>
   <g id="patch_43">
    <path clip-path="url(#p7165086b9e)" d="M 254.223608 142.588781 
L 363.258345 142.588781 
L 363.258345 142.825162 
L 254.223608 142.825162 
z
" style="fill:#bfbf00;"/>
   </g>
   <g id="patch_44">
    <path clip-path="url(#p7165086b9e)" d="M 253.364099 142.588781 
L 254.223608 142.588781 
L 254.223608 142.589727 
L 253.364099 142.589727 
z
" style="fill:#bfbf00;"/>
   </g>
   <g id="patch_45">
    <path clip-path="url(#p7165086b9e)" d="M 363.258345 142.588781 
L 364.117853 142.588781 
L 364.117853 142.589727 
L 363.258345 142.589727 
z
" style="fill:#bfbf00;"/>
   </g>
   <g id="patch_46">
    <path clip-path="url(#p7165086b9e)" d="M 253.364099 142.589727 
L 254.223608 142.589727 
L 254.223608 143.771633 
L 253.364099 143.771633 
z
" style="fill:#bfbf00;"/>
   </g>
   <g id="patch_47">
    <path clip-path="url(#p7165086b9e)" d="M 363.258345 142.589727 
L 364.117853 142.589727 
L 364.117853 143.771633 
L 363.258345 143.771633 
z
" style="fill:#bfbf00;"/>
   </g>
   <g id="patch_48">
    <path clip-path="url(#p7165086b9e)" d="M 254.223608 143.771633 
L 363.258345 143.771633 
L 363.258345 144.244395 
L 254.223608 144.244395 
z
" style="fill:#bfbf00;"/>
   </g>
   <g id="patch_49">
    <path clip-path="url(#p7165086b9e)" d="M 253.364099 143.771633 
L 254.223608 143.771633 
L 254.223608 144.244395 
L 253.364099 144.244395 
z
" style="fill:#bfbf00;"/>
   </g>
   <g id="patch_50">
    <path clip-path="url(#p7165086b9e)" d="M 363.258345 143.771633 
L 364.117853 143.771633 
L 364.117853 144.244395 
L 363.258345 144.244395 
z
" style="fill:#bfbf00;"/>
   </g>
   <g id="patch_51">
    <path clip-path="url(#p7165086b9e)" d="M 253.364099 144.244395 
L 254.223608 144.244395 
L 254.223608 145.547801 
L 253.364099 145.547801 
z
" style="fill:#bfbf00;"/>
   </g>
   <g id="patch_52">
    <path clip-path="url(#p7165086b9e)" d="M 363.258345 144.244395 
L 364.117853 144.244395 
L 364.117853 145.547801 
L 363.258345 145.547801 
z
" style="fill:#bfbf00;"/>
   </g>
   <g id="patch_53">
    <path clip-path="url(#p7165086b9e)" d="M 254.223608 145.547801 
L 363.258345 145.547801 
L 363.258345 146.053657 
L 254.223608 146.053657 
z
" style="fill:#bfbf00;"/>
   </g>
   <g id="patch_54">
    <path clip-path="url(#p7165086b9e)" d="M 253.364099 145.547801 
L 254.223608 145.547801 
L 254.223608 146.053657 
L 253.364099 146.053657 
z
" style="fill:#bfbf00;"/>
   </g>
   <g id="patch_55">
    <path clip-path="url(#p7165086b9e)" d="M 363.258345 145.547801 
L 364.117853 145.547801 
L 364.117853 146.053657 
L 363.258345 146.053657 
z
" style="fill:#bfbf00;"/>
   </g>
   <g id="patch_56">
    <path clip-path="url(#p7165086b9e)" d="M 253.364099 146.053657 
L 254.223608 146.053657 
L 254.223608 147.83928 
L 253.364099 147.83928 
z
" style="fill:#bfbf00;"/>
   </g>
   <g id="patch_57">
    <path clip-path="url(#p7165086b9e)" d="M 363.258345 146.053657 
L 364.117853 146.053657 
L 364.117853 147.83928 
L 363.258345 147.83928 
z
" style="fill:#bfbf00;"/>
   </g>
   <g id="patch_58">
    <path clip-path="url(#p7165086b9e)" d="M 253.364099 147.83928 
L 254.223608 147.83928 
L 254.223608 150.460748 
L 253.364099 150.460748 
z
" style="fill:#bfbf00;"/>
   </g>
   <g id="patch_59">
    <path clip-path="url(#p7165086b9e)" d="M 363.258345 147.83928 
L 364.117853 147.83928 
L 364.117853 150.460748 
L 363.258345 150.460748 
z
" style="fill:#bfbf00;"/>
   </g>
   <g id="patch_60">
    <path clip-path="url(#p7165086b9e)" d="M 254.223608 150.460748 
L 363.258345 150.460748 
L 363.258345 155.188372 
L 254.223608 155.188372 
z
" style="fill:#008000;"/>
   </g>
   <g id="patch_61">
    <path clip-path="url(#p7165086b9e)" d="M 253.364099 150.460748 
L 254.223608 150.460748 
L 254.223608 155.188372 
L 253.364099 155.188372 
z
" style="fill:#008000;"/>
   </g>
   <g id="patch_62">
    <path clip-path="url(#p7165086b9e)" d="M 363.258345 150.460748 
L 364.117853 150.460748 
L 364.117853 155.188372 
L 363.258345 155.188372 
z
" style="fill:#008000;"/>
   </g>
   <g id="patch_63">
    <path clip-path="url(#p7165086b9e)" d="M 253.364099 155.188372 
L 254.223608 155.188372 
L 254.223608 156.371224 
L 253.364099 156.371224 
z
" style="fill:#008000;"/>
   </g>
   <g id="patch_64">
    <path clip-path="url(#p7165086b9e)" d="M 363.258345 155.188372 
L 364.117853 155.188372 
L 364.117853 156.371224 
L 363.258345 156.371224 
z
" style="fill:#008000;"/>
   </g>
   <g id="patch_65">
    <path clip-path="url(#p7165086b9e)" d="M 254.223608 156.371224 
L 363.258345 156.371224 
L 363.258345 156.862897 
L 254.223608 156.862897 
z
" style="fill:#008000;"/>
   </g>
   <g id="patch_66">
    <path clip-path="url(#p7165086b9e)" d="M 253.364099 156.371224 
L 254.223608 156.371224 
L 254.223608 156.862897 
L 253.364099 156.862897 
z
" style="fill:#008000;"/>
   </g>
   <g id="patch_67">
    <path clip-path="url(#p7165086b9e)" d="M 363.258345 156.371224 
L 364.117853 156.371224 
L 364.117853 156.862897 
L 363.258345 156.862897 
z
" style="fill:#008000;"/>
   </g>
   <g id="patch_68">
    <path clip-path="url(#p7165086b9e)" d="M 253.364099 156.862897 
L 254.223608 156.862897 
L 254.223608 204.139138 
L 253.364099 204.139138 
z
" style="fill:#008000;"/>
   </g>
   <g id="patch_69">
    <path clip-path="url(#p7165086b9e)" d="M 363.258345 156.862897 
L 364.117853 156.862897 
L 364.117853 204.139138 
L 363.258345 204.139138 
z
" style="fill:#008000;"/>
   </g>
   <g id="patch_70">
    <path clip-path="url(#p7165086b9e)" d="M 254.223608 204.139138 
L 363.258345 204.139138 
L 363.258345 208.866762 
L 254.223608 208.866762 
z
" style="fill:#008000;"/>
   </g>
   <g id="patch_71">
    <path clip-path="url(#p7165086b9e)" d="M 253.364099 204.139138 
L 254.223608 204.139138 
L 254.223608 208.866762 
L 253.364099 208.866762 
z
" style="fill:#008000;"/>
   </g>
   <g id="patch_72">
    <path clip-path="url(#p7165086b9e)" d="M 363.258345 204.139138 
L 364.117853 204.139138 
L 364.117853 208.866762 
L 363.258345 208.866762 
z
" style="fill:#008000;"/>
   </g>
   <g id="patch_73">
    <path clip-path="url(#p7165086b9e)" d="M 253.364099 208.866762 
L 254.223608 208.866762 
L 254.223608 238.203561 
L 253.364099 238.203561 
z
" style="fill:#008000;"/>
   </g>
   <g id="patch_74">
    <path clip-path="url(#p7165086b9e)" d="M 363.258345 208.866762 
L 364.117853 208.866762 
L 364.117853 238.203561 
L 363.258345 238.203561 
z
" style="fill:#008000;"/>
   </g>
   <g id="patch_75">
    <path clip-path="url(#p7165086b9e)" d="M 253.364099 238.203561 
L 280.499997 238.203561 
L 280.499997 239.030895 
L 253.364099 239.030895 
z
" style="fill:#008000;"/>
   </g>
   <g id="patch_76">
    <path clip-path="url(#p7165086b9e)" d="M 336.981955 238.203561 
L 364.117853 238.203561 
L 364.117853 239.030895 
L 336.981955 239.030895 
z
" style="fill:#008000;"/>
   </g>
   <g id="patch_77">
    <path clip-path="url(#p7165086b9e)" d="M 279.640489 238.203561 
L 285.165898 238.203561 
L 285.165898 239.030895 
L 279.640489 239.030895 
z
" style="fill:#00bfbf;"/>
   </g>
   <g id="patch_78">
    <path clip-path="url(#p7165086b9e)" d="M 332.316055 238.203561 
L 337.841464 238.203561 
L 337.841464 239.030895 
L 332.316055 239.030895 
z
" style="fill:#00bfbf;"/>
   </g>
   <g id="patch_79">
    <path clip-path="url(#p7165086b9e)" d="M 284.30639 238.203561 
L 285.165898 238.203561 
L 285.165898 238.839426 
L 284.30639 238.839426 
z
" style="fill:#00bfbf;"/>
   </g>
   <g id="patch_80">
    <path clip-path="url(#p7165086b9e)" d="M 332.316055 238.203561 
L 333.175563 238.203561 
L 333.175563 238.839426 
L 332.316055 238.839426 
z
" style="fill:#00bfbf;"/>
   </g>
   <g id="patch_81">
    <path clip-path="url(#p7165086b9e)" d="M 277.307538 238.839426 
L 285.165898 238.839426 
L 285.165898 239.66676 
L 277.307538 239.66676 
z
" style="fill:#00bfbf;"/>
   </g>
   <g id="patch_82">
    <path clip-path="url(#p7165086b9e)" d="M 332.316055 238.839426 
L 340.174414 238.839426 
L 340.174414 239.66676 
L 332.316055 239.66676 
z
" style="fill:#00bfbf;"/>
   </g>
   <g id="patch_83">
    <path clip-path="url(#p7165086b9e)" d="M 277.307538 238.839426 
L 278.167046 238.839426 
L 278.167046 243.607235 
L 277.307538 243.607235 
z
" style="fill:#00bfbf;"/>
   </g>
   <g id="patch_84">
    <path clip-path="url(#p7165086b9e)" d="M 339.314906 238.839426 
L 340.174414 238.839426 
L 340.174414 243.607235 
L 339.314906 243.607235 
z
" style="fill:#00bfbf;"/>
   </g>
   <g id="patch_85">
    <path clip-path="url(#p7165086b9e)" d="M 278.167046 243.607235 
L 339.314906 243.607235 
L 339.314906 244.079997 
L 278.167046 244.079997 
z
" style="fill:#00bfbf;"/>
   </g>
   <g id="patch_86">
    <path clip-path="url(#p7165086b9e)" d="M 277.307538 243.607235 
L 278.167046 243.607235 
L 278.167046 244.079997 
L 277.307538 244.079997 
z
" style="fill:#00bfbf;"/>
   </g>
   <g id="patch_87">
    <path clip-path="url(#p7165086b9e)" d="M 339.314906 243.607235 
L 340.174414 243.607235 
L 340.174414 244.079997 
L 339.314906 244.079997 
z
" style="fill:#00bfbf;"/>
   </g>
   <g id="patch_88">
    <path clip-path="url(#p7165086b9e)" d="M 263.494016 244.079997 
L 278.167046 244.079997 
L 278.167046 244.907332 
L 263.494016 244.907332 
z
" style="fill:#00bfbf;"/>
   </g>
   <g id="patch_89">
    <path clip-path="url(#p7165086b9e)" d="M 339.314906 244.079997 
L 353.987936 244.079997 
L 353.987936 244.907332 
L 339.314906 244.907332 
z
" style="fill:#00bfbf;"/>
   </g>
   <g id="patch_90">
    <path clip-path="url(#p7165086b9e)" d="M 263.494016 244.079997 
L 264.353524 244.079997 
L 264.353524 254.419311 
L 263.494016 254.419311 
z
" style="fill:#00bfbf;"/>
   </g>
   <g id="patch_91">
    <path clip-path="url(#p7165086b9e)" d="M 353.128428 244.079997 
L 353.987936 244.079997 
L 353.987936 254.419311 
L 353.128428 254.419311 
z
" style="fill:#00bfbf;"/>
   </g>
   <g id="patch_92">
    <path clip-path="url(#p7165086b9e)" d="M 264.353524 254.419311 
L 353.128428 254.419311 
L 353.128428 255.220644 
L 264.353524 255.220644 
z
" style="fill:#00bfbf;"/>
   </g>
   <g id="patch_93">
    <path clip-path="url(#p7165086b9e)" d="M 263.494016 254.419311 
L 264.353524 254.419311 
L 264.353524 255.220644 
L 263.494016 255.220644 
z
" style="fill:#00bfbf;"/>
   </g>
   <g id="patch_94">
    <path clip-path="url(#p7165086b9e)" d="M 353.128428 254.419311 
L 353.987936 254.419311 
L 353.987936 255.220644 
L 353.128428 255.220644 
z
" style="fill:#00bfbf;"/>
   </g>
   <g id="patch_95">
    <path clip-path="url(#p7165086b9e)" d="M 254.100821 255.225371 
L 264.353524 255.225371 
L 264.353524 256.052706 
L 254.100821 256.052706 
z
" style="fill:#00bfbf;"/>
   </g>
   <g id="patch_96">
    <path clip-path="url(#p7165086b9e)" d="M 353.128428 255.225371 
L 363.381132 255.225371 
L 363.381132 256.052706 
L 353.128428 256.052706 
z
" style="fill:#00bfbf;"/>
   </g>
   <g id="patch_97">
    <path clip-path="url(#p7165086b9e)" d="M 254.100821 255.220644 
L 254.960329 255.220644 
L 254.960329 293.041637 
L 254.100821 293.041637 
z
" style="fill:#00bfbf;"/>
   </g>
   <g id="patch_98">
    <path clip-path="url(#p7165086b9e)" d="M 362.521624 255.220644 
L 363.381132 255.220644 
L 363.381132 293.041637 
L 362.521624 293.041637 
z
" style="fill:#00bfbf;"/>
   </g>
   <g id="patch_99">
    <path clip-path="url(#p7165086b9e)" d="M 254.960329 293.041637 
L 362.521624 293.041637 
L 362.521624 297.769261 
L 254.960329 297.769261 
z
" style="fill:#00bfbf;"/>
   </g>
   <g id="patch_100">
    <path clip-path="url(#p7165086b9e)" d="M 254.100821 293.041637 
L 254.960329 293.041637 
L 254.960329 297.769261 
L 254.100821 297.769261 
z
" style="fill:#00bfbf;"/>
   </g>
   <g id="patch_101">
    <path clip-path="url(#p7165086b9e)" d="M 362.521624 293.041637 
L 363.381132 293.041637 
L 363.381132 297.769261 
L 362.521624 297.769261 
z
" style="fill:#00bfbf;"/>
   </g>
   <g id="patch_102">
    <path clip-path="url(#p7165086b9e)" d="M 254.100821 297.769261 
L 254.960329 297.769261 
L 254.960329 331.184108 
L 254.100821 331.184108 
z
" style="fill:#00bfbf;"/>
   </g>
   <g id="patch_103">
    <path clip-path="url(#p7165086b9e)" d="M 362.521624 297.769261 
L 363.381132 297.769261 
L 363.381132 331.184108 
L 362.521624 331.184108 
z
" style="fill:#00bfbf;"/>
   </g>
   <g id="patch_104">
    <path clip-path="url(#p7165086b9e)" d="M 254.100821 331.184108 
L 276.601514 331.184108 
L 276.601514 332.011442 
L 254.100821 332.011442 
z
" style="fill:#00bfbf;"/>
   </g>
   <g id="patch_105">
    <path clip-path="url(#p7165086b9e)" d="M 340.880438 331.184108 
L 363.381132 331.184108 
L 363.381132 332.011442 
L 340.880438 332.011442 
z
" style="fill:#00bfbf;"/>
   </g>
   <g id="patch_106">
    <path clip-path="url(#p7165086b9e)" d="M 276.601514 331.184108 
L 340.880438 331.184108 
L 340.880438 331.753787 
L 276.601514 331.753787 
z
" style="fill:#0000ff;"/>
   </g>
   <g id="patch_107">
    <path clip-path="url(#p7165086b9e)" d="M 275.742006 331.184108 
L 276.601514 331.184108 
L 276.601514 331.753787 
L 275.742006 331.753787 
z
" style="fill:#0000ff;"/>
   </g>
   <g id="patch_108">
    <path clip-path="url(#p7165086b9e)" d="M 340.880438 331.184108 
L 341.739947 331.184108 
L 341.739947 331.753787 
L 340.880438 331.753787 
z
" style="fill:#0000ff;"/>
   </g>
   <g id="patch_109">
    <path clip-path="url(#p7165086b9e)" d="M 341.310193 331.753787 
C 341.310193 340.06515 337.87646 348.044604 331.77089 353.921625 
C 325.66532 359.798646 317.375557 363.103844 308.740976 363.103844 
C 300.106396 363.103844 291.816633 359.798646 285.711063 353.921625 
C 279.605492 348.044604 276.17176 340.06515 276.17176 331.753787 
" style="fill:none;stroke:#0000ff;stroke-linejoin:miter;stroke-width:0.85;"/>
   </g>
   <g id="text_18">
    <!-- \rm{V2OPT5-V1 Filters} -->
    <defs>
     <path d="M 19.40625 47 
L 19.40625 67 
L 15.296875 67 
C 14.296875 53.875 9.90625 47.1875 1.796875 46.59375 
L 1.796875 42.703125 
L 10 42.703125 
L 10 17.265625 
C 10 10.28125 10.203125 7.78125 11.203125 5.484375 
C 12.796875 1.296875 16.796875 -1 22.59375 -1 
C 26.5 -1 29.90625 0.203125 32.203125 2.390625 
C 35.5 5.59375 37.40625 10.875 37.40625 16.375 
C 37.40625 16.96875 37.40625 17.671875 37.296875 18.671875 
L 33.09375 18.671875 
C 32.796875 9.6875 30.203125 5.09375 25.296875 5.09375 
C 23 5.09375 21 6.28125 20.296875 7.984375 
C 19.703125 9.375 19.40625 11.875 19.40625 15.46875 
L 19.40625 42.703125 
L 34.09375 42.703125 
L 34.09375 47 
z
" id="Century_Schoolbook_L_Roman-116"/>
     <path d="M 46.5 23 
C 46.59375 37.8125 38.09375 48.28125 25.90625 48.28125 
C 13.09375 48.28125 3.5 37.25 3.5 22.34375 
C 3.5 8.4375 12.59375 -1 26.09375 -1 
C 35.59375 -1 42.40625 3.6875 46.5 13.1875 
L 43 15.09375 
C 38.90625 7.390625 34.703125 4.390625 28 4.390625 
C 22.90625 4.390625 19.203125 6.59375 16.59375 11 
C 14.796875 14 14 17.5 14.09375 23 
z
M 14.203125 27.296875 
C 14.203125 30.34375 14.59375 32.5 15.59375 35.25 
C 17.703125 41.140625 20.90625 44 25.703125 44 
C 31.796875 44 35.796875 38.78125 35.796875 30.921875 
C 35.796875 28.078125 34.90625 27.296875 31.703125 27.296875 
z
" id="Century_Schoolbook_L_Roman-101"/>
     <path d="M 62.40625 72 
L 2.90625 72 
L 2.90625 67.3125 
L 4.703125 67.3125 
C 12.796875 67.3125 13.703125 66.8125 13.703125 62.609375 
L 13.703125 59.734375 
L 13.703125 12.28125 
L 13.703125 9.375 
C 13.703125 5.1875 12.796875 4.6875 4.703125 4.6875 
L 2.90625 4.6875 
L 2.90625 0 
L 37.203125 0 
L 37.203125 4.6875 
L 33.90625 4.6875 
C 25.796875 4.6875 24.90625 5.1875 24.90625 9.390625 
L 24.90625 12.296875 
L 24.90625 35 
L 26.90625 35 
C 33.09375 35 35.5 34.375 37.59375 32.234375 
C 40.09375 29.578125 41.09375 26.296875 41.296875 20.265625 
L 46 20.265625 
L 46 53 
L 41.296875 53 
C 40.796875 43.46875 36.796875 39.6875 27.296875 39.6875 
L 24.90625 39.6875 
L 24.90625 62.328125 
C 24.90625 66.609375 25.796875 67.3125 31.203125 67.3125 
L 35.796875 67.3125 
C 52.296875 67.3125 56.59375 63.5 59.40625 46.390625 
L 63.796875 46.390625 
z
" id="Century_Schoolbook_L_Roman-70"/>
     <path d="M 63.296875 72 
L 3.40625 72 
L 1.90625 44.265625 
L 6.203125 44.265625 
C 6.90625 49.25 7.796875 53.046875 8.90625 56.234375 
C 11.5 63.515625 16.296875 67.3125 23.09375 67.3125 
C 26.40625 67.3125 27.796875 66.203125 27.796875 63.71875 
L 27.796875 12.28125 
L 27.796875 9.375 
C 27.796875 5.1875 26.90625 4.6875 18.796875 4.6875 
L 16.203125 4.6875 
L 16.203125 0 
L 50.5 0 
L 50.5 4.6875 
L 47.90625 4.6875 
C 39.90625 4.6875 39 5.1875 39 9.375 
L 39 12.28125 
L 39 63.71875 
C 39 66.203125 40.40625 67.3125 43.703125 67.3125 
C 49.796875 67.3125 54.703125 63.90625 57.203125 57.921875 
C 58.703125 54.25 59.703125 49.953125 60.5 44.265625 
L 64.796875 44.265625 
z
" id="Century_Schoolbook_L_Roman-84"/>
     <path d="M 20.59375 46 
L 1.796875 46 
L 1.796875 41.21875 
L 6.90625 41.21875 
C 10.59375 41.21875 11.203125 40.515625 11.203125 36.203125 
L 11.203125 12.296875 
L 11.203125 8.296875 
C 11.203125 4.296875 10.09375 3.59375 3.703125 3.59375 
L 3 3.59375 
L 3 0 
L 28.90625 0 
L 28.90625 3.59375 
L 28.203125 3.59375 
C 21.703125 3.59375 20.59375 4.28125 20.59375 8.21875 
L 20.59375 12.171875 
z
M 15.90625 71.578125 
C 12.703125 71.578125 10.09375 68.984375 10.09375 65.796875 
C 10.09375 62.703125 12.703125 60 15.796875 60 
C 19.09375 60 21.703125 62.59375 21.703125 65.796875 
C 21.703125 68.984375 19.09375 71.578125 15.90625 71.578125 
" id="Century_Schoolbook_L_Roman-105"/>
     <path d="M 39.296875 15.40625 
L 21 61.8125 
C 20.5 63.015625 20.203125 64.21875 20.203125 64.8125 
C 20.203125 66.609375 21.90625 67.3125 26.40625 67.3125 
L 30.40625 67.3125 
L 30.40625 72 
L -0.796875 72 
L -0.796875 67.3125 
L 1.203125 67.3125 
C 5.703125 67.3125 7 66.3125 8.90625 61.703125 
L 34.203125 -1.6875 
L 38.203125 -1.6875 
L 61.203125 57.515625 
C 64.203125 65.3125 66.40625 67.3125 72.09375 67.3125 
L 73.09375 67.3125 
L 73.09375 72 
L 46 72 
L 46 67.3125 
L 47.90625 67.3125 
C 53 67.3125 56 65.3125 56 62.109375 
C 56 60.71875 55.5 58.421875 54.796875 56.53125 
z
" id="Century_Schoolbook_L_Roman-86"/>
     <path d="M 39.296875 74 
C 30.40625 74 22.796875 71.203125 16.703125 65.609375 
C 9 58.546875 4.5 47.765625 4.5 36.40625 
C 4.5 15.15625 19.40625 -1 38.90625 -1 
C 58.5 -1 73.296875 15.15625 73.296875 36.5 
C 73.296875 57.640625 58.5 74 39.296875 74 
M 39.203125 69.296875 
C 45.90625 69.296875 51.5 66.203125 55.09375 60.734375 
C 58.796875 54.84375 60.09375 48.65625 60.09375 36.5 
C 60.09375 24.34375 58.796875 18.25 55.09375 12.265625 
C 51.5 6.6875 46 3.6875 38.90625 3.6875 
C 31.796875 3.6875 26.296875 6.6875 22.703125 12.265625 
C 18.90625 18.34375 17.703125 24.34375 17.703125 36.703125 
C 17.703125 48.65625 19 54.75 22.703125 60.734375 
C 26.40625 66.515625 31.703125 69.296875 39.203125 69.296875 
" id="Century_Schoolbook_L_Roman-79"/>
     <path d="M 19.796875 46 
L 2.09375 46 
L 2.09375 41.21875 
L 6.203125 41.21875 
C 9.90625 41.21875 10.5 40.515625 10.5 36.203125 
L 10.5 12.296875 
L 10.5 8.296875 
C 10.5 4.296875 9.40625 3.59375 2.90625 3.59375 
L 2.5 3.59375 
L 2.5 0 
L 29.203125 0 
L 29.203125 3.59375 
L 27.296875 3.59375 
C 20.90625 3.59375 19.796875 4.296875 19.796875 8.296875 
L 19.796875 12.296875 
L 19.796875 13.296875 
C 19.796875 20.8125 21.203125 28.40625 23.703125 34.109375 
C 26.09375 39.703125 29.5 42.8125 33.703125 43.3125 
C 32.296875 41.703125 31.90625 40.6875 31.90625 38.765625 
C 31.90625 35.546875 34.203125 33.234375 37.40625 33.234375 
C 41 33.234375 43.5 35.9375 43.5 40.015625 
C 43.5 44.8125 40.09375 48 34.796875 48 
C 28.5 48 23 42.921875 19.796875 34.140625 
z
" id="Century_Schoolbook_L_Roman-114"/>
     <path d="M 24.796875 32 
L 36.09375 32 
C 45.09375 32 49.796875 32.703125 53.796875 34.59375 
C 60.90625 38 64.90625 44.359375 64.90625 52.25 
C 64.90625 59.84375 61.40625 65.609375 54.796875 68.90625 
C 50.90625 70.90625 44.703125 72 37.796875 72 
L 2.796875 72 
L 2.796875 67.3125 
L 4.59375 67.3125 
C 12.703125 67.3125 13.59375 66.8125 13.59375 62.609375 
L 13.59375 59.734375 
L 13.59375 12.28125 
L 13.59375 9.375 
C 13.59375 5.1875 12.703125 4.6875 4.59375 4.6875 
L 2.796875 4.6875 
L 2.796875 0 
L 36.40625 0 
L 36.40625 4.6875 
L 33.796875 4.6875 
C 25.703125 4.6875 24.796875 5.1875 24.796875 9.375 
L 24.796875 12.265625 
z
M 24.796875 36.703125 
L 24.796875 62.21875 
C 24.796875 66.8125 25.40625 67.3125 30.90625 67.3125 
L 37.296875 67.3125 
C 47.703125 67.3125 52.59375 62.421875 52.59375 51.859375 
C 52.59375 41.59375 47.5 36.703125 36.90625 36.703125 
z
" id="Century_Schoolbook_L_Roman-80"/>
     <path d="M 32.203125 70.5 
C 28.796875 66.234375 19.59375 63 10.40625 63 
L 10.40625 58.59375 
L 19.203125 58.59375 
C 25 58.59375 25.40625 58.203125 25.40625 52.3125 
L 25.40625 12.28125 
L 25.40625 9.375 
C 25.40625 5.1875 24.5 4.6875 16.5 4.6875 
L 10 4.6875 
L 10 0 
L 49.59375 0 
L 49.59375 4.6875 
L 44.09375 4.6875 
C 38.796875 4.6875 36.59375 5.09375 35.796875 6.09375 
C 35.09375 6.78125 35.09375 6.78125 35.09375 12.3125 
L 35.09375 53.671875 
C 35.09375 58.578125 35.296875 63.375 35.796875 70.5 
z
" id="Century_Schoolbook_L_Roman-49"/>
     <path d="M 39 48 
L 35.5 48 
L 32.59375 44.40625 
C 29 47.203125 25.40625 48.390625 20.40625 48.390625 
C 11.59375 48.390625 5.796875 42.625 5.796875 33.953125 
C 5.796875 30.078125 7.09375 26.78125 9.296875 24.8125 
C 11.59375 22.703125 13.90625 21.71875 19.90625 20.3125 
L 25.203125 19.125 
C 33.09375 17.234375 35.90625 15.234375 35.90625 11.265625 
C 35.90625 6.578125 31.796875 3.296875 25.90625 3.296875 
C 17.5 3.296875 11.5 8.765625 9.09375 18.875 
L 5.09375 18.875 
L 5.09375 0 
L 8.59375 0 
L 12.09375 3.90625 
C 16.203125 0.59375 20.796875 -1 25.796875 -1 
C 35.59375 -1 42.09375 5.078125 42.09375 14.34375 
C 42.09375 18.71875 40.703125 22.09375 37.90625 24.390625 
C 35.5 26.484375 33.5 27.28125 27.40625 28.5625 
L 22.40625 29.671875 
C 16.90625 30.859375 16.90625 30.859375 15.09375 31.859375 
C 12.90625 32.859375 11.59375 34.9375 11.59375 37.140625 
C 11.59375 41.109375 15.40625 44 20.90625 44 
C 24.703125 44 27.796875 42.703125 30.59375 40.015625 
C 32.796875 37.8125 33.90625 35.828125 35.5 31.234375 
L 39 31.234375 
z
" id="Century_Schoolbook_L_Roman-115"/>
     <path d="M 20.40625 73 
L 1.90625 73 
L 1.90625 68.21875 
L 6.796875 68.21875 
C 10.40625 68.21875 11 67.515625 11 63.21875 
L 11 12.28125 
L 11 8.28125 
C 11 4.296875 9.90625 3.59375 3.5 3.59375 
L 2.796875 3.59375 
L 2.796875 0 
L 28.703125 0 
L 28.703125 3.59375 
L 28 3.59375 
C 21.5 3.59375 20.40625 4.296875 20.40625 8.25 
L 20.40625 12.21875 
z
" id="Century_Schoolbook_L_Roman-108"/>
     <path d="M 50.5 21.5625 
L 46.09375 21.5625 
L 45.09375 16.46875 
C 43.796875 10.078125 43 9.375 36.796875 9.375 
L 14.40625 9.375 
C 21.296875 16.5625 23.59375 18.65625 30 23.65625 
C 39.09375 30.65625 43 34.15625 45.296875 37.140625 
C 48.5 41.53125 50.09375 46.03125 50.09375 50.8125 
C 50.09375 62.109375 40.59375 70.296875 27.59375 70.296875 
C 14.90625 70.296875 5.09375 62.109375 5.09375 51.515625 
C 5.09375 45.234375 8.296875 40.9375 13.09375 40.9375 
C 16.796875 40.9375 19.296875 43.4375 19.296875 47.03125 
C 19.296875 49.53125 17.90625 51.828125 15.703125 52.734375 
C 12 54.328125 11.796875 54.421875 11.796875 55.71875 
C 11.796875 57.21875 12.796875 59.515625 14.203125 61.21875 
C 16.703125 64.203125 20.90625 66 25.59375 66 
C 33.796875 66 38.796875 60.90625 38.796875 52.53125 
C 38.796875 45.125 35.296875 38.4375 27 29.65625 
L 21.09375 23.46875 
C 17.59375 19.78125 15 16.96875 13.296875 15.078125 
C 9.703125 10.875 7.90625 8.578125 3.5 2.796875 
L 3.5 0 
L 48.59375 0 
z
" id="Century_Schoolbook_L_Roman-50"/>
     <path d="M 16.40625 59.703125 
C 21.796875 58.40625 24.59375 58 28.5 58 
C 37 58 43.203125 61 46.5 66.484375 
C 47.59375 68.390625 48 69.28125 48 70.078125 
C 48 70.6875 47.703125 70.984375 47.203125 70.984375 
C 46.90625 70.984375 46.40625 70.875 45.90625 70.578125 
C 41 68.484375 38.296875 67.984375 32.59375 67.984375 
C 26.203125 67.984375 22.5 68.484375 12 70.984375 
C 11.59375 62.625 10.703125 51.984375 9.296875 39.65625 
C 7.203125 37.46875 6.5 36.171875 6.5 34.578125 
C 6.5 32.59375 7.796875 31.203125 9.703125 31.203125 
C 12.203125 31.203125 13.796875 33.328125 14.203125 37.359375 
C 17.703125 39.890625 21 41 25 41 
C 33.90625 41 39.296875 34.03125 39.296875 22.5 
C 39.296875 15.734375 37.59375 9.953125 34.59375 6.828125 
C 32.59375 4.703125 28.5 3.296875 24.40625 3.296875 
C 18.40625 3.296875 12.203125 6.421875 12.203125 9.5625 
C 12.203125 10.28125 12.796875 11.078125 14 11.78125 
C 17.09375 13.703125 18 15.03125 18 17.75 
C 18 21.296875 15.296875 24.015625 11.703125 24.015625 
C 7.703125 24.015625 4.5 20.28125 4.5 15.546875 
C 4.5 10.5 7.40625 5.453125 11.90625 2.328125 
C 15.296875 0.109375 19.40625 -1 24.59375 -1 
C 40.296875 -1 50.203125 8.28125 50.203125 23.109375 
C 50.203125 36.828125 41.09375 46 27.59375 46 
C 23.40625 46 20.203125 45.296875 14.703125 43 
z
" id="Century_Schoolbook_L_Roman-53"/>
     <path d="M 4.203125 27.28125 
L 4.203125 19 
L 29.09375 19 
L 29.09375 27.28125 
z
" id="Century_Schoolbook_L_Roman-45"/>
    </defs>
    <g transform="translate(228.779920148 25.7369764749)scale(0.18 -0.18)">
     <use transform="scale(0.996264009963)" xlink:href="#Century_Schoolbook_L_Roman-86"/>
     <use transform="translate(71.9299848469 0.0)scale(0.996264009963)" xlink:href="#Century_Schoolbook_L_Roman-50"/>
     <use transform="translate(127.32166181 0.0)scale(0.996264009963)" xlink:href="#Century_Schoolbook_L_Roman-79"/>
     <use transform="translate(204.830031912 0.0)scale(0.996264009963)" xlink:href="#Century_Schoolbook_L_Roman-80"/>
     <use transform="translate(271.280063045 0.0)scale(0.996264009963)" xlink:href="#Century_Schoolbook_L_Roman-84"/>
     <use transform="translate(337.730094178 0.0)scale(0.996264009963)" xlink:href="#Century_Schoolbook_L_Roman-53"/>
     <use transform="translate(393.121771141 0.0)scale(0.996264009963)" xlink:href="#Century_Schoolbook_L_Roman-45"/>
     <use transform="translate(426.297000871 0.0)scale(0.996264009963)" xlink:href="#Century_Schoolbook_L_Roman-86"/>
     <use transform="translate(498.226985718 0.0)scale(0.996264009963)" xlink:href="#Century_Schoolbook_L_Roman-49"/>
     <use transform="translate(581.313832284 0.0)scale(0.996264009963)" xlink:href="#Century_Schoolbook_L_Roman-70"/>
     <use transform="translate(646.767766627 0.0)scale(0.996264009963)" xlink:href="#Century_Schoolbook_L_Roman-105"/>
     <use transform="translate(678.149079623 0.0)scale(0.996264009963)" xlink:href="#Century_Schoolbook_L_Roman-108"/>
     <use transform="translate(709.530392619 0.0)scale(0.996264009963)" xlink:href="#Century_Schoolbook_L_Roman-116"/>
     <use transform="translate(748.284098814 0.0)scale(0.996264009963)" xlink:href="#Century_Schoolbook_L_Roman-101"/>
     <use transform="translate(798.097299312 0.0)scale(0.996264009963)" xlink:href="#Century_Schoolbook_L_Roman-114"/>
     <use transform="translate(842.33086801 0.0)scale(0.996264009963)" xlink:href="#Century_Schoolbook_L_Roman-115"/>
    </g>
   </g>
   <g id="line2d_46">
    <path clip-path="url(#p7165086b9e)" d="M 285.692174 77.733418 
L 339.340695 341.214517 
" style="fill:none;opacity:0.2;stroke:#000000;stroke-linecap:square;stroke-width:0.2;"/>
   </g>
   <g id="line2d_47">
    <path clip-path="url(#p7165086b9e)" d="M 311.155292 72.864315 
L 297.959908 360.8977 
" style="fill:none;opacity:0.2;stroke:#000000;stroke-linecap:square;stroke-width:0.2;"/>
   </g>
   <g id="line2d_48">
    <path clip-path="url(#p7165086b9e)" d="M 327.191098 75.909328 
L 329.085704 355.702896 
" style="fill:none;opacity:0.2;stroke:#000000;stroke-linecap:square;stroke-width:0.2;"/>
   </g>
   <g id="line2d_49">
    <path clip-path="url(#p7165086b9e)" d="M 276.280557 83.128747 
L 292.55571 358.480971 
" style="fill:none;opacity:0.2;stroke:#000000;stroke-linecap:square;stroke-width:0.2;"/>
   </g>
   <g id="line2d_50">
    <path clip-path="url(#p7165086b9e)" d="M 360.331405 108.32611 
L 277.021095 336.736334 
" style="fill:none;opacity:0.2;stroke:#000000;stroke-linecap:square;stroke-width:0.2;"/>
   </g>
   <g id="line2d_51">
    <path clip-path="url(#p7165086b9e)" d="M 275.279155 83.860475 
L 299.254796 361.311925 
" style="fill:none;opacity:0.2;stroke:#000000;stroke-linecap:square;stroke-width:0.2;"/>
   </g>
   <g id="line2d_52">
    <path clip-path="url(#p7165086b9e)" d="M 299.861803 73.513512 
L 310.684695 362.63355 
" style="fill:none;opacity:0.2;stroke:#000000;stroke-linecap:square;stroke-width:0.2;"/>
   </g>
   <g id="line2d_53">
    <path clip-path="url(#p7165086b9e)" d="M 291.822118 75.403812 
L 329.626256 355.267829 
" style="fill:none;opacity:0.2;stroke:#000000;stroke-linecap:square;stroke-width:0.2;"/>
   </g>
   <g id="line2d_54">
    <path clip-path="url(#p7165086b9e)" d="M 285.02841 78.036748 
L 328.411411 356.219264 
" style="fill:none;opacity:0.2;stroke:#000000;stroke-linecap:square;stroke-width:0.2;"/>
   </g>
   <g id="line2d_55">
    <path clip-path="url(#p7165086b9e)" d="M 353.004431 94.654861 
L 300.779753 361.726031 
" style="fill:none;opacity:0.2;stroke:#000000;stroke-linecap:square;stroke-width:0.2;"/>
   </g>
   <g id="line2d_56">
    <path clip-path="url(#p7165086b9e)" d="M 310.807018 72.850528 
L 280.851972 347.129226 
" style="fill:none;opacity:0.2;stroke:#000000;stroke-linecap:square;stroke-width:0.2;"/>
   </g>
   <g id="line2d_57">
    <path clip-path="url(#p7165086b9e)" d="M 340.945886 82.947583 
L 321.917513 359.970699 
" style="fill:none;opacity:0.2;stroke:#000000;stroke-linecap:square;stroke-width:0.2;"/>
   </g>
   <g id="line2d_58">
    <path clip-path="url(#p7165086b9e)" d="M 306.506066 72.856944 
L 335.498145 348.891779 
" style="fill:none;opacity:0.2;stroke:#000000;stroke-linecap:square;stroke-width:0.2;"/>
   </g>
   <g id="line2d_59">
    <path clip-path="url(#p7165086b9e)" d="M 326.875507 75.801128 
L 283.763247 351.221885 
" style="fill:none;opacity:0.2;stroke:#000000;stroke-linecap:square;stroke-width:0.2;"/>
   </g>
   <g id="line2d_60">
    <path clip-path="url(#p7165086b9e)" d="M 290.357859 75.88618 
L 311.322326 362.590233 
" style="fill:none;opacity:0.2;stroke:#000000;stroke-linecap:square;stroke-width:0.2;"/>
   </g>
   <g id="line2d_61">
    <path clip-path="url(#p7165086b9e)" d="M 347.965031 88.843649 
L 291.650463 357.953645 
" style="fill:none;opacity:0.2;stroke:#000000;stroke-linecap:square;stroke-width:0.2;"/>
   </g>
   <g id="line2d_62">
    <path clip-path="url(#p7165086b9e)" d="M 268.963699 89.403493 
L 305.782336 362.558815 
" style="fill:none;opacity:0.2;stroke:#000000;stroke-linecap:square;stroke-width:0.2;"/>
   </g>
   <g id="line2d_63">
    <path clip-path="url(#p7165086b9e)" d="M 352.338142 93.782023 
L 295.696753 360.027601 
" style="fill:none;opacity:0.2;stroke:#000000;stroke-linecap:square;stroke-width:0.2;"/>
   </g>
   <g id="line2d_64">
    <path clip-path="url(#p7165086b9e)" d="M 358.037583 102.880282 
L 280.943131 347.281425 
" style="fill:none;opacity:0.2;stroke:#000000;stroke-linecap:square;stroke-width:0.2;"/>
   </g>
   <g id="line2d_65">
    <path clip-path="url(#p7165086b9e)" d="M 362.930169 119.540193 
L 280.511429 346.542205 
" style="fill:none;opacity:0.2;stroke:#000000;stroke-linecap:square;stroke-width:0.2;"/>
   </g>
   <g id="line2d_66">
    <path clip-path="url(#p7165086b9e)" d="M 320.321761 74.010472 
L 278.34781 341.812521 
" style="fill:none;opacity:0.2;stroke:#000000;stroke-linecap:square;stroke-width:0.2;"/>
   </g>
   <g id="line2d_67">
    <path clip-path="url(#p7165086b9e)" d="M 277.80599 82.079198 
L 310.485414 362.644574 
" style="fill:none;opacity:0.2;stroke:#000000;stroke-linecap:square;stroke-width:0.2;"/>
   </g>
   <g id="line2d_68">
    <path clip-path="url(#p7165086b9e)" d="M 286.405836 77.418942 
L 318.579714 361.204948 
" style="fill:none;opacity:0.2;stroke:#000000;stroke-linecap:square;stroke-width:0.2;"/>
   </g>
   <g id="line2d_69">
    <path clip-path="url(#p7165086b9e)" d="M 256.607297 109.94193 
L 333.741944 351.194227 
" style="fill:none;opacity:0.2;stroke:#000000;stroke-linecap:square;stroke-width:0.2;"/>
   </g>
   <g id="line2d_70">
    <path clip-path="url(#p7165086b9e)" d="M 355.900419 98.961349 
L 303.698749 362.307084 
" style="fill:none;opacity:0.2;stroke:#000000;stroke-linecap:square;stroke-width:0.2;"/>
   </g>
   <g id="line2d_71">
    <path clip-path="url(#p7165086b9e)" d="M 274.860647 84.176833 
L 325.843713 357.946253 
" style="fill:none;opacity:0.2;stroke:#000000;stroke-linecap:square;stroke-width:0.2;"/>
   </g>
   <g id="line2d_72">
    <path clip-path="url(#p7165086b9e)" d="M 318.745305 73.70397 
L 306.869313 362.637674 
" style="fill:none;opacity:0.2;stroke:#000000;stroke-linecap:square;stroke-width:0.2;"/>
   </g>
   <g id="line2d_73">
    <path clip-path="url(#p7165086b9e)" d="M 335.97414 79.829192 
L 302.296938 362.061959 
" style="fill:none;opacity:0.2;stroke:#000000;stroke-linecap:square;stroke-width:0.2;"/>
   </g>
   <g id="line2d_74">
    <path clip-path="url(#p7165086b9e)" d="M 255.972871 112.102973 
L 340.442662 336.842494 
" style="fill:none;opacity:0.2;stroke:#000000;stroke-linecap:square;stroke-width:0.2;"/>
   </g>
   <g id="line2d_75">
    <path clip-path="url(#p7165086b9e)" d="M 313.118531 72.982277 
L 280.779904 347.007469 
" style="fill:none;opacity:0.2;stroke:#000000;stroke-linecap:square;stroke-width:0.2;"/>
   </g>
   <g id="line2d_76">
    <path clip-path="url(#p7165086b9e)" d="M 343.541877 84.895563 
L 303.411116 362.261815 
" style="fill:none;opacity:0.2;stroke:#000000;stroke-linecap:square;stroke-width:0.2;"/>
   </g>
   <g id="line2d_77">
    <path clip-path="url(#p7165086b9e)" d="M 294.934323 74.523556 
L 321.949667 359.956766 
" style="fill:none;opacity:0.2;stroke:#000000;stroke-linecap:square;stroke-width:0.2;"/>
   </g>
   <g id="line2d_78">
    <path clip-path="url(#p7165086b9e)" d="M 271.811544 86.68631 
L 323.762984 359.102966 
" style="fill:none;opacity:0.2;stroke:#000000;stroke-linecap:square;stroke-width:0.2;"/>
   </g>
   <g id="line2d_79">
    <path clip-path="url(#p7165086b9e)" d="M 259.078007 103.64276 
L 331.639227 353.46208 
" style="fill:none;opacity:0.2;stroke:#000000;stroke-linecap:square;stroke-width:0.2;"/>
   </g>
   <g id="line2d_80">
    <path clip-path="url(#p7165086b9e)" d="M 350.800508 91.901568 
L 314.95494 362.106441 
" style="fill:none;opacity:0.2;stroke:#000000;stroke-linecap:square;stroke-width:0.2;"/>
   </g>
   <g id="line2d_81">
    <path clip-path="url(#p7165086b9e)" d="M 305.724751 72.893207 
L 287.521594 354.989026 
" style="fill:none;opacity:0.2;stroke:#000000;stroke-linecap:square;stroke-width:0.2;"/>
   </g>
   <g id="line2d_82">
    <path clip-path="url(#p7165086b9e)" d="M 296.484583 74.156172 
L 291.797961 358.042256 
" style="fill:none;opacity:0.2;stroke:#000000;stroke-linecap:square;stroke-width:0.2;"/>
   </g>
   <g id="line2d_83">
    <path clip-path="url(#p7165086b9e)" d="M 316.076585 73.29005 
L 298.801841 361.173697 
" style="fill:none;opacity:0.2;stroke:#000000;stroke-linecap:square;stroke-width:0.2;"/>
   </g>
   <g id="line2d_84">
    <path clip-path="url(#p7165086b9e)" d="M 327.661526 76.074536 
L 332.725723 352.346357 
" style="fill:none;opacity:0.2;stroke:#000000;stroke-linecap:square;stroke-width:0.2;"/>
   </g>
   <g id="line2d_85">
    <path clip-path="url(#p7165086b9e)" d="M 276.86698 82.716214 
L 340.260045 337.802919 
" style="fill:none;opacity:0.2;stroke:#000000;stroke-linecap:square;stroke-width:0.2;"/>
   </g>
   <g id="line2d_86">
    <path clip-path="url(#p7165086b9e)" d="M 328.461035 76.366206 
L 312.50122 362.477712 
" style="fill:none;opacity:0.2;stroke:#000000;stroke-linecap:square;stroke-width:0.2;"/>
   </g>
   <g id="line2d_87">
    <path clip-path="url(#p7165086b9e)" d="M 350.240723 91.258735 
L 312.29607 362.500332 
" style="fill:none;opacity:0.2;stroke:#000000;stroke-linecap:square;stroke-width:0.2;"/>
   </g>
   <g id="line2d_88">
    <path clip-path="url(#p7165086b9e)" d="M 324.135925 74.948587 
L 290.120948 356.969364 
" style="fill:none;opacity:0.2;stroke:#000000;stroke-linecap:square;stroke-width:0.2;"/>
   </g>
   <g id="line2d_89">
    <path clip-path="url(#p7165086b9e)" d="M 291.346763 75.555516 
L 308.149287 362.684934 
" style="fill:none;opacity:0.2;stroke:#000000;stroke-linecap:square;stroke-width:0.2;"/>
   </g>
   <g id="line2d_90">
    <path clip-path="url(#p7165086b9e)" d="M 287.666946 76.892058 
L 332.555634 352.528454 
" style="fill:none;opacity:0.2;stroke:#000000;stroke-linecap:square;stroke-width:0.2;"/>
   </g>
   <g id="line2d_91">
    <path clip-path="url(#p7165086b9e)" d="M 358.957226 104.859626 
L 290.346743 357.122449 
" style="fill:none;opacity:0.2;stroke:#000000;stroke-linecap:square;stroke-width:0.2;"/>
   </g>
   <g id="line2d_92">
    <path clip-path="url(#p7165086b9e)" d="M 344.840815 85.965968 
L 280.730594 346.923415 
" style="fill:none;opacity:0.2;stroke:#000000;stroke-linecap:square;stroke-width:0.2;"/>
   </g>
   <g id="line2d_93">
    <path clip-path="url(#p7165086b9e)" d="M 341.969044 83.686521 
L 298.440621 361.058348 
" style="fill:none;opacity:0.2;stroke:#000000;stroke-linecap:square;stroke-width:0.2;"/>
   </g>
   <g id="line2d_94">
    <path clip-path="url(#p7165086b9e)" d="M 301.750419 73.246029 
L 284.591512 352.167211 
" style="fill:none;opacity:0.2;stroke:#000000;stroke-linecap:square;stroke-width:0.2;"/>
   </g>
   <g id="line2d_95">
    <path clip-path="url(#p7165086b9e)" d="M 350.190571 91.20215 
L 290.740371 357.382727 
" style="fill:none;opacity:0.2;stroke:#000000;stroke-linecap:square;stroke-width:0.2;"/>
   </g>
   <g id="line2d_96">
    <path clip-path="url(#p7165086b9e)" d="M 350.531728 91.590306 
L 281.213246 347.721064 
" style="fill:none;opacity:0.2;stroke:#000000;stroke-linecap:square;stroke-width:0.2;"/>
   </g>
   <g id="line2d_97">
    <path clip-path="url(#p7165086b9e)" d="M 357.935628 102.673643 
L 291.404165 357.80328 
" style="fill:none;opacity:0.2;stroke:#000000;stroke-linecap:square;stroke-width:0.2;"/>
   </g>
   <g id="line2d_98">
    <path clip-path="url(#p7165086b9e)" d="M 331.23326 77.487162 
L 307.297319 362.658952 
" style="fill:none;opacity:0.2;stroke:#000000;stroke-linecap:square;stroke-width:0.2;"/>
   </g>
   <g id="line2d_99">
    <path clip-path="url(#p7165086b9e)" d="M 359.679196 106.588853 
L 283.505601 350.911554 
" style="fill:none;opacity:0.2;stroke:#000000;stroke-linecap:square;stroke-width:0.2;"/>
   </g>
   <g id="line2d_100">
    <path clip-path="url(#p7165086b9e)" d="M 266.417245 92.212351 
L 314.905343 362.11581 
" style="fill:none;opacity:0.2;stroke:#000000;stroke-linecap:square;stroke-width:0.2;"/>
   </g>
   <g id="line2d_101">
    <path clip-path="url(#p7165086b9e)" d="M 319.602867 73.86492 
L 278.718319 342.795447 
" style="fill:none;opacity:0.2;stroke:#000000;stroke-linecap:square;stroke-width:0.2;"/>
   </g>
   <g id="line2d_102">
    <path clip-path="url(#p7165086b9e)" d="M 279.823292 80.803535 
L 320.732439 360.456207 
" style="fill:none;opacity:0.2;stroke:#000000;stroke-linecap:square;stroke-width:0.2;"/>
   </g>
   <g id="line2d_103">
    <path clip-path="url(#p7165086b9e)" d="M 287.653115 76.897641 
L 300.300877 361.604385 
" style="fill:none;opacity:0.2;stroke:#000000;stroke-linecap:square;stroke-width:0.2;"/>
   </g>
   <g id="line2d_104">
    <path clip-path="url(#p7165086b9e)" d="M 351.016496 92.155276 
L 281.149064 347.618091 
" style="fill:none;opacity:0.2;stroke:#000000;stroke-linecap:square;stroke-width:0.2;"/>
   </g>
   <g id="line2d_105">
    <path clip-path="url(#p7165086b9e)" d="M 332.916749 78.254726 
L 298.775821 361.165541 
" style="fill:none;opacity:0.2;stroke:#000000;stroke-linecap:square;stroke-width:0.2;"/>
   </g>
   <g id="line2d_106">
    <path clip-path="url(#p7165086b9e)" d="M 260.856018 100.204024 
L 336.630052 347.129106 
" style="fill:none;opacity:0.2;stroke:#000000;stroke-linecap:square;stroke-width:0.2;"/>
   </g>
   <g id="line2d_107">
    <path clip-path="url(#p7165086b9e)" d="M 320.895707 74.133693 
L 326.162005 357.75117 
" style="fill:none;opacity:0.2;stroke:#000000;stroke-linecap:square;stroke-width:0.2;"/>
   </g>
   <g id="line2d_108">
    <path clip-path="url(#p7165086b9e)" d="M 316.712945 73.376907 
L 319.235371 360.99449 
" style="fill:none;opacity:0.2;stroke:#000000;stroke-linecap:square;stroke-width:0.2;"/>
   </g>
   <g id="line2d_109">
    <path clip-path="url(#p7165086b9e)" d="M 303.679683 73.039467 
L 340.326319 337.473669 
" style="fill:none;opacity:0.2;stroke:#000000;stroke-linecap:square;stroke-width:0.2;"/>
   </g>
   <g id="line2d_110">
    <path clip-path="url(#p7165086b9e)" d="M 254.465181 120.354811 
L 334.560281 350.17654 
" style="fill:none;opacity:0.2;stroke:#000000;stroke-linecap:square;stroke-width:0.2;"/>
   </g>
   <g id="line2d_111">
    <path clip-path="url(#p7165086b9e)" d="M 264.738697 94.308209 
L 336.446389 347.433741 
" style="fill:none;opacity:0.2;stroke:#000000;stroke-linecap:square;stroke-width:0.2;"/>
   </g>
   <g id="line2d_112">
    <path clip-path="url(#p7165086b9e)" d="M 298.178098 73.80724 
L 328.737863 355.972817 
" style="fill:none;opacity:0.2;stroke:#000000;stroke-linecap:square;stroke-width:0.2;"/>
   </g>
   <g id="line2d_113">
    <path clip-path="url(#p7165086b9e)" d="M 300.142905 73.469572 
L 287.145399 354.665636 
" style="fill:none;opacity:0.2;stroke:#000000;stroke-linecap:square;stroke-width:0.2;"/>
   </g>
   <g id="line2d_114">
    <path clip-path="url(#p7165086b9e)" d="M 313.758928 73.035594 
L 336.410247 347.492759 
" style="fill:none;opacity:0.2;stroke:#000000;stroke-linecap:square;stroke-width:0.2;"/>
   </g>
   <g id="line2d_115">
    <path clip-path="url(#p7165086b9e)" d="M 360.106097 107.704018 
L 282.724396 349.917574 
" style="fill:none;opacity:0.2;stroke:#000000;stroke-linecap:square;stroke-width:0.2;"/>
   </g>
   <g id="line2d_116">
    <path clip-path="url(#p7165086b9e)" d="M 342.117707 83.796927 
L 306.254266 362.597438 
" style="fill:none;opacity:0.2;stroke:#000000;stroke-linecap:square;stroke-width:0.2;"/>
   </g>
   <g id="line2d_117">
    <path clip-path="url(#p7165086b9e)" d="M 285.993681 77.599099 
L 317.859662 361.418891 
" style="fill:none;opacity:0.2;stroke:#000000;stroke-linecap:square;stroke-width:0.2;"/>
   </g>
   <g id="line2d_118">
    <path clip-path="url(#p7165086b9e)" d="M 314.223197 73.078831 
L 289.259992 356.359313 
" style="fill:none;opacity:0.2;stroke:#000000;stroke-linecap:square;stroke-width:0.2;"/>
   </g>
   <g id="line2d_119">
    <path clip-path="url(#p7165086b9e)" d="M 314.403262 73.09664 
L 294.947549 359.696208 
" style="fill:none;opacity:0.2;stroke:#000000;stroke-linecap:square;stroke-width:0.2;"/>
   </g>
   <g id="line2d_120">
    <path clip-path="url(#p7165086b9e)" d="M 258.716947 104.427273 
L 334.145148 350.703727 
" style="fill:none;opacity:0.2;stroke:#000000;stroke-linecap:square;stroke-width:0.2;"/>
   </g>
   <g id="line2d_121">
    <path clip-path="url(#p7165086b9e)" d="M 264.043903 95.243868 
L 314.104339 362.256374 
" style="fill:none;opacity:0.2;stroke:#000000;stroke-linecap:square;stroke-width:0.2;"/>
   </g>
   <g id="line2d_122">
    <path clip-path="url(#p7165086b9e)" d="M 259.672246 102.421586 
L 310.999058 362.613727 
" style="fill:none;opacity:0.2;stroke:#000000;stroke-linecap:square;stroke-width:0.2;"/>
   </g>
   <g id="line2d_123">
    <path clip-path="url(#p7165086b9e)" d="M 345.674483 86.689921 
L 277.404628 338.626428 
" style="fill:none;opacity:0.2;stroke:#000000;stroke-linecap:square;stroke-width:0.2;"/>
   </g>
   <g id="line2d_124">
    <path clip-path="url(#p7165086b9e)" d="M 278.870642 81.390628 
L 314.361263 362.213485 
" style="fill:none;opacity:0.2;stroke:#000000;stroke-linecap:square;stroke-width:0.2;"/>
   </g>
   <g id="line2d_125">
    <path clip-path="url(#p7165086b9e)" d="M 267.940864 90.483714 
L 304.583551 362.430257 
" style="fill:none;opacity:0.2;stroke:#000000;stroke-linecap:square;stroke-width:0.2;"/>
   </g>
   <g id="line2d_126">
    <path clip-path="url(#p7165086b9e)" d="M 352.448738 93.924314 
L 285.4466 353.068012 
" style="fill:none;opacity:0.2;stroke:#000000;stroke-linecap:square;stroke-width:0.2;"/>
   </g>
   <g id="line2d_127">
    <path clip-path="url(#p7165086b9e)" d="M 294.160963 74.724288 
L 285.26822 352.885912 
" style="fill:none;opacity:0.2;stroke:#000000;stroke-linecap:square;stroke-width:0.2;"/>
   </g>
   <g id="line2d_128">
    <path clip-path="url(#p7165086b9e)" d="M 285.286401 77.917596 
L 293.553418 359.018118 
" style="fill:none;opacity:0.2;stroke:#000000;stroke-linecap:square;stroke-width:0.2;"/>
   </g>
   <g id="line2d_129">
    <path clip-path="url(#p7165086b9e)" d="M 320.008215 73.945792 
L 290.729833 357.375866 
" style="fill:none;opacity:0.2;stroke:#000000;stroke-linecap:square;stroke-width:0.2;"/>
   </g>
   <g id="line2d_130">
    <path clip-path="url(#p7165086b9e)" d="M 315.308538 73.195003 
L 322.658742 359.639023 
" style="fill:none;opacity:0.2;stroke:#000000;stroke-linecap:square;stroke-width:0.2;"/>
   </g>
   <g id="line2d_131">
    <path clip-path="url(#p7165086b9e)" d="M 262.044565 98.207454 
L 316.74438 361.715621 
" style="fill:none;opacity:0.2;stroke:#000000;stroke-linecap:square;stroke-width:0.2;"/>
   </g>
   <g id="line2d_132">
    <path clip-path="url(#p7165086b9e)" d="M 361.538796 112.213642 
L 298.348208 361.028101 
" style="fill:none;opacity:0.2;stroke:#000000;stroke-linecap:square;stroke-width:0.2;"/>
   </g>
   <g id="line2d_133">
    <path clip-path="url(#p7165086b9e)" d="M 352.202464 93.608823 
L 302.315053 362.065522 
" style="fill:none;opacity:0.2;stroke:#000000;stroke-linecap:square;stroke-width:0.2;"/>
   </g>
   <g id="line2d_134">
    <path clip-path="url(#p7165086b9e)" d="M 296.948405 74.055212 
L 319.751985 360.817939 
" style="fill:none;opacity:0.2;stroke:#000000;stroke-linecap:square;stroke-width:0.2;"/>
   </g>
   <g id="line2d_135">
    <path clip-path="url(#p7165086b9e)" d="M 340.697297 82.773433 
L 284.555647 352.127831 
" style="fill:none;opacity:0.2;stroke:#000000;stroke-linecap:square;stroke-width:0.2;"/>
   </g>
   <g id="line2d_136">
    <path clip-path="url(#p7165086b9e)" d="M 290.889216 75.705962 
L 324.402108 358.768744 
" style="fill:none;opacity:0.2;stroke:#000000;stroke-linecap:square;stroke-width:0.2;"/>
   </g>
   <g id="line2d_137">
    <path clip-path="url(#p7165086b9e)" d="M 309.444329 72.817199 
L 283.734683 351.18788 
" style="fill:none;opacity:0.2;stroke:#000000;stroke-linecap:square;stroke-width:0.2;"/>
   </g>
   <g id="line2d_138">
    <path clip-path="url(#p7165086b9e)" d="M 319.780645 73.900009 
L 316.871388 361.683921 
" style="fill:none;opacity:0.2;stroke:#000000;stroke-linecap:square;stroke-width:0.2;"/>
   </g>
   <g id="line2d_139">
    <path clip-path="url(#p7165086b9e)" d="M 319.838229 73.911501 
L 337.818021 344.933243 
" style="fill:none;opacity:0.2;stroke:#000000;stroke-linecap:square;stroke-width:0.2;"/>
   </g>
   <g id="line2d_140">
    <path clip-path="url(#p7165086b9e)" d="M 301.15415 73.323459 
L 295.622764 359.995867 
" style="fill:none;opacity:0.2;stroke:#000000;stroke-linecap:square;stroke-width:0.2;"/>
   </g>
   <g id="line2d_141">
    <path clip-path="url(#p7165086b9e)" d="M 346.786684 87.704107 
L 313.234367 362.386334 
" style="fill:none;opacity:0.2;stroke:#000000;stroke-linecap:square;stroke-width:0.2;"/>
   </g>
   <g id="line2d_142">
    <path clip-path="url(#p7165086b9e)" d="M 332.570336 78.091217 
L 278.297611 341.670871 
" style="fill:none;opacity:0.2;stroke:#000000;stroke-linecap:square;stroke-width:0.2;"/>
   </g>
   <g id="line2d_143">
    <path clip-path="url(#p7165086b9e)" d="M 305.427592 72.90984 
L 278.004872 340.795614 
" style="fill:none;opacity:0.2;stroke:#000000;stroke-linecap:square;stroke-width:0.2;"/>
   </g>
   <g id="line2d_144">
    <path clip-path="url(#p7165086b9e)" d="M 256.932893 108.952281 
L 336.253416 347.745463 
" style="fill:none;opacity:0.2;stroke:#000000;stroke-linecap:square;stroke-width:0.2;"/>
   </g>
   <g id="line2d_145">
    <path clip-path="url(#p7165086b9e)" d="M 284.308335 78.377867 
L 304.776825 362.453953 
" style="fill:none;opacity:0.2;stroke:#000000;stroke-linecap:square;stroke-width:0.2;"/>
   </g>
   <g id="line2d_146">
    <path clip-path="url(#p7165086b9e)" d="M 355.727071 98.675732 
L 281.28223 347.830741 
" style="fill:none;opacity:0.2;stroke:#000000;stroke-linecap:square;stroke-width:0.2;"/>
   </g>
   <g id="line2d_147">
    <path clip-path="url(#p7165086b9e)" d="M 310.482923 72.839626 
L 313.241357 362.385384 
" style="fill:none;opacity:0.2;stroke:#000000;stroke-linecap:square;stroke-width:0.2;"/>
   </g>
   <g id="line2d_148">
    <path clip-path="url(#p7165086b9e)" d="M 268.635671 89.743378 
L 323.361575 359.303782 
" style="fill:none;opacity:0.2;stroke:#000000;stroke-linecap:square;stroke-width:0.2;"/>
   </g>
   <g id="line2d_149">
    <path clip-path="url(#p7165086b9e)" d="M 262.863282 96.940579 
L 322.101509 359.89042 
" style="fill:none;opacity:0.2;stroke:#000000;stroke-linecap:square;stroke-width:0.2;"/>
   </g>
   <g id="line2d_150">
    <path clip-path="url(#p7165086b9e)" d="M 311.230102 72.867556 
L 337.339842 345.86943 
" style="fill:none;opacity:0.2;stroke:#000000;stroke-linecap:square;stroke-width:0.2;"/>
   </g>
   <g id="line2d_151">
    <path clip-path="url(#p7165086b9e)" d="M 321.575797 74.287833 
L 315.467524 362.005032 
" style="fill:none;opacity:0.2;stroke:#000000;stroke-linecap:square;stroke-width:0.2;"/>
   </g>
   <g id="line2d_152">
    <path clip-path="url(#p7165086b9e)" d="M 302.422263 73.166494 
L 329.77931 355.141069 
" style="fill:none;opacity:0.2;stroke:#000000;stroke-linecap:square;stroke-width:0.2;"/>
   </g>
   <g id="line2d_153">
    <path clip-path="url(#p7165086b9e)" d="M 344.792705 85.925095 
L 305.823378 362.562442 
" style="fill:none;opacity:0.2;stroke:#000000;stroke-linecap:square;stroke-width:0.2;"/>
   </g>
   <g id="line2d_154">
    <path clip-path="url(#p7165086b9e)" d="M 260.229274 101.345745 
L 338.984043 342.223312 
" style="fill:none;opacity:0.2;stroke:#000000;stroke-linecap:square;stroke-width:0.2;"/>
   </g>
   <g id="line2d_155">
    <path clip-path="url(#p7165086b9e)" d="M 363.067613 120.9037 
L 276.604355 332.165108 
" style="fill:none;opacity:0.2;stroke:#000000;stroke-linecap:square;stroke-width:0.2;"/>
   </g>
   <g id="line2d_156">
    <path clip-path="url(#p7165086b9e)" d="M 319.636586 73.87153 
L 324.270069 358.839275 
" style="fill:none;opacity:0.2;stroke:#000000;stroke-linecap:square;stroke-width:0.2;"/>
   </g>
   <g id="line2d_157">
    <path clip-path="url(#p7165086b9e)" d="M 301.368163 73.294926 
L 330.223805 354.763634 
" style="fill:none;opacity:0.2;stroke:#000000;stroke-linecap:square;stroke-width:0.2;"/>
   </g>
   <g id="line2d_158">
    <path clip-path="url(#p7165086b9e)" d="M 273.758965 85.040771 
L 315.037493 362.090674 
" style="fill:none;opacity:0.2;stroke:#000000;stroke-linecap:square;stroke-width:0.2;"/>
   </g>
   <g id="line2d_159">
    <path clip-path="url(#p7165086b9e)" d="M 260.841181 100.230283 
L 340.600002 335.831657 
" style="fill:none;opacity:0.2;stroke:#000000;stroke-linecap:square;stroke-width:0.2;"/>
   </g>
   <g id="legend_1">
    <g id="patch_110">
     <path d="M 447.2896 161.387534 
L 547.314709 161.387534 
L 547.314709 37.736976 
L 447.2896 37.736976 
z
" style="fill:#ffffff;stroke:#000000;stroke-linejoin:miter;"/>
    </g>
    <g id="patch_111">
     <path d="M 452.8896 53.274625 
L 480.8896 53.274625 
L 480.8896 43.474625 
L 452.8896 43.474625 
z
" style="stroke:#000000;stroke-linejoin:miter;"/>
    </g>
    <g id="text_19">
     <!-- \rm{300.0 K} -->
     <defs>
      <path d="M 34.59375 37.359375 
C 36 37.859375 36.203125 37.859375 36.90625 38.15625 
C 43.90625 41.0625 47.90625 46.671875 47.90625 53.765625 
C 47.90625 64.1875 39.90625 71 27.5 71 
C 15.796875 71 6.90625 63.96875 6.90625 54.71875 
C 6.90625 50.546875 9.703125 47.59375 13.5 47.59375 
C 17 47.59375 19.40625 50.046875 19.40625 53.71875 
C 19.40625 55.875 18.59375 57.296875 16.296875 58.9375 
C 15.296875 59.640625 15 60.15625 15 60.78125 
C 15 63.640625 20.90625 66.703125 26.5 66.703125 
C 33.703125 66.703125 37.5 62.125 37.5 53.46875 
C 37.5 43.984375 33.703125 39 26.5 39 
C 25.59375 39 24 39 22.5 39 
C 21.703125 39 20.90625 39 20.296875 39 
C 18.203125 39 17.09375 38.125 17.09375 36.40625 
C 17.09375 34.78125 18.203125 34.015625 20.203125 34.015625 
C 20.5 34.015625 21.296875 34.015625 22.59375 34.015625 
C 26.40625 34.015625 26.5 34.015625 27.296875 34.015625 
C 34.703125 34.015625 38.703125 28.828125 38.703125 19.140625 
C 38.703125 9.0625 33.59375 3.296875 24.703125 3.296875 
C 18.40625 3.296875 11.59375 6.640625 11.59375 9.6875 
C 11.59375 10.59375 11.796875 10.765625 13.796875 11.875 
C 16.59375 13.53125 17.703125 15.21875 17.703125 17.65625 
C 17.703125 21.203125 15 23.875 11.296875 23.875 
C 7.09375 23.875 4.203125 20.328125 4.203125 15.1875 
C 4.203125 5.609375 13.09375 -1 25.90625 -1 
C 40.296875 -1 49.796875 7.015625 49.796875 19.328125 
C 49.796875 28.734375 44.90625 34.4375 34.59375 37.359375 
" id="Century_Schoolbook_L_Roman-51"/>
      <path d="M 28.40625 71 
C 14.40625 71 4.203125 55.6875 4.203125 34.75 
C 4.203125 14.125 14.09375 -1 27.59375 -1 
C 41.59375 -1 51.40625 13.625 51.40625 34.4375 
C 51.40625 45.0625 49.203125 53.875 45 60.78125 
C 41.09375 67.09375 34.703125 71 28.40625 71 
M 27.703125 66.703125 
C 31 66.703125 34.203125 64.5 36.59375 60.5 
C 39.296875 55.875 40.203125 49.96875 40.203125 36.25 
C 40.203125 22.21875 39.5 15.625 37.5 11.203125 
C 35.203125 6.296875 31.59375 3.296875 27.796875 3.296875 
C 24.5 3.296875 21.296875 5.5 18.90625 9.5 
C 16.09375 14.21875 15.296875 20.53125 15.296875 36.859375 
C 15.296875 48.484375 16 54.375 18 58.6875 
C 20.296875 63.796875 23.90625 66.703125 27.703125 66.703125 
" id="Century_Schoolbook_L_Roman-48"/>
      <path d="M 13.703125 11.46875 
C 10.203125 11.46875 7.40625 8.671875 7.40625 5.28125 
C 7.40625 1.78125 10.203125 -1 13.59375 -1 
C 17.09375 -1 19.90625 1.78125 19.90625 5.28125 
C 19.90625 8.671875 17.09375 11.46875 13.703125 11.46875 
" id="Century_Schoolbook_L_Roman-46"/>
      <path d="M 25 32.609375 
L 25 59.71875 
L 25 62.609375 
C 25 66.8125 25.90625 67.3125 34 67.3125 
L 35.90625 67.3125 
L 35.90625 72 
L 3 72 
L 3 67.3125 
L 4.796875 67.3125 
C 12.90625 67.3125 13.796875 66.8125 13.796875 62.609375 
L 13.796875 59.734375 
L 13.796875 12.28125 
L 13.796875 9.375 
C 13.796875 5.1875 12.90625 4.6875 4.796875 4.6875 
L 3 4.6875 
L 3 0 
L 35.90625 0 
L 35.90625 4.6875 
L 34 4.6875 
C 25.90625 4.6875 25 5.1875 25 9.375 
L 25 12.28125 
L 25 24.9375 
L 36.59375 36.59375 
L 54 11.171875 
C 55.59375 8.78125 56 7.984375 56 6.984375 
C 56 5.390625 54.09375 4.6875 49.203125 4.6875 
L 46.09375 4.6875 
L 46.09375 0 
L 80.296875 0 
L 80.296875 4.6875 
L 78.40625 4.6875 
C 72.90625 4.6875 71.5 5.390625 68.59375 9.6875 
L 44.40625 44.46875 
L 59.296875 59.328125 
C 64.09375 64.40625 70.203125 67.3125 76.203125 67.3125 
L 76.203125 72 
L 45.40625 72 
L 45.40625 67.3125 
L 47.90625 67.3125 
C 52.5 67.3125 54.40625 66.40625 54.40625 64.3125 
C 54.40625 62.921875 52.40625 60.015625 49.5 57.140625 
z
" id="Century_Schoolbook_L_Roman-75"/>
     </defs>
     <g transform="translate(492.089600132 53.2746248443)scale(0.14 -0.14)">
      <use transform="scale(0.996264009963)" xlink:href="#Century_Schoolbook_L_Roman-51"/>
      <use transform="translate(55.3916769633 0.0)scale(0.996264009963)" xlink:href="#Century_Schoolbook_L_Roman-48"/>
      <use transform="translate(110.783353927 0.0)scale(0.996264009963)" xlink:href="#Century_Schoolbook_L_Roman-48"/>
      <use transform="translate(166.17503089 0.0)scale(0.996264009963)" xlink:href="#Century_Schoolbook_L_Roman-46"/>
      <use transform="translate(193.870200493 0.0)scale(0.996264009963)" xlink:href="#Century_Schoolbook_L_Roman-48"/>
      <use transform="translate(276.95704706 0.0)scale(0.996264009963)" xlink:href="#Century_Schoolbook_L_Roman-75"/>
     </g>
    </g>
    <g id="patch_112">
     <path d="M 452.8896 73.183051 
L 480.8896 73.183051 
L 480.8896 63.383051 
L 452.8896 63.383051 
z
" style="fill:#ff0000;stroke:#ff0000;stroke-linejoin:miter;"/>
    </g>
    <g id="text_20">
     <!-- \rm{80.0 K} -->
     <defs>
      <path d="M 37.40625 39.546875 
C 44.90625 43.65625 48.40625 48.5625 48.40625 55.078125 
C 48.40625 64.296875 40 71 28.5 71 
C 16.296875 71 7.40625 62.875 7.40625 51.875 
C 7.40625 47.5625 9 43.078125 11.796875 39.96875 
C 13.5 37.96875 15.09375 36.859375 18.703125 34.953125 
C 14.296875 33.265625 12.40625 32.25 10.203125 30.453125 
C 6.296875 27.234375 4.09375 22.4375 4.09375 17.328125 
C 4.09375 11.921875 6.796875 6.515625 11 3.3125 
C 14.90625 0.5 20.296875 -1 26.703125 -1 
C 34.09375 -1 40.296875 1 44.40625 4.703125 
C 48.703125 8.421875 51.296875 14.515625 51.296875 20.640625 
C 51.296875 26.34375 49.09375 31.453125 45 35.0625 
C 43 36.75 41.203125 37.859375 37.40625 39.546875 
M 26.703125 43.46875 
C 18.59375 46.46875 15.09375 50.28125 15.09375 56.09375 
C 15.09375 62.390625 20.296875 66.703125 28.203125 66.703125 
C 35.90625 66.703125 41 61.796875 41 54.484375 
C 41 49.28125 39 45.875 33.296875 41.0625 
z
M 32.5 29.640625 
C 40.09375 26.9375 43.296875 23.03125 43.296875 16.421875 
C 43.296875 8.40625 37 3.296875 27.203125 3.296875 
C 17.90625 3.296875 12.40625 8.5 12.40625 17.3125 
C 12.40625 24.828125 15.5 29.34375 23.296875 32.953125 
z
" id="Century_Schoolbook_L_Roman-56"/>
     </defs>
     <g transform="translate(492.089600132 73.1830511315)scale(0.14 -0.14)">
      <use transform="scale(0.996264009963)" xlink:href="#Century_Schoolbook_L_Roman-56"/>
      <use transform="translate(55.3916769633 0.0)scale(0.996264009963)" xlink:href="#Century_Schoolbook_L_Roman-48"/>
      <use transform="translate(110.783353927 0.0)scale(0.996264009963)" xlink:href="#Century_Schoolbook_L_Roman-46"/>
      <use transform="translate(138.47852353 0.0)scale(0.996264009963)" xlink:href="#Century_Schoolbook_L_Roman-48"/>
      <use transform="translate(221.565370097 0.0)scale(0.996264009963)" xlink:href="#Century_Schoolbook_L_Roman-75"/>
     </g>
    </g>
    <g id="patch_113">
     <path d="M 452.8896 93.091477 
L 480.8896 93.091477 
L 480.8896 83.291477 
L 452.8896 83.291477 
z
" style="fill:#bfbf00;stroke:#bfbf00;stroke-linejoin:miter;"/>
    </g>
    <g id="text_21">
     <!-- \rm{40.0 K} -->
     <defs>
      <path d="M 36.796875 70.5 
L 2.796875 23 
L 2.796875 17.40625 
L 30.90625 17.40625 
L 30.90625 12.25 
L 30.90625 9.359375 
C 30.90625 5.1875 30 4.6875 21.90625 4.6875 
L 20.796875 4.6875 
L 20.796875 0 
L 50 0 
L 50 4.6875 
L 49.59375 4.6875 
C 41.5 4.6875 40.59375 5.1875 40.59375 9.359375 
L 40.59375 12.25 
L 40.59375 17.40625 
L 52.703125 17.40625 
L 52.703125 23 
L 40.59375 23 
L 40.59375 50.40625 
C 40.59375 62.96875 40.59375 62.96875 41.09375 70.5 
z
M 30.90625 23 
L 8.90625 23 
L 30.90625 53.421875 
z
" id="Century_Schoolbook_L_Roman-52"/>
     </defs>
     <g transform="translate(492.089600132 93.0914774187)scale(0.14 -0.14)">
      <use transform="scale(0.996264009963)" xlink:href="#Century_Schoolbook_L_Roman-52"/>
      <use transform="translate(55.3916769633 0.0)scale(0.996264009963)" xlink:href="#Century_Schoolbook_L_Roman-48"/>
      <use transform="translate(110.783353927 0.0)scale(0.996264009963)" xlink:href="#Century_Schoolbook_L_Roman-46"/>
      <use transform="translate(138.47852353 0.0)scale(0.996264009963)" xlink:href="#Century_Schoolbook_L_Roman-48"/>
      <use transform="translate(221.565370097 0.0)scale(0.996264009963)" xlink:href="#Century_Schoolbook_L_Roman-75"/>
     </g>
    </g>
    <g id="patch_114">
     <path d="M 452.8896 112.999904 
L 480.8896 112.999904 
L 480.8896 103.199904 
L 452.8896 103.199904 
z
" style="fill:#008000;stroke:#008000;stroke-linejoin:miter;"/>
    </g>
    <g id="text_22">
     <!-- \rm{4.0 K} -->
     <g transform="translate(492.089600132 112.999903706)scale(0.14 -0.14)">
      <use transform="scale(0.996264009963)" xlink:href="#Century_Schoolbook_L_Roman-52"/>
      <use transform="translate(55.3916769633 0.0)scale(0.996264009963)" xlink:href="#Century_Schoolbook_L_Roman-46"/>
      <use transform="translate(83.0868465666 0.0)scale(0.996264009963)" xlink:href="#Century_Schoolbook_L_Roman-48"/>
      <use transform="translate(166.173693133 0.0)scale(0.996264009963)" xlink:href="#Century_Schoolbook_L_Roman-75"/>
     </g>
    </g>
    <g id="patch_115">
     <path d="M 452.8896 132.90833 
L 480.8896 132.90833 
L 480.8896 123.10833 
L 452.8896 123.10833 
z
" style="fill:#00bfbf;stroke:#00bfbf;stroke-linejoin:miter;"/>
    </g>
    <g id="text_23">
     <!-- \rm{1.0 K} -->
     <g transform="translate(492.089600132 132.908329993)scale(0.14 -0.14)">
      <use transform="scale(0.996264009963)" xlink:href="#Century_Schoolbook_L_Roman-49"/>
      <use transform="translate(55.3916769633 0.0)scale(0.996264009963)" xlink:href="#Century_Schoolbook_L_Roman-46"/>
      <use transform="translate(83.0868465666 0.0)scale(0.996264009963)" xlink:href="#Century_Schoolbook_L_Roman-48"/>
      <use transform="translate(166.173693133 0.0)scale(0.996264009963)" xlink:href="#Century_Schoolbook_L_Roman-75"/>
     </g>
    </g>
    <g id="patch_116">
     <path d="M 452.8896 152.816756 
L 480.8896 152.816756 
L 480.8896 143.016756 
L 452.8896 143.016756 
z
" style="fill:#0000ff;stroke:#0000ff;stroke-linejoin:miter;"/>
    </g>
    <g id="text_24">
     <!-- \rm{0.1 K} -->
     <g transform="translate(492.089600132 152.81675628)scale(0.14 -0.14)">
      <use transform="scale(0.996264009963)" xlink:href="#Century_Schoolbook_L_Roman-48"/>
      <use transform="translate(55.3916769633 0.0)scale(0.996264009963)" xlink:href="#Century_Schoolbook_L_Roman-46"/>
      <use transform="translate(83.0868465666 0.0)scale(0.996264009963)" xlink:href="#Century_Schoolbook_L_Roman-49"/>
      <use transform="translate(166.173693133 0.0)scale(0.996264009963)" xlink:href="#Century_Schoolbook_L_Roman-75"/>
     </g>
    </g>
   </g>
  </g>
 </g>
 <defs>
  <clipPath id="p7165086b9e">
   <rect height="425.486170951" width="491.14746551" x="63.1672434669" y="30.7369764749"/>
  </clipPath>
 </defs>
</svg>
