<?xml version="1.0" encoding="utf-8" standalone="no"?>
<!DOCTYPE svg PUBLIC "-//W3C//DTD SVG 1.1//EN"
  "http://www.w3.org/Graphics/SVG/1.1/DTD/svg11.dtd">
<!-- Created with matplotlib (http://matplotlib.org/) -->
<svg height="504pt" version="1.1" viewBox="0 0 576 504" width="576pt" xmlns="http://www.w3.org/2000/svg" xmlns:xlink="http://www.w3.org/1999/xlink">
 <defs>
  <style type="text/css">
*{stroke-linecap:butt;stroke-linejoin:round;stroke-miterlimit:100000;}
  </style>
 </defs>
 <g id="figure_1">
  <g id="patch_1">
   <path d="M 0 504 
L 576 504 
L 576 0 
L 0 0 
z
" style="fill:#ffffff;"/>
  </g>
  <g id="axes_1">
   <g id="patch_2">
    <path d="M 63.167243 456.223147 
L 554.314709 456.223147 
L 554.314709 30.853559 
L 63.167243 30.853559 
z
" style="fill:#ffffff;"/>
   </g>
   <g id="patch_3">
    <path d="M 63.167243 30.853559 
L 554.314709 30.853559 
" style="fill:none;stroke:#000000;stroke-linecap:square;stroke-linejoin:miter;"/>
   </g>
   <g id="patch_4">
    <path d="M 554.314709 456.223147 
L 554.314709 30.853559 
" style="fill:none;stroke:#000000;stroke-linecap:square;stroke-linejoin:miter;"/>
   </g>
   <g id="patch_5">
    <path d="M 63.167243 456.223147 
L 554.314709 456.223147 
" style="fill:none;stroke:#000000;stroke-linecap:square;stroke-linejoin:miter;"/>
   </g>
   <g id="patch_6">
    <path d="M 63.167243 456.223147 
L 63.167243 30.853559 
" style="fill:none;stroke:#000000;stroke-linecap:square;stroke-linejoin:miter;"/>
   </g>
   <g id="matplotlib.axis_1">
    <g id="xtick_1">
     <g id="line2d_1">
      <path clip-path="url(#pae072846f3)" d="M 63.167243 456.223147 
L 63.167243 30.853559 
" style="fill:none;stroke:#000000;stroke-dasharray:1.000000,3.000000;stroke-dashoffset:0.0;stroke-width:0.5;"/>
     </g>
     <g id="line2d_2">
      <defs>
       <path d="M 0 0 
L 0 -4 
" id="me92ad9e1c5" style="stroke:#000000;stroke-width:0.5;"/>
      </defs>
      <g>
       <use style="stroke:#000000;stroke-width:0.5;" x="63.1672434669" xlink:href="#me92ad9e1c5" y="456.223147426"/>
      </g>
     </g>
     <g id="line2d_3">
      <defs>
       <path d="M 0 0 
L 0 4 
" id="mf18e2420ef" style="stroke:#000000;stroke-width:0.5;"/>
      </defs>
      <g>
       <use style="stroke:#000000;stroke-width:0.5;" x="63.1672434669" xlink:href="#mf18e2420ef" y="30.853558944"/>
      </g>
     </g>
     <g id="text_1">
      <!-- $-1.0$ -->
      <defs>
       <path d="M 65.90625 23 
C 67.59375 23 69.40625 23 69.40625 25 
C 69.40625 27 67.59375 27 65.90625 27 
L 11.796875 27 
C 10.09375 27 8.296875 27 8.296875 25 
C 8.296875 23 10.09375 23 11.796875 23 
z
" id="CMSY10-0"/>
       <path d="M 26.59375 63.40625 
C 26.59375 65.5 26.5 65.5 25.09375 65.5 
C 21.203125 61.1875 15.296875 59.796875 9.703125 59.796875 
C 9.40625 59.796875 8.90625 59.796875 8.796875 59.5 
C 8.703125 59.296875 8.703125 59.09375 8.703125 57 
C 11.796875 57 17 57.59375 21 59.984375 
L 21 7.203125 
C 21 3.6875 20.796875 2.5 12.203125 2.5 
L 9.203125 2.5 
L 9.203125 0 
C 14 0 19 0 23.796875 0 
C 28.59375 0 33.59375 0 38.40625 0 
L 38.40625 2.5 
L 35.40625 2.5 
C 26.796875 2.5 26.59375 3.59375 26.59375 7.15625 
z
" id="CMR17-49"/>
       <path d="M 42 31.640625 
C 42 37.75 41.90625 48.125 37.703125 56.109375 
C 34 63.109375 28.09375 65.59375 22.90625 65.59375 
C 18.09375 65.59375 12 63.40625 8.203125 56.203125 
C 4.203125 48.71875 3.796875 39.4375 3.796875 31.640625 
C 3.796875 25.953125 3.90625 17.28125 7 9.671875 
C 11.296875 -0.609375 19 -2 22.90625 -2 
C 27.5 -2 34.5 -0.109375 38.59375 9.375 
C 41.59375 16.28125 42 24.359375 42 31.640625 
M 22.90625 -0.40625 
C 16.5 -0.40625 12.703125 5.078125 11.296875 12.6875 
C 10.203125 18.5625 10.203125 27.15625 10.203125 32.75 
C 10.203125 40.4375 10.203125 46.828125 11.5 52.921875 
C 13.40625 61.390625 19 64 22.90625 64 
C 27 64 32.296875 61.296875 34.203125 53.125 
C 35.5 47.4375 35.59375 40.734375 35.59375 32.75 
C 35.59375 26.25 35.59375 18.265625 34.40625 12.375 
C 32.296875 1.484375 26.40625 -0.40625 22.90625 -0.40625 
" id="CMR17-48"/>
       <path d="M 18.40625 4.796875 
C 18.40625 7.6875 16 9.671875 13.59375 9.671875 
C 10.703125 9.671875 8.703125 7.28125 8.703125 4.890625 
C 8.703125 2 11.09375 0 13.5 0 
C 16.40625 0 18.40625 2.390625 18.40625 4.796875 
" id="CMMI12-58"/>
      </defs>
      <g transform="translate(49.017834877 470.160795795)scale(0.14 -0.14)">
       <use transform="scale(0.996264009963)" xlink:href="#CMSY10-0"/>
       <use transform="translate(77.4874676506 0.0)scale(0.996264009963)" xlink:href="#CMR17-49"/>
       <use transform="translate(123.177944768 0.0)scale(0.996264009963)" xlink:href="#CMMI12-58"/>
       <use transform="translate(150.275121857 0.0)scale(0.996264009963)" xlink:href="#CMR17-48"/>
      </g>
     </g>
    </g>
    <g id="xtick_2">
     <g id="line2d_4">
      <path clip-path="url(#pae072846f3)" d="M 185.95411 456.223147 
L 185.95411 30.853559 
" style="fill:none;stroke:#000000;stroke-dasharray:1.000000,3.000000;stroke-dashoffset:0.0;stroke-width:0.5;"/>
     </g>
     <g id="line2d_5">
      <g>
       <use style="stroke:#000000;stroke-width:0.5;" x="185.954109844" xlink:href="#me92ad9e1c5" y="456.223147426"/>
      </g>
     </g>
     <g id="line2d_6">
      <g>
       <use style="stroke:#000000;stroke-width:0.5;" x="185.954109844" xlink:href="#mf18e2420ef" y="30.853558944"/>
      </g>
     </g>
     <g id="text_2">
      <!-- $-0.5$ -->
      <defs>
       <path d="M 11.40625 57.6875 
C 12.40625 57.28125 16.5 56 20.703125 56 
C 30 56 35.09375 61.109375 38 64.0625 
C 38 64.953125 38 65.5 37.40625 65.5 
C 37.296875 65.5 37.09375 65.5 36.296875 65.046875 
C 32.796875 63.40625 28.703125 62.078125 23.703125 62.078125 
C 20.703125 62.078125 16.203125 62.484375 11.296875 64.671875 
C 10.203125 65.171875 10 65.171875 9.90625 65.171875 
C 9.40625 65.171875 9.296875 65.0625 9.296875 63.078125 
L 9.296875 34.421875 
C 9.296875 32.640625 9.296875 32.140625 10.296875 32.140625 
C 10.796875 32.140625 11 32.34375 11.5 33.03125 
C 14.703125 37.515625 19.09375 39.40625 24.09375 39.40625 
C 27.59375 39.40625 35.09375 37.21875 35.09375 20.140625 
C 35.09375 16.953125 35.09375 11.171875 32.09375 6.578125 
C 29.59375 2.484375 25.703125 0.390625 21.40625 0.390625 
C 14.796875 0.390625 8.09375 5 6.296875 12.71875 
C 6.703125 12.609375 7.5 12.421875 7.90625 12.421875 
C 9.203125 12.421875 11.703125 13.125 11.703125 16.21875 
C 11.703125 18.90625 9.796875 20 7.90625 20 
C 5.59375 20 4.09375 18.59375 4.09375 15.796875 
C 4.09375 7.09375 11 -2 21.59375 -2 
C 31.90625 -2 41.703125 6.875 41.703125 19.75 
C 41.703125 31.71875 33.90625 41 24.203125 41 
C 19.09375 41 14.796875 39.109375 11.40625 35.53125 
z
" id="CMR17-53"/>
      </defs>
      <g transform="translate(171.804701255 470.160795795)scale(0.14 -0.14)">
       <use transform="scale(0.996264009963)" xlink:href="#CMSY10-0"/>
       <use transform="translate(77.4874676506 0.0)scale(0.996264009963)" xlink:href="#CMR17-48"/>
       <use transform="translate(123.177944768 0.0)scale(0.996264009963)" xlink:href="#CMMI12-58"/>
       <use transform="translate(150.275121857 0.0)scale(0.996264009963)" xlink:href="#CMR17-53"/>
      </g>
     </g>
    </g>
    <g id="xtick_3">
     <g id="line2d_7">
      <path clip-path="url(#pae072846f3)" d="M 308.740976 456.223147 
L 308.740976 30.853559 
" style="fill:none;stroke:#000000;stroke-dasharray:1.000000,3.000000;stroke-dashoffset:0.0;stroke-width:0.5;"/>
     </g>
     <g id="line2d_8">
      <g>
       <use style="stroke:#000000;stroke-width:0.5;" x="308.740976222" xlink:href="#me92ad9e1c5" y="456.223147426"/>
      </g>
     </g>
     <g id="line2d_9">
      <g>
       <use style="stroke:#000000;stroke-width:0.5;" x="308.740976222" xlink:href="#mf18e2420ef" y="30.853558944"/>
      </g>
     </g>
     <g id="text_3">
      <!-- $0.0$ -->
      <g transform="translate(300.015685199 470.160795795)scale(0.14 -0.14)">
       <use transform="scale(0.996264009963)" xlink:href="#CMR17-48"/>
       <use transform="translate(45.6904771171 0.0)scale(0.996264009963)" xlink:href="#CMMI12-58"/>
       <use transform="translate(72.7876542069 0.0)scale(0.996264009963)" xlink:href="#CMR17-48"/>
      </g>
     </g>
    </g>
    <g id="xtick_4">
     <g id="line2d_10">
      <path clip-path="url(#pae072846f3)" d="M 431.527843 456.223147 
L 431.527843 30.853559 
" style="fill:none;stroke:#000000;stroke-dasharray:1.000000,3.000000;stroke-dashoffset:0.0;stroke-width:0.5;"/>
     </g>
     <g id="line2d_11">
      <g>
       <use style="stroke:#000000;stroke-width:0.5;" x="431.5278426" xlink:href="#me92ad9e1c5" y="456.223147426"/>
      </g>
     </g>
     <g id="line2d_12">
      <g>
       <use style="stroke:#000000;stroke-width:0.5;" x="431.5278426" xlink:href="#mf18e2420ef" y="30.853558944"/>
      </g>
     </g>
     <g id="text_4">
      <!-- $0.5$ -->
      <g transform="translate(422.802551577 470.160795795)scale(0.14 -0.14)">
       <use transform="scale(0.996264009963)" xlink:href="#CMR17-48"/>
       <use transform="translate(45.6904771171 0.0)scale(0.996264009963)" xlink:href="#CMMI12-58"/>
       <use transform="translate(72.7876542069 0.0)scale(0.996264009963)" xlink:href="#CMR17-53"/>
      </g>
     </g>
    </g>
    <g id="xtick_5">
     <g id="line2d_13">
      <path clip-path="url(#pae072846f3)" d="M 554.314709 456.223147 
L 554.314709 30.853559 
" style="fill:none;stroke:#000000;stroke-dasharray:1.000000,3.000000;stroke-dashoffset:0.0;stroke-width:0.5;"/>
     </g>
     <g id="line2d_14">
      <g>
       <use style="stroke:#000000;stroke-width:0.5;" x="554.314708977" xlink:href="#me92ad9e1c5" y="456.223147426"/>
      </g>
     </g>
     <g id="line2d_15">
      <g>
       <use style="stroke:#000000;stroke-width:0.5;" x="554.314708977" xlink:href="#mf18e2420ef" y="30.853558944"/>
      </g>
     </g>
     <g id="text_5">
      <!-- $1.0$ -->
      <g transform="translate(545.589417954 470.160795795)scale(0.14 -0.14)">
       <use transform="scale(0.996264009963)" xlink:href="#CMR17-49"/>
       <use transform="translate(45.6904771171 0.0)scale(0.996264009963)" xlink:href="#CMMI12-58"/>
       <use transform="translate(72.7876542069 0.0)scale(0.996264009963)" xlink:href="#CMR17-48"/>
      </g>
     </g>
    </g>
    <g id="text_6">
     <!-- \rm{X [m]} -->
     <defs>
      <path d="M 20.09375 46 
L 2.296875 46 
L 2.296875 41.21875 
L 6.40625 41.21875 
C 10.09375 41.21875 10.703125 40.515625 10.703125 36.203125 
L 10.703125 12.296875 
L 10.703125 8.40625 
C 10.703125 4.296875 9.59375 3.59375 3.203125 3.59375 
L 2.796875 3.59375 
L 2.796875 0 
L 28 0 
L 28 3.59375 
L 27.59375 3.59375 
C 21.203125 3.59375 20.09375 4.296875 20.09375 8.390625 
L 20.09375 12.28125 
L 20.09375 26.453125 
C 20.09375 35.328125 25 41.921875 31.5 41.921875 
C 34.09375 41.921875 36.90625 40.515625 38.09375 38.625 
C 39.5 36.734375 40.09375 33.828125 40.09375 29.734375 
L 40.09375 12.28125 
L 40.09375 8.28125 
C 40.09375 4.296875 39 3.59375 32.5 3.59375 
L 32.09375 3.59375 
L 32.09375 0 
L 57.40625 0 
L 57.40625 3.59375 
L 57 3.59375 
C 50.59375 3.59375 49.5 4.296875 49.5 8.28125 
L 49.5 12.28125 
L 49.5 25.546875 
C 49.5 35.53125 54 41.921875 61 41.921875 
C 64.296875 41.921875 67 40.015625 68.296875 36.921875 
C 69.203125 34.734375 69.5 32.53125 69.5 28.640625 
L 69.5 12.28125 
L 69.5 8.28125 
C 69.5 4.296875 68.40625 3.59375 61.90625 3.59375 
L 61.5 3.59375 
L 61.5 0 
L 86.796875 0 
L 86.796875 3.59375 
L 86.40625 3.59375 
C 80 3.59375 78.90625 4.296875 78.90625 8.390625 
L 78.90625 12.28125 
L 78.90625 30.640625 
C 78.90625 36.828125 78.296875 38.921875 75.703125 42.3125 
C 72.796875 46.015625 68.703125 48 63.90625 48 
C 57.40625 48 52.59375 44.9375 48.296875 38.109375 
C 46.59375 44.046875 41.203125 48 34.5 48 
C 28.5 48 24 45.140625 20.09375 38.921875 
z
" id="Century_Schoolbook_L_Roman-109"/>
      <path d="M 17.59375 68.40625 
L 17.59375 -7 
L 3.59375 -7 
L 3.59375 -10.6875 
L 26.59375 -10.6875 
L 26.59375 72 
L 3.59375 72 
L 3.59375 68.40625 
z
" id="Century_Schoolbook_L_Roman-93"/>
      <path d="M 15.59375 -7.40625 
L 15.59375 68.296875 
L 29.703125 68.296875 
L 29.703125 72 
L 6.59375 72 
L 6.59375 -11 
L 29.703125 -11 
L 29.703125 -7.40625 
z
" id="Century_Schoolbook_L_Roman-91"/>
      <path d="M 38.90625 39.890625 
L 52.203125 57.9375 
C 57.796875 65.40625 60.59375 67.3125 65.90625 67.3125 
L 67.5 67.3125 
L 67.5 72 
L 40 72 
L 40 67.3125 
L 41.40625 67.3125 
C 46.203125 67.3125 48.296875 66.109375 48.296875 63.40625 
C 48.296875 62.3125 48 61.609375 46.90625 60.03125 
L 36.09375 44.375 
L 22.796875 63.515625 
C 22.09375 64.515625 21.703125 65.515625 21.703125 66.015625 
C 21.703125 67 22.703125 67.3125 26.5 67.3125 
L 30.296875 67.3125 
L 30.296875 72 
L -0.59375 72 
L -0.59375 67.3125 
L 1.09375 67.3125 
C 6 67.3125 7.203125 66.8125 9.5 63.515625 
L 29.203125 35.109375 
L 13 12.671875 
C 9.09375 7.09375 5 4.6875 -0.09375 4.6875 
L -0.5 4.6875 
L -0.5 0 
L 27.90625 0 
L 27.90625 4.6875 
L 25.40625 4.6875 
C 21.40625 4.6875 18.90625 6.484375 18.90625 9.484375 
C 18.90625 10.78125 19.5 12.359375 20.5 13.859375 
L 32.09375 30.609375 
L 47 9.40625 
C 47.796875 8.203125 48.296875 7.09375 48.296875 6.296875 
C 48.296875 4.6875 47.90625 4.6875 41.59375 4.6875 
L 38.796875 4.6875 
L 38.796875 0 
L 71.59375 0 
L 71.59375 4.6875 
L 70.40625 4.6875 
C 64 4.6875 63.296875 4.984375 59.90625 9.875 
z
" id="Century_Schoolbook_L_Roman-88"/>
     </defs>
     <g transform="translate(291.048579424 488.069222082)scale(0.14 -0.14)">
      <use transform="scale(0.996264009963)" xlink:href="#Century_Schoolbook_L_Roman-88"/>
      <use transform="translate(97.8313441294 0.0)scale(0.996264009963)" xlink:href="#Century_Schoolbook_L_Roman-91"/>
      <use transform="translate(131.006573859 0.0)scale(0.996264009963)" xlink:href="#Century_Schoolbook_L_Roman-109"/>
      <use transform="translate(219.573480551 0.0)scale(0.996264009963)" xlink:href="#Century_Schoolbook_L_Roman-93"/>
     </g>
    </g>
   </g>
   <g id="matplotlib.axis_2">
    <g id="ytick_1">
     <g id="line2d_16">
      <path clip-path="url(#pae072846f3)" d="M 63.167243 30.853559 
L 554.314709 30.853559 
" style="fill:none;stroke:#000000;stroke-dasharray:1.000000,3.000000;stroke-dashoffset:0.0;stroke-width:0.5;"/>
     </g>
     <g id="line2d_17">
      <defs>
       <path d="M 0 0 
L 4 0 
" id="md6776b186b" style="stroke:#000000;stroke-width:0.5;"/>
      </defs>
      <g>
       <use style="stroke:#000000;stroke-width:0.5;" x="63.1672434669" xlink:href="#md6776b186b" y="30.853558944"/>
      </g>
     </g>
     <g id="line2d_18">
      <defs>
       <path d="M 0 0 
L -4 0 
" id="m9a0a4e567f" style="stroke:#000000;stroke-width:0.5;"/>
      </defs>
      <g>
       <use style="stroke:#000000;stroke-width:0.5;" x="554.314708977" xlink:href="#m9a0a4e567f" y="30.853558944"/>
      </g>
     </g>
     <g id="text_7">
      <!-- $-0.4$ -->
      <defs>
       <path d="M 33.59375 64.40625 
C 33.59375 66.5 33.5 66.5 31.703125 66.5 
L 2 19.59375 
L 2 17 
L 27.796875 17 
L 27.796875 7.140625 
C 27.796875 3.5 27.59375 2.5 20.59375 2.5 
L 18.703125 2.5 
L 18.703125 0 
C 21.90625 0 27.296875 0 30.703125 0 
C 34.09375 0 39.5 0 42.703125 0 
L 42.703125 2.5 
L 40.796875 2.5 
C 33.796875 2.5 33.59375 3.5 33.59375 7.140625 
L 33.59375 17 
L 43.796875 17 
L 43.796875 19.59375 
L 33.59375 19.59375 
z
M 28.09375 57.859375 
L 28.09375 19.59375 
L 4 19.59375 
z
" id="CMR17-52"/>
      </defs>
      <g transform="translate(30.8684262872 34.3369941698)scale(0.14 -0.14)">
       <use transform="scale(0.996264009963)" xlink:href="#CMSY10-0"/>
       <use transform="translate(77.4874676506 0.0)scale(0.996264009963)" xlink:href="#CMR17-48"/>
       <use transform="translate(123.177944768 0.0)scale(0.996264009963)" xlink:href="#CMMI12-58"/>
       <use transform="translate(150.275121857 0.0)scale(0.996264009963)" xlink:href="#CMR17-52"/>
      </g>
     </g>
    </g>
    <g id="ytick_2">
     <g id="line2d_19">
      <path clip-path="url(#pae072846f3)" d="M 63.167243 78.116847 
L 554.314709 78.116847 
" style="fill:none;stroke:#000000;stroke-dasharray:1.000000,3.000000;stroke-dashoffset:0.0;stroke-width:0.5;"/>
     </g>
     <g id="line2d_20">
      <g>
       <use style="stroke:#000000;stroke-width:0.5;" x="63.1672434669" xlink:href="#md6776b186b" y="78.1168465531"/>
      </g>
     </g>
     <g id="line2d_21">
      <g>
       <use style="stroke:#000000;stroke-width:0.5;" x="554.314708977" xlink:href="#m9a0a4e567f" y="78.1168465531"/>
      </g>
     </g>
     <g id="text_8">
      <!-- $-0.2$ -->
      <defs>
       <path d="M 41.703125 15.453125 
L 39.90625 15.453125 
C 38.90625 8.375 38.09375 7.171875 37.703125 6.5625 
C 37.203125 5.765625 30 5.765625 28.59375 5.765625 
L 9.40625 5.765625 
C 13 9.671875 20 16.75 28.5 24.953125 
C 34.59375 30.734375 41.703125 37.53125 41.703125 47.421875 
C 41.703125 59.21875 32.296875 66 21.796875 66 
C 10.796875 66 4.09375 56.3125 4.09375 47.34375 
C 4.09375 43.4375 7 42.9375 8.203125 42.9375 
C 9.203125 42.9375 12.203125 43.546875 12.203125 47.03125 
C 12.203125 50.109375 9.59375 51 8.203125 51 
C 7.59375 51 7 50.90625 6.59375 50.703125 
C 8.5 59.21875 14.296875 63.40625 20.40625 63.40625 
C 29.09375 63.40625 34.796875 56.515625 34.796875 47.421875 
C 34.796875 38.734375 29.703125 31.25 24 24.75 
L 4.09375 2.28125 
L 4.09375 0 
L 39.296875 0 
z
" id="CMR17-50"/>
      </defs>
      <g transform="translate(30.8684262872 81.6002817789)scale(0.14 -0.14)">
       <use transform="scale(0.996264009963)" xlink:href="#CMSY10-0"/>
       <use transform="translate(77.4874676506 0.0)scale(0.996264009963)" xlink:href="#CMR17-48"/>
       <use transform="translate(123.177944768 0.0)scale(0.996264009963)" xlink:href="#CMMI12-58"/>
       <use transform="translate(150.275121857 0.0)scale(0.996264009963)" xlink:href="#CMR17-50"/>
      </g>
     </g>
    </g>
    <g id="ytick_3">
     <g id="line2d_22">
      <path clip-path="url(#pae072846f3)" d="M 63.167243 125.380134 
L 554.314709 125.380134 
" style="fill:none;stroke:#000000;stroke-dasharray:1.000000,3.000000;stroke-dashoffset:0.0;stroke-width:0.5;"/>
     </g>
     <g id="line2d_23">
      <g>
       <use style="stroke:#000000;stroke-width:0.5;" x="63.1672434669" xlink:href="#md6776b186b" y="125.380134162"/>
      </g>
     </g>
     <g id="line2d_24">
      <g>
       <use style="stroke:#000000;stroke-width:0.5;" x="554.314708977" xlink:href="#m9a0a4e567f" y="125.380134162"/>
      </g>
     </g>
     <g id="text_9">
      <!-- $0.0$ -->
      <g transform="translate(41.716661421 128.863569388)scale(0.14 -0.14)">
       <use transform="scale(0.996264009963)" xlink:href="#CMR17-48"/>
       <use transform="translate(45.6904771171 0.0)scale(0.996264009963)" xlink:href="#CMMI12-58"/>
       <use transform="translate(72.7876542069 0.0)scale(0.996264009963)" xlink:href="#CMR17-48"/>
      </g>
     </g>
    </g>
    <g id="ytick_4">
     <g id="line2d_25">
      <path clip-path="url(#pae072846f3)" d="M 63.167243 172.643422 
L 554.314709 172.643422 
" style="fill:none;stroke:#000000;stroke-dasharray:1.000000,3.000000;stroke-dashoffset:0.0;stroke-width:0.5;"/>
     </g>
     <g id="line2d_26">
      <g>
       <use style="stroke:#000000;stroke-width:0.5;" x="63.1672434669" xlink:href="#md6776b186b" y="172.643421771"/>
      </g>
     </g>
     <g id="line2d_27">
      <g>
       <use style="stroke:#000000;stroke-width:0.5;" x="554.314708977" xlink:href="#m9a0a4e567f" y="172.643421771"/>
      </g>
     </g>
     <g id="text_10">
      <!-- $0.2$ -->
      <g transform="translate(41.716661421 176.126856997)scale(0.14 -0.14)">
       <use transform="scale(0.996264009963)" xlink:href="#CMR17-48"/>
       <use transform="translate(45.6904771171 0.0)scale(0.996264009963)" xlink:href="#CMMI12-58"/>
       <use transform="translate(72.7876542069 0.0)scale(0.996264009963)" xlink:href="#CMR17-50"/>
      </g>
     </g>
    </g>
    <g id="ytick_5">
     <g id="line2d_28">
      <path clip-path="url(#pae072846f3)" d="M 63.167243 219.906709 
L 554.314709 219.906709 
" style="fill:none;stroke:#000000;stroke-dasharray:1.000000,3.000000;stroke-dashoffset:0.0;stroke-width:0.5;"/>
     </g>
     <g id="line2d_29">
      <g>
       <use style="stroke:#000000;stroke-width:0.5;" x="63.1672434669" xlink:href="#md6776b186b" y="219.90670938"/>
      </g>
     </g>
     <g id="line2d_30">
      <g>
       <use style="stroke:#000000;stroke-width:0.5;" x="554.314708977" xlink:href="#m9a0a4e567f" y="219.90670938"/>
      </g>
     </g>
     <g id="text_11">
      <!-- $0.4$ -->
      <g transform="translate(41.716661421 223.390144606)scale(0.14 -0.14)">
       <use transform="scale(0.996264009963)" xlink:href="#CMR17-48"/>
       <use transform="translate(45.6904771171 0.0)scale(0.996264009963)" xlink:href="#CMMI12-58"/>
       <use transform="translate(72.7876542069 0.0)scale(0.996264009963)" xlink:href="#CMR17-52"/>
      </g>
     </g>
    </g>
    <g id="ytick_6">
     <g id="line2d_31">
      <path clip-path="url(#pae072846f3)" d="M 63.167243 267.169997 
L 554.314709 267.169997 
" style="fill:none;stroke:#000000;stroke-dasharray:1.000000,3.000000;stroke-dashoffset:0.0;stroke-width:0.5;"/>
     </g>
     <g id="line2d_32">
      <g>
       <use style="stroke:#000000;stroke-width:0.5;" x="63.1672434669" xlink:href="#md6776b186b" y="267.169996989"/>
      </g>
     </g>
     <g id="line2d_33">
      <g>
       <use style="stroke:#000000;stroke-width:0.5;" x="554.314708977" xlink:href="#m9a0a4e567f" y="267.169996989"/>
      </g>
     </g>
     <g id="text_12">
      <!-- $0.6$ -->
      <defs>
       <path d="M 10.59375 34 
C 10.59375 57.65625 21.796875 63 28.296875 63 
C 30.40625 63 35.5 62.640625 37.5 59 
C 35.90625 59 32.90625 59 32.90625 55.515625 
C 32.90625 52.828125 35.09375 51.921875 36.5 51.921875 
C 37.40625 51.921875 40.09375 52.3125 40.09375 55.625 
C 40.09375 61.78125 35.09375 65.296875 28.203125 65.296875 
C 16.296875 65.296875 3.796875 52.96875 3.796875 31 
C 3.796875 3.953125 15.09375 -2 23.09375 -2 
C 32.796875 -2 42 6.671875 42 20.046875 
C 42 32.515625 33.90625 41.59375 23.703125 41.59375 
C 17.59375 41.59375 13.09375 37.609375 10.59375 30.625 
z
M 23.09375 0.390625 
C 10.796875 0.390625 10.796875 18.75 10.796875 22.4375 
C 10.796875 29.625 14.203125 40 23.5 40 
C 25.203125 40 30.09375 40 33.40625 33.125 
C 35.203125 29.21875 35.203125 25.140625 35.203125 20.140625 
C 35.203125 14.75 35.203125 10.78125 33.09375 6.78125 
C 30.90625 2.671875 27.703125 0.390625 23.09375 0.390625 
" id="CMR17-54"/>
      </defs>
      <g transform="translate(41.716661421 270.653432215)scale(0.14 -0.14)">
       <use transform="scale(0.996264009963)" xlink:href="#CMR17-48"/>
       <use transform="translate(45.6904771171 0.0)scale(0.996264009963)" xlink:href="#CMMI12-58"/>
       <use transform="translate(72.7876542069 0.0)scale(0.996264009963)" xlink:href="#CMR17-54"/>
      </g>
     </g>
    </g>
    <g id="ytick_7">
     <g id="line2d_34">
      <path clip-path="url(#pae072846f3)" d="M 63.167243 314.433285 
L 554.314709 314.433285 
" style="fill:none;stroke:#000000;stroke-dasharray:1.000000,3.000000;stroke-dashoffset:0.0;stroke-width:0.5;"/>
     </g>
     <g id="line2d_35">
      <g>
       <use style="stroke:#000000;stroke-width:0.5;" x="63.1672434669" xlink:href="#md6776b186b" y="314.433284598"/>
      </g>
     </g>
     <g id="line2d_36">
      <g>
       <use style="stroke:#000000;stroke-width:0.5;" x="554.314708977" xlink:href="#m9a0a4e567f" y="314.433284598"/>
      </g>
     </g>
     <g id="text_13">
      <!-- $0.8$ -->
      <defs>
       <path d="M 27.203125 35.375 
C 33.5 38.546875 39.90625 43.328125 39.90625 50.984375 
C 39.90625 60.015625 31.09375 65.296875 23 65.296875 
C 13.90625 65.296875 5.90625 58.734375 5.90625 49.6875 
C 5.90625 47.203125 6.5 42.921875 10.40625 39.140625 
C 11.40625 38.15625 15.59375 35.171875 18.296875 33.28125 
C 13.796875 30.984375 3.296875 25.53125 3.296875 14.59375 
C 3.296875 4.359375 13.09375 -2 22.796875 -2 
C 33.5 -2 42.5 5.65625 42.5 15.78125 
C 42.5 24.84375 36.40625 29.015625 32.40625 31.703125 
z
M 14.09375 44.09375 
C 13.296875 44.59375 9.296875 47.671875 9.296875 52.359375 
C 9.296875 58.421875 15.59375 63 22.796875 63 
C 30.703125 63 36.5 57.4375 36.5 50.96875 
C 36.5 41.703125 26.09375 36.421875 25.59375 36.421875 
C 25.5 36.421875 25.40625 36.421875 24.59375 37.03125 
z
M 32.5 23.734375 
C 34 22.640625 38.796875 19.375 38.796875 13.296875 
C 38.796875 5.953125 31.40625 0.390625 23 0.390625 
C 13.90625 0.390625 7 6.84375 7 14.6875 
C 7 22.546875 13.09375 29.09375 20 32.1875 
z
" id="CMR17-56"/>
      </defs>
      <g transform="translate(41.716661421 317.916719824)scale(0.14 -0.14)">
       <use transform="scale(0.996264009963)" xlink:href="#CMR17-48"/>
       <use transform="translate(45.6904771171 0.0)scale(0.996264009963)" xlink:href="#CMMI12-58"/>
       <use transform="translate(72.7876542069 0.0)scale(0.996264009963)" xlink:href="#CMR17-56"/>
      </g>
     </g>
    </g>
    <g id="ytick_8">
     <g id="line2d_37">
      <path clip-path="url(#pae072846f3)" d="M 63.167243 361.696572 
L 554.314709 361.696572 
" style="fill:none;stroke:#000000;stroke-dasharray:1.000000,3.000000;stroke-dashoffset:0.0;stroke-width:0.5;"/>
     </g>
     <g id="line2d_38">
      <g>
       <use style="stroke:#000000;stroke-width:0.5;" x="63.1672434669" xlink:href="#md6776b186b" y="361.696572208"/>
      </g>
     </g>
     <g id="line2d_39">
      <g>
       <use style="stroke:#000000;stroke-width:0.5;" x="554.314708977" xlink:href="#m9a0a4e567f" y="361.696572208"/>
      </g>
     </g>
     <g id="text_14">
      <!-- $1.0$ -->
      <g transform="translate(41.716661421 365.180007433)scale(0.14 -0.14)">
       <use transform="scale(0.996264009963)" xlink:href="#CMR17-49"/>
       <use transform="translate(45.6904771171 0.0)scale(0.996264009963)" xlink:href="#CMMI12-58"/>
       <use transform="translate(72.7876542069 0.0)scale(0.996264009963)" xlink:href="#CMR17-48"/>
      </g>
     </g>
    </g>
    <g id="ytick_9">
     <g id="line2d_40">
      <path clip-path="url(#pae072846f3)" d="M 63.167243 408.95986 
L 554.314709 408.95986 
" style="fill:none;stroke:#000000;stroke-dasharray:1.000000,3.000000;stroke-dashoffset:0.0;stroke-width:0.5;"/>
     </g>
     <g id="line2d_41">
      <g>
       <use style="stroke:#000000;stroke-width:0.5;" x="63.1672434669" xlink:href="#md6776b186b" y="408.959859817"/>
      </g>
     </g>
     <g id="line2d_42">
      <g>
       <use style="stroke:#000000;stroke-width:0.5;" x="554.314708977" xlink:href="#m9a0a4e567f" y="408.959859817"/>
      </g>
     </g>
     <g id="text_15">
      <!-- $1.2$ -->
      <g transform="translate(41.716661421 412.443295042)scale(0.14 -0.14)">
       <use transform="scale(0.996264009963)" xlink:href="#CMR17-49"/>
       <use transform="translate(45.6904771171 0.0)scale(0.996264009963)" xlink:href="#CMMI12-58"/>
       <use transform="translate(72.7876542069 0.0)scale(0.996264009963)" xlink:href="#CMR17-50"/>
      </g>
     </g>
    </g>
    <g id="ytick_10">
     <g id="line2d_43">
      <path clip-path="url(#pae072846f3)" d="M 63.167243 456.223147 
L 554.314709 456.223147 
" style="fill:none;stroke:#000000;stroke-dasharray:1.000000,3.000000;stroke-dashoffset:0.0;stroke-width:0.5;"/>
     </g>
     <g id="line2d_44">
      <g>
       <use style="stroke:#000000;stroke-width:0.5;" x="63.1672434669" xlink:href="#md6776b186b" y="456.223147426"/>
      </g>
     </g>
     <g id="line2d_45">
      <g>
       <use style="stroke:#000000;stroke-width:0.5;" x="554.314708977" xlink:href="#m9a0a4e567f" y="456.223147426"/>
      </g>
     </g>
     <g id="text_16">
      <!-- $1.4$ -->
      <g transform="translate(41.716661421 459.706582651)scale(0.14 -0.14)">
       <use transform="scale(0.996264009963)" xlink:href="#CMR17-49"/>
       <use transform="translate(45.6904771171 0.0)scale(0.996264009963)" xlink:href="#CMMI12-58"/>
       <use transform="translate(72.7876542069 0.0)scale(0.996264009963)" xlink:href="#CMR17-52"/>
      </g>
     </g>
    </g>
    <g id="text_17">
     <!-- \rm{Z [m]} -->
     <defs>
      <path d="M 56.90625 72 
L 7.296875 72 
L 5.296875 46.78125 
L 9.796875 46.78125 
C 13 63.40625 16.90625 67.3125 30.296875 67.3125 
L 43.296875 67.3125 
L 2.40625 3.59375 
L 2.40625 0 
L 55.703125 0 
L 57.5 27.734375 
L 52.796875 27.734375 
C 51.40625 18.453125 49.703125 13.46875 46.796875 9.875 
C 44.296875 6.59375 38.90625 4.6875 32.40625 4.6875 
L 15.796875 4.6875 
L 56.90625 68.40625 
z
" id="Century_Schoolbook_L_Roman-90"/>
     </defs>
     <g transform="translate(22.8976483694 260.582234346)rotate(-90.0)scale(0.14 -0.14)">
      <use transform="scale(0.996264009963)" xlink:href="#Century_Schoolbook_L_Roman-90"/>
      <use transform="translate(88.5668002802 0.0)scale(0.996264009963)" xlink:href="#Century_Schoolbook_L_Roman-91"/>
      <use transform="translate(121.74203001 0.0)scale(0.996264009963)" xlink:href="#Century_Schoolbook_L_Roman-109"/>
      <use transform="translate(210.308936702 0.0)scale(0.996264009963)" xlink:href="#Century_Schoolbook_L_Roman-93"/>
     </g>
    </g>
   </g>
   <g id="patch_7">
    <path clip-path="url(#pae072846f3)" d="M 253.793854 125.380134 
C 253.793854 111.361978 259.586861 97.903629 269.887493 87.991295 
C 280.188126 78.078962 294.173682 72.504331 308.740976 72.504331 
C 323.30827 72.504331 337.293827 78.078962 347.594459 87.991295 
C 357.895092 97.903629 363.688099 111.361978 363.688099 125.380134 
" style="fill:none;stroke:#000000;stroke-linejoin:miter;stroke-width:0.85;"/>
   </g>
   <g id="patch_8">
    <path clip-path="url(#pae072846f3)" d="M 254.223608 125.380134 
L 363.258345 125.380134 
L 363.258345 126.880744 
L 254.223608 126.880744 
z
"/>
   </g>
   <g id="patch_9">
    <path clip-path="url(#pae072846f3)" d="M 253.364099 125.380134 
L 254.223608 125.380134 
L 254.223608 126.880744 
L 253.364099 126.880744 
z
"/>
   </g>
   <g id="patch_10">
    <path clip-path="url(#pae072846f3)" d="M 363.258345 125.380134 
L 364.117853 125.380134 
L 364.117853 126.880744 
L 363.258345 126.880744 
z
"/>
   </g>
   <g id="patch_11">
    <path clip-path="url(#pae072846f3)" d="M 253.364099 126.880744 
L 254.223608 126.880744 
L 254.223608 133.355814 
L 253.364099 133.355814 
z
"/>
   </g>
   <g id="patch_12">
    <path clip-path="url(#pae072846f3)" d="M 363.258345 126.880744 
L 364.117853 126.880744 
L 364.117853 133.355814 
L 363.258345 133.355814 
z
"/>
   </g>
   <g id="patch_13">
    <path clip-path="url(#pae072846f3)" d="M 254.223608 133.355814 
L 363.258345 133.355814 
L 363.258345 133.59213 
L 254.223608 133.59213 
z
"/>
   </g>
   <g id="patch_14">
    <path clip-path="url(#pae072846f3)" d="M 253.364099 133.355814 
L 254.223608 133.355814 
L 254.223608 133.356759 
L 253.364099 133.356759 
z
"/>
   </g>
   <g id="patch_15">
    <path clip-path="url(#pae072846f3)" d="M 363.258345 133.355814 
L 364.117853 133.355814 
L 364.117853 133.356759 
L 363.258345 133.356759 
z
"/>
   </g>
   <g id="patch_16">
    <path clip-path="url(#pae072846f3)" d="M 253.364099 133.356759 
L 254.223608 133.356759 
L 254.223608 134.538341 
L 253.364099 134.538341 
z
"/>
   </g>
   <g id="patch_17">
    <path clip-path="url(#pae072846f3)" d="M 363.258345 133.356759 
L 364.117853 133.356759 
L 364.117853 134.538341 
L 363.258345 134.538341 
z
"/>
   </g>
   <g id="patch_18">
    <path clip-path="url(#pae072846f3)" d="M 254.223608 134.538341 
L 363.258345 134.538341 
L 363.258345 134.774658 
L 254.223608 134.774658 
z
"/>
   </g>
   <g id="patch_19">
    <path clip-path="url(#pae072846f3)" d="M 253.364099 134.538341 
L 254.223608 134.538341 
L 254.223608 134.539287 
L 253.364099 134.539287 
z
"/>
   </g>
   <g id="patch_20">
    <path clip-path="url(#pae072846f3)" d="M 363.258345 134.538341 
L 364.117853 134.538341 
L 364.117853 134.539287 
L 363.258345 134.539287 
z
"/>
   </g>
   <g id="patch_21">
    <path clip-path="url(#pae072846f3)" d="M 253.364099 134.539287 
L 254.223608 134.539287 
L 254.223608 136.505439 
L 253.364099 136.505439 
z
"/>
   </g>
   <g id="patch_22">
    <path clip-path="url(#pae072846f3)" d="M 363.258345 134.539287 
L 364.117853 134.539287 
L 364.117853 136.505439 
L 363.258345 136.505439 
z
"/>
   </g>
   <g id="patch_23">
    <path clip-path="url(#pae072846f3)" d="M 254.223608 136.505439 
L 363.258345 136.505439 
L 363.258345 136.978072 
L 254.223608 136.978072 
z
" style="fill:#ff0000;"/>
   </g>
   <g id="patch_24">
    <path clip-path="url(#pae072846f3)" d="M 253.364099 136.505439 
L 254.223608 136.505439 
L 254.223608 136.978072 
L 253.364099 136.978072 
z
" style="fill:#ff0000;"/>
   </g>
   <g id="patch_25">
    <path clip-path="url(#pae072846f3)" d="M 363.258345 136.505439 
L 364.117853 136.505439 
L 364.117853 136.978072 
L 363.258345 136.978072 
z
" style="fill:#ff0000;"/>
   </g>
   <g id="patch_26">
    <path clip-path="url(#pae072846f3)" d="M 253.364099 136.978072 
L 254.223608 136.978072 
L 254.223608 141.492189 
L 253.364099 141.492189 
z
" style="fill:#ff0000;"/>
   </g>
   <g id="patch_27">
    <path clip-path="url(#pae072846f3)" d="M 363.258345 136.978072 
L 364.117853 136.978072 
L 364.117853 141.492189 
L 363.258345 141.492189 
z
" style="fill:#ff0000;"/>
   </g>
   <g id="patch_28">
    <path clip-path="url(#pae072846f3)" d="M 254.223608 141.492189 
L 363.258345 141.492189 
L 363.258345 141.728505 
L 254.223608 141.728505 
z
" style="fill:#bfbf00;"/>
   </g>
   <g id="patch_29">
    <path clip-path="url(#pae072846f3)" d="M 253.364099 141.492189 
L 254.223608 141.492189 
L 254.223608 141.493134 
L 253.364099 141.493134 
z
" style="fill:#bfbf00;"/>
   </g>
   <g id="patch_30">
    <path clip-path="url(#pae072846f3)" d="M 363.258345 141.492189 
L 364.117853 141.492189 
L 364.117853 141.493134 
L 363.258345 141.493134 
z
" style="fill:#bfbf00;"/>
   </g>
   <g id="patch_31">
    <path clip-path="url(#pae072846f3)" d="M 253.364099 141.493134 
L 254.223608 141.493134 
L 254.223608 142.674716 
L 253.364099 142.674716 
z
" style="fill:#bfbf00;"/>
   </g>
   <g id="patch_32">
    <path clip-path="url(#pae072846f3)" d="M 363.258345 141.493134 
L 364.117853 141.493134 
L 364.117853 142.674716 
L 363.258345 142.674716 
z
" style="fill:#bfbf00;"/>
   </g>
   <g id="patch_33">
    <path clip-path="url(#pae072846f3)" d="M 254.223608 142.674716 
L 363.258345 142.674716 
L 363.258345 142.911033 
L 254.223608 142.911033 
z
" style="fill:#bfbf00;"/>
   </g>
   <g id="patch_34">
    <path clip-path="url(#pae072846f3)" d="M 253.364099 142.674716 
L 254.223608 142.674716 
L 254.223608 142.675662 
L 253.364099 142.675662 
z
" style="fill:#bfbf00;"/>
   </g>
   <g id="patch_35">
    <path clip-path="url(#pae072846f3)" d="M 363.258345 142.674716 
L 364.117853 142.674716 
L 364.117853 142.675662 
L 363.258345 142.675662 
z
" style="fill:#bfbf00;"/>
   </g>
   <g id="patch_36">
    <path clip-path="url(#pae072846f3)" d="M 253.364099 142.675662 
L 254.223608 142.675662 
L 254.223608 143.857244 
L 253.364099 143.857244 
z
" style="fill:#bfbf00;"/>
   </g>
   <g id="patch_37">
    <path clip-path="url(#pae072846f3)" d="M 363.258345 142.675662 
L 364.117853 142.675662 
L 364.117853 143.857244 
L 363.258345 143.857244 
z
" style="fill:#bfbf00;"/>
   </g>
   <g id="patch_38">
    <path clip-path="url(#pae072846f3)" d="M 254.223608 143.857244 
L 363.258345 143.857244 
L 363.258345 144.09356 
L 254.223608 144.09356 
z
" style="fill:#bfbf00;"/>
   </g>
   <g id="patch_39">
    <path clip-path="url(#pae072846f3)" d="M 253.364099 143.857244 
L 254.223608 143.857244 
L 254.223608 143.858189 
L 253.364099 143.858189 
z
" style="fill:#bfbf00;"/>
   </g>
   <g id="patch_40">
    <path clip-path="url(#pae072846f3)" d="M 363.258345 143.857244 
L 364.117853 143.857244 
L 364.117853 143.858189 
L 363.258345 143.858189 
z
" style="fill:#bfbf00;"/>
   </g>
   <g id="patch_41">
    <path clip-path="url(#pae072846f3)" d="M 253.364099 143.858189 
L 254.223608 143.858189 
L 254.223608 145.632926 
L 253.364099 145.632926 
z
" style="fill:#bfbf00;"/>
   </g>
   <g id="patch_42">
    <path clip-path="url(#pae072846f3)" d="M 363.258345 143.858189 
L 364.117853 143.858189 
L 364.117853 145.632926 
L 363.258345 145.632926 
z
" style="fill:#bfbf00;"/>
   </g>
   <g id="patch_43">
    <path clip-path="url(#pae072846f3)" d="M 254.223608 145.632926 
L 363.258345 145.632926 
L 363.258345 146.138643 
L 254.223608 146.138643 
z
" style="fill:#bfbf00;"/>
   </g>
   <g id="patch_44">
    <path clip-path="url(#pae072846f3)" d="M 253.364099 145.632926 
L 254.223608 145.632926 
L 254.223608 146.138643 
L 253.364099 146.138643 
z
" style="fill:#bfbf00;"/>
   </g>
   <g id="patch_45">
    <path clip-path="url(#pae072846f3)" d="M 363.258345 145.632926 
L 364.117853 145.632926 
L 364.117853 146.138643 
L 363.258345 146.138643 
z
" style="fill:#bfbf00;"/>
   </g>
   <g id="patch_46">
    <path clip-path="url(#pae072846f3)" d="M 253.364099 146.138643 
L 254.223608 146.138643 
L 254.223608 147.922832 
L 253.364099 147.922832 
z
" style="fill:#bfbf00;"/>
   </g>
   <g id="patch_47">
    <path clip-path="url(#pae072846f3)" d="M 363.258345 146.138643 
L 364.117853 146.138643 
L 364.117853 147.922832 
L 363.258345 147.922832 
z
" style="fill:#bfbf00;"/>
   </g>
   <g id="patch_48">
    <path clip-path="url(#pae072846f3)" d="M 254.223608 147.922832 
L 363.258345 147.922832 
L 363.258345 148.159148 
L 254.223608 148.159148 
z
" style="fill:#bfbf00;"/>
   </g>
   <g id="patch_49">
    <path clip-path="url(#pae072846f3)" d="M 253.364099 147.922832 
L 254.223608 147.922832 
L 254.223608 147.923777 
L 253.364099 147.923777 
z
" style="fill:#bfbf00;"/>
   </g>
   <g id="patch_50">
    <path clip-path="url(#pae072846f3)" d="M 363.258345 147.922832 
L 364.117853 147.922832 
L 364.117853 147.923777 
L 363.258345 147.923777 
z
" style="fill:#bfbf00;"/>
   </g>
   <g id="patch_51">
    <path clip-path="url(#pae072846f3)" d="M 253.364099 147.923777 
L 254.223608 147.923777 
L 254.223608 150.544526 
L 253.364099 150.544526 
z
" style="fill:#bfbf00;"/>
   </g>
   <g id="patch_52">
    <path clip-path="url(#pae072846f3)" d="M 363.258345 147.923777 
L 364.117853 147.923777 
L 364.117853 150.544526 
L 363.258345 150.544526 
z
" style="fill:#bfbf00;"/>
   </g>
   <g id="patch_53">
    <path clip-path="url(#pae072846f3)" d="M 254.223608 150.544526 
L 363.258345 150.544526 
L 363.258345 150.780843 
L 254.223608 150.780843 
z
" style="fill:#008000;"/>
   </g>
   <g id="patch_54">
    <path clip-path="url(#pae072846f3)" d="M 253.364099 150.544526 
L 254.223608 150.544526 
L 254.223608 150.545472 
L 253.364099 150.545472 
z
" style="fill:#008000;"/>
   </g>
   <g id="patch_55">
    <path clip-path="url(#pae072846f3)" d="M 363.258345 150.544526 
L 364.117853 150.544526 
L 364.117853 150.545472 
L 363.258345 150.545472 
z
" style="fill:#008000;"/>
   </g>
   <g id="patch_56">
    <path clip-path="url(#pae072846f3)" d="M 253.364099 150.545472 
L 254.223608 150.545472 
L 254.223608 152.339113 
L 253.364099 152.339113 
z
" style="fill:#008000;"/>
   </g>
   <g id="patch_57">
    <path clip-path="url(#pae072846f3)" d="M 363.258345 150.545472 
L 364.117853 150.545472 
L 364.117853 152.339113 
L 363.258345 152.339113 
z
" style="fill:#008000;"/>
   </g>
   <g id="patch_58">
    <path clip-path="url(#pae072846f3)" d="M 254.223608 152.339113 
L 363.258345 152.339113 
L 363.258345 152.830652 
L 254.223608 152.830652 
z
" style="fill:#008000;"/>
   </g>
   <g id="patch_59">
    <path clip-path="url(#pae072846f3)" d="M 253.364099 152.339113 
L 254.223608 152.339113 
L 254.223608 152.830652 
L 253.364099 152.830652 
z
" style="fill:#008000;"/>
   </g>
   <g id="patch_60">
    <path clip-path="url(#pae072846f3)" d="M 363.258345 152.339113 
L 364.117853 152.339113 
L 364.117853 152.830652 
L 363.258345 152.830652 
z
" style="fill:#008000;"/>
   </g>
   <g id="patch_61">
    <path clip-path="url(#pae072846f3)" d="M 253.364099 152.830652 
L 254.223608 152.830652 
L 254.223608 238.263298 
L 253.364099 238.263298 
z
" style="fill:#008000;"/>
   </g>
   <g id="patch_62">
    <path clip-path="url(#pae072846f3)" d="M 363.258345 152.830652 
L 364.117853 152.830652 
L 364.117853 238.263298 
L 363.258345 238.263298 
z
" style="fill:#008000;"/>
   </g>
   <g id="patch_63">
    <path clip-path="url(#pae072846f3)" d="M 253.364099 238.263298 
L 280.499997 238.263298 
L 280.499997 239.090405 
L 253.364099 239.090405 
z
" style="fill:#008000;"/>
   </g>
   <g id="patch_64">
    <path clip-path="url(#pae072846f3)" d="M 336.981955 238.263298 
L 364.117853 238.263298 
L 364.117853 239.090405 
L 336.981955 239.090405 
z
" style="fill:#008000;"/>
   </g>
   <g id="patch_65">
    <path clip-path="url(#pae072846f3)" d="M 279.640489 238.263298 
L 285.165898 238.263298 
L 285.165898 239.090405 
L 279.640489 239.090405 
z
" style="fill:#00bfbf;"/>
   </g>
   <g id="patch_66">
    <path clip-path="url(#pae072846f3)" d="M 332.316055 238.263298 
L 337.841464 238.263298 
L 337.841464 239.090405 
L 332.316055 239.090405 
z
" style="fill:#00bfbf;"/>
   </g>
   <g id="patch_67">
    <path clip-path="url(#pae072846f3)" d="M 284.30639 238.263298 
L 285.165898 238.263298 
L 285.165898 238.898989 
L 284.30639 238.898989 
z
" style="fill:#00bfbf;"/>
   </g>
   <g id="patch_68">
    <path clip-path="url(#pae072846f3)" d="M 332.316055 238.263298 
L 333.175563 238.263298 
L 333.175563 238.898989 
L 332.316055 238.898989 
z
" style="fill:#00bfbf;"/>
   </g>
   <g id="patch_69">
    <path clip-path="url(#pae072846f3)" d="M 277.307538 238.898989 
L 285.165898 238.898989 
L 285.165898 239.726096 
L 277.307538 239.726096 
z
" style="fill:#00bfbf;"/>
   </g>
   <g id="patch_70">
    <path clip-path="url(#pae072846f3)" d="M 332.316055 238.898989 
L 340.174414 238.898989 
L 340.174414 239.726096 
L 332.316055 239.726096 
z
" style="fill:#00bfbf;"/>
   </g>
   <g id="patch_71">
    <path clip-path="url(#pae072846f3)" d="M 277.307538 238.898989 
L 278.167046 238.898989 
L 278.167046 243.665491 
L 277.307538 243.665491 
z
" style="fill:#00bfbf;"/>
   </g>
   <g id="patch_72">
    <path clip-path="url(#pae072846f3)" d="M 339.314906 238.898989 
L 340.174414 238.898989 
L 340.174414 243.665491 
L 339.314906 243.665491 
z
" style="fill:#00bfbf;"/>
   </g>
   <g id="patch_73">
    <path clip-path="url(#pae072846f3)" d="M 278.167046 243.665491 
L 339.314906 243.665491 
L 339.314906 244.138124 
L 278.167046 244.138124 
z
" style="fill:#00bfbf;"/>
   </g>
   <g id="patch_74">
    <path clip-path="url(#pae072846f3)" d="M 277.307538 243.665491 
L 278.167046 243.665491 
L 278.167046 244.138124 
L 277.307538 244.138124 
z
" style="fill:#00bfbf;"/>
   </g>
   <g id="patch_75">
    <path clip-path="url(#pae072846f3)" d="M 339.314906 243.665491 
L 340.174414 243.665491 
L 340.174414 244.138124 
L 339.314906 244.138124 
z
" style="fill:#00bfbf;"/>
   </g>
   <g id="patch_76">
    <path clip-path="url(#pae072846f3)" d="M 263.494016 244.138124 
L 278.167046 244.138124 
L 278.167046 244.965232 
L 263.494016 244.965232 
z
" style="fill:#00bfbf;"/>
   </g>
   <g id="patch_77">
    <path clip-path="url(#pae072846f3)" d="M 339.314906 244.138124 
L 353.987936 244.138124 
L 353.987936 244.965232 
L 339.314906 244.965232 
z
" style="fill:#00bfbf;"/>
   </g>
   <g id="patch_78">
    <path clip-path="url(#pae072846f3)" d="M 263.494016 244.138124 
L 264.353524 244.138124 
L 264.353524 254.474605 
L 263.494016 254.474605 
z
" style="fill:#00bfbf;"/>
   </g>
   <g id="patch_79">
    <path clip-path="url(#pae072846f3)" d="M 353.128428 244.138124 
L 353.987936 244.138124 
L 353.987936 254.474605 
L 353.128428 254.474605 
z
" style="fill:#00bfbf;"/>
   </g>
   <g id="patch_80">
    <path clip-path="url(#pae072846f3)" d="M 264.353524 254.474605 
L 353.128428 254.474605 
L 353.128428 255.275718 
L 264.353524 255.275718 
z
" style="fill:#00bfbf;"/>
   </g>
   <g id="patch_81">
    <path clip-path="url(#pae072846f3)" d="M 263.494016 254.474605 
L 264.353524 254.474605 
L 264.353524 255.275718 
L 263.494016 255.275718 
z
" style="fill:#00bfbf;"/>
   </g>
   <g id="patch_82">
    <path clip-path="url(#pae072846f3)" d="M 353.128428 254.474605 
L 353.987936 254.474605 
L 353.987936 255.275718 
L 353.128428 255.275718 
z
" style="fill:#00bfbf;"/>
   </g>
   <g id="patch_83">
    <path clip-path="url(#pae072846f3)" d="M 254.100821 255.280444 
L 264.353524 255.280444 
L 264.353524 256.107552 
L 254.100821 256.107552 
z
" style="fill:#00bfbf;"/>
   </g>
   <g id="patch_84">
    <path clip-path="url(#pae072846f3)" d="M 353.128428 255.280444 
L 363.381132 255.280444 
L 363.381132 256.107552 
L 353.128428 256.107552 
z
" style="fill:#00bfbf;"/>
   </g>
   <g id="patch_85">
    <path clip-path="url(#pae072846f3)" d="M 254.100821 255.275718 
L 254.960329 255.275718 
L 254.960329 331.218369 
L 254.100821 331.218369 
z
" style="fill:#00bfbf;"/>
   </g>
   <g id="patch_86">
    <path clip-path="url(#pae072846f3)" d="M 362.521624 255.275718 
L 363.381132 255.275718 
L 363.381132 331.218369 
L 362.521624 331.218369 
z
" style="fill:#00bfbf;"/>
   </g>
   <g id="patch_87">
    <path clip-path="url(#pae072846f3)" d="M 254.100821 331.218369 
L 276.601514 331.218369 
L 276.601514 332.045476 
L 254.100821 332.045476 
z
" style="fill:#00bfbf;"/>
   </g>
   <g id="patch_88">
    <path clip-path="url(#pae072846f3)" d="M 340.880438 331.218369 
L 363.381132 331.218369 
L 363.381132 332.045476 
L 340.880438 332.045476 
z
" style="fill:#00bfbf;"/>
   </g>
   <g id="patch_89">
    <path clip-path="url(#pae072846f3)" d="M 276.601514 331.218369 
L 340.880438 331.218369 
L 340.880438 331.787891 
L 276.601514 331.787891 
z
" style="fill:#0000ff;"/>
   </g>
   <g id="patch_90">
    <path clip-path="url(#pae072846f3)" d="M 275.742006 331.218369 
L 276.601514 331.218369 
L 276.601514 331.787891 
L 275.742006 331.787891 
z
" style="fill:#0000ff;"/>
   </g>
   <g id="patch_91">
    <path clip-path="url(#pae072846f3)" d="M 340.880438 331.218369 
L 341.739947 331.218369 
L 341.739947 331.787891 
L 340.880438 331.787891 
z
" style="fill:#0000ff;"/>
   </g>
   <g id="patch_92">
    <path clip-path="url(#pae072846f3)" d="M 341.310193 331.787891 
C 341.310193 340.096977 337.87646 348.074244 331.77089 353.949655 
C 325.66532 359.825067 317.375557 363.129359 308.740976 363.129359 
C 300.106396 363.129359 291.816633 359.825067 285.711063 353.949655 
C 279.605492 348.074244 276.17176 340.096977 276.17176 331.787891 
" style="fill:none;stroke:#0000ff;stroke-linejoin:miter;stroke-width:0.85;"/>
   </g>
   <g id="text_18">
    <!-- \rm{V2xpbact5 Filters} -->
    <defs>
     <path d="M 19.40625 47 
L 19.40625 67 
L 15.296875 67 
C 14.296875 53.875 9.90625 47.1875 1.796875 46.59375 
L 1.796875 42.703125 
L 10 42.703125 
L 10 17.265625 
C 10 10.28125 10.203125 7.78125 11.203125 5.484375 
C 12.796875 1.296875 16.796875 -1 22.59375 -1 
C 26.5 -1 29.90625 0.203125 32.203125 2.390625 
C 35.5 5.59375 37.40625 10.875 37.40625 16.375 
C 37.40625 16.96875 37.40625 17.671875 37.296875 18.671875 
L 33.09375 18.671875 
C 32.796875 9.6875 30.203125 5.09375 25.296875 5.09375 
C 23 5.09375 21 6.28125 20.296875 7.984375 
C 19.703125 9.375 19.40625 11.875 19.40625 15.46875 
L 19.40625 42.703125 
L 34.09375 42.703125 
L 34.09375 47 
z
" id="Century_Schoolbook_L_Roman-116"/>
     <path d="M 46.5 23 
C 46.59375 37.8125 38.09375 48.28125 25.90625 48.28125 
C 13.09375 48.28125 3.5 37.25 3.5 22.34375 
C 3.5 8.4375 12.59375 -1 26.09375 -1 
C 35.59375 -1 42.40625 3.6875 46.5 13.1875 
L 43 15.09375 
C 38.90625 7.390625 34.703125 4.390625 28 4.390625 
C 22.90625 4.390625 19.203125 6.59375 16.59375 11 
C 14.796875 14 14 17.5 14.09375 23 
z
M 14.203125 27.296875 
C 14.203125 30.34375 14.59375 32.5 15.59375 35.25 
C 17.703125 41.140625 20.90625 44 25.703125 44 
C 31.796875 44 35.796875 38.78125 35.796875 30.921875 
C 35.796875 28.078125 34.90625 27.296875 31.703125 27.296875 
z
" id="Century_Schoolbook_L_Roman-101"/>
     <path d="M 62.40625 72 
L 2.90625 72 
L 2.90625 67.3125 
L 4.703125 67.3125 
C 12.796875 67.3125 13.703125 66.8125 13.703125 62.609375 
L 13.703125 59.734375 
L 13.703125 12.28125 
L 13.703125 9.375 
C 13.703125 5.1875 12.796875 4.6875 4.703125 4.6875 
L 2.90625 4.6875 
L 2.90625 0 
L 37.203125 0 
L 37.203125 4.6875 
L 33.90625 4.6875 
C 25.796875 4.6875 24.90625 5.1875 24.90625 9.390625 
L 24.90625 12.296875 
L 24.90625 35 
L 26.90625 35 
C 33.09375 35 35.5 34.375 37.59375 32.234375 
C 40.09375 29.578125 41.09375 26.296875 41.296875 20.265625 
L 46 20.265625 
L 46 53 
L 41.296875 53 
C 40.796875 43.46875 36.796875 39.6875 27.296875 39.6875 
L 24.90625 39.6875 
L 24.90625 62.328125 
C 24.90625 66.609375 25.796875 67.3125 31.203125 67.3125 
L 35.796875 67.3125 
C 52.296875 67.3125 56.59375 63.5 59.40625 46.390625 
L 63.796875 46.390625 
z
" id="Century_Schoolbook_L_Roman-70"/>
     <path d="M 16.40625 59.703125 
C 21.796875 58.40625 24.59375 58 28.5 58 
C 37 58 43.203125 61 46.5 66.484375 
C 47.59375 68.390625 48 69.28125 48 70.078125 
C 48 70.6875 47.703125 70.984375 47.203125 70.984375 
C 46.90625 70.984375 46.40625 70.875 45.90625 70.578125 
C 41 68.484375 38.296875 67.984375 32.59375 67.984375 
C 26.203125 67.984375 22.5 68.484375 12 70.984375 
C 11.59375 62.625 10.703125 51.984375 9.296875 39.65625 
C 7.203125 37.46875 6.5 36.171875 6.5 34.578125 
C 6.5 32.59375 7.796875 31.203125 9.703125 31.203125 
C 12.203125 31.203125 13.796875 33.328125 14.203125 37.359375 
C 17.703125 39.890625 21 41 25 41 
C 33.90625 41 39.296875 34.03125 39.296875 22.5 
C 39.296875 15.734375 37.59375 9.953125 34.59375 6.828125 
C 32.59375 4.703125 28.5 3.296875 24.40625 3.296875 
C 18.40625 3.296875 12.203125 6.421875 12.203125 9.5625 
C 12.203125 10.28125 12.796875 11.078125 14 11.78125 
C 17.09375 13.703125 18 15.03125 18 17.75 
C 18 21.296875 15.296875 24.015625 11.703125 24.015625 
C 7.703125 24.015625 4.5 20.28125 4.5 15.546875 
C 4.5 10.5 7.40625 5.453125 11.90625 2.328125 
C 15.296875 0.109375 19.40625 -1 24.59375 -1 
C 40.296875 -1 50.203125 8.28125 50.203125 23.109375 
C 50.203125 36.828125 41.09375 46 27.59375 46 
C 23.40625 46 20.203125 45.296875 14.703125 43 
z
" id="Century_Schoolbook_L_Roman-53"/>
     <path d="M 20.09375 46 
L 2.796875 46 
L 2.796875 41.21875 
L 6.40625 41.21875 
C 10.09375 41.21875 10.703125 40.515625 10.703125 36.21875 
L 10.703125 -7.75 
L 10.703125 -11.71875 
C 10.703125 -15.71875 9.59375 -16.40625 3.203125 -16.40625 
L 2.796875 -16.40625 
L 2.796875 -20 
L 28.796875 -20 
L 28.796875 -16.40625 
L 27.703125 -16.40625 
C 21.203125 -16.40625 20.09375 -15.71875 20.09375 -11.734375 
L 20.09375 -7.75 
L 20.09375 6.6875 
C 23.40625 0.90625 27.203125 -1.390625 33.296875 -1.390625 
C 44.90625 -1.390625 53.5 9.265625 53.5 23.5 
C 53.5 37.265625 44.90625 48 33.90625 48 
C 27.703125 48 23.59375 45.4375 20.09375 39.515625 
z
M 32.09375 42.609375 
C 39 42.609375 43 35.75 43 24.09375 
C 43 11.265625 38.90625 4 31.796875 4 
C 24.703125 4 20 11.375 20 22.8125 
C 20 35.140625 24.5 42.609375 32.09375 42.609375 
" id="Century_Schoolbook_L_Roman-112"/>
     <path d="M 38.703125 15.125 
C 35.5 7.96875 32.09375 5.09375 26.90625 5.09375 
C 18.90625 5.09375 13.90625 12.328125 13.90625 23.9375 
C 13.90625 35.953125 18.796875 44 26.203125 44 
C 29.203125 44 31.796875 42.59375 31.796875 41.015625 
C 31.796875 40.71875 31.59375 40.421875 31.203125 39.8125 
C 29.59375 37.9375 29.203125 36.9375 29.203125 35.265625 
C 29.203125 31.984375 31.703125 29.703125 35.203125 29.703125 
C 38.703125 29.703125 41.296875 32.484375 41.296875 36.453125 
C 41.296875 43.109375 34.59375 48.28125 25.703125 48.28125 
C 12.703125 48.28125 3.40625 37.65625 3.40625 22.84375 
C 3.40625 8.734375 11.90625 -1 24.296875 -1 
C 33.203125 -1 38.296875 3.078125 42.59375 13.625 
z
" id="Century_Schoolbook_L_Roman-99"/>
     <path d="M 39.296875 15.40625 
L 21 61.8125 
C 20.5 63.015625 20.203125 64.21875 20.203125 64.8125 
C 20.203125 66.609375 21.90625 67.3125 26.40625 67.3125 
L 30.40625 67.3125 
L 30.40625 72 
L -0.796875 72 
L -0.796875 67.3125 
L 1.203125 67.3125 
C 5.703125 67.3125 7 66.3125 8.90625 61.703125 
L 34.203125 -1.6875 
L 38.203125 -1.6875 
L 61.203125 57.515625 
C 64.203125 65.3125 66.40625 67.3125 72.09375 67.3125 
L 73.09375 67.3125 
L 73.09375 72 
L 46 72 
L 46 67.3125 
L 47.90625 67.3125 
C 53 67.3125 56 65.3125 56 62.109375 
C 56 60.71875 55.5 58.421875 54.796875 56.53125 
z
" id="Century_Schoolbook_L_Roman-86"/>
     <path d="M 45.203125 32.578125 
C 45.203125 38.796875 44.09375 41.96875 41.203125 44.34375 
C 37.90625 46.90625 33 48.28125 26.59375 48.28125 
C 15.40625 48.28125 7.09375 43.046875 7.09375 35.921875 
C 7.09375 32.15625 9.40625 29.78125 12.90625 29.78125 
C 16 29.78125 18.296875 31.859375 18.296875 34.8125 
C 18.296875 36.109375 17.796875 37.484375 16.796875 38.875 
C 16.203125 39.546875 16.09375 39.84375 16.09375 40.15625 
C 16.09375 42.21875 20.203125 44 25 44 
C 28.09375 44 31.59375 43.015625 33.203125 41.53125 
C 35.09375 39.953125 35.796875 37.578125 35.796875 33.125 
L 35.796875 29.28125 
C 25.296875 27.484375 22.09375 26.6875 17.203125 24.8125 
C 8.59375 21.609375 4.40625 16.9375 4.40625 10.65625 
C 4.40625 3.578125 10.09375 -1 18.90625 -1 
C 25.796875 -1 32 1.859375 36.296875 7.0625 
C 37.90625 1.984375 40.40625 0 45.09375 0 
C 49.59375 0 54.296875 2.890625 54.296875 5.78125 
C 54.296875 6.46875 53.796875 6.96875 53.296875 6.96875 
C 52.90625 6.96875 52.5 6.875 51.796875 6.578125 
C 50.203125 6 49.796875 5.890625 49 5.890625 
C 46.203125 5.890625 45.203125 7.78125 45.203125 12.71875 
z
M 35.796875 20.46875 
C 35.796875 14.46875 35.5 13.078125 33.796875 10.484375 
C 31.296875 6.78125 26.703125 4.296875 22.40625 4.296875 
C 17.90625 4.296875 14.5 7.59375 14.5 12.078125 
C 14.5 16.265625 16.59375 19.265625 21 21.359375 
C 24.09375 22.75 28 23.75 35.796875 25.046875 
z
" id="Century_Schoolbook_L_Roman-97"/>
     <path d="M 19.796875 46 
L 2.09375 46 
L 2.09375 41.21875 
L 6.203125 41.21875 
C 9.90625 41.21875 10.5 40.515625 10.5 36.203125 
L 10.5 12.296875 
L 10.5 8.296875 
C 10.5 4.296875 9.40625 3.59375 2.90625 3.59375 
L 2.5 3.59375 
L 2.5 0 
L 29.203125 0 
L 29.203125 3.59375 
L 27.296875 3.59375 
C 20.90625 3.59375 19.796875 4.296875 19.796875 8.296875 
L 19.796875 12.296875 
L 19.796875 13.296875 
C 19.796875 20.8125 21.203125 28.40625 23.703125 34.109375 
C 26.09375 39.703125 29.5 42.8125 33.703125 43.3125 
C 32.296875 41.703125 31.90625 40.6875 31.90625 38.765625 
C 31.90625 35.546875 34.203125 33.234375 37.40625 33.234375 
C 41 33.234375 43.5 35.9375 43.5 40.015625 
C 43.5 44.8125 40.09375 48 34.796875 48 
C 28.5 48 23 42.921875 19.796875 34.140625 
z
" id="Century_Schoolbook_L_Roman-114"/>
     <path d="M 39 48 
L 35.5 48 
L 32.59375 44.40625 
C 29 47.203125 25.40625 48.390625 20.40625 48.390625 
C 11.59375 48.390625 5.796875 42.625 5.796875 33.953125 
C 5.796875 30.078125 7.09375 26.78125 9.296875 24.8125 
C 11.59375 22.703125 13.90625 21.71875 19.90625 20.3125 
L 25.203125 19.125 
C 33.09375 17.234375 35.90625 15.234375 35.90625 11.265625 
C 35.90625 6.578125 31.796875 3.296875 25.90625 3.296875 
C 17.5 3.296875 11.5 8.765625 9.09375 18.875 
L 5.09375 18.875 
L 5.09375 0 
L 8.59375 0 
L 12.09375 3.90625 
C 16.203125 0.59375 20.796875 -1 25.796875 -1 
C 35.59375 -1 42.09375 5.078125 42.09375 14.34375 
C 42.09375 18.71875 40.703125 22.09375 37.90625 24.390625 
C 35.5 26.484375 33.5 27.28125 27.40625 28.5625 
L 22.40625 29.671875 
C 16.90625 30.859375 16.90625 30.859375 15.09375 31.859375 
C 12.90625 32.859375 11.59375 34.9375 11.59375 37.140625 
C 11.59375 41.109375 15.40625 44 20.90625 44 
C 24.703125 44 27.796875 42.703125 30.59375 40.015625 
C 32.796875 37.8125 33.90625 35.828125 35.5 31.234375 
L 39 31.234375 
z
" id="Century_Schoolbook_L_Roman-115"/>
     <path d="M 20.40625 73 
L 1.90625 73 
L 1.90625 68.21875 
L 6.796875 68.21875 
C 10.40625 68.21875 11 67.515625 11 63.21875 
L 11 12.28125 
L 11 8.28125 
C 11 4.296875 9.90625 3.59375 3.5 3.59375 
L 2.796875 3.59375 
L 2.796875 0 
L 28.703125 0 
L 28.703125 3.59375 
L 28 3.59375 
C 21.5 3.59375 20.40625 4.296875 20.40625 8.25 
L 20.40625 12.21875 
z
" id="Century_Schoolbook_L_Roman-108"/>
     <path d="M 50.5 21.5625 
L 46.09375 21.5625 
L 45.09375 16.46875 
C 43.796875 10.078125 43 9.375 36.796875 9.375 
L 14.40625 9.375 
C 21.296875 16.5625 23.59375 18.65625 30 23.65625 
C 39.09375 30.65625 43 34.15625 45.296875 37.140625 
C 48.5 41.53125 50.09375 46.03125 50.09375 50.8125 
C 50.09375 62.109375 40.59375 70.296875 27.59375 70.296875 
C 14.90625 70.296875 5.09375 62.109375 5.09375 51.515625 
C 5.09375 45.234375 8.296875 40.9375 13.09375 40.9375 
C 16.796875 40.9375 19.296875 43.4375 19.296875 47.03125 
C 19.296875 49.53125 17.90625 51.828125 15.703125 52.734375 
C 12 54.328125 11.796875 54.421875 11.796875 55.71875 
C 11.796875 57.21875 12.796875 59.515625 14.203125 61.21875 
C 16.703125 64.203125 20.90625 66 25.59375 66 
C 33.796875 66 38.796875 60.90625 38.796875 52.53125 
C 38.796875 45.125 35.296875 38.4375 27 29.65625 
L 21.09375 23.46875 
C 17.59375 19.78125 15 16.96875 13.296875 15.078125 
C 9.703125 10.875 7.90625 8.578125 3.5 2.796875 
L 3.5 0 
L 48.59375 0 
z
" id="Century_Schoolbook_L_Roman-50"/>
     <path d="M 18 73 
L 0.796875 73 
L 0.796875 68.21875 
L 4.296875 68.21875 
C 8 68.21875 8.59375 67.515625 8.59375 63.25 
L 8.59375 24.625 
C 8.59375 11.3125 8.09375 4.84375 6.796875 -1 
L 10.59375 -1 
L 15.5 6.75 
C 19.59375 1.453125 24.296875 -1 30.5 -1 
C 42.796875 -1 52 9.59375 52 23.828125 
C 52 38.078125 43.59375 48.078125 31.59375 48.078125 
C 25.5 48.078125 21.796875 46 18 40.328125 
z
M 29.796875 43 
C 37.296875 43 41.5 35.765625 41.5 22.796875 
C 41.5 10.3125 37.40625 3.1875 30.09375 3.1875 
C 22.203125 3.1875 17.5 10.40625 17.5 22.59375 
C 17.5 35.765625 21.796875 43 29.796875 43 
" id="Century_Schoolbook_L_Roman-98"/>
     <path d="M 30.90625 25.5 
L 42.296875 38.78125 
C 44.703125 41.59375 47.203125 43 49.796875 43 
L 50.703125 43 
L 50.703125 46.59375 
L 30 46.59375 
L 30 43 
L 31.90625 43 
C 34.90625 43 36.40625 42.203125 36.40625 40.796875 
C 36.40625 39.796875 35.703125 38.296875 34.40625 36.703125 
L 28.09375 29.203125 
L 20.40625 39 
C 19.796875 39.703125 19.40625 40.59375 19.40625 41.203125 
C 19.40625 42.5 20.703125 43 23.796875 43 
L 25.203125 43 
L 25.203125 46.59375 
L 1.5 46.59375 
L 1.5 43 
C 5.203125 42.6875 6.5 41.796875 9.796875 37.59375 
L 22 22.203125 
L 10.5 8.796875 
C 7.703125 5.484375 4.40625 3.59375 1.5 3.59375 
L 0.90625 3.59375 
L 0.90625 0 
L 22 0 
L 22 3.59375 
L 20.5 3.59375 
C 18.203125 3.59375 17.703125 3.6875 17 4 
C 16.203125 4.390625 15.59375 5.40625 15.59375 6.296875 
C 15.59375 7 15.90625 7.90625 16.40625 8.40625 
L 24.796875 18.5 
L 32.40625 8.40625 
C 33.09375 7.40625 33.703125 6.09375 33.703125 5.390625 
C 33.703125 4.09375 32.203125 3.59375 28.40625 3.59375 
L 27.703125 3.59375 
L 27.703125 0 
L 52.90625 0 
L 52.90625 3.59375 
L 52.203125 3.59375 
C 48.703125 3.59375 46.09375 4.984375 43.5 8.5 
z
" id="Century_Schoolbook_L_Roman-120"/>
     <path d="M 20.59375 46 
L 1.796875 46 
L 1.796875 41.21875 
L 6.90625 41.21875 
C 10.59375 41.21875 11.203125 40.515625 11.203125 36.203125 
L 11.203125 12.296875 
L 11.203125 8.296875 
C 11.203125 4.296875 10.09375 3.59375 3.703125 3.59375 
L 3 3.59375 
L 3 0 
L 28.90625 0 
L 28.90625 3.59375 
L 28.203125 3.59375 
C 21.703125 3.59375 20.59375 4.28125 20.59375 8.21875 
L 20.59375 12.171875 
z
M 15.90625 71.578125 
C 12.703125 71.578125 10.09375 68.984375 10.09375 65.796875 
C 10.09375 62.703125 12.703125 60 15.796875 60 
C 19.09375 60 21.703125 62.59375 21.703125 65.796875 
C 21.703125 68.984375 19.09375 71.578125 15.90625 71.578125 
" id="Century_Schoolbook_L_Roman-105"/>
    </defs>
    <g transform="translate(234.760407748 25.853558944)scale(0.18 -0.18)">
     <use transform="scale(0.996264009963)" xlink:href="#Century_Schoolbook_L_Roman-86"/>
     <use transform="translate(71.9299848469 0.0)scale(0.996264009963)" xlink:href="#Century_Schoolbook_L_Roman-50"/>
     <use transform="translate(127.32166181 0.0)scale(0.996264009963)" xlink:href="#Century_Schoolbook_L_Roman-120"/>
     <use transform="translate(180.821005701 0.0)scale(0.996264009963)" xlink:href="#Century_Schoolbook_L_Roman-112"/>
     <use transform="translate(238.006492985 0.0)scale(0.996264009963)" xlink:href="#Century_Schoolbook_L_Roman-98"/>
     <use transform="translate(293.398169949 0.0)scale(0.996264009963)" xlink:href="#Century_Schoolbook_L_Roman-97"/>
     <use transform="translate(348.789846912 0.0)scale(0.996264009963)" xlink:href="#Century_Schoolbook_L_Roman-99"/>
     <use transform="translate(393.023415609 0.0)scale(0.996264009963)" xlink:href="#Century_Schoolbook_L_Roman-116"/>
     <use transform="translate(431.777121804 0.0)scale(0.996264009963)" xlink:href="#Century_Schoolbook_L_Roman-53"/>
     <use transform="translate(514.863968371 0.0)scale(0.996264009963)" xlink:href="#Century_Schoolbook_L_Roman-70"/>
     <use transform="translate(580.317902713 0.0)scale(0.996264009963)" xlink:href="#Century_Schoolbook_L_Roman-105"/>
     <use transform="translate(611.69921571 0.0)scale(0.996264009963)" xlink:href="#Century_Schoolbook_L_Roman-108"/>
     <use transform="translate(643.080528706 0.0)scale(0.996264009963)" xlink:href="#Century_Schoolbook_L_Roman-116"/>
     <use transform="translate(681.8342349 0.0)scale(0.996264009963)" xlink:href="#Century_Schoolbook_L_Roman-101"/>
     <use transform="translate(731.647435399 0.0)scale(0.996264009963)" xlink:href="#Century_Schoolbook_L_Roman-114"/>
     <use transform="translate(775.881004096 0.0)scale(0.996264009963)" xlink:href="#Century_Schoolbook_L_Roman-115"/>
    </g>
   </g>
   <g id="line2d_46">
    <path clip-path="url(#pae072846f3)" d="M 276.344473 83.185461 
L 303.75353 362.341144 
" style="fill:none;opacity:0.2;stroke:#000000;stroke-linecap:square;stroke-width:0.2;"/>
   </g>
   <g id="line2d_47">
    <path clip-path="url(#pae072846f3)" d="M 281.834699 79.752381 
L 288.258701 355.621592 
" style="fill:none;opacity:0.2;stroke:#000000;stroke-linecap:square;stroke-width:0.2;"/>
   </g>
   <g id="line2d_48">
    <path clip-path="url(#pae072846f3)" d="M 319.894881 74.027619 
L 303.488083 362.299923 
" style="fill:none;opacity:0.2;stroke:#000000;stroke-linecap:square;stroke-width:0.2;"/>
   </g>
   <g id="line2d_49">
    <path clip-path="url(#pae072846f3)" d="M 264.093864 95.274048 
L 303.714363 362.3352 
" style="fill:none;opacity:0.2;stroke:#000000;stroke-linecap:square;stroke-width:0.2;"/>
   </g>
   <g id="line2d_50">
    <path clip-path="url(#pae072846f3)" d="M 264.357463 94.915255 
L 335.805002 348.468902 
" style="fill:none;opacity:0.2;stroke:#000000;stroke-linecap:square;stroke-width:0.2;"/>
   </g>
   <g id="line2d_51">
    <path clip-path="url(#pae072846f3)" d="M 318.040512 73.686774 
L 306.072266 362.608999 
" style="fill:none;opacity:0.2;stroke:#000000;stroke-linecap:square;stroke-width:0.2;"/>
   </g>
   <g id="line2d_52">
    <path clip-path="url(#pae072846f3)" d="M 315.147115 73.281337 
L 329.319543 355.544658 
" style="fill:none;opacity:0.2;stroke:#000000;stroke-linecap:square;stroke-width:0.2;"/>
   </g>
   <g id="line2d_53">
    <path clip-path="url(#pae072846f3)" d="M 258.922914 104.07203 
L 340.861847 332.839714 
" style="fill:none;opacity:0.2;stroke:#000000;stroke-linecap:square;stroke-width:0.2;"/>
   </g>
   <g id="line2d_54">
    <path clip-path="url(#pae072846f3)" d="M 342.846603 84.451687 
L 297.844555 360.884054 
" style="fill:none;opacity:0.2;stroke:#000000;stroke-linecap:square;stroke-width:0.2;"/>
   </g>
   <g id="line2d_55">
    <path clip-path="url(#pae072846f3)" d="M 361.642724 112.702958 
L 286.872145 354.452113 
" style="fill:none;opacity:0.2;stroke:#000000;stroke-linecap:square;stroke-width:0.2;"/>
   </g>
   <g id="line2d_56">
    <path clip-path="url(#pae072846f3)" d="M 324.702443 75.216752 
L 335.992379 348.183973 
" style="fill:none;opacity:0.2;stroke:#000000;stroke-linecap:square;stroke-width:0.2;"/>
   </g>
   <g id="line2d_57">
    <path clip-path="url(#pae072846f3)" d="M 361.316162 111.501818 
L 276.997898 336.630298 
" style="fill:none;opacity:0.2;stroke:#000000;stroke-linecap:square;stroke-width:0.2;"/>
   </g>
   <g id="line2d_58">
    <path clip-path="url(#pae072846f3)" d="M 350.894305 92.111142 
L 296.88503 360.534546 
" style="fill:none;opacity:0.2;stroke:#000000;stroke-linecap:square;stroke-width:0.2;"/>
   </g>
   <g id="line2d_59">
    <path clip-path="url(#pae072846f3)" d="M 359.403865 106.004229 
L 277.41988 338.722753 
" style="fill:none;opacity:0.2;stroke:#000000;stroke-linecap:square;stroke-width:0.2;"/>
   </g>
   <g id="line2d_60">
    <path clip-path="url(#pae072846f3)" d="M 354.111028 96.292106 
L 283.014344 350.325297 
" style="fill:none;opacity:0.2;stroke:#000000;stroke-linecap:square;stroke-width:0.2;"/>
   </g>
   <g id="line2d_61">
    <path clip-path="url(#pae072846f3)" d="M 271.326195 87.222922 
L 317.465743 361.554402 
" style="fill:none;opacity:0.2;stroke:#000000;stroke-linecap:square;stroke-width:0.2;"/>
   </g>
   <g id="line2d_62">
    <path clip-path="url(#pae072846f3)" d="M 257.801741 106.687213 
L 331.830613 353.30164 
" style="fill:none;opacity:0.2;stroke:#000000;stroke-linecap:square;stroke-width:0.2;"/>
   </g>
   <g id="line2d_63">
    <path clip-path="url(#pae072846f3)" d="M 284.235127 78.51678 
L 287.855122 355.295018 
" style="fill:none;opacity:0.2;stroke:#000000;stroke-linecap:square;stroke-width:0.2;"/>
   </g>
   <g id="line2d_64">
    <path clip-path="url(#pae072846f3)" d="M 279.352876 81.192874 
L 327.453574 356.933004 
" style="fill:none;opacity:0.2;stroke:#000000;stroke-linecap:square;stroke-width:0.2;"/>
   </g>
   <g id="line2d_65">
    <path clip-path="url(#pae072846f3)" d="M 341.695381 83.587455 
L 313.175184 362.420033 
" style="fill:none;opacity:0.2;stroke:#000000;stroke-linecap:square;stroke-width:0.2;"/>
   </g>
   <g id="line2d_66">
    <path clip-path="url(#pae072846f3)" d="M 322.498682 74.615834 
L 290.821086 357.462149 
" style="fill:none;opacity:0.2;stroke:#000000;stroke-linecap:square;stroke-width:0.2;"/>
   </g>
   <g id="line2d_67">
    <path clip-path="url(#pae072846f3)" d="M 360.917014 110.170728 
L 301.499737 361.920582 
" style="fill:none;opacity:0.2;stroke:#000000;stroke-linecap:square;stroke-width:0.2;"/>
   </g>
   <g id="line2d_68">
    <path clip-path="url(#pae072846f3)" d="M 258.200999 105.709226 
L 340.321855 337.528993 
" style="fill:none;opacity:0.2;stroke:#000000;stroke-linecap:square;stroke-width:0.2;"/>
   </g>
   <g id="line2d_69">
    <path clip-path="url(#pae072846f3)" d="M 257.992126 106.213676 
L 334.011578 350.897349 
" style="fill:none;opacity:0.2;stroke:#000000;stroke-linecap:square;stroke-width:0.2;"/>
   </g>
   <g id="line2d_70">
    <path clip-path="url(#pae072846f3)" d="M 308.081436 72.921724 
L 290.397945 357.183919 
" style="fill:none;opacity:0.2;stroke:#000000;stroke-linecap:square;stroke-width:0.2;"/>
   </g>
   <g id="line2d_71">
    <path clip-path="url(#pae072846f3)" d="M 261.407196 99.350641 
L 321.578282 360.141547 
" style="fill:none;opacity:0.2;stroke:#000000;stroke-linecap:square;stroke-width:0.2;"/>
   </g>
   <g id="line2d_72">
    <path clip-path="url(#pae072846f3)" d="M 342.154099 83.926111 
L 321.057354 360.354721 
" style="fill:none;opacity:0.2;stroke:#000000;stroke-linecap:square;stroke-width:0.2;"/>
   </g>
   <g id="line2d_73">
    <path clip-path="url(#pae072846f3)" d="M 275.647923 83.689032 
L 309.532383 362.706427 
" style="fill:none;opacity:0.2;stroke:#000000;stroke-linecap:square;stroke-width:0.2;"/>
   </g>
   <g id="line2d_74">
    <path clip-path="url(#pae072846f3)" d="M 317.070748 73.53387 
L 289.222356 356.359033 
" style="fill:none;opacity:0.2;stroke:#000000;stroke-linecap:square;stroke-width:0.2;"/>
   </g>
   <g id="line2d_75">
    <path clip-path="url(#pae072846f3)" d="M 307.300447 72.936202 
L 320.700818 360.494665 
" style="fill:none;opacity:0.2;stroke:#000000;stroke-linecap:square;stroke-width:0.2;"/>
   </g>
   <g id="line2d_76">
    <path clip-path="url(#pae072846f3)" d="M 265.398982 93.556905 
L 339.753197 339.907086 
" style="fill:none;opacity:0.2;stroke:#000000;stroke-linecap:square;stroke-width:0.2;"/>
   </g>
   <g id="line2d_77">
    <path clip-path="url(#pae072846f3)" d="M 293.455225 75.022242 
L 338.432568 343.626743 
" style="fill:none;opacity:0.2;stroke:#000000;stroke-linecap:square;stroke-width:0.2;"/>
   </g>
   <g id="line2d_78">
    <path clip-path="url(#pae072846f3)" d="M 278.107914 81.982929 
L 312.1817 362.538062 
" style="fill:none;opacity:0.2;stroke:#000000;stroke-linecap:square;stroke-width:0.2;"/>
   </g>
   <g id="line2d_79">
    <path clip-path="url(#pae072846f3)" d="M 257.69991 106.946232 
L 317.655259 361.502359 
" style="fill:none;opacity:0.2;stroke:#000000;stroke-linecap:square;stroke-width:0.2;"/>
   </g>
   <g id="line2d_80">
    <path clip-path="url(#pae072846f3)" d="M 260.378757 101.164496 
L 323.178195 359.419772 
" style="fill:none;opacity:0.2;stroke:#000000;stroke-linecap:square;stroke-width:0.2;"/>
   </g>
   <g id="line2d_81">
    <path clip-path="url(#pae072846f3)" d="M 285.183314 78.068656 
L 334.568818 350.19451 
" style="fill:none;opacity:0.2;stroke:#000000;stroke-linecap:square;stroke-width:0.2;"/>
   </g>
   <g id="line2d_82">
    <path clip-path="url(#pae072846f3)" d="M 290.414917 75.97076 
L 299.514073 361.413856 
" style="fill:none;opacity:0.2;stroke:#000000;stroke-linecap:square;stroke-width:0.2;"/>
   </g>
   <g id="line2d_83">
    <path clip-path="url(#pae072846f3)" d="M 327.472817 76.111876 
L 292.799486 358.643121 
" style="fill:none;opacity:0.2;stroke:#000000;stroke-linecap:square;stroke-width:0.2;"/>
   </g>
   <g id="line2d_84">
    <path clip-path="url(#pae072846f3)" d="M 359.529039 106.310104 
L 296.695099 360.461334 
" style="fill:none;opacity:0.2;stroke:#000000;stroke-linecap:square;stroke-width:0.2;"/>
   </g>
   <g id="line2d_85">
    <path clip-path="url(#pae072846f3)" d="M 310.368888 72.941279 
L 318.070313 361.384134 
" style="fill:none;opacity:0.2;stroke:#000000;stroke-linecap:square;stroke-width:0.2;"/>
   </g>
   <g id="line2d_86">
    <path clip-path="url(#pae072846f3)" d="M 334.568425 79.178682 
L 276.604464 332.206927 
" style="fill:none;opacity:0.2;stroke:#000000;stroke-linecap:square;stroke-width:0.2;"/>
   </g>
   <g id="line2d_87">
    <path clip-path="url(#pae072846f3)" d="M 269.437061 89.024091 
L 324.797959 358.579329 
" style="fill:none;opacity:0.2;stroke:#000000;stroke-linecap:square;stroke-width:0.2;"/>
   </g>
   <g id="line2d_88">
    <path clip-path="url(#pae072846f3)" d="M 256.499285 110.380878 
L 323.821035 359.099968 
" style="fill:none;opacity:0.2;stroke:#000000;stroke-linecap:square;stroke-width:0.2;"/>
   </g>
   <g id="line2d_89">
    <path clip-path="url(#pae072846f3)" d="M 325.621181 75.496028 
L 277.259544 338.01426 
" style="fill:none;opacity:0.2;stroke:#000000;stroke-linecap:square;stroke-width:0.2;"/>
   </g>
   <g id="line2d_90">
    <path clip-path="url(#pae072846f3)" d="M 294.112343 74.841827 
L 304.108263 362.392816 
" style="fill:none;opacity:0.2;stroke:#000000;stroke-linecap:square;stroke-width:0.2;"/>
   </g>
   <g id="line2d_91">
    <path clip-path="url(#pae072846f3)" d="M 331.038702 77.50658 
L 278.4489 342.122472 
" style="fill:none;opacity:0.2;stroke:#000000;stroke-linecap:square;stroke-width:0.2;"/>
   </g>
   <g id="line2d_92">
    <path clip-path="url(#pae072846f3)" d="M 254.915745 117.047008 
L 327.753742 356.723617 
" style="fill:none;opacity:0.2;stroke:#000000;stroke-linecap:square;stroke-width:0.2;"/>
   </g>
   <g id="line2d_93">
    <path clip-path="url(#pae072846f3)" d="M 328.028434 76.310799 
L 318.191297 361.348569 
" style="fill:none;opacity:0.2;stroke:#000000;stroke-linecap:square;stroke-width:0.2;"/>
   </g>
   <g id="line2d_94">
    <path clip-path="url(#pae072846f3)" d="M 276.922777 82.779911 
L 294.493304 359.51073 
" style="fill:none;opacity:0.2;stroke:#000000;stroke-linecap:square;stroke-width:0.2;"/>
   </g>
   <g id="line2d_95">
    <path clip-path="url(#pae072846f3)" d="M 357.576135 102.059992 
L 291.377851 357.814008 
" style="fill:none;opacity:0.2;stroke:#000000;stroke-linecap:square;stroke-width:0.2;"/>
   </g>
   <g id="line2d_96">
    <path clip-path="url(#pae072846f3)" d="M 277.516326 82.375133 
L 317.283902 361.603204 
" style="fill:none;opacity:0.2;stroke:#000000;stroke-linecap:square;stroke-width:0.2;"/>
   </g>
   <g id="line2d_97">
    <path clip-path="url(#pae072846f3)" d="M 275.454417 83.831929 
L 312.434761 362.510864 
" style="fill:none;opacity:0.2;stroke:#000000;stroke-linecap:square;stroke-width:0.2;"/>
   </g>
   <g id="line2d_98">
    <path clip-path="url(#pae072846f3)" d="M 260.18368 101.52874 
L 340.258006 337.845198 
" style="fill:none;opacity:0.2;stroke:#000000;stroke-linecap:square;stroke-width:0.2;"/>
   </g>
   <g id="line2d_99">
    <path clip-path="url(#pae072846f3)" d="M 303.265233 73.183182 
L 290.45319 357.220787 
" style="fill:none;opacity:0.2;stroke:#000000;stroke-linecap:square;stroke-width:0.2;"/>
   </g>
   <g id="line2d_100">
    <path clip-path="url(#pae072846f3)" d="M 340.32001 82.61543 
L 299.815602 361.499275 
" style="fill:none;opacity:0.2;stroke:#000000;stroke-linecap:square;stroke-width:0.2;"/>
   </g>
   <g id="line2d_101">
    <path clip-path="url(#pae072846f3)" d="M 349.709971 90.768167 
L 283.703978 351.180006 
" style="fill:none;opacity:0.2;stroke:#000000;stroke-linecap:square;stroke-width:0.2;"/>
   </g>
   <g id="line2d_102">
    <path clip-path="url(#pae072846f3)" d="M 290.462477 75.954448 
L 340.869724 332.586445 
" style="fill:none;opacity:0.2;stroke:#000000;stroke-linecap:square;stroke-width:0.2;"/>
   </g>
   <g id="line2d_103">
    <path clip-path="url(#pae072846f3)" d="M 276.225905 83.270001 
L 293.626309 359.082247 
" style="fill:none;opacity:0.2;stroke:#000000;stroke-linecap:square;stroke-width:0.2;"/>
   </g>
   <g id="line2d_104">
    <path clip-path="url(#pae072846f3)" d="M 321.582942 74.394149 
L 301.441764 361.907627 
" style="fill:none;opacity:0.2;stroke:#000000;stroke-linecap:square;stroke-width:0.2;"/>
   </g>
   <g id="line2d_105">
    <path clip-path="url(#pae072846f3)" d="M 256.238105 111.250585 
L 319.149611 361.048962 
" style="fill:none;opacity:0.2;stroke:#000000;stroke-linecap:square;stroke-width:0.2;"/>
   </g>
   <g id="line2d_106">
    <path clip-path="url(#pae072846f3)" d="M 353.585202 95.546573 
L 282.495264 349.638752 
" style="fill:none;opacity:0.2;stroke:#000000;stroke-linecap:square;stroke-width:0.2;"/>
   </g>
   <g id="line2d_107">
    <path clip-path="url(#pae072846f3)" d="M 311.520483 72.986113 
L 338.955216 342.331363 
" style="fill:none;opacity:0.2;stroke:#000000;stroke-linecap:square;stroke-width:0.2;"/>
   </g>
   <g id="line2d_108">
    <path clip-path="url(#pae072846f3)" d="M 306.280194 72.971356 
L 300.215519 361.607834 
" style="fill:none;opacity:0.2;stroke:#000000;stroke-linecap:square;stroke-width:0.2;"/>
   </g>
   <g id="line2d_109">
    <path clip-path="url(#pae072846f3)" d="M 287.549702 77.043438 
L 336.22476 347.820763 
" style="fill:none;opacity:0.2;stroke:#000000;stroke-linecap:square;stroke-width:0.2;"/>
   </g>
   <g id="line2d_110">
    <path clip-path="url(#pae072846f3)" d="M 297.072907 74.133528 
L 304.856021 362.489022 
" style="fill:none;opacity:0.2;stroke:#000000;stroke-linecap:square;stroke-width:0.2;"/>
   </g>
   <g id="line2d_111">
    <path clip-path="url(#pae072846f3)" d="M 311.380576 72.979414 
L 311.173622 362.627084 
" style="fill:none;opacity:0.2;stroke:#000000;stroke-linecap:square;stroke-width:0.2;"/>
   </g>
   <g id="line2d_112">
    <path clip-path="url(#pae072846f3)" d="M 335.497533 79.670924 
L 303.085299 362.233175 
" style="fill:none;opacity:0.2;stroke:#000000;stroke-linecap:square;stroke-width:0.2;"/>
   </g>
   <g id="line2d_113">
    <path clip-path="url(#pae072846f3)" d="M 349.770579 90.834713 
L 299.056199 361.278214 
" style="fill:none;opacity:0.2;stroke:#000000;stroke-linecap:square;stroke-width:0.2;"/>
   </g>
   <g id="line2d_114">
    <path clip-path="url(#pae072846f3)" d="M 342.494252 84.182085 
L 280.788034 347.05119 
" style="fill:none;opacity:0.2;stroke:#000000;stroke-linecap:square;stroke-width:0.2;"/>
   </g>
   <g id="line2d_115">
    <path clip-path="url(#pae072846f3)" d="M 285.876634 77.754716 
L 329.824034 355.13143 
" style="fill:none;opacity:0.2;stroke:#000000;stroke-linecap:square;stroke-width:0.2;"/>
   </g>
   <g id="line2d_116">
    <path clip-path="url(#pae072846f3)" d="M 338.162731 81.213618 
L 305.757427 362.582254 
" style="fill:none;opacity:0.2;stroke:#000000;stroke-linecap:square;stroke-width:0.2;"/>
   </g>
   <g id="line2d_117">
    <path clip-path="url(#pae072846f3)" d="M 296.662701 74.221613 
L 300.54382 361.692956 
" style="fill:none;opacity:0.2;stroke:#000000;stroke-linecap:square;stroke-width:0.2;"/>
   </g>
   <g id="line2d_118">
    <path clip-path="url(#pae072846f3)" d="M 302.464723 73.266699 
L 339.684237 340.147183 
" style="fill:none;opacity:0.2;stroke:#000000;stroke-linecap:square;stroke-width:0.2;"/>
   </g>
   <g id="line2d_119">
    <path clip-path="url(#pae072846f3)" d="M 317.853477 73.655939 
L 317.177396 361.631274 
" style="fill:none;opacity:0.2;stroke:#000000;stroke-linecap:square;stroke-width:0.2;"/>
   </g>
   <g id="line2d_120">
    <path clip-path="url(#pae072846f3)" d="M 343.193268 84.721442 
L 295.043784 359.766471 
" style="fill:none;opacity:0.2;stroke:#000000;stroke-linecap:square;stroke-width:0.2;"/>
   </g>
   <g id="line2d_121">
    <path clip-path="url(#pae072846f3)" d="M 302.037644 73.315973 
L 281.336387 347.945809 
" style="fill:none;opacity:0.2;stroke:#000000;stroke-linecap:square;stroke-width:0.2;"/>
   </g>
   <g id="line2d_122">
    <path clip-path="url(#pae072846f3)" d="M 342.232251 83.984553 
L 318.40407 361.2848 
" style="fill:none;opacity:0.2;stroke:#000000;stroke-linecap:square;stroke-width:0.2;"/>
   </g>
   <g id="line2d_123">
    <path clip-path="url(#pae072846f3)" d="M 339.510863 82.072659 
L 278.886767 343.241777 
" style="fill:none;opacity:0.2;stroke:#000000;stroke-linecap:square;stroke-width:0.2;"/>
   </g>
   <g id="line2d_124">
    <path clip-path="url(#pae072846f3)" d="M 353.231193 95.059726 
L 280.847405 347.151442 
" style="fill:none;opacity:0.2;stroke:#000000;stroke-linecap:square;stroke-width:0.2;"/>
   </g>
   <g id="line2d_125">
    <path clip-path="url(#pae072846f3)" d="M 358.100211 103.10516 
L 279.725808 345.089453 
" style="fill:none;opacity:0.2;stroke:#000000;stroke-linecap:square;stroke-width:0.2;"/>
   </g>
   <g id="line2d_126">
    <path clip-path="url(#pae072846f3)" d="M 314.632912 73.225167 
L 285.029079 352.665462 
" style="fill:none;opacity:0.2;stroke:#000000;stroke-linecap:square;stroke-width:0.2;"/>
   </g>
   <g id="line2d_127">
    <path clip-path="url(#pae072846f3)" d="M 349.786521 90.852255 
L 285.133845 352.775117 
" style="fill:none;opacity:0.2;stroke:#000000;stroke-linecap:square;stroke-width:0.2;"/>
   </g>
   <g id="line2d_128">
    <path clip-path="url(#pae072846f3)" d="M 299.181546 73.730694 
L 277.053854 336.958546 
" style="fill:none;opacity:0.2;stroke:#000000;stroke-linecap:square;stroke-width:0.2;"/>
   </g>
   <g id="line2d_129">
    <path clip-path="url(#pae072846f3)" d="M 358.456497 103.851394 
L 277.805589 340.174124 
" style="fill:none;opacity:0.2;stroke:#000000;stroke-linecap:square;stroke-width:0.2;"/>
   </g>
   <g id="line2d_130">
    <path clip-path="url(#pae072846f3)" d="M 268.970148 89.497381 
L 303.569405 362.312784 
" style="fill:none;opacity:0.2;stroke:#000000;stroke-linecap:square;stroke-width:0.2;"/>
   </g>
   <g id="line2d_131">
    <path clip-path="url(#pae072846f3)" d="M 256.799923 109.443318 
L 326.129383 357.798373 
" style="fill:none;opacity:0.2;stroke:#000000;stroke-linecap:square;stroke-width:0.2;"/>
   </g>
   <g id="line2d_132">
    <path clip-path="url(#pae072846f3)" d="M 302.696805 73.241301 
L 336.420234 347.506278 
" style="fill:none;opacity:0.2;stroke:#000000;stroke-linecap:square;stroke-width:0.2;"/>
   </g>
   <g id="line2d_133">
    <path clip-path="url(#pae072846f3)" d="M 266.917136 91.72826 
L 340.593383 335.912261 
" style="fill:none;opacity:0.2;stroke:#000000;stroke-linecap:square;stroke-width:0.2;"/>
   </g>
   <g id="line2d_134">
    <path clip-path="url(#pae072846f3)" d="M 259.275446 103.324593 
L 310.345434 362.677242 
" style="fill:none;opacity:0.2;stroke:#000000;stroke-linecap:square;stroke-width:0.2;"/>
   </g>
   <g id="line2d_135">
    <path clip-path="url(#pae072846f3)" d="M 258.202695 105.705193 
L 338.696905 342.993143 
" style="fill:none;opacity:0.2;stroke:#000000;stroke-linecap:square;stroke-width:0.2;"/>
   </g>
   <g id="line2d_136">
    <path clip-path="url(#pae072846f3)" d="M 257.087516 108.600048 
L 337.446133 345.698386 
" style="fill:none;opacity:0.2;stroke:#000000;stroke-linecap:square;stroke-width:0.2;"/>
   </g>
   <g id="line2d_137">
    <path clip-path="url(#pae072846f3)" d="M 334.712158 79.253355 
L 282.335773 349.419597 
" style="fill:none;opacity:0.2;stroke:#000000;stroke-linecap:square;stroke-width:0.2;"/>
   </g>
   <g id="line2d_138">
    <path clip-path="url(#pae072846f3)" d="M 317.684829 73.628687 
L 327.274093 357.055798 
" style="fill:none;opacity:0.2;stroke:#000000;stroke-linecap:square;stroke-width:0.2;"/>
   </g>
   <g id="line2d_139">
    <path clip-path="url(#pae072846f3)" d="M 326.674112 75.83743 
L 316.792086 361.729674 
" style="fill:none;opacity:0.2;stroke:#000000;stroke-linecap:square;stroke-width:0.2;"/>
   </g>
   <g id="line2d_140">
    <path clip-path="url(#pae072846f3)" d="M 356.076578 99.353709 
L 296.492828 360.381873 
" style="fill:none;opacity:0.2;stroke:#000000;stroke-linecap:square;stroke-width:0.2;"/>
   </g>
   <g id="line2d_141">
    <path clip-path="url(#pae072846f3)" d="M 338.691351 81.543876 
L 311.232066 362.622764 
" style="fill:none;opacity:0.2;stroke:#000000;stroke-linecap:square;stroke-width:0.2;"/>
   </g>
   <g id="line2d_142">
    <path clip-path="url(#pae072846f3)" d="M 293.93964 74.888414 
L 317.507296 361.543095 
" style="fill:none;opacity:0.2;stroke:#000000;stroke-linecap:square;stroke-width:0.2;"/>
   </g>
   <g id="line2d_143">
    <path clip-path="url(#pae072846f3)" d="M 293.031978 75.143004 
L 303.759656 362.34207 
" style="fill:none;opacity:0.2;stroke:#000000;stroke-linecap:square;stroke-width:0.2;"/>
   </g>
   <g id="line2d_144">
    <path clip-path="url(#pae072846f3)" d="M 297.916985 73.962284 
L 306.600116 362.647114 
" style="fill:none;opacity:0.2;stroke:#000000;stroke-linecap:square;stroke-width:0.2;"/>
   </g>
   <g id="line2d_145">
    <path clip-path="url(#pae072846f3)" d="M 362.701383 117.900246 
L 284.235822 351.799232 
" style="fill:none;opacity:0.2;stroke:#000000;stroke-linecap:square;stroke-width:0.2;"/>
   </g>
   <g id="line2d_146">
    <path clip-path="url(#pae072846f3)" d="M 343.675595 85.104364 
L 279.221431 344.018669 
" style="fill:none;opacity:0.2;stroke:#000000;stroke-linecap:square;stroke-width:0.2;"/>
   </g>
   <g id="line2d_147">
    <path clip-path="url(#pae072846f3)" d="M 329.955685 77.052958 
L 332.106847 353.023665 
" style="fill:none;opacity:0.2;stroke:#000000;stroke-linecap:square;stroke-width:0.2;"/>
   </g>
   <g id="line2d_148">
    <path clip-path="url(#pae072846f3)" d="M 259.990181 101.897103 
L 317.949405 361.419178 
" style="fill:none;opacity:0.2;stroke:#000000;stroke-linecap:square;stroke-width:0.2;"/>
   </g>
   <g id="line2d_149">
    <path clip-path="url(#pae072846f3)" d="M 332.564242 78.191975 
L 310.300064 362.679393 
" style="fill:none;opacity:0.2;stroke:#000000;stroke-linecap:square;stroke-width:0.2;"/>
   </g>
   <g id="line2d_150">
    <path clip-path="url(#pae072846f3)" d="M 340.701519 82.878697 
L 309.539848 362.706249 
" style="fill:none;opacity:0.2;stroke:#000000;stroke-linecap:square;stroke-width:0.2;"/>
   </g>
   <g id="line2d_151">
    <path clip-path="url(#pae072846f3)" d="M 312.088499 73.016878 
L 300.830976 361.764483 
" style="fill:none;opacity:0.2;stroke:#000000;stroke-linecap:square;stroke-width:0.2;"/>
   </g>
   <g id="line2d_152">
    <path clip-path="url(#pae072846f3)" d="M 353.056131 94.823243 
L 304.81855 362.48461 
" style="fill:none;opacity:0.2;stroke:#000000;stroke-linecap:square;stroke-width:0.2;"/>
   </g>
   <g id="legend_1">
    <g id="patch_93">
     <path d="M 447.2896 161.504117 
L 547.314709 161.504117 
L 547.314709 37.853559 
L 447.2896 37.853559 
z
" style="fill:#ffffff;stroke:#000000;stroke-linejoin:miter;"/>
    </g>
    <g id="patch_94">
     <path d="M 452.8896 53.391207 
L 480.8896 53.391207 
L 480.8896 43.591207 
L 452.8896 43.591207 
z
" style="stroke:#000000;stroke-linejoin:miter;"/>
    </g>
    <g id="text_19">
     <!-- \rm{300.0 K} -->
     <defs>
      <path d="M 34.59375 37.359375 
C 36 37.859375 36.203125 37.859375 36.90625 38.15625 
C 43.90625 41.0625 47.90625 46.671875 47.90625 53.765625 
C 47.90625 64.1875 39.90625 71 27.5 71 
C 15.796875 71 6.90625 63.96875 6.90625 54.71875 
C 6.90625 50.546875 9.703125 47.59375 13.5 47.59375 
C 17 47.59375 19.40625 50.046875 19.40625 53.71875 
C 19.40625 55.875 18.59375 57.296875 16.296875 58.9375 
C 15.296875 59.640625 15 60.15625 15 60.78125 
C 15 63.640625 20.90625 66.703125 26.5 66.703125 
C 33.703125 66.703125 37.5 62.125 37.5 53.46875 
C 37.5 43.984375 33.703125 39 26.5 39 
C 25.59375 39 24 39 22.5 39 
C 21.703125 39 20.90625 39 20.296875 39 
C 18.203125 39 17.09375 38.125 17.09375 36.40625 
C 17.09375 34.78125 18.203125 34.015625 20.203125 34.015625 
C 20.5 34.015625 21.296875 34.015625 22.59375 34.015625 
C 26.40625 34.015625 26.5 34.015625 27.296875 34.015625 
C 34.703125 34.015625 38.703125 28.828125 38.703125 19.140625 
C 38.703125 9.0625 33.59375 3.296875 24.703125 3.296875 
C 18.40625 3.296875 11.59375 6.640625 11.59375 9.6875 
C 11.59375 10.59375 11.796875 10.765625 13.796875 11.875 
C 16.59375 13.53125 17.703125 15.21875 17.703125 17.65625 
C 17.703125 21.203125 15 23.875 11.296875 23.875 
C 7.09375 23.875 4.203125 20.328125 4.203125 15.1875 
C 4.203125 5.609375 13.09375 -1 25.90625 -1 
C 40.296875 -1 49.796875 7.015625 49.796875 19.328125 
C 49.796875 28.734375 44.90625 34.4375 34.59375 37.359375 
" id="Century_Schoolbook_L_Roman-51"/>
      <path d="M 28.40625 71 
C 14.40625 71 4.203125 55.6875 4.203125 34.75 
C 4.203125 14.125 14.09375 -1 27.59375 -1 
C 41.59375 -1 51.40625 13.625 51.40625 34.4375 
C 51.40625 45.0625 49.203125 53.875 45 60.78125 
C 41.09375 67.09375 34.703125 71 28.40625 71 
M 27.703125 66.703125 
C 31 66.703125 34.203125 64.5 36.59375 60.5 
C 39.296875 55.875 40.203125 49.96875 40.203125 36.25 
C 40.203125 22.21875 39.5 15.625 37.5 11.203125 
C 35.203125 6.296875 31.59375 3.296875 27.796875 3.296875 
C 24.5 3.296875 21.296875 5.5 18.90625 9.5 
C 16.09375 14.21875 15.296875 20.53125 15.296875 36.859375 
C 15.296875 48.484375 16 54.375 18 58.6875 
C 20.296875 63.796875 23.90625 66.703125 27.703125 66.703125 
" id="Century_Schoolbook_L_Roman-48"/>
      <path d="M 13.703125 11.46875 
C 10.203125 11.46875 7.40625 8.671875 7.40625 5.28125 
C 7.40625 1.78125 10.203125 -1 13.59375 -1 
C 17.09375 -1 19.90625 1.78125 19.90625 5.28125 
C 19.90625 8.671875 17.09375 11.46875 13.703125 11.46875 
" id="Century_Schoolbook_L_Roman-46"/>
      <path d="M 25 32.609375 
L 25 59.71875 
L 25 62.609375 
C 25 66.8125 25.90625 67.3125 34 67.3125 
L 35.90625 67.3125 
L 35.90625 72 
L 3 72 
L 3 67.3125 
L 4.796875 67.3125 
C 12.90625 67.3125 13.796875 66.8125 13.796875 62.609375 
L 13.796875 59.734375 
L 13.796875 12.28125 
L 13.796875 9.375 
C 13.796875 5.1875 12.90625 4.6875 4.796875 4.6875 
L 3 4.6875 
L 3 0 
L 35.90625 0 
L 35.90625 4.6875 
L 34 4.6875 
C 25.90625 4.6875 25 5.1875 25 9.375 
L 25 12.28125 
L 25 24.9375 
L 36.59375 36.59375 
L 54 11.171875 
C 55.59375 8.78125 56 7.984375 56 6.984375 
C 56 5.390625 54.09375 4.6875 49.203125 4.6875 
L 46.09375 4.6875 
L 46.09375 0 
L 80.296875 0 
L 80.296875 4.6875 
L 78.40625 4.6875 
C 72.90625 4.6875 71.5 5.390625 68.59375 9.6875 
L 44.40625 44.46875 
L 59.296875 59.328125 
C 64.09375 64.40625 70.203125 67.3125 76.203125 67.3125 
L 76.203125 72 
L 45.40625 72 
L 45.40625 67.3125 
L 47.90625 67.3125 
C 52.5 67.3125 54.40625 66.40625 54.40625 64.3125 
C 54.40625 62.921875 52.40625 60.015625 49.5 57.140625 
z
" id="Century_Schoolbook_L_Roman-75"/>
     </defs>
     <g transform="translate(492.089600132 53.3912073134)scale(0.14 -0.14)">
      <use transform="scale(0.996264009963)" xlink:href="#Century_Schoolbook_L_Roman-51"/>
      <use transform="translate(55.3916769633 0.0)scale(0.996264009963)" xlink:href="#Century_Schoolbook_L_Roman-48"/>
      <use transform="translate(110.783353927 0.0)scale(0.996264009963)" xlink:href="#Century_Schoolbook_L_Roman-48"/>
      <use transform="translate(166.17503089 0.0)scale(0.996264009963)" xlink:href="#Century_Schoolbook_L_Roman-46"/>
      <use transform="translate(193.870200493 0.0)scale(0.996264009963)" xlink:href="#Century_Schoolbook_L_Roman-48"/>
      <use transform="translate(276.95704706 0.0)scale(0.996264009963)" xlink:href="#Century_Schoolbook_L_Roman-75"/>
     </g>
    </g>
    <g id="patch_95">
     <path d="M 452.8896 73.299634 
L 480.8896 73.299634 
L 480.8896 63.499634 
L 452.8896 63.499634 
z
" style="fill:#ff0000;stroke:#ff0000;stroke-linejoin:miter;"/>
    </g>
    <g id="text_20">
     <!-- \rm{80.0 K} -->
     <defs>
      <path d="M 37.40625 39.546875 
C 44.90625 43.65625 48.40625 48.5625 48.40625 55.078125 
C 48.40625 64.296875 40 71 28.5 71 
C 16.296875 71 7.40625 62.875 7.40625 51.875 
C 7.40625 47.5625 9 43.078125 11.796875 39.96875 
C 13.5 37.96875 15.09375 36.859375 18.703125 34.953125 
C 14.296875 33.265625 12.40625 32.25 10.203125 30.453125 
C 6.296875 27.234375 4.09375 22.4375 4.09375 17.328125 
C 4.09375 11.921875 6.796875 6.515625 11 3.3125 
C 14.90625 0.5 20.296875 -1 26.703125 -1 
C 34.09375 -1 40.296875 1 44.40625 4.703125 
C 48.703125 8.421875 51.296875 14.515625 51.296875 20.640625 
C 51.296875 26.34375 49.09375 31.453125 45 35.0625 
C 43 36.75 41.203125 37.859375 37.40625 39.546875 
M 26.703125 43.46875 
C 18.59375 46.46875 15.09375 50.28125 15.09375 56.09375 
C 15.09375 62.390625 20.296875 66.703125 28.203125 66.703125 
C 35.90625 66.703125 41 61.796875 41 54.484375 
C 41 49.28125 39 45.875 33.296875 41.0625 
z
M 32.5 29.640625 
C 40.09375 26.9375 43.296875 23.03125 43.296875 16.421875 
C 43.296875 8.40625 37 3.296875 27.203125 3.296875 
C 17.90625 3.296875 12.40625 8.5 12.40625 17.3125 
C 12.40625 24.828125 15.5 29.34375 23.296875 32.953125 
z
" id="Century_Schoolbook_L_Roman-56"/>
     </defs>
     <g transform="translate(492.089600132 73.2996336006)scale(0.14 -0.14)">
      <use transform="scale(0.996264009963)" xlink:href="#Century_Schoolbook_L_Roman-56"/>
      <use transform="translate(55.3916769633 0.0)scale(0.996264009963)" xlink:href="#Century_Schoolbook_L_Roman-48"/>
      <use transform="translate(110.783353927 0.0)scale(0.996264009963)" xlink:href="#Century_Schoolbook_L_Roman-46"/>
      <use transform="translate(138.47852353 0.0)scale(0.996264009963)" xlink:href="#Century_Schoolbook_L_Roman-48"/>
      <use transform="translate(221.565370097 0.0)scale(0.996264009963)" xlink:href="#Century_Schoolbook_L_Roman-75"/>
     </g>
    </g>
    <g id="patch_96">
     <path d="M 452.8896 93.20806 
L 480.8896 93.20806 
L 480.8896 83.40806 
L 452.8896 83.40806 
z
" style="fill:#bfbf00;stroke:#bfbf00;stroke-linejoin:miter;"/>
    </g>
    <g id="text_21">
     <!-- \rm{40.0 K} -->
     <defs>
      <path d="M 36.796875 70.5 
L 2.796875 23 
L 2.796875 17.40625 
L 30.90625 17.40625 
L 30.90625 12.25 
L 30.90625 9.359375 
C 30.90625 5.1875 30 4.6875 21.90625 4.6875 
L 20.796875 4.6875 
L 20.796875 0 
L 50 0 
L 50 4.6875 
L 49.59375 4.6875 
C 41.5 4.6875 40.59375 5.1875 40.59375 9.359375 
L 40.59375 12.25 
L 40.59375 17.40625 
L 52.703125 17.40625 
L 52.703125 23 
L 40.59375 23 
L 40.59375 50.40625 
C 40.59375 62.96875 40.59375 62.96875 41.09375 70.5 
z
M 30.90625 23 
L 8.90625 23 
L 30.90625 53.421875 
z
" id="Century_Schoolbook_L_Roman-52"/>
     </defs>
     <g transform="translate(492.089600132 93.2080598877)scale(0.14 -0.14)">
      <use transform="scale(0.996264009963)" xlink:href="#Century_Schoolbook_L_Roman-52"/>
      <use transform="translate(55.3916769633 0.0)scale(0.996264009963)" xlink:href="#Century_Schoolbook_L_Roman-48"/>
      <use transform="translate(110.783353927 0.0)scale(0.996264009963)" xlink:href="#Century_Schoolbook_L_Roman-46"/>
      <use transform="translate(138.47852353 0.0)scale(0.996264009963)" xlink:href="#Century_Schoolbook_L_Roman-48"/>
      <use transform="translate(221.565370097 0.0)scale(0.996264009963)" xlink:href="#Century_Schoolbook_L_Roman-75"/>
     </g>
    </g>
    <g id="patch_97">
     <path d="M 452.8896 113.116486 
L 480.8896 113.116486 
L 480.8896 103.316486 
L 452.8896 103.316486 
z
" style="fill:#008000;stroke:#008000;stroke-linejoin:miter;"/>
    </g>
    <g id="text_22">
     <!-- \rm{4.0 K} -->
     <g transform="translate(492.089600132 113.116486175)scale(0.14 -0.14)">
      <use transform="scale(0.996264009963)" xlink:href="#Century_Schoolbook_L_Roman-52"/>
      <use transform="translate(55.3916769633 0.0)scale(0.996264009963)" xlink:href="#Century_Schoolbook_L_Roman-46"/>
      <use transform="translate(83.0868465666 0.0)scale(0.996264009963)" xlink:href="#Century_Schoolbook_L_Roman-48"/>
      <use transform="translate(166.173693133 0.0)scale(0.996264009963)" xlink:href="#Century_Schoolbook_L_Roman-75"/>
     </g>
    </g>
    <g id="patch_98">
     <path d="M 452.8896 133.024912 
L 480.8896 133.024912 
L 480.8896 123.224912 
L 452.8896 123.224912 
z
" style="fill:#00bfbf;stroke:#00bfbf;stroke-linejoin:miter;"/>
    </g>
    <g id="text_23">
     <!-- \rm{1.0 K} -->
     <defs>
      <path d="M 32.203125 70.5 
C 28.796875 66.234375 19.59375 63 10.40625 63 
L 10.40625 58.59375 
L 19.203125 58.59375 
C 25 58.59375 25.40625 58.203125 25.40625 52.3125 
L 25.40625 12.28125 
L 25.40625 9.375 
C 25.40625 5.1875 24.5 4.6875 16.5 4.6875 
L 10 4.6875 
L 10 0 
L 49.59375 0 
L 49.59375 4.6875 
L 44.09375 4.6875 
C 38.796875 4.6875 36.59375 5.09375 35.796875 6.09375 
C 35.09375 6.78125 35.09375 6.78125 35.09375 12.3125 
L 35.09375 53.671875 
C 35.09375 58.578125 35.296875 63.375 35.796875 70.5 
z
" id="Century_Schoolbook_L_Roman-49"/>
     </defs>
     <g transform="translate(492.089600132 133.024912462)scale(0.14 -0.14)">
      <use transform="scale(0.996264009963)" xlink:href="#Century_Schoolbook_L_Roman-49"/>
      <use transform="translate(55.3916769633 0.0)scale(0.996264009963)" xlink:href="#Century_Schoolbook_L_Roman-46"/>
      <use transform="translate(83.0868465666 0.0)scale(0.996264009963)" xlink:href="#Century_Schoolbook_L_Roman-48"/>
      <use transform="translate(166.173693133 0.0)scale(0.996264009963)" xlink:href="#Century_Schoolbook_L_Roman-75"/>
     </g>
    </g>
    <g id="patch_99">
     <path d="M 452.8896 152.933339 
L 480.8896 152.933339 
L 480.8896 143.133339 
L 452.8896 143.133339 
z
" style="fill:#0000ff;stroke:#0000ff;stroke-linejoin:miter;"/>
    </g>
    <g id="text_24">
     <!-- \rm{0.1 K} -->
     <g transform="translate(492.089600132 152.933338749)scale(0.14 -0.14)">
      <use transform="scale(0.996264009963)" xlink:href="#Century_Schoolbook_L_Roman-48"/>
      <use transform="translate(55.3916769633 0.0)scale(0.996264009963)" xlink:href="#Century_Schoolbook_L_Roman-46"/>
      <use transform="translate(83.0868465666 0.0)scale(0.996264009963)" xlink:href="#Century_Schoolbook_L_Roman-49"/>
      <use transform="translate(166.173693133 0.0)scale(0.996264009963)" xlink:href="#Century_Schoolbook_L_Roman-75"/>
     </g>
    </g>
   </g>
  </g>
 </g>
 <defs>
  <clipPath id="pae072846f3">
   <rect height="425.369588482" width="491.14746551" x="63.1672434669" y="30.853558944"/>
  </clipPath>
 </defs>
</svg>
