<?xml version="1.0" encoding="utf-8" standalone="no"?>
<!DOCTYPE svg PUBLIC "-//W3C//DTD SVG 1.1//EN"
  "http://www.w3.org/Graphics/SVG/1.1/DTD/svg11.dtd">
<!-- Created with matplotlib (http://matplotlib.org/) -->
<svg height="504pt" version="1.1" viewBox="0 0 576 504" width="576pt" xmlns="http://www.w3.org/2000/svg" xmlns:xlink="http://www.w3.org/1999/xlink">
 <defs>
  <style type="text/css">
*{stroke-linecap:butt;stroke-linejoin:round;stroke-miterlimit:100000;}
  </style>
 </defs>
 <g id="figure_1">
  <g id="patch_1">
   <path d="M 0 504 
L 576 504 
L 576 0 
L 0 0 
z
" style="fill:#ffffff;"/>
  </g>
  <g id="axes_1">
   <g id="patch_2">
    <path d="M 63.167243 456.223147 
L 554.314709 456.223147 
L 554.314709 30.853559 
L 63.167243 30.853559 
z
" style="fill:#ffffff;"/>
   </g>
   <g id="patch_3">
    <path d="M 63.167243 30.853559 
L 554.314709 30.853559 
" style="fill:none;stroke:#000000;stroke-linecap:square;stroke-linejoin:miter;"/>
   </g>
   <g id="patch_4">
    <path d="M 554.314709 456.223147 
L 554.314709 30.853559 
" style="fill:none;stroke:#000000;stroke-linecap:square;stroke-linejoin:miter;"/>
   </g>
   <g id="patch_5">
    <path d="M 63.167243 456.223147 
L 554.314709 456.223147 
" style="fill:none;stroke:#000000;stroke-linecap:square;stroke-linejoin:miter;"/>
   </g>
   <g id="patch_6">
    <path d="M 63.167243 456.223147 
L 63.167243 30.853559 
" style="fill:none;stroke:#000000;stroke-linecap:square;stroke-linejoin:miter;"/>
   </g>
   <g id="matplotlib.axis_1">
    <g id="xtick_1">
     <g id="line2d_1">
      <path clip-path="url(#pbcc918de4f)" d="M 63.167243 456.223147 
L 63.167243 30.853559 
" style="fill:none;stroke:#000000;stroke-dasharray:1.000000,3.000000;stroke-dashoffset:0.0;stroke-width:0.5;"/>
     </g>
     <g id="line2d_2">
      <defs>
       <path d="M 0 0 
L 0 -4 
" id="mcecadef732" style="stroke:#000000;stroke-width:0.5;"/>
      </defs>
      <g>
       <use style="stroke:#000000;stroke-width:0.5;" x="63.1672434669" xlink:href="#mcecadef732" y="456.223147426"/>
      </g>
     </g>
     <g id="line2d_3">
      <defs>
       <path d="M 0 0 
L 0 4 
" id="m978f759a17" style="stroke:#000000;stroke-width:0.5;"/>
      </defs>
      <g>
       <use style="stroke:#000000;stroke-width:0.5;" x="63.1672434669" xlink:href="#m978f759a17" y="30.853558944"/>
      </g>
     </g>
     <g id="text_1">
      <!-- $-1.2$ -->
      <defs>
       <path d="M 65.90625 23 
C 67.59375 23 69.40625 23 69.40625 25 
C 69.40625 27 67.59375 27 65.90625 27 
L 11.796875 27 
C 10.09375 27 8.296875 27 8.296875 25 
C 8.296875 23 10.09375 23 11.796875 23 
z
" id="CMSY10-0"/>
       <path d="M 41.703125 15.453125 
L 39.90625 15.453125 
C 38.90625 8.375 38.09375 7.171875 37.703125 6.5625 
C 37.203125 5.765625 30 5.765625 28.59375 5.765625 
L 9.40625 5.765625 
C 13 9.671875 20 16.75 28.5 24.953125 
C 34.59375 30.734375 41.703125 37.53125 41.703125 47.421875 
C 41.703125 59.21875 32.296875 66 21.796875 66 
C 10.796875 66 4.09375 56.3125 4.09375 47.34375 
C 4.09375 43.4375 7 42.9375 8.203125 42.9375 
C 9.203125 42.9375 12.203125 43.546875 12.203125 47.03125 
C 12.203125 50.109375 9.59375 51 8.203125 51 
C 7.59375 51 7 50.90625 6.59375 50.703125 
C 8.5 59.21875 14.296875 63.40625 20.40625 63.40625 
C 29.09375 63.40625 34.796875 56.515625 34.796875 47.421875 
C 34.796875 38.734375 29.703125 31.25 24 24.75 
L 4.09375 2.28125 
L 4.09375 0 
L 39.296875 0 
z
" id="CMR17-50"/>
       <path d="M 26.59375 63.40625 
C 26.59375 65.5 26.5 65.5 25.09375 65.5 
C 21.203125 61.1875 15.296875 59.796875 9.703125 59.796875 
C 9.40625 59.796875 8.90625 59.796875 8.796875 59.5 
C 8.703125 59.296875 8.703125 59.09375 8.703125 57 
C 11.796875 57 17 57.59375 21 59.984375 
L 21 7.203125 
C 21 3.6875 20.796875 2.5 12.203125 2.5 
L 9.203125 2.5 
L 9.203125 0 
C 14 0 19 0 23.796875 0 
C 28.59375 0 33.59375 0 38.40625 0 
L 38.40625 2.5 
L 35.40625 2.5 
C 26.796875 2.5 26.59375 3.59375 26.59375 7.15625 
z
" id="CMR17-49"/>
       <path d="M 18.40625 4.796875 
C 18.40625 7.6875 16 9.671875 13.59375 9.671875 
C 10.703125 9.671875 8.703125 7.28125 8.703125 4.890625 
C 8.703125 2 11.09375 0 13.5 0 
C 16.40625 0 18.40625 2.390625 18.40625 4.796875 
" id="CMMI12-58"/>
      </defs>
      <g transform="translate(49.017834877 470.160795795)scale(0.14 -0.14)">
       <use transform="scale(0.996264009963)" xlink:href="#CMSY10-0"/>
       <use transform="translate(77.4874676506 0.0)scale(0.996264009963)" xlink:href="#CMR17-49"/>
       <use transform="translate(123.177944768 0.0)scale(0.996264009963)" xlink:href="#CMMI12-58"/>
       <use transform="translate(150.275121857 0.0)scale(0.996264009963)" xlink:href="#CMR17-50"/>
      </g>
     </g>
    </g>
    <g id="xtick_2">
     <g id="line2d_4">
      <path clip-path="url(#pbcc918de4f)" d="M 145.025154 456.223147 
L 145.025154 30.853559 
" style="fill:none;stroke:#000000;stroke-dasharray:1.000000,3.000000;stroke-dashoffset:0.0;stroke-width:0.5;"/>
     </g>
     <g id="line2d_5">
      <g>
       <use style="stroke:#000000;stroke-width:0.5;" x="145.025154385" xlink:href="#mcecadef732" y="456.223147426"/>
      </g>
     </g>
     <g id="line2d_6">
      <g>
       <use style="stroke:#000000;stroke-width:0.5;" x="145.025154385" xlink:href="#m978f759a17" y="30.853558944"/>
      </g>
     </g>
     <g id="text_2">
      <!-- $-0.8$ -->
      <defs>
       <path d="M 42 31.640625 
C 42 37.75 41.90625 48.125 37.703125 56.109375 
C 34 63.109375 28.09375 65.59375 22.90625 65.59375 
C 18.09375 65.59375 12 63.40625 8.203125 56.203125 
C 4.203125 48.71875 3.796875 39.4375 3.796875 31.640625 
C 3.796875 25.953125 3.90625 17.28125 7 9.671875 
C 11.296875 -0.609375 19 -2 22.90625 -2 
C 27.5 -2 34.5 -0.109375 38.59375 9.375 
C 41.59375 16.28125 42 24.359375 42 31.640625 
M 22.90625 -0.40625 
C 16.5 -0.40625 12.703125 5.078125 11.296875 12.6875 
C 10.203125 18.5625 10.203125 27.15625 10.203125 32.75 
C 10.203125 40.4375 10.203125 46.828125 11.5 52.921875 
C 13.40625 61.390625 19 64 22.90625 64 
C 27 64 32.296875 61.296875 34.203125 53.125 
C 35.5 47.4375 35.59375 40.734375 35.59375 32.75 
C 35.59375 26.25 35.59375 18.265625 34.40625 12.375 
C 32.296875 1.484375 26.40625 -0.40625 22.90625 -0.40625 
" id="CMR17-48"/>
       <path d="M 27.203125 35.375 
C 33.5 38.546875 39.90625 43.328125 39.90625 50.984375 
C 39.90625 60.015625 31.09375 65.296875 23 65.296875 
C 13.90625 65.296875 5.90625 58.734375 5.90625 49.6875 
C 5.90625 47.203125 6.5 42.921875 10.40625 39.140625 
C 11.40625 38.15625 15.59375 35.171875 18.296875 33.28125 
C 13.796875 30.984375 3.296875 25.53125 3.296875 14.59375 
C 3.296875 4.359375 13.09375 -2 22.796875 -2 
C 33.5 -2 42.5 5.65625 42.5 15.78125 
C 42.5 24.84375 36.40625 29.015625 32.40625 31.703125 
z
M 14.09375 44.09375 
C 13.296875 44.59375 9.296875 47.671875 9.296875 52.359375 
C 9.296875 58.421875 15.59375 63 22.796875 63 
C 30.703125 63 36.5 57.4375 36.5 50.96875 
C 36.5 41.703125 26.09375 36.421875 25.59375 36.421875 
C 25.5 36.421875 25.40625 36.421875 24.59375 37.03125 
z
M 32.5 23.734375 
C 34 22.640625 38.796875 19.375 38.796875 13.296875 
C 38.796875 5.953125 31.40625 0.390625 23 0.390625 
C 13.90625 0.390625 7 6.84375 7 14.6875 
C 7 22.546875 13.09375 29.09375 20 32.1875 
z
" id="CMR17-56"/>
      </defs>
      <g transform="translate(130.875745795 470.160795795)scale(0.14 -0.14)">
       <use transform="scale(0.996264009963)" xlink:href="#CMSY10-0"/>
       <use transform="translate(77.4874676506 0.0)scale(0.996264009963)" xlink:href="#CMR17-48"/>
       <use transform="translate(123.177944768 0.0)scale(0.996264009963)" xlink:href="#CMMI12-58"/>
       <use transform="translate(150.275121857 0.0)scale(0.996264009963)" xlink:href="#CMR17-56"/>
      </g>
     </g>
    </g>
    <g id="xtick_3">
     <g id="line2d_7">
      <path clip-path="url(#pbcc918de4f)" d="M 226.883065 456.223147 
L 226.883065 30.853559 
" style="fill:none;stroke:#000000;stroke-dasharray:1.000000,3.000000;stroke-dashoffset:0.0;stroke-width:0.5;"/>
     </g>
     <g id="line2d_8">
      <g>
       <use style="stroke:#000000;stroke-width:0.5;" x="226.883065304" xlink:href="#mcecadef732" y="456.223147426"/>
      </g>
     </g>
     <g id="line2d_9">
      <g>
       <use style="stroke:#000000;stroke-width:0.5;" x="226.883065304" xlink:href="#m978f759a17" y="30.853558944"/>
      </g>
     </g>
     <g id="text_3">
      <!-- $-0.4$ -->
      <defs>
       <path d="M 33.59375 64.40625 
C 33.59375 66.5 33.5 66.5 31.703125 66.5 
L 2 19.59375 
L 2 17 
L 27.796875 17 
L 27.796875 7.140625 
C 27.796875 3.5 27.59375 2.5 20.59375 2.5 
L 18.703125 2.5 
L 18.703125 0 
C 21.90625 0 27.296875 0 30.703125 0 
C 34.09375 0 39.5 0 42.703125 0 
L 42.703125 2.5 
L 40.796875 2.5 
C 33.796875 2.5 33.59375 3.5 33.59375 7.140625 
L 33.59375 17 
L 43.796875 17 
L 43.796875 19.59375 
L 33.59375 19.59375 
z
M 28.09375 57.859375 
L 28.09375 19.59375 
L 4 19.59375 
z
" id="CMR17-52"/>
      </defs>
      <g transform="translate(212.733656714 470.160795795)scale(0.14 -0.14)">
       <use transform="scale(0.996264009963)" xlink:href="#CMSY10-0"/>
       <use transform="translate(77.4874676506 0.0)scale(0.996264009963)" xlink:href="#CMR17-48"/>
       <use transform="translate(123.177944768 0.0)scale(0.996264009963)" xlink:href="#CMMI12-58"/>
       <use transform="translate(150.275121857 0.0)scale(0.996264009963)" xlink:href="#CMR17-52"/>
      </g>
     </g>
    </g>
    <g id="xtick_4">
     <g id="line2d_10">
      <path clip-path="url(#pbcc918de4f)" d="M 308.740976 456.223147 
L 308.740976 30.853559 
" style="fill:none;stroke:#000000;stroke-dasharray:1.000000,3.000000;stroke-dashoffset:0.0;stroke-width:0.5;"/>
     </g>
     <g id="line2d_11">
      <g>
       <use style="stroke:#000000;stroke-width:0.5;" x="308.740976222" xlink:href="#mcecadef732" y="456.223147426"/>
      </g>
     </g>
     <g id="line2d_12">
      <g>
       <use style="stroke:#000000;stroke-width:0.5;" x="308.740976222" xlink:href="#m978f759a17" y="30.853558944"/>
      </g>
     </g>
     <g id="text_4">
      <!-- $0.0$ -->
      <g transform="translate(300.015685199 470.160795795)scale(0.14 -0.14)">
       <use transform="scale(0.996264009963)" xlink:href="#CMR17-48"/>
       <use transform="translate(45.6904771171 0.0)scale(0.996264009963)" xlink:href="#CMMI12-58"/>
       <use transform="translate(72.7876542069 0.0)scale(0.996264009963)" xlink:href="#CMR17-48"/>
      </g>
     </g>
    </g>
    <g id="xtick_5">
     <g id="line2d_13">
      <path clip-path="url(#pbcc918de4f)" d="M 390.598887 456.223147 
L 390.598887 30.853559 
" style="fill:none;stroke:#000000;stroke-dasharray:1.000000,3.000000;stroke-dashoffset:0.0;stroke-width:0.5;"/>
     </g>
     <g id="line2d_14">
      <g>
       <use style="stroke:#000000;stroke-width:0.5;" x="390.59888714" xlink:href="#mcecadef732" y="456.223147426"/>
      </g>
     </g>
     <g id="line2d_15">
      <g>
       <use style="stroke:#000000;stroke-width:0.5;" x="390.59888714" xlink:href="#m978f759a17" y="30.853558944"/>
      </g>
     </g>
     <g id="text_5">
      <!-- $0.4$ -->
      <g transform="translate(381.873596117 470.160795795)scale(0.14 -0.14)">
       <use transform="scale(0.996264009963)" xlink:href="#CMR17-48"/>
       <use transform="translate(45.6904771171 0.0)scale(0.996264009963)" xlink:href="#CMMI12-58"/>
       <use transform="translate(72.7876542069 0.0)scale(0.996264009963)" xlink:href="#CMR17-52"/>
      </g>
     </g>
    </g>
    <g id="xtick_6">
     <g id="line2d_16">
      <path clip-path="url(#pbcc918de4f)" d="M 472.456798 456.223147 
L 472.456798 30.853559 
" style="fill:none;stroke:#000000;stroke-dasharray:1.000000,3.000000;stroke-dashoffset:0.0;stroke-width:0.5;"/>
     </g>
     <g id="line2d_17">
      <g>
       <use style="stroke:#000000;stroke-width:0.5;" x="472.456798059" xlink:href="#mcecadef732" y="456.223147426"/>
      </g>
     </g>
     <g id="line2d_18">
      <g>
       <use style="stroke:#000000;stroke-width:0.5;" x="472.456798059" xlink:href="#m978f759a17" y="30.853558944"/>
      </g>
     </g>
     <g id="text_6">
      <!-- $0.8$ -->
      <g transform="translate(463.731507036 470.160795795)scale(0.14 -0.14)">
       <use transform="scale(0.996264009963)" xlink:href="#CMR17-48"/>
       <use transform="translate(45.6904771171 0.0)scale(0.996264009963)" xlink:href="#CMMI12-58"/>
       <use transform="translate(72.7876542069 0.0)scale(0.996264009963)" xlink:href="#CMR17-56"/>
      </g>
     </g>
    </g>
    <g id="xtick_7">
     <g id="line2d_19">
      <path clip-path="url(#pbcc918de4f)" d="M 554.314709 456.223147 
L 554.314709 30.853559 
" style="fill:none;stroke:#000000;stroke-dasharray:1.000000,3.000000;stroke-dashoffset:0.0;stroke-width:0.5;"/>
     </g>
     <g id="line2d_20">
      <g>
       <use style="stroke:#000000;stroke-width:0.5;" x="554.314708977" xlink:href="#mcecadef732" y="456.223147426"/>
      </g>
     </g>
     <g id="line2d_21">
      <g>
       <use style="stroke:#000000;stroke-width:0.5;" x="554.314708977" xlink:href="#m978f759a17" y="30.853558944"/>
      </g>
     </g>
     <g id="text_7">
      <!-- $1.2$ -->
      <g transform="translate(545.589417954 470.160795795)scale(0.14 -0.14)">
       <use transform="scale(0.996264009963)" xlink:href="#CMR17-49"/>
       <use transform="translate(45.6904771171 0.0)scale(0.996264009963)" xlink:href="#CMMI12-58"/>
       <use transform="translate(72.7876542069 0.0)scale(0.996264009963)" xlink:href="#CMR17-50"/>
      </g>
     </g>
    </g>
    <g id="text_8">
     <!-- \rm{X [m]} -->
     <defs>
      <path d="M 20.09375 46 
L 2.296875 46 
L 2.296875 41.21875 
L 6.40625 41.21875 
C 10.09375 41.21875 10.703125 40.515625 10.703125 36.203125 
L 10.703125 12.296875 
L 10.703125 8.40625 
C 10.703125 4.296875 9.59375 3.59375 3.203125 3.59375 
L 2.796875 3.59375 
L 2.796875 0 
L 28 0 
L 28 3.59375 
L 27.59375 3.59375 
C 21.203125 3.59375 20.09375 4.296875 20.09375 8.390625 
L 20.09375 12.28125 
L 20.09375 26.453125 
C 20.09375 35.328125 25 41.921875 31.5 41.921875 
C 34.09375 41.921875 36.90625 40.515625 38.09375 38.625 
C 39.5 36.734375 40.09375 33.828125 40.09375 29.734375 
L 40.09375 12.28125 
L 40.09375 8.28125 
C 40.09375 4.296875 39 3.59375 32.5 3.59375 
L 32.09375 3.59375 
L 32.09375 0 
L 57.40625 0 
L 57.40625 3.59375 
L 57 3.59375 
C 50.59375 3.59375 49.5 4.296875 49.5 8.28125 
L 49.5 12.28125 
L 49.5 25.546875 
C 49.5 35.53125 54 41.921875 61 41.921875 
C 64.296875 41.921875 67 40.015625 68.296875 36.921875 
C 69.203125 34.734375 69.5 32.53125 69.5 28.640625 
L 69.5 12.28125 
L 69.5 8.28125 
C 69.5 4.296875 68.40625 3.59375 61.90625 3.59375 
L 61.5 3.59375 
L 61.5 0 
L 86.796875 0 
L 86.796875 3.59375 
L 86.40625 3.59375 
C 80 3.59375 78.90625 4.296875 78.90625 8.390625 
L 78.90625 12.28125 
L 78.90625 30.640625 
C 78.90625 36.828125 78.296875 38.921875 75.703125 42.3125 
C 72.796875 46.015625 68.703125 48 63.90625 48 
C 57.40625 48 52.59375 44.9375 48.296875 38.109375 
C 46.59375 44.046875 41.203125 48 34.5 48 
C 28.5 48 24 45.140625 20.09375 38.921875 
z
" id="Century_Schoolbook_L_Roman-109"/>
      <path d="M 17.59375 68.40625 
L 17.59375 -7 
L 3.59375 -7 
L 3.59375 -10.6875 
L 26.59375 -10.6875 
L 26.59375 72 
L 3.59375 72 
L 3.59375 68.40625 
z
" id="Century_Schoolbook_L_Roman-93"/>
      <path d="M 15.59375 -7.40625 
L 15.59375 68.296875 
L 29.703125 68.296875 
L 29.703125 72 
L 6.59375 72 
L 6.59375 -11 
L 29.703125 -11 
L 29.703125 -7.40625 
z
" id="Century_Schoolbook_L_Roman-91"/>
      <path d="M 38.90625 39.890625 
L 52.203125 57.9375 
C 57.796875 65.40625 60.59375 67.3125 65.90625 67.3125 
L 67.5 67.3125 
L 67.5 72 
L 40 72 
L 40 67.3125 
L 41.40625 67.3125 
C 46.203125 67.3125 48.296875 66.109375 48.296875 63.40625 
C 48.296875 62.3125 48 61.609375 46.90625 60.03125 
L 36.09375 44.375 
L 22.796875 63.515625 
C 22.09375 64.515625 21.703125 65.515625 21.703125 66.015625 
C 21.703125 67 22.703125 67.3125 26.5 67.3125 
L 30.296875 67.3125 
L 30.296875 72 
L -0.59375 72 
L -0.59375 67.3125 
L 1.09375 67.3125 
C 6 67.3125 7.203125 66.8125 9.5 63.515625 
L 29.203125 35.109375 
L 13 12.671875 
C 9.09375 7.09375 5 4.6875 -0.09375 4.6875 
L -0.5 4.6875 
L -0.5 0 
L 27.90625 0 
L 27.90625 4.6875 
L 25.40625 4.6875 
C 21.40625 4.6875 18.90625 6.484375 18.90625 9.484375 
C 18.90625 10.78125 19.5 12.359375 20.5 13.859375 
L 32.09375 30.609375 
L 47 9.40625 
C 47.796875 8.203125 48.296875 7.09375 48.296875 6.296875 
C 48.296875 4.6875 47.90625 4.6875 41.59375 4.6875 
L 38.796875 4.6875 
L 38.796875 0 
L 71.59375 0 
L 71.59375 4.6875 
L 70.40625 4.6875 
C 64 4.6875 63.296875 4.984375 59.90625 9.875 
z
" id="Century_Schoolbook_L_Roman-88"/>
     </defs>
     <g transform="translate(291.048579424 488.069222082)scale(0.14 -0.14)">
      <use transform="scale(0.996264009963)" xlink:href="#Century_Schoolbook_L_Roman-88"/>
      <use transform="translate(97.8313441294 0.0)scale(0.996264009963)" xlink:href="#Century_Schoolbook_L_Roman-91"/>
      <use transform="translate(131.006573859 0.0)scale(0.996264009963)" xlink:href="#Century_Schoolbook_L_Roman-109"/>
      <use transform="translate(219.573480551 0.0)scale(0.996264009963)" xlink:href="#Century_Schoolbook_L_Roman-93"/>
     </g>
    </g>
   </g>
   <g id="matplotlib.axis_2">
    <g id="ytick_1">
     <g id="line2d_22">
      <path clip-path="url(#pbcc918de4f)" d="M 63.167243 30.853559 
L 554.314709 30.853559 
" style="fill:none;stroke:#000000;stroke-dasharray:1.000000,3.000000;stroke-dashoffset:0.0;stroke-width:0.5;"/>
     </g>
     <g id="line2d_23">
      <defs>
       <path d="M 0 0 
L 4 0 
" id="m4912b421a0" style="stroke:#000000;stroke-width:0.5;"/>
      </defs>
      <g>
       <use style="stroke:#000000;stroke-width:0.5;" x="63.1672434669" xlink:href="#m4912b421a0" y="30.853558944"/>
      </g>
     </g>
     <g id="line2d_24">
      <defs>
       <path d="M 0 0 
L -4 0 
" id="m262d26fccb" style="stroke:#000000;stroke-width:0.5;"/>
      </defs>
      <g>
       <use style="stroke:#000000;stroke-width:0.5;" x="554.314708977" xlink:href="#m262d26fccb" y="30.853558944"/>
      </g>
     </g>
     <g id="text_9">
      <!-- $-0.4$ -->
      <g transform="translate(30.8684262872 34.3369941698)scale(0.14 -0.14)">
       <use transform="scale(0.996264009963)" xlink:href="#CMSY10-0"/>
       <use transform="translate(77.4874676506 0.0)scale(0.996264009963)" xlink:href="#CMR17-48"/>
       <use transform="translate(123.177944768 0.0)scale(0.996264009963)" xlink:href="#CMMI12-58"/>
       <use transform="translate(150.275121857 0.0)scale(0.996264009963)" xlink:href="#CMR17-52"/>
      </g>
     </g>
    </g>
    <g id="ytick_2">
     <g id="line2d_25">
      <path clip-path="url(#pbcc918de4f)" d="M 63.167243 101.74849 
L 554.314709 101.74849 
" style="fill:none;stroke:#000000;stroke-dasharray:1.000000,3.000000;stroke-dashoffset:0.0;stroke-width:0.5;"/>
     </g>
     <g id="line2d_26">
      <g>
       <use style="stroke:#000000;stroke-width:0.5;" x="63.1672434669" xlink:href="#m4912b421a0" y="101.748490358"/>
      </g>
     </g>
     <g id="line2d_27">
      <g>
       <use style="stroke:#000000;stroke-width:0.5;" x="554.314708977" xlink:href="#m262d26fccb" y="101.748490358"/>
      </g>
     </g>
     <g id="text_10">
      <!-- $0.0$ -->
      <g transform="translate(41.716661421 105.231925583)scale(0.14 -0.14)">
       <use transform="scale(0.996264009963)" xlink:href="#CMR17-48"/>
       <use transform="translate(45.6904771171 0.0)scale(0.996264009963)" xlink:href="#CMMI12-58"/>
       <use transform="translate(72.7876542069 0.0)scale(0.996264009963)" xlink:href="#CMR17-48"/>
      </g>
     </g>
    </g>
    <g id="ytick_3">
     <g id="line2d_28">
      <path clip-path="url(#pbcc918de4f)" d="M 63.167243 172.643422 
L 554.314709 172.643422 
" style="fill:none;stroke:#000000;stroke-dasharray:1.000000,3.000000;stroke-dashoffset:0.0;stroke-width:0.5;"/>
     </g>
     <g id="line2d_29">
      <g>
       <use style="stroke:#000000;stroke-width:0.5;" x="63.1672434669" xlink:href="#m4912b421a0" y="172.643421771"/>
      </g>
     </g>
     <g id="line2d_30">
      <g>
       <use style="stroke:#000000;stroke-width:0.5;" x="554.314708977" xlink:href="#m262d26fccb" y="172.643421771"/>
      </g>
     </g>
     <g id="text_11">
      <!-- $0.4$ -->
      <g transform="translate(41.716661421 176.126856997)scale(0.14 -0.14)">
       <use transform="scale(0.996264009963)" xlink:href="#CMR17-48"/>
       <use transform="translate(45.6904771171 0.0)scale(0.996264009963)" xlink:href="#CMMI12-58"/>
       <use transform="translate(72.7876542069 0.0)scale(0.996264009963)" xlink:href="#CMR17-52"/>
      </g>
     </g>
    </g>
    <g id="ytick_4">
     <g id="line2d_31">
      <path clip-path="url(#pbcc918de4f)" d="M 63.167243 243.538353 
L 554.314709 243.538353 
" style="fill:none;stroke:#000000;stroke-dasharray:1.000000,3.000000;stroke-dashoffset:0.0;stroke-width:0.5;"/>
     </g>
     <g id="line2d_32">
      <g>
       <use style="stroke:#000000;stroke-width:0.5;" x="63.1672434669" xlink:href="#m4912b421a0" y="243.538353185"/>
      </g>
     </g>
     <g id="line2d_33">
      <g>
       <use style="stroke:#000000;stroke-width:0.5;" x="554.314708977" xlink:href="#m262d26fccb" y="243.538353185"/>
      </g>
     </g>
     <g id="text_12">
      <!-- $0.8$ -->
      <g transform="translate(41.716661421 247.021788411)scale(0.14 -0.14)">
       <use transform="scale(0.996264009963)" xlink:href="#CMR17-48"/>
       <use transform="translate(45.6904771171 0.0)scale(0.996264009963)" xlink:href="#CMMI12-58"/>
       <use transform="translate(72.7876542069 0.0)scale(0.996264009963)" xlink:href="#CMR17-56"/>
      </g>
     </g>
    </g>
    <g id="ytick_5">
     <g id="line2d_34">
      <path clip-path="url(#pbcc918de4f)" d="M 63.167243 314.433285 
L 554.314709 314.433285 
" style="fill:none;stroke:#000000;stroke-dasharray:1.000000,3.000000;stroke-dashoffset:0.0;stroke-width:0.5;"/>
     </g>
     <g id="line2d_35">
      <g>
       <use style="stroke:#000000;stroke-width:0.5;" x="63.1672434669" xlink:href="#m4912b421a0" y="314.433284598"/>
      </g>
     </g>
     <g id="line2d_36">
      <g>
       <use style="stroke:#000000;stroke-width:0.5;" x="554.314708977" xlink:href="#m262d26fccb" y="314.433284598"/>
      </g>
     </g>
     <g id="text_13">
      <!-- $1.2$ -->
      <g transform="translate(41.716661421 317.916719824)scale(0.14 -0.14)">
       <use transform="scale(0.996264009963)" xlink:href="#CMR17-49"/>
       <use transform="translate(45.6904771171 0.0)scale(0.996264009963)" xlink:href="#CMMI12-58"/>
       <use transform="translate(72.7876542069 0.0)scale(0.996264009963)" xlink:href="#CMR17-50"/>
      </g>
     </g>
    </g>
    <g id="ytick_6">
     <g id="line2d_37">
      <path clip-path="url(#pbcc918de4f)" d="M 63.167243 385.328216 
L 554.314709 385.328216 
" style="fill:none;stroke:#000000;stroke-dasharray:1.000000,3.000000;stroke-dashoffset:0.0;stroke-width:0.5;"/>
     </g>
     <g id="line2d_38">
      <g>
       <use style="stroke:#000000;stroke-width:0.5;" x="63.1672434669" xlink:href="#m4912b421a0" y="385.328216012"/>
      </g>
     </g>
     <g id="line2d_39">
      <g>
       <use style="stroke:#000000;stroke-width:0.5;" x="554.314708977" xlink:href="#m262d26fccb" y="385.328216012"/>
      </g>
     </g>
     <g id="text_14">
      <!-- $1.6$ -->
      <defs>
       <path d="M 10.59375 34 
C 10.59375 57.65625 21.796875 63 28.296875 63 
C 30.40625 63 35.5 62.640625 37.5 59 
C 35.90625 59 32.90625 59 32.90625 55.515625 
C 32.90625 52.828125 35.09375 51.921875 36.5 51.921875 
C 37.40625 51.921875 40.09375 52.3125 40.09375 55.625 
C 40.09375 61.78125 35.09375 65.296875 28.203125 65.296875 
C 16.296875 65.296875 3.796875 52.96875 3.796875 31 
C 3.796875 3.953125 15.09375 -2 23.09375 -2 
C 32.796875 -2 42 6.671875 42 20.046875 
C 42 32.515625 33.90625 41.59375 23.703125 41.59375 
C 17.59375 41.59375 13.09375 37.609375 10.59375 30.625 
z
M 23.09375 0.390625 
C 10.796875 0.390625 10.796875 18.75 10.796875 22.4375 
C 10.796875 29.625 14.203125 40 23.5 40 
C 25.203125 40 30.09375 40 33.40625 33.125 
C 35.203125 29.21875 35.203125 25.140625 35.203125 20.140625 
C 35.203125 14.75 35.203125 10.78125 33.09375 6.78125 
C 30.90625 2.671875 27.703125 0.390625 23.09375 0.390625 
" id="CMR17-54"/>
      </defs>
      <g transform="translate(41.716661421 388.811651238)scale(0.14 -0.14)">
       <use transform="scale(0.996264009963)" xlink:href="#CMR17-49"/>
       <use transform="translate(45.6904771171 0.0)scale(0.996264009963)" xlink:href="#CMMI12-58"/>
       <use transform="translate(72.7876542069 0.0)scale(0.996264009963)" xlink:href="#CMR17-54"/>
      </g>
     </g>
    </g>
    <g id="ytick_7">
     <g id="line2d_40">
      <path clip-path="url(#pbcc918de4f)" d="M 63.167243 456.223147 
L 554.314709 456.223147 
" style="fill:none;stroke:#000000;stroke-dasharray:1.000000,3.000000;stroke-dashoffset:0.0;stroke-width:0.5;"/>
     </g>
     <g id="line2d_41">
      <g>
       <use style="stroke:#000000;stroke-width:0.5;" x="63.1672434669" xlink:href="#m4912b421a0" y="456.223147426"/>
      </g>
     </g>
     <g id="line2d_42">
      <g>
       <use style="stroke:#000000;stroke-width:0.5;" x="554.314708977" xlink:href="#m262d26fccb" y="456.223147426"/>
      </g>
     </g>
     <g id="text_15">
      <!-- $2.0$ -->
      <g transform="translate(41.716661421 459.706582651)scale(0.14 -0.14)">
       <use transform="scale(0.996264009963)" xlink:href="#CMR17-50"/>
       <use transform="translate(45.6904771171 0.0)scale(0.996264009963)" xlink:href="#CMMI12-58"/>
       <use transform="translate(72.7876542069 0.0)scale(0.996264009963)" xlink:href="#CMR17-48"/>
      </g>
     </g>
    </g>
    <g id="text_16">
     <!-- \rm{Z [m]} -->
     <defs>
      <path d="M 56.90625 72 
L 7.296875 72 
L 5.296875 46.78125 
L 9.796875 46.78125 
C 13 63.40625 16.90625 67.3125 30.296875 67.3125 
L 43.296875 67.3125 
L 2.40625 3.59375 
L 2.40625 0 
L 55.703125 0 
L 57.5 27.734375 
L 52.796875 27.734375 
C 51.40625 18.453125 49.703125 13.46875 46.796875 9.875 
C 44.296875 6.59375 38.90625 4.6875 32.40625 4.6875 
L 15.796875 4.6875 
L 56.90625 68.40625 
z
" id="Century_Schoolbook_L_Roman-90"/>
     </defs>
     <g transform="translate(22.8976483694 260.582234346)rotate(-90.0)scale(0.14 -0.14)">
      <use transform="scale(0.996264009963)" xlink:href="#Century_Schoolbook_L_Roman-90"/>
      <use transform="translate(88.5668002802 0.0)scale(0.996264009963)" xlink:href="#Century_Schoolbook_L_Roman-91"/>
      <use transform="translate(121.74203001 0.0)scale(0.996264009963)" xlink:href="#Century_Schoolbook_L_Roman-109"/>
      <use transform="translate(210.308936702 0.0)scale(0.996264009963)" xlink:href="#Century_Schoolbook_L_Roman-93"/>
     </g>
    </g>
   </g>
   <g id="patch_7">
    <path clip-path="url(#pbcc918de4f)" d="M 262.951707 101.74849 
C 262.951707 91.234873 267.779213 81.141111 276.363074 73.706861 
C 284.946934 66.272611 296.601565 62.091638 308.740976 62.091638 
C 320.880388 62.091638 332.535018 66.272611 341.118879 73.706861 
C 349.702739 81.141111 354.530245 91.234873 354.530245 101.74849 
" style="fill:none;stroke:#000000;stroke-linejoin:miter;stroke-width:0.85;"/>
   </g>
   <g id="patch_8">
    <path clip-path="url(#pbcc918de4f)" d="M 263.309836 101.74849 
L 354.172117 101.74849 
L 354.172117 102.873947 
L 263.309836 102.873947 
z
"/>
   </g>
   <g id="patch_9">
    <path clip-path="url(#pbcc918de4f)" d="M 262.593579 101.74849 
L 263.309836 101.74849 
L 263.309836 102.873947 
L 262.593579 102.873947 
z
"/>
   </g>
   <g id="patch_10">
    <path clip-path="url(#pbcc918de4f)" d="M 354.172117 101.74849 
L 354.888374 101.74849 
L 354.888374 102.873947 
L 354.172117 102.873947 
z
"/>
   </g>
   <g id="patch_11">
    <path clip-path="url(#pbcc918de4f)" d="M 262.593579 102.873947 
L 263.309836 102.873947 
L 263.309836 111.735814 
L 262.593579 111.735814 
z
"/>
   </g>
   <g id="patch_12">
    <path clip-path="url(#pbcc918de4f)" d="M 354.172117 102.873947 
L 354.888374 102.873947 
L 354.888374 111.735814 
L 354.172117 111.735814 
z
"/>
   </g>
   <g id="patch_13">
    <path clip-path="url(#pbcc918de4f)" d="M 263.309836 111.735814 
L 354.172117 111.735814 
L 354.172117 111.913051 
L 263.309836 111.913051 
z
"/>
   </g>
   <g id="patch_14">
    <path clip-path="url(#pbcc918de4f)" d="M 262.593579 111.735814 
L 263.309836 111.735814 
L 263.309836 111.736523 
L 262.593579 111.736523 
z
"/>
   </g>
   <g id="patch_15">
    <path clip-path="url(#pbcc918de4f)" d="M 354.172117 111.735814 
L 354.888374 111.735814 
L 354.888374 111.736523 
L 354.172117 111.736523 
z
"/>
   </g>
   <g id="patch_16">
    <path clip-path="url(#pbcc918de4f)" d="M 262.593579 111.736523 
L 263.309836 111.736523 
L 263.309836 124.789343 
L 262.593579 124.789343 
z
"/>
   </g>
   <g id="patch_17">
    <path clip-path="url(#pbcc918de4f)" d="M 354.172117 111.736523 
L 354.888374 111.736523 
L 354.888374 124.789343 
L 354.172117 124.789343 
z
"/>
   </g>
   <g id="patch_18">
    <path clip-path="url(#pbcc918de4f)" d="M 262.593579 124.789343 
L 270.881692 124.789343 
L 270.881692 125.409674 
L 262.593579 125.409674 
z
" style="fill:#ff0000;"/>
   </g>
   <g id="patch_19">
    <path clip-path="url(#pbcc918de4f)" d="M 346.60026 124.789343 
L 354.888374 124.789343 
L 354.888374 125.409674 
L 346.60026 125.409674 
z
" style="fill:#ff0000;"/>
   </g>
   <g id="patch_20">
    <path clip-path="url(#pbcc918de4f)" d="M 270.881692 124.96658 
L 346.60026 124.96658 
L 346.60026 125.143818 
L 270.881692 125.143818 
z
" style="fill:#ff0000;"/>
   </g>
   <g id="patch_21">
    <path clip-path="url(#pbcc918de4f)" d="M 270.165436 124.96658 
L 270.881692 124.96658 
L 270.881692 124.967289 
L 270.165436 124.967289 
z
" style="fill:#ff0000;"/>
   </g>
   <g id="patch_22">
    <path clip-path="url(#pbcc918de4f)" d="M 346.60026 124.96658 
L 347.316517 124.96658 
L 347.316517 124.967289 
L 346.60026 124.967289 
z
" style="fill:#ff0000;"/>
   </g>
   <g id="patch_23">
    <path clip-path="url(#pbcc918de4f)" d="M 270.165436 124.967289 
L 270.881692 124.967289 
L 270.881692 125.941386 
L 270.165436 125.941386 
z
" style="fill:#ff0000;"/>
   </g>
   <g id="patch_24">
    <path clip-path="url(#pbcc918de4f)" d="M 346.60026 124.967289 
L 347.316517 124.967289 
L 347.316517 125.941386 
L 346.60026 125.941386 
z
" style="fill:#ff0000;"/>
   </g>
   <g id="patch_25">
    <path clip-path="url(#pbcc918de4f)" d="M 270.881692 125.941386 
L 346.60026 125.941386 
L 346.60026 126.29586 
L 270.881692 126.29586 
z
" style="fill:#ff0000;"/>
   </g>
   <g id="patch_26">
    <path clip-path="url(#pbcc918de4f)" d="M 270.165436 125.941386 
L 270.881692 125.941386 
L 270.881692 126.29586 
L 270.165436 126.29586 
z
" style="fill:#ff0000;"/>
   </g>
   <g id="patch_27">
    <path clip-path="url(#pbcc918de4f)" d="M 346.60026 125.941386 
L 347.316517 125.941386 
L 347.316517 126.29586 
L 346.60026 126.29586 
z
" style="fill:#ff0000;"/>
   </g>
   <g id="patch_28">
    <path clip-path="url(#pbcc918de4f)" d="M 270.165436 126.29586 
L 270.881692 126.29586 
L 270.881692 134.005684 
L 270.165436 134.005684 
z
" style="fill:#ff0000;"/>
   </g>
   <g id="patch_29">
    <path clip-path="url(#pbcc918de4f)" d="M 346.60026 126.29586 
L 347.316517 126.29586 
L 347.316517 134.005684 
L 346.60026 134.005684 
z
" style="fill:#ff0000;"/>
   </g>
   <g id="patch_30">
    <path clip-path="url(#pbcc918de4f)" d="M 270.881692 134.005684 
L 346.60026 134.005684 
L 346.60026 134.182921 
L 270.881692 134.182921 
z
" style="fill:#bfbf00;"/>
   </g>
   <g id="patch_31">
    <path clip-path="url(#pbcc918de4f)" d="M 270.165436 134.005684 
L 270.881692 134.005684 
L 270.881692 134.006393 
L 270.165436 134.006393 
z
" style="fill:#bfbf00;"/>
   </g>
   <g id="patch_32">
    <path clip-path="url(#pbcc918de4f)" d="M 346.60026 134.005684 
L 347.316517 134.005684 
L 347.316517 134.006393 
L 346.60026 134.006393 
z
" style="fill:#bfbf00;"/>
   </g>
   <g id="patch_33">
    <path clip-path="url(#pbcc918de4f)" d="M 270.165436 134.006393 
L 270.881692 134.006393 
L 270.881692 139.854516 
L 270.165436 139.854516 
z
" style="fill:#bfbf00;"/>
   </g>
   <g id="patch_34">
    <path clip-path="url(#pbcc918de4f)" d="M 346.60026 134.006393 
L 347.316517 134.006393 
L 347.316517 139.854516 
L 346.60026 139.854516 
z
" style="fill:#bfbf00;"/>
   </g>
   <g id="patch_35">
    <path clip-path="url(#pbcc918de4f)" d="M 270.881692 139.854516 
L 346.60026 139.854516 
L 346.60026 140.031753 
L 270.881692 140.031753 
z
" style="fill:#008000;"/>
   </g>
   <g id="patch_36">
    <path clip-path="url(#pbcc918de4f)" d="M 270.165436 139.854516 
L 270.881692 139.854516 
L 270.881692 139.87224 
L 270.165436 139.87224 
z
" style="fill:#008000;"/>
   </g>
   <g id="patch_37">
    <path clip-path="url(#pbcc918de4f)" d="M 346.60026 139.854516 
L 347.316517 139.854516 
L 347.316517 139.87224 
L 346.60026 139.87224 
z
" style="fill:#008000;"/>
   </g>
   <g id="patch_38">
    <path clip-path="url(#pbcc918de4f)" d="M 270.165436 139.87224 
L 270.881692 139.87224 
L 270.881692 142.229496 
L 270.165436 142.229496 
z
" style="fill:#008000;"/>
   </g>
   <g id="patch_39">
    <path clip-path="url(#pbcc918de4f)" d="M 346.60026 139.87224 
L 347.316517 139.87224 
L 347.316517 142.229496 
L 346.60026 142.229496 
z
" style="fill:#008000;"/>
   </g>
   <g id="patch_40">
    <path clip-path="url(#pbcc918de4f)" d="M 270.881692 142.229496 
L 346.60026 142.229496 
L 346.60026 142.654866 
L 270.881692 142.654866 
z
" style="fill:#008000;"/>
   </g>
   <g id="patch_41">
    <path clip-path="url(#pbcc918de4f)" d="M 270.165436 142.229496 
L 270.881692 142.229496 
L 270.881692 142.654866 
L 270.165436 142.654866 
z
" style="fill:#008000;"/>
   </g>
   <g id="patch_42">
    <path clip-path="url(#pbcc918de4f)" d="M 346.60026 142.229496 
L 347.316517 142.229496 
L 347.316517 142.654866 
L 346.60026 142.654866 
z
" style="fill:#008000;"/>
   </g>
   <g id="patch_43">
    <path clip-path="url(#pbcc918de4f)" d="M 270.165436 142.654866 
L 270.881692 142.654866 
L 270.881692 223.333298 
L 270.165436 223.333298 
z
" style="fill:#008000;"/>
   </g>
   <g id="patch_44">
    <path clip-path="url(#pbcc918de4f)" d="M 346.60026 142.654866 
L 347.316517 142.654866 
L 347.316517 223.333298 
L 346.60026 223.333298 
z
" style="fill:#008000;"/>
   </g>
   <g id="patch_45">
    <path clip-path="url(#pbcc918de4f)" d="M 270.881692 223.333298 
L 346.60026 223.333298 
L 346.60026 224.042247 
L 270.881692 224.042247 
z
" style="fill:#00bfbf;"/>
   </g>
   <g id="patch_46">
    <path clip-path="url(#pbcc918de4f)" d="M 270.165436 223.333298 
L 270.881692 223.333298 
L 270.881692 224.042247 
L 270.165436 224.042247 
z
" style="fill:#00bfbf;"/>
   </g>
   <g id="patch_47">
    <path clip-path="url(#pbcc918de4f)" d="M 346.60026 223.333298 
L 347.316517 223.333298 
L 347.316517 224.042247 
L 346.60026 224.042247 
z
" style="fill:#00bfbf;"/>
   </g>
   <g id="patch_48">
    <path clip-path="url(#pbcc918de4f)" d="M 270.165436 224.042247 
L 270.881692 224.042247 
L 270.881692 244.779014 
L 270.165436 244.779014 
z
" style="fill:#00bfbf;"/>
   </g>
   <g id="patch_49">
    <path clip-path="url(#pbcc918de4f)" d="M 346.60026 224.042247 
L 347.316517 224.042247 
L 347.316517 244.779014 
L 346.60026 244.779014 
z
" style="fill:#00bfbf;"/>
   </g>
   <g id="patch_50">
    <path clip-path="url(#pbcc918de4f)" d="M 270.165436 244.779014 
L 290.322946 244.779014 
L 290.322946 245.399345 
L 270.165436 245.399345 
z
" style="fill:#00bfbf;"/>
   </g>
   <g id="patch_51">
    <path clip-path="url(#pbcc918de4f)" d="M 327.159006 244.779014 
L 347.316517 244.779014 
L 347.316517 245.399345 
L 327.159006 245.399345 
z
" style="fill:#00bfbf;"/>
   </g>
   <g id="patch_52">
    <path clip-path="url(#pbcc918de4f)" d="M 289.60669 244.779014 
L 290.322946 244.779014 
L 290.322946 245.718372 
L 289.60669 245.718372 
z
" style="fill:#00bfbf;"/>
   </g>
   <g id="patch_53">
    <path clip-path="url(#pbcc918de4f)" d="M 327.159006 244.779014 
L 327.875263 244.779014 
L 327.875263 245.718372 
L 327.159006 245.718372 
z
" style="fill:#00bfbf;"/>
   </g>
   <g id="patch_54">
    <path clip-path="url(#pbcc918de4f)" d="M 270.165436 245.718372 
L 290.322946 245.718372 
L 290.322946 246.338703 
L 270.165436 246.338703 
z
" style="fill:#00bfbf;"/>
   </g>
   <g id="patch_55">
    <path clip-path="url(#pbcc918de4f)" d="M 327.159006 245.718372 
L 347.316517 245.718372 
L 347.316517 246.338703 
L 327.159006 246.338703 
z
" style="fill:#00bfbf;"/>
   </g>
   <g id="patch_56">
    <path clip-path="url(#pbcc918de4f)" d="M 270.165436 245.718372 
L 270.881692 245.718372 
L 270.881692 340.132697 
L 270.165436 340.132697 
z
" style="fill:#00bfbf;"/>
   </g>
   <g id="patch_57">
    <path clip-path="url(#pbcc918de4f)" d="M 346.60026 245.718372 
L 347.316517 245.718372 
L 347.316517 340.132697 
L 346.60026 340.132697 
z
" style="fill:#00bfbf;"/>
   </g>
   <g id="patch_58">
    <path clip-path="url(#pbcc918de4f)" d="M 270.165436 340.132697 
L 278.04426 340.132697 
L 278.04426 340.753028 
L 270.165436 340.753028 
z
" style="fill:#0000ff;"/>
   </g>
   <g id="patch_59">
    <path clip-path="url(#pbcc918de4f)" d="M 339.437693 340.132697 
L 347.316517 340.132697 
L 347.316517 340.753028 
L 339.437693 340.753028 
z
" style="fill:#0000ff;"/>
   </g>
   <g id="patch_60">
    <path clip-path="url(#pbcc918de4f)" d="M 277.328003 340.132697 
L 278.04426 340.132697 
L 278.04426 341.018884 
L 277.328003 341.018884 
z
" style="fill:#0000ff;"/>
   </g>
   <g id="patch_61">
    <path clip-path="url(#pbcc918de4f)" d="M 339.437693 340.132697 
L 340.15395 340.132697 
L 340.15395 341.018884 
L 339.437693 341.018884 
z
" style="fill:#0000ff;"/>
   </g>
   <g id="patch_62">
    <path clip-path="url(#pbcc918de4f)" d="M 278.04426 341.018884 
L 339.437693 341.018884 
L 339.437693 341.905071 
L 278.04426 341.905071 
z
" style="fill:#0000ff;"/>
   </g>
   <g id="patch_63">
    <path clip-path="url(#pbcc918de4f)" d="M 277.328003 341.018884 
L 278.04426 341.018884 
L 278.04426 341.905071 
L 277.328003 341.905071 
z
" style="fill:#0000ff;"/>
   </g>
   <g id="patch_64">
    <path clip-path="url(#pbcc918de4f)" d="M 339.437693 341.018884 
L 340.15395 341.018884 
L 340.15395 341.905071 
L 339.437693 341.905071 
z
" style="fill:#0000ff;"/>
   </g>
   <g id="patch_65">
    <path clip-path="url(#pbcc918de4f)" d="M 277.328003 341.018884 
L 278.04426 341.018884 
L 278.04426 342.791257 
L 277.328003 342.791257 
z
" style="fill:#0000ff;"/>
   </g>
   <g id="patch_66">
    <path clip-path="url(#pbcc918de4f)" d="M 339.437693 341.018884 
L 340.15395 341.018884 
L 340.15395 342.791257 
L 339.437693 342.791257 
z
" style="fill:#0000ff;"/>
   </g>
   <g id="patch_67">
    <path clip-path="url(#pbcc918de4f)" d="M 339.795821 342.791257 
C 339.795821 349.921722 336.521747 356.767435 330.700068 361.809435 
C 324.878388 366.851435 316.974074 369.687022 308.740976 369.687022 
C 300.507878 369.687022 292.603564 366.851435 286.781885 361.809435 
C 280.960205 356.767435 277.686131 349.921722 277.686131 342.791257 
" style="fill:none;stroke:#0000ff;stroke-linejoin:miter;stroke-width:0.85;"/>
   </g>
   <g id="text_17">
    <!-- \rm{v3opt1-75T Filters} -->
    <defs>
     <path d="M 19.40625 47 
L 19.40625 67 
L 15.296875 67 
C 14.296875 53.875 9.90625 47.1875 1.796875 46.59375 
L 1.796875 42.703125 
L 10 42.703125 
L 10 17.265625 
C 10 10.28125 10.203125 7.78125 11.203125 5.484375 
C 12.796875 1.296875 16.796875 -1 22.59375 -1 
C 26.5 -1 29.90625 0.203125 32.203125 2.390625 
C 35.5 5.59375 37.40625 10.875 37.40625 16.375 
C 37.40625 16.96875 37.40625 17.671875 37.296875 18.671875 
L 33.09375 18.671875 
C 32.796875 9.6875 30.203125 5.09375 25.296875 5.09375 
C 23 5.09375 21 6.28125 20.296875 7.984375 
C 19.703125 9.375 19.40625 11.875 19.40625 15.46875 
L 19.40625 42.703125 
L 34.09375 42.703125 
L 34.09375 47 
z
" id="Century_Schoolbook_L_Roman-116"/>
     <path d="M 46.5 23 
C 46.59375 37.8125 38.09375 48.28125 25.90625 48.28125 
C 13.09375 48.28125 3.5 37.25 3.5 22.34375 
C 3.5 8.4375 12.59375 -1 26.09375 -1 
C 35.59375 -1 42.40625 3.6875 46.5 13.1875 
L 43 15.09375 
C 38.90625 7.390625 34.703125 4.390625 28 4.390625 
C 22.90625 4.390625 19.203125 6.59375 16.59375 11 
C 14.796875 14 14 17.5 14.09375 23 
z
M 14.203125 27.296875 
C 14.203125 30.34375 14.59375 32.5 15.59375 35.25 
C 17.703125 41.140625 20.90625 44 25.703125 44 
C 31.796875 44 35.796875 38.78125 35.796875 30.921875 
C 35.796875 28.078125 34.90625 27.296875 31.703125 27.296875 
z
" id="Century_Schoolbook_L_Roman-101"/>
     <path d="M 62.40625 72 
L 2.90625 72 
L 2.90625 67.3125 
L 4.703125 67.3125 
C 12.796875 67.3125 13.703125 66.8125 13.703125 62.609375 
L 13.703125 59.734375 
L 13.703125 12.28125 
L 13.703125 9.375 
C 13.703125 5.1875 12.796875 4.6875 4.703125 4.6875 
L 2.90625 4.6875 
L 2.90625 0 
L 37.203125 0 
L 37.203125 4.6875 
L 33.90625 4.6875 
C 25.796875 4.6875 24.90625 5.1875 24.90625 9.390625 
L 24.90625 12.296875 
L 24.90625 35 
L 26.90625 35 
C 33.09375 35 35.5 34.375 37.59375 32.234375 
C 40.09375 29.578125 41.09375 26.296875 41.296875 20.265625 
L 46 20.265625 
L 46 53 
L 41.296875 53 
C 40.796875 43.46875 36.796875 39.6875 27.296875 39.6875 
L 24.90625 39.6875 
L 24.90625 62.328125 
C 24.90625 66.609375 25.796875 67.3125 31.203125 67.3125 
L 35.796875 67.3125 
C 52.296875 67.3125 56.59375 63.5 59.40625 46.390625 
L 63.796875 46.390625 
z
" id="Century_Schoolbook_L_Roman-70"/>
     <path d="M 39 48 
L 35.5 48 
L 32.59375 44.40625 
C 29 47.203125 25.40625 48.390625 20.40625 48.390625 
C 11.59375 48.390625 5.796875 42.625 5.796875 33.953125 
C 5.796875 30.078125 7.09375 26.78125 9.296875 24.8125 
C 11.59375 22.703125 13.90625 21.71875 19.90625 20.3125 
L 25.203125 19.125 
C 33.09375 17.234375 35.90625 15.234375 35.90625 11.265625 
C 35.90625 6.578125 31.796875 3.296875 25.90625 3.296875 
C 17.5 3.296875 11.5 8.765625 9.09375 18.875 
L 5.09375 18.875 
L 5.09375 0 
L 8.59375 0 
L 12.09375 3.90625 
C 16.203125 0.59375 20.796875 -1 25.796875 -1 
C 35.59375 -1 42.09375 5.078125 42.09375 14.34375 
C 42.09375 18.71875 40.703125 22.09375 37.90625 24.390625 
C 35.5 26.484375 33.5 27.28125 27.40625 28.5625 
L 22.40625 29.671875 
C 16.90625 30.859375 16.90625 30.859375 15.09375 31.859375 
C 12.90625 32.859375 11.59375 34.9375 11.59375 37.140625 
C 11.59375 41.109375 15.40625 44 20.90625 44 
C 24.703125 44 27.796875 42.703125 30.59375 40.015625 
C 32.796875 37.8125 33.90625 35.828125 35.5 31.234375 
L 39 31.234375 
z
" id="Century_Schoolbook_L_Roman-115"/>
     <path d="M 20.09375 46 
L 2.796875 46 
L 2.796875 41.21875 
L 6.40625 41.21875 
C 10.09375 41.21875 10.703125 40.515625 10.703125 36.21875 
L 10.703125 -7.75 
L 10.703125 -11.71875 
C 10.703125 -15.71875 9.59375 -16.40625 3.203125 -16.40625 
L 2.796875 -16.40625 
L 2.796875 -20 
L 28.796875 -20 
L 28.796875 -16.40625 
L 27.703125 -16.40625 
C 21.203125 -16.40625 20.09375 -15.71875 20.09375 -11.734375 
L 20.09375 -7.75 
L 20.09375 6.6875 
C 23.40625 0.90625 27.203125 -1.390625 33.296875 -1.390625 
C 44.90625 -1.390625 53.5 9.265625 53.5 23.5 
C 53.5 37.265625 44.90625 48 33.90625 48 
C 27.703125 48 23.59375 45.4375 20.09375 39.515625 
z
M 32.09375 42.609375 
C 39 42.609375 43 35.75 43 24.09375 
C 43 11.265625 38.90625 4 31.796875 4 
C 24.703125 4 20 11.375 20 22.8125 
C 20 35.140625 24.5 42.609375 32.09375 42.609375 
" id="Century_Schoolbook_L_Roman-112"/>
     <path d="M 25.203125 48.28125 
C 13 48.28125 3.40625 37.453125 3.40625 23.546875 
C 3.40625 9.9375 13 -1 25 -1 
C 37 -1 46.59375 9.9375 46.59375 23.640625 
C 46.59375 37.25 37 48.28125 25.203125 48.28125 
M 25.203125 44 
C 32.203125 44 36.09375 36.75 36.09375 23.640625 
C 36.09375 10.453125 32.203125 3.296875 25 3.296875 
C 17.796875 3.296875 13.90625 10.453125 13.90625 23.546875 
C 13.90625 37.046875 17.703125 44 25.203125 44 
" id="Century_Schoolbook_L_Roman-111"/>
     <path d="M 20.40625 73 
L 1.90625 73 
L 1.90625 68.21875 
L 6.796875 68.21875 
C 10.40625 68.21875 11 67.515625 11 63.21875 
L 11 12.28125 
L 11 8.28125 
C 11 4.296875 9.90625 3.59375 3.5 3.59375 
L 2.796875 3.59375 
L 2.796875 0 
L 28.703125 0 
L 28.703125 3.59375 
L 28 3.59375 
C 21.5 3.59375 20.40625 4.296875 20.40625 8.25 
L 20.40625 12.21875 
z
" id="Century_Schoolbook_L_Roman-108"/>
     <path d="M 63.296875 72 
L 3.40625 72 
L 1.90625 44.265625 
L 6.203125 44.265625 
C 6.90625 49.25 7.796875 53.046875 8.90625 56.234375 
C 11.5 63.515625 16.296875 67.3125 23.09375 67.3125 
C 26.40625 67.3125 27.796875 66.203125 27.796875 63.71875 
L 27.796875 12.28125 
L 27.796875 9.375 
C 27.796875 5.1875 26.90625 4.6875 18.796875 4.6875 
L 16.203125 4.6875 
L 16.203125 0 
L 50.5 0 
L 50.5 4.6875 
L 47.90625 4.6875 
C 39.90625 4.6875 39 5.1875 39 9.375 
L 39 12.28125 
L 39 63.71875 
C 39 66.203125 40.40625 67.3125 43.703125 67.3125 
C 49.796875 67.3125 54.703125 63.90625 57.203125 57.921875 
C 58.703125 54.25 59.703125 49.953125 60.5 44.265625 
L 64.796875 44.265625 
z
" id="Century_Schoolbook_L_Roman-84"/>
     <path d="M 19.796875 46 
L 2.09375 46 
L 2.09375 41.21875 
L 6.203125 41.21875 
C 9.90625 41.21875 10.5 40.515625 10.5 36.203125 
L 10.5 12.296875 
L 10.5 8.296875 
C 10.5 4.296875 9.40625 3.59375 2.90625 3.59375 
L 2.5 3.59375 
L 2.5 0 
L 29.203125 0 
L 29.203125 3.59375 
L 27.296875 3.59375 
C 20.90625 3.59375 19.796875 4.296875 19.796875 8.296875 
L 19.796875 12.296875 
L 19.796875 13.296875 
C 19.796875 20.8125 21.203125 28.40625 23.703125 34.109375 
C 26.09375 39.703125 29.5 42.8125 33.703125 43.3125 
C 32.296875 41.703125 31.90625 40.6875 31.90625 38.765625 
C 31.90625 35.546875 34.203125 33.234375 37.40625 33.234375 
C 41 33.234375 43.5 35.9375 43.5 40.015625 
C 43.5 44.8125 40.09375 48 34.796875 48 
C 28.5 48 23 42.921875 19.796875 34.140625 
z
" id="Century_Schoolbook_L_Roman-114"/>
     <path d="M 29.5 12.15625 
L 18.09375 38.609375 
C 17.796875 39.203125 17.59375 40.09375 17.59375 40.703125 
C 17.59375 42.390625 18.90625 43 23 43 
L 24.40625 43 
L 24.40625 46.59375 
L 0.796875 46.59375 
L 0.796875 43 
L 1.59375 43 
C 5.40625 43 6.796875 42.09375 8.203125 38.703125 
L 25.40625 -1.5 
L 28.90625 -1.5 
L 43.09375 33.59375 
C 45.796875 40.203125 48.59375 43 52.40625 43 
L 52.796875 43 
L 52.796875 46.59375 
L 32.796875 46.59375 
L 32.796875 43 
L 34.203125 43 
C 37.703125 43 39.59375 41.796875 39.59375 39.5 
C 39.59375 38.40625 39.203125 36.8125 38.703125 35.3125 
z
" id="Century_Schoolbook_L_Roman-118"/>
     <path d="M 32.203125 70.5 
C 28.796875 66.234375 19.59375 63 10.40625 63 
L 10.40625 58.59375 
L 19.203125 58.59375 
C 25 58.59375 25.40625 58.203125 25.40625 52.3125 
L 25.40625 12.28125 
L 25.40625 9.375 
C 25.40625 5.1875 24.5 4.6875 16.5 4.6875 
L 10 4.6875 
L 10 0 
L 49.59375 0 
L 49.59375 4.6875 
L 44.09375 4.6875 
C 38.796875 4.6875 36.59375 5.09375 35.796875 6.09375 
C 35.09375 6.78125 35.09375 6.78125 35.09375 12.3125 
L 35.09375 53.671875 
C 35.09375 58.578125 35.296875 63.375 35.796875 70.5 
z
" id="Century_Schoolbook_L_Roman-49"/>
     <path d="M 34.59375 37.359375 
C 36 37.859375 36.203125 37.859375 36.90625 38.15625 
C 43.90625 41.0625 47.90625 46.671875 47.90625 53.765625 
C 47.90625 64.1875 39.90625 71 27.5 71 
C 15.796875 71 6.90625 63.96875 6.90625 54.71875 
C 6.90625 50.546875 9.703125 47.59375 13.5 47.59375 
C 17 47.59375 19.40625 50.046875 19.40625 53.71875 
C 19.40625 55.875 18.59375 57.296875 16.296875 58.9375 
C 15.296875 59.640625 15 60.15625 15 60.78125 
C 15 63.640625 20.90625 66.703125 26.5 66.703125 
C 33.703125 66.703125 37.5 62.125 37.5 53.46875 
C 37.5 43.984375 33.703125 39 26.5 39 
C 25.59375 39 24 39 22.5 39 
C 21.703125 39 20.90625 39 20.296875 39 
C 18.203125 39 17.09375 38.125 17.09375 36.40625 
C 17.09375 34.78125 18.203125 34.015625 20.203125 34.015625 
C 20.5 34.015625 21.296875 34.015625 22.59375 34.015625 
C 26.40625 34.015625 26.5 34.015625 27.296875 34.015625 
C 34.703125 34.015625 38.703125 28.828125 38.703125 19.140625 
C 38.703125 9.0625 33.59375 3.296875 24.703125 3.296875 
C 18.40625 3.296875 11.59375 6.640625 11.59375 9.6875 
C 11.59375 10.59375 11.796875 10.765625 13.796875 11.875 
C 16.59375 13.53125 17.703125 15.21875 17.703125 17.65625 
C 17.703125 21.203125 15 23.875 11.296875 23.875 
C 7.09375 23.875 4.203125 20.328125 4.203125 15.1875 
C 4.203125 5.609375 13.09375 -1 25.90625 -1 
C 40.296875 -1 49.796875 7.015625 49.796875 19.328125 
C 49.796875 28.734375 44.90625 34.4375 34.59375 37.359375 
" id="Century_Schoolbook_L_Roman-51"/>
     <path d="M 16.40625 59.703125 
C 21.796875 58.40625 24.59375 58 28.5 58 
C 37 58 43.203125 61 46.5 66.484375 
C 47.59375 68.390625 48 69.28125 48 70.078125 
C 48 70.6875 47.703125 70.984375 47.203125 70.984375 
C 46.90625 70.984375 46.40625 70.875 45.90625 70.578125 
C 41 68.484375 38.296875 67.984375 32.59375 67.984375 
C 26.203125 67.984375 22.5 68.484375 12 70.984375 
C 11.59375 62.625 10.703125 51.984375 9.296875 39.65625 
C 7.203125 37.46875 6.5 36.171875 6.5 34.578125 
C 6.5 32.59375 7.796875 31.203125 9.703125 31.203125 
C 12.203125 31.203125 13.796875 33.328125 14.203125 37.359375 
C 17.703125 39.890625 21 41 25 41 
C 33.90625 41 39.296875 34.03125 39.296875 22.5 
C 39.296875 15.734375 37.59375 9.953125 34.59375 6.828125 
C 32.59375 4.703125 28.5 3.296875 24.40625 3.296875 
C 18.40625 3.296875 12.203125 6.421875 12.203125 9.5625 
C 12.203125 10.28125 12.796875 11.078125 14 11.78125 
C 17.09375 13.703125 18 15.03125 18 17.75 
C 18 21.296875 15.296875 24.015625 11.703125 24.015625 
C 7.703125 24.015625 4.5 20.28125 4.5 15.546875 
C 4.5 10.5 7.40625 5.453125 11.90625 2.328125 
C 15.296875 0.109375 19.40625 -1 24.59375 -1 
C 40.296875 -1 50.203125 8.28125 50.203125 23.109375 
C 50.203125 36.828125 41.09375 46 27.59375 46 
C 23.40625 46 20.203125 45.296875 14.703125 43 
z
" id="Century_Schoolbook_L_Roman-53"/>
     <path d="M 5.90625 46.171875 
L 10.296875 45.484375 
L 12.09375 53.40625 
C 13.59375 60.015625 14.296875 61 17.203125 61 
C 17.703125 61 18.59375 61 19.40625 60.609375 
C 25.203125 60.609375 32.40625 60.609375 36.5 60.609375 
C 37.90625 60.609375 40 60.609375 42.703125 60.609375 
L 35.90625 46.84375 
C 28.40625 31.859375 27.59375 30.15625 25.09375 24.03125 
C 22.09375 16.484375 20.40625 10.15625 20.40625 5.921875 
C 20.40625 1.40625 22.796875 -1.5 26.703125 -1.5 
C 31.5 -1.5 33.40625 1.796875 33.296875 10.421875 
C 32.796875 24.734375 34.703125 31.84375 45.296875 55.265625 
C 46.796875 58.484375 48.296875 61.59375 49.796875 64.6875 
C 49.90625 64.890625 50.203125 65.796875 50.796875 67.09375 
L 50.796875 69.984375 
C 44.59375 69.890625 41.296875 69.890625 35.203125 69.890625 
C 26.703125 69.890625 19.90625 69.890625 9 69.890625 
z
" id="Century_Schoolbook_L_Roman-55"/>
     <path d="M 4.203125 27.28125 
L 4.203125 19 
L 29.09375 19 
L 29.09375 27.28125 
z
" id="Century_Schoolbook_L_Roman-45"/>
     <path d="M 20.59375 46 
L 1.796875 46 
L 1.796875 41.21875 
L 6.90625 41.21875 
C 10.59375 41.21875 11.203125 40.515625 11.203125 36.203125 
L 11.203125 12.296875 
L 11.203125 8.296875 
C 11.203125 4.296875 10.09375 3.59375 3.703125 3.59375 
L 3 3.59375 
L 3 0 
L 28.90625 0 
L 28.90625 3.59375 
L 28.203125 3.59375 
C 21.703125 3.59375 20.59375 4.28125 20.59375 8.21875 
L 20.59375 12.171875 
z
M 15.90625 71.578125 
C 12.703125 71.578125 10.09375 68.984375 10.09375 65.796875 
C 10.09375 62.703125 12.703125 60 15.796875 60 
C 19.09375 60 21.703125 62.59375 21.703125 65.796875 
C 21.703125 68.984375 19.09375 71.578125 15.90625 71.578125 
" id="Century_Schoolbook_L_Roman-105"/>
    </defs>
    <g transform="translate(231.765664221 25.853558944)scale(0.18 -0.18)">
     <use transform="scale(0.996264009963)" xlink:href="#Century_Schoolbook_L_Roman-118"/>
     <use transform="translate(53.4993438911 0.0)scale(0.996264009963)" xlink:href="#Century_Schoolbook_L_Roman-51"/>
     <use transform="translate(108.891020854 0.0)scale(0.996264009963)" xlink:href="#Century_Schoolbook_L_Roman-111"/>
     <use transform="translate(158.704221353 0.0)scale(0.996264009963)" xlink:href="#Century_Schoolbook_L_Roman-112"/>
     <use transform="translate(215.889708637 0.0)scale(0.996264009963)" xlink:href="#Century_Schoolbook_L_Roman-116"/>
     <use transform="translate(254.643414831 0.0)scale(0.996264009963)" xlink:href="#Century_Schoolbook_L_Roman-49"/>
     <use transform="translate(310.035091794 0.0)scale(0.996264009963)" xlink:href="#Century_Schoolbook_L_Roman-45"/>
     <use transform="translate(343.210321524 0.0)scale(0.996264009963)" xlink:href="#Century_Schoolbook_L_Roman-55"/>
     <use transform="translate(398.601998487 0.0)scale(0.996264009963)" xlink:href="#Century_Schoolbook_L_Roman-53"/>
     <use transform="translate(453.99367545 0.0)scale(0.996264009963)" xlink:href="#Century_Schoolbook_L_Roman-84"/>
     <use transform="translate(548.138876187 0.0)scale(0.996264009963)" xlink:href="#Century_Schoolbook_L_Roman-70"/>
     <use transform="translate(613.59281053 0.0)scale(0.996264009963)" xlink:href="#Century_Schoolbook_L_Roman-105"/>
     <use transform="translate(644.974123526 0.0)scale(0.996264009963)" xlink:href="#Century_Schoolbook_L_Roman-108"/>
     <use transform="translate(676.355436522 0.0)scale(0.996264009963)" xlink:href="#Century_Schoolbook_L_Roman-116"/>
     <use transform="translate(715.109142717 0.0)scale(0.996264009963)" xlink:href="#Century_Schoolbook_L_Roman-101"/>
     <use transform="translate(764.922343215 0.0)scale(0.996264009963)" xlink:href="#Century_Schoolbook_L_Roman-114"/>
     <use transform="translate(809.155911912 0.0)scale(0.996264009963)" xlink:href="#Century_Schoolbook_L_Roman-115"/>
    </g>
   </g>
   <g id="line2d_43">
    <path clip-path="url(#pbcc918de4f)" d="M 285.72481 67.824898 
L 301.052435 368.529438 
" style="fill:none;opacity:0.2;stroke:#000000;stroke-linecap:square;stroke-width:0.2;"/>
   </g>
   <g id="line2d_44">
    <path clip-path="url(#pbcc918de4f)" d="M 307.824554 62.409809 
L 332.059436 360.081031 
" style="fill:none;opacity:0.2;stroke:#000000;stroke-linecap:square;stroke-width:0.2;"/>
   </g>
   <g id="line2d_45">
    <path clip-path="url(#pbcc918de4f)" d="M 336.29715 70.466034 
L 295.245626 366.669818 
" style="fill:none;opacity:0.2;stroke:#000000;stroke-linecap:square;stroke-width:0.2;"/>
   </g>
   <g id="line2d_46">
    <path clip-path="url(#pbcc918de4f)" d="M 284.593012 68.420266 
L 334.432663 357.340914 
" style="fill:none;opacity:0.2;stroke:#000000;stroke-linecap:square;stroke-width:0.2;"/>
   </g>
   <g id="line2d_47">
    <path clip-path="url(#pbcc918de4f)" d="M 353.088971 93.207943 
L 284.046368 358.5829 
" style="fill:none;opacity:0.2;stroke:#000000;stroke-linecap:square;stroke-width:0.2;"/>
   </g>
   <g id="line2d_48">
    <path clip-path="url(#pbcc918de4f)" d="M 302.13799 62.819599 
L 285.174898 359.827343 
" style="fill:none;opacity:0.2;stroke:#000000;stroke-linecap:square;stroke-width:0.2;"/>
   </g>
   <g id="line2d_49">
    <path clip-path="url(#pbcc918de4f)" d="M 310.53221 62.432398 
L 302.64155 368.846751 
" style="fill:none;opacity:0.2;stroke:#000000;stroke-linecap:square;stroke-width:0.2;"/>
   </g>
   <g id="line2d_50">
    <path clip-path="url(#pbcc918de4f)" d="M 329.374677 66.694041 
L 294.743973 366.452213 
" style="fill:none;opacity:0.2;stroke:#000000;stroke-linecap:square;stroke-width:0.2;"/>
   </g>
   <g id="line2d_51">
    <path clip-path="url(#pbcc918de4f)" d="M 303.292554 62.68578 
L 338.087923 350.588085 
" style="fill:none;opacity:0.2;stroke:#000000;stroke-linecap:square;stroke-width:0.2;"/>
   </g>
   <g id="line2d_52">
    <path clip-path="url(#pbcc918de4f)" d="M 307.961816 62.40759 
L 318.916747 367.873637 
" style="fill:none;opacity:0.2;stroke:#000000;stroke-linecap:square;stroke-width:0.2;"/>
   </g>
   <g id="line2d_53">
    <path clip-path="url(#pbcc918de4f)" d="M 335.006448 69.643996 
L 292.908486 365.567837 
" style="fill:none;opacity:0.2;stroke:#000000;stroke-linecap:square;stroke-width:0.2;"/>
   </g>
   <g id="line2d_54">
    <path clip-path="url(#pbcc918de4f)" d="M 315.619457 62.855397 
L 305.620801 369.239162 
" style="fill:none;opacity:0.2;stroke:#000000;stroke-linecap:square;stroke-width:0.2;"/>
   </g>
   <g id="line2d_55">
    <path clip-path="url(#pbcc918de4f)" d="M 336.46598 70.578129 
L 304.233424 369.088669 
" style="fill:none;opacity:0.2;stroke:#000000;stroke-linecap:square;stroke-width:0.2;"/>
   </g>
   <g id="line2d_56">
    <path clip-path="url(#pbcc918de4f)" d="M 268.181097 84.022855 
L 332.934112 359.154781 
" style="fill:none;opacity:0.2;stroke:#000000;stroke-linecap:square;stroke-width:0.2;"/>
   </g>
   <g id="line2d_57">
    <path clip-path="url(#pbcc918de4f)" d="M 279.558306 71.592723 
L 316.77039 368.451248 
" style="fill:none;opacity:0.2;stroke:#000000;stroke-linecap:square;stroke-width:0.2;"/>
   </g>
   <g id="line2d_58">
    <path clip-path="url(#pbcc918de4f)" d="M 293.274668 64.752045 
L 315.103834 368.799453 
" style="fill:none;opacity:0.2;stroke:#000000;stroke-linecap:square;stroke-width:0.2;"/>
   </g>
   <g id="line2d_59">
    <path clip-path="url(#pbcc918de4f)" d="M 312.148985 62.512666 
L 286.961579 361.526206 
" style="fill:none;opacity:0.2;stroke:#000000;stroke-linecap:square;stroke-width:0.2;"/>
   </g>
   <g id="line2d_60">
    <path clip-path="url(#pbcc918de4f)" d="M 344.332388 77.294538 
L 310.174294 369.347859 
" style="fill:none;opacity:0.2;stroke:#000000;stroke-linecap:square;stroke-width:0.2;"/>
   </g>
   <g id="line2d_61">
    <path clip-path="url(#pbcc918de4f)" d="M 292.151123 65.118972 
L 328.867529 362.864923 
" style="fill:none;opacity:0.2;stroke:#000000;stroke-linecap:square;stroke-width:0.2;"/>
   </g>
   <g id="line2d_62">
    <path clip-path="url(#pbcc918de4f)" d="M 302.311851 62.797776 
L 320.746301 367.259324 
" style="fill:none;opacity:0.2;stroke:#000000;stroke-linecap:square;stroke-width:0.2;"/>
   </g>
   <g id="line2d_63">
    <path clip-path="url(#pbcc918de4f)" d="M 328.361475 66.260365 
L 280.730626 353.667586 
" style="fill:none;opacity:0.2;stroke:#000000;stroke-linecap:square;stroke-width:0.2;"/>
   </g>
   <g id="line2d_64">
    <path clip-path="url(#pbcc918de4f)" d="M 294.528983 64.376582 
L 313.677812 369.030785 
" style="fill:none;opacity:0.2;stroke:#000000;stroke-linecap:square;stroke-width:0.2;"/>
   </g>
   <g id="line2d_65">
    <path clip-path="url(#pbcc918de4f)" d="M 311.970904 62.501368 
L 299.192864 368.058068 
" style="fill:none;opacity:0.2;stroke:#000000;stroke-linecap:square;stroke-width:0.2;"/>
   </g>
   <g id="line2d_66">
    <path clip-path="url(#pbcc918de4f)" d="M 311.323024 62.465402 
L 298.034887 367.707504 
" style="fill:none;opacity:0.2;stroke:#000000;stroke-linecap:square;stroke-width:0.2;"/>
   </g>
   <g id="line2d_67">
    <path clip-path="url(#pbcc918de4f)" d="M 341.225239 74.241143 
L 278.171495 345.209328 
" style="fill:none;opacity:0.2;stroke:#000000;stroke-linecap:square;stroke-width:0.2;"/>
   </g>
   <g id="line2d_68">
    <path clip-path="url(#pbcc918de4f)" d="M 301.524195 62.901405 
L 321.147217 367.108849 
" style="fill:none;opacity:0.2;stroke:#000000;stroke-linecap:square;stroke-width:0.2;"/>
   </g>
   <g id="line2d_69">
    <path clip-path="url(#pbcc918de4f)" d="M 282.445295 69.66255 
L 329.480926 362.390988 
" style="fill:none;opacity:0.2;stroke:#000000;stroke-linecap:square;stroke-width:0.2;"/>
   </g>
   <g id="line2d_70">
    <path clip-path="url(#pbcc918de4f)" d="M 273.29171 77.140155 
L 325.67859 364.963499 
" style="fill:none;opacity:0.2;stroke:#000000;stroke-linecap:square;stroke-width:0.2;"/>
   </g>
   <g id="line2d_71">
    <path clip-path="url(#pbcc918de4f)" d="M 297.780521 63.564028 
L 297.325412 367.470135 
" style="fill:none;opacity:0.2;stroke:#000000;stroke-linecap:square;stroke-width:0.2;"/>
   </g>
   <g id="line2d_72">
    <path clip-path="url(#pbcc918de4f)" d="M 318.668201 63.35264 
L 324.537024 365.586808 
" style="fill:none;opacity:0.2;stroke:#000000;stroke-linecap:square;stroke-width:0.2;"/>
   </g>
   <g id="line2d_73">
    <path clip-path="url(#pbcc918de4f)" d="M 298.297407 63.455519 
L 334.765688 356.88998 
" style="fill:none;opacity:0.2;stroke:#000000;stroke-linecap:square;stroke-width:0.2;"/>
   </g>
   <g id="line2d_74">
    <path clip-path="url(#pbcc918de4f)" d="M 324.603004 64.877932 
L 281.931278 355.739803 
" style="fill:none;opacity:0.2;stroke:#000000;stroke-linecap:square;stroke-width:0.2;"/>
   </g>
   <g id="line2d_75">
    <path clip-path="url(#pbcc918de4f)" d="M 323.693342 64.593903 
L 310.361629 369.339779 
" style="fill:none;opacity:0.2;stroke:#000000;stroke-linecap:square;stroke-width:0.2;"/>
   </g>
   <g id="line2d_76">
    <path clip-path="url(#pbcc918de4f)" d="M 331.98564 67.941962 
L 302.909166 368.89267 
" style="fill:none;opacity:0.2;stroke:#000000;stroke-linecap:square;stroke-width:0.2;"/>
   </g>
   <g id="line2d_77">
    <path clip-path="url(#pbcc918de4f)" d="M 299.665164 63.194928 
L 301.185182 368.558909 
" style="fill:none;opacity:0.2;stroke:#000000;stroke-linecap:square;stroke-width:0.2;"/>
   </g>
   <g id="line2d_78">
    <path clip-path="url(#pbcc918de4f)" d="M 320.447865 63.730573 
L 331.09158 361.014614 
" style="fill:none;opacity:0.2;stroke:#000000;stroke-linecap:square;stroke-width:0.2;"/>
   </g>
   <g id="line2d_79">
    <path clip-path="url(#pbcc918de4f)" d="M 306.523935 62.448682 
L 281.469756 354.995483 
" style="fill:none;opacity:0.2;stroke:#000000;stroke-linecap:square;stroke-width:0.2;"/>
   </g>
   <g id="line2d_80">
    <path clip-path="url(#pbcc918de4f)" d="M 327.493113 65.909953 
L 302.126936 368.752408 
" style="fill:none;opacity:0.2;stroke:#000000;stroke-linecap:square;stroke-width:0.2;"/>
   </g>
   <g id="line2d_81">
    <path clip-path="url(#pbcc918de4f)" d="M 276.935558 73.652409 
L 304.543774 369.127169 
" style="fill:none;opacity:0.2;stroke:#000000;stroke-linecap:square;stroke-width:0.2;"/>
   </g>
   <g id="line2d_82">
    <path clip-path="url(#pbcc918de4f)" d="M 265.353558 90.079929 
L 339.090327 346.779454 
" style="fill:none;opacity:0.2;stroke:#000000;stroke-linecap:square;stroke-width:0.2;"/>
   </g>
   <g id="line2d_83">
    <path clip-path="url(#pbcc918de4f)" d="M 335.723009 70.092857 
L 294.681544 366.424434 
" style="fill:none;opacity:0.2;stroke:#000000;stroke-linecap:square;stroke-width:0.2;"/>
   </g>
   <g id="line2d_84">
    <path clip-path="url(#pbcc918de4f)" d="M 289.419814 66.13739 
L 331.475967 360.654391 
" style="fill:none;opacity:0.2;stroke:#000000;stroke-linecap:square;stroke-width:0.2;"/>
   </g>
   <g id="line2d_85">
    <path clip-path="url(#pbcc918de4f)" d="M 267.656658 84.953207 
L 325.706483 364.947498 
" style="fill:none;opacity:0.2;stroke:#000000;stroke-linecap:square;stroke-width:0.2;"/>
   </g>
   <g id="line2d_86">
    <path clip-path="url(#pbcc918de4f)" d="M 324.071154 64.70957 
L 316.002344 368.622326 
" style="fill:none;opacity:0.2;stroke:#000000;stroke-linecap:square;stroke-width:0.2;"/>
   </g>
   <g id="line2d_87">
    <path clip-path="url(#pbcc918de4f)" d="M 315.990663 62.906001 
L 286.834111 361.414399 
" style="fill:none;opacity:0.2;stroke:#000000;stroke-linecap:square;stroke-width:0.2;"/>
   </g>
   <g id="line2d_88">
    <path clip-path="url(#pbcc918de4f)" d="M 312.05712 62.506762 
L 314.553704 368.895863 
" style="fill:none;opacity:0.2;stroke:#000000;stroke-linecap:square;stroke-width:0.2;"/>
   </g>
   <g id="line2d_89">
    <path clip-path="url(#pbcc918de4f)" d="M 287.217828 67.097529 
L 306.042565 369.273939 
" style="fill:none;opacity:0.2;stroke:#000000;stroke-linecap:square;stroke-width:0.2;"/>
   </g>
   <g id="line2d_90">
    <path clip-path="url(#pbcc918de4f)" d="M 348.32338 82.436385 
L 293.052012 365.642211 
" style="fill:none;opacity:0.2;stroke:#000000;stroke-linecap:square;stroke-width:0.2;"/>
   </g>
   <g id="line2d_91">
    <path clip-path="url(#pbcc918de4f)" d="M 269.160556 82.433336 
L 338.642729 348.802427 
" style="fill:none;opacity:0.2;stroke:#000000;stroke-linecap:square;stroke-width:0.2;"/>
   </g>
   <g id="line2d_92">
    <path clip-path="url(#pbcc918de4f)" d="M 289.239255 66.211291 
L 337.215857 352.721667 
" style="fill:none;opacity:0.2;stroke:#000000;stroke-linecap:square;stroke-width:0.2;"/>
   </g>
   <g id="line2d_93">
    <path clip-path="url(#pbcc918de4f)" d="M 278.430166 72.439328 
L 320.625584 367.303489 
" style="fill:none;opacity:0.2;stroke:#000000;stroke-linecap:square;stroke-width:0.2;"/>
   </g>
   <g id="line2d_94">
    <path clip-path="url(#pbcc918de4f)" d="M 331.483207 67.686601 
L 294.670329 366.419427 
" style="fill:none;opacity:0.2;stroke:#000000;stroke-linecap:square;stroke-width:0.2;"/>
   </g>
   <g id="line2d_95">
    <path clip-path="url(#pbcc918de4f)" d="M 270.556072 80.430043 
L 332.421505 359.707883 
" style="fill:none;opacity:0.2;stroke:#000000;stroke-linecap:square;stroke-width:0.2;"/>
   </g>
   <g id="line2d_96">
    <path clip-path="url(#pbcc918de4f)" d="M 337.319218 71.161607 
L 302.185317 368.763512 
" style="fill:none;opacity:0.2;stroke:#000000;stroke-linecap:square;stroke-width:0.2;"/>
   </g>
   <g id="line2d_97">
    <path clip-path="url(#pbcc918de4f)" d="M 264.687453 92.13252 
L 328.371499 363.230049 
" style="fill:none;opacity:0.2;stroke:#000000;stroke-linecap:square;stroke-width:0.2;"/>
   </g>
   <g id="line2d_98">
    <path clip-path="url(#pbcc918de4f)" d="M 266.192658 87.955636 
L 323.296664 366.197999 
" style="fill:none;opacity:0.2;stroke:#000000;stroke-linecap:square;stroke-width:0.2;"/>
   </g>
   <g id="line2d_99">
    <path clip-path="url(#pbcc918de4f)" d="M 283.672406 68.934088 
L 320.200233 367.454942 
" style="fill:none;opacity:0.2;stroke:#000000;stroke-linecap:square;stroke-width:0.2;"/>
   </g>
   <g id="line2d_100">
    <path clip-path="url(#pbcc918de4f)" d="M 302.964498 62.721151 
L 292.234973 365.20633 
" style="fill:none;opacity:0.2;stroke:#000000;stroke-linecap:square;stroke-width:0.2;"/>
   </g>
   <g id="line2d_101">
    <path clip-path="url(#pbcc918de4f)" d="M 342.18636 75.119105 
L 297.762709 367.618508 
" style="fill:none;opacity:0.2;stroke:#000000;stroke-linecap:square;stroke-width:0.2;"/>
   </g>
   <g id="line2d_102">
    <path clip-path="url(#pbcc918de4f)" d="M 298.296849 63.455633 
L 337.025985 353.12067 
" style="fill:none;opacity:0.2;stroke:#000000;stroke-linecap:square;stroke-width:0.2;"/>
   </g>
   <g id="line2d_103">
    <path clip-path="url(#pbcc918de4f)" d="M 277.873691 72.878244 
L 326.507291 364.471584 
" style="fill:none;opacity:0.2;stroke:#000000;stroke-linecap:square;stroke-width:0.2;"/>
   </g>
   <g id="line2d_104">
    <path clip-path="url(#pbcc918de4f)" d="M 312.670847 62.549286 
L 301.145669 368.550194 
" style="fill:none;opacity:0.2;stroke:#000000;stroke-linecap:square;stroke-width:0.2;"/>
   </g>
   <g id="line2d_105">
    <path clip-path="url(#pbcc918de4f)" d="M 283.582902 68.985508 
L 314.138485 368.962651 
" style="fill:none;opacity:0.2;stroke:#000000;stroke-linecap:square;stroke-width:0.2;"/>
   </g>
   <g id="line2d_106">
    <path clip-path="url(#pbcc918de4f)" d="M 312.272978 62.520892 
L 327.077481 364.112509 
" style="fill:none;opacity:0.2;stroke:#000000;stroke-linecap:square;stroke-width:0.2;"/>
   </g>
   <g id="line2d_107">
    <path clip-path="url(#pbcc918de4f)" d="M 343.463419 76.374759 
L 300.171882 368.319986 
" style="fill:none;opacity:0.2;stroke:#000000;stroke-linecap:square;stroke-width:0.2;"/>
   </g>
   <g id="line2d_108">
    <path clip-path="url(#pbcc918de4f)" d="M 278.849091 72.118364 
L 325.645036 364.982699 
" style="fill:none;opacity:0.2;stroke:#000000;stroke-linecap:square;stroke-width:0.2;"/>
   </g>
   <g id="line2d_109">
    <path clip-path="url(#pbcc918de4f)" d="M 311.197117 62.459347 
L 302.317516 368.788277 
" style="fill:none;opacity:0.2;stroke:#000000;stroke-linecap:square;stroke-width:0.2;"/>
   </g>
   <g id="line2d_110">
    <path clip-path="url(#pbcc918de4f)" d="M 293.514782 64.677412 
L 322.267922 366.656405 
" style="fill:none;opacity:0.2;stroke:#000000;stroke-linecap:square;stroke-width:0.2;"/>
   </g>
   <g id="line2d_111">
    <path clip-path="url(#pbcc918de4f)" d="M 266.597784 87.052277 
L 331.772102 360.367541 
" style="fill:none;opacity:0.2;stroke:#000000;stroke-linecap:square;stroke-width:0.2;"/>
   </g>
   <g id="line2d_112">
    <path clip-path="url(#pbcc918de4f)" d="M 266.690002 86.855455 
L 331.943283 360.197847 
" style="fill:none;opacity:0.2;stroke:#000000;stroke-linecap:square;stroke-width:0.2;"/>
   </g>
   <g id="line2d_113">
    <path clip-path="url(#pbcc918de4f)" d="M 295.727152 64.050638 
L 301.99258 368.726459 
" style="fill:none;opacity:0.2;stroke:#000000;stroke-linecap:square;stroke-width:0.2;"/>
   </g>
   <g id="line2d_114">
    <path clip-path="url(#pbcc918de4f)" d="M 331.266915 67.578965 
L 323.233547 366.227357 
" style="fill:none;opacity:0.2;stroke:#000000;stroke-linecap:square;stroke-width:0.2;"/>
   </g>
   <g id="line2d_115">
    <path clip-path="url(#pbcc918de4f)" d="M 324.502574 64.845641 
L 280.216299 352.613884 
" style="fill:none;opacity:0.2;stroke:#000000;stroke-linecap:square;stroke-width:0.2;"/>
   </g>
   <g id="line2d_116">
    <path clip-path="url(#pbcc918de4f)" d="M 326.523949 65.541308 
L 280.648736 353.507995 
" style="fill:none;opacity:0.2;stroke:#000000;stroke-linecap:square;stroke-width:0.2;"/>
   </g>
   <g id="line2d_117">
    <path clip-path="url(#pbcc918de4f)" d="M 275.401242 75.019917 
L 329.096337 362.691115 
" style="fill:none;opacity:0.2;stroke:#000000;stroke-linecap:square;stroke-width:0.2;"/>
   </g>
   <g id="line2d_118">
    <path clip-path="url(#pbcc918de4f)" d="M 277.177747 73.448288 
L 325.285682 365.184918 
" style="fill:none;opacity:0.2;stroke:#000000;stroke-linecap:square;stroke-width:0.2;"/>
   </g>
   <g id="line2d_119">
    <path clip-path="url(#pbcc918de4f)" d="M 334.844614 69.545143 
L 292.238423 365.208235 
" style="fill:none;opacity:0.2;stroke:#000000;stroke-linecap:square;stroke-width:0.2;"/>
   </g>
   <g id="line2d_120">
    <path clip-path="url(#pbcc918de4f)" d="M 339.529583 72.815295 
L 306.69366 369.317661 
" style="fill:none;opacity:0.2;stroke:#000000;stroke-linecap:square;stroke-width:0.2;"/>
   </g>
   <g id="line2d_121">
    <path clip-path="url(#pbcc918de4f)" d="M 304.02587 62.614288 
L 299.055598 368.01885 
" style="fill:none;opacity:0.2;stroke:#000000;stroke-linecap:square;stroke-width:0.2;"/>
   </g>
   <g id="line2d_122">
    <path clip-path="url(#pbcc918de4f)" d="M 351.878373 89.404182 
L 295.45174 366.75637 
" style="fill:none;opacity:0.2;stroke:#000000;stroke-linecap:square;stroke-width:0.2;"/>
   </g>
   <g id="line2d_123">
    <path clip-path="url(#pbcc918de4f)" d="M 292.906929 64.868912 
L 313.443689 369.063022 
" style="fill:none;opacity:0.2;stroke:#000000;stroke-linecap:square;stroke-width:0.2;"/>
   </g>
   <g id="line2d_124">
    <path clip-path="url(#pbcc918de4f)" d="M 282.4868 69.637067 
L 299.924326 368.256678 
" style="fill:none;opacity:0.2;stroke:#000000;stroke-linecap:square;stroke-width:0.2;"/>
   </g>
   <g id="line2d_125">
    <path clip-path="url(#pbcc918de4f)" d="M 329.766862 66.869279 
L 312.294424 369.198128 
" style="fill:none;opacity:0.2;stroke:#000000;stroke-linecap:square;stroke-width:0.2;"/>
   </g>
   <g id="line2d_126">
    <path clip-path="url(#pbcc918de4f)" d="M 337.841018 71.532889 
L 282.17685 356.114028 
" style="fill:none;opacity:0.2;stroke:#000000;stroke-linecap:square;stroke-width:0.2;"/>
   </g>
   <g id="line2d_127">
    <path clip-path="url(#pbcc918de4f)" d="M 336.485102 70.590893 
L 280.638694 353.488229 
" style="fill:none;opacity:0.2;stroke:#000000;stroke-linecap:square;stroke-width:0.2;"/>
   </g>
   <g id="line2d_128">
    <path clip-path="url(#pbcc918de4f)" d="M 337.441165 71.247373 
L 317.100813 368.371976 
" style="fill:none;opacity:0.2;stroke:#000000;stroke-linecap:square;stroke-width:0.2;"/>
   </g>
   <g id="line2d_129">
    <path clip-path="url(#pbcc918de4f)" d="M 301.425269 62.915287 
L 295.694792 366.856332 
" style="fill:none;opacity:0.2;stroke:#000000;stroke-linecap:square;stroke-width:0.2;"/>
   </g>
   <g id="line2d_130">
    <path clip-path="url(#pbcc918de4f)" d="M 287.506933 66.963995 
L 300.57002 368.417712 
" style="fill:none;opacity:0.2;stroke:#000000;stroke-linecap:square;stroke-width:0.2;"/>
   </g>
   <g id="line2d_131">
    <path clip-path="url(#pbcc918de4f)" d="M 295.196692 64.191056 
L 316.215085 368.576772 
" style="fill:none;opacity:0.2;stroke:#000000;stroke-linecap:square;stroke-width:0.2;"/>
   </g>
   <g id="line2d_132">
    <path clip-path="url(#pbcc918de4f)" d="M 312.256612 62.519789 
L 278.65381 348.062994 
" style="fill:none;opacity:0.2;stroke:#000000;stroke-linecap:square;stroke-width:0.2;"/>
   </g>
   <g id="line2d_133">
    <path clip-path="url(#pbcc918de4f)" d="M 270.187008 80.934247 
L 325.180752 365.242808 
" style="fill:none;opacity:0.2;stroke:#000000;stroke-linecap:square;stroke-width:0.2;"/>
   </g>
   <g id="line2d_134">
    <path clip-path="url(#pbcc918de4f)" d="M 275.449745 74.974609 
L 339.063309 346.930737 
" style="fill:none;opacity:0.2;stroke:#000000;stroke-linecap:square;stroke-width:0.2;"/>
   </g>
   <g id="line2d_135">
    <path clip-path="url(#pbcc918de4f)" d="M 277.865197 72.885057 
L 322.499647 366.556835 
" style="fill:none;opacity:0.2;stroke:#000000;stroke-linecap:square;stroke-width:0.2;"/>
   </g>
   <g id="line2d_136">
    <path clip-path="url(#pbcc918de4f)" d="M 268.478434 83.521485 
L 337.104517 352.957861 
" style="fill:none;opacity:0.2;stroke:#000000;stroke-linecap:square;stroke-width:0.2;"/>
   </g>
   <g id="line2d_137">
    <path clip-path="url(#pbcc918de4f)" d="M 284.130075 68.675247 
L 296.066193 367.00475 
" style="fill:none;opacity:0.2;stroke:#000000;stroke-linecap:square;stroke-width:0.2;"/>
   </g>
   <g id="line2d_138">
    <path clip-path="url(#pbcc918de4f)" d="M 267.203158 85.811848 
L 328.506312 363.13236 
" style="fill:none;opacity:0.2;stroke:#000000;stroke-linecap:square;stroke-width:0.2;"/>
   </g>
   <g id="line2d_139">
    <path clip-path="url(#pbcc918de4f)" d="M 345.151715 78.216683 
L 307.374681 369.350509 
" style="fill:none;opacity:0.2;stroke:#000000;stroke-linecap:square;stroke-width:0.2;"/>
   </g>
   <g id="line2d_140">
    <path clip-path="url(#pbcc918de4f)" d="M 293.369102 64.722535 
L 336.225984 354.630281 
" style="fill:none;opacity:0.2;stroke:#000000;stroke-linecap:square;stroke-width:0.2;"/>
   </g>
   <g id="line2d_141">
    <path clip-path="url(#pbcc918de4f)" d="M 269.550735 81.845507 
L 337.543916 351.984657 
" style="fill:none;opacity:0.2;stroke:#000000;stroke-linecap:square;stroke-width:0.2;"/>
   </g>
   <g id="line2d_142">
    <path clip-path="url(#pbcc918de4f)" d="M 284.975253 68.214807 
L 312.348499 369.192627 
" style="fill:none;opacity:0.2;stroke:#000000;stroke-linecap:square;stroke-width:0.2;"/>
   </g>
   <g id="line2d_143">
    <path clip-path="url(#pbcc918de4f)" d="M 283.907043 68.800536 
L 310.208118 369.346474 
" style="fill:none;opacity:0.2;stroke:#000000;stroke-linecap:square;stroke-width:0.2;"/>
   </g>
   <g id="line2d_144">
    <path clip-path="url(#pbcc918de4f)" d="M 349.362647 84.129312 
L 300.480023 368.39606 
" style="fill:none;opacity:0.2;stroke:#000000;stroke-linecap:square;stroke-width:0.2;"/>
   </g>
   <g id="line2d_145">
    <path clip-path="url(#pbcc918de4f)" d="M 263.844909 95.727467 
L 314.68819 368.873131 
" style="fill:none;opacity:0.2;stroke:#000000;stroke-linecap:square;stroke-width:0.2;"/>
   </g>
   <g id="line2d_146">
    <path clip-path="url(#pbcc918de4f)" d="M 309.945679 62.415639 
L 318.814427 367.904598 
" style="fill:none;opacity:0.2;stroke:#000000;stroke-linecap:square;stroke-width:0.2;"/>
   </g>
   <g id="line2d_147">
    <path clip-path="url(#pbcc918de4f)" d="M 329.898821 66.929185 
L 281.731519 355.424578 
" style="fill:none;opacity:0.2;stroke:#000000;stroke-linecap:square;stroke-width:0.2;"/>
   </g>
   <g id="line2d_148">
    <path clip-path="url(#pbcc918de4f)" d="M 348.408697 82.568141 
L 301.60914 368.649381 
" style="fill:none;opacity:0.2;stroke:#000000;stroke-linecap:square;stroke-width:0.2;"/>
   </g>
   <g id="line2d_149">
    <path clip-path="url(#pbcc918de4f)" d="M 306.848834 62.435944 
L 288.773884 362.984018 
" style="fill:none;opacity:0.2;stroke:#000000;stroke-linecap:square;stroke-width:0.2;"/>
   </g>
   <g id="line2d_150">
    <path clip-path="url(#pbcc918de4f)" d="M 314.189803 62.685822 
L 318.181153 368.088471 
" style="fill:none;opacity:0.2;stroke:#000000;stroke-linecap:square;stroke-width:0.2;"/>
   </g>
   <g id="line2d_151">
    <path clip-path="url(#pbcc918de4f)" d="M 325.916699 65.322081 
L 282.444838 356.507009 
" style="fill:none;opacity:0.2;stroke:#000000;stroke-linecap:square;stroke-width:0.2;"/>
   </g>
   <g id="line2d_152">
    <path clip-path="url(#pbcc918de4f)" d="M 266.238596 87.849807 
L 336.130817 354.794575 
" style="fill:none;opacity:0.2;stroke:#000000;stroke-linecap:square;stroke-width:0.2;"/>
   </g>
   <g id="line2d_153">
    <path clip-path="url(#pbcc918de4f)" d="M 324.517242 64.850343 
L 297.667402 367.586739 
" style="fill:none;opacity:0.2;stroke:#000000;stroke-linecap:square;stroke-width:0.2;"/>
   </g>
   <g id="line2d_154">
    <path clip-path="url(#pbcc918de4f)" d="M 279.598398 71.563656 
L 321.54158 366.955052 
" style="fill:none;opacity:0.2;stroke:#000000;stroke-linecap:square;stroke-width:0.2;"/>
   </g>
   <g id="line2d_155">
    <path clip-path="url(#pbcc918de4f)" d="M 323.428449 64.514735 
L 315.713394 368.681972 
" style="fill:none;opacity:0.2;stroke:#000000;stroke-linecap:square;stroke-width:0.2;"/>
   </g>
   <g id="line2d_156">
    <path clip-path="url(#pbcc918de4f)" d="M 263.657126 96.892686 
L 330.431171 361.603669 
" style="fill:none;opacity:0.2;stroke:#000000;stroke-linecap:square;stroke-width:0.2;"/>
   </g>
   <g id="line2d_157">
    <path clip-path="url(#pbcc918de4f)" d="M 337.660337 71.403052 
L 289.364837 363.411321 
" style="fill:none;opacity:0.2;stroke:#000000;stroke-linecap:square;stroke-width:0.2;"/>
   </g>
   <g id="line2d_158">
    <path clip-path="url(#pbcc918de4f)" d="M 302.276753 62.802134 
L 300.617409 368.42901 
" style="fill:none;opacity:0.2;stroke:#000000;stroke-linecap:square;stroke-width:0.2;"/>
   </g>
   <g id="line2d_159">
    <path clip-path="url(#pbcc918de4f)" d="M 278.360876 72.493188 
L 314.157282 368.959738 
" style="fill:none;opacity:0.2;stroke:#000000;stroke-linecap:square;stroke-width:0.2;"/>
   </g>
   <g id="line2d_160">
    <path clip-path="url(#pbcc918de4f)" d="M 324.313335 64.785428 
L 278.170287 345.197842 
" style="fill:none;opacity:0.2;stroke:#000000;stroke-linecap:square;stroke-width:0.2;"/>
   </g>
   <g id="line2d_161">
    <path clip-path="url(#pbcc918de4f)" d="M 340.909144 73.963907 
L 278.411807 346.892999 
" style="fill:none;opacity:0.2;stroke:#000000;stroke-linecap:square;stroke-width:0.2;"/>
   </g>
   <g id="line2d_162">
    <path clip-path="url(#pbcc918de4f)" d="M 272.760598 77.725289 
L 339.367276 344.590981 
" style="fill:none;opacity:0.2;stroke:#000000;stroke-linecap:square;stroke-width:0.2;"/>
   </g>
   <g id="line2d_163">
    <path clip-path="url(#pbcc918de4f)" d="M 293.025362 64.830934 
L 319.176768 367.793373 
" style="fill:none;opacity:0.2;stroke:#000000;stroke-linecap:square;stroke-width:0.2;"/>
   </g>
   <g id="line2d_164">
    <path clip-path="url(#pbcc918de4f)" d="M 266.384716 87.51915 
L 311.990521 369.227474 
" style="fill:none;opacity:0.2;stroke:#000000;stroke-linecap:square;stroke-width:0.2;"/>
   </g>
   <g id="line2d_165">
    <path clip-path="url(#pbcc918de4f)" d="M 346.151802 79.424314 
L 289.394235 363.432015 
" style="fill:none;opacity:0.2;stroke:#000000;stroke-linecap:square;stroke-width:0.2;"/>
   </g>
   <g id="line2d_166">
    <path clip-path="url(#pbcc918de4f)" d="M 304.179331 62.600647 
L 294.797517 366.475915 
" style="fill:none;opacity:0.2;stroke:#000000;stroke-linecap:square;stroke-width:0.2;"/>
   </g>
   <g id="line2d_167">
    <path clip-path="url(#pbcc918de4f)" d="M 304.782035 62.551481 
L 331.320789 360.801423 
" style="fill:none;opacity:0.2;stroke:#000000;stroke-linecap:square;stroke-width:0.2;"/>
   </g>
   <g id="line2d_168">
    <path clip-path="url(#pbcc918de4f)" d="M 290.946 65.545732 
L 339.311992 345.194732 
" style="fill:none;opacity:0.2;stroke:#000000;stroke-linecap:square;stroke-width:0.2;"/>
   </g>
   <g id="line2d_169">
    <path clip-path="url(#pbcc918de4f)" d="M 272.447328 78.081396 
L 339.291223 345.385264 
" style="fill:none;opacity:0.2;stroke:#000000;stroke-linecap:square;stroke-width:0.2;"/>
   </g>
   <g id="line2d_170">
    <path clip-path="url(#pbcc918de4f)" d="M 301.059814 62.968254 
L 338.461087 349.443883 
" style="fill:none;opacity:0.2;stroke:#000000;stroke-linecap:square;stroke-width:0.2;"/>
   </g>
   <g id="line2d_171">
    <path clip-path="url(#pbcc918de4f)" d="M 329.458926 66.731334 
L 325.146552 365.261564 
" style="fill:none;opacity:0.2;stroke:#000000;stroke-linecap:square;stroke-width:0.2;"/>
   </g>
   <g id="line2d_172">
    <path clip-path="url(#pbcc918de4f)" d="M 352.092445 89.980133 
L 278.112933 344.568577 
" style="fill:none;opacity:0.2;stroke:#000000;stroke-linecap:square;stroke-width:0.2;"/>
   </g>
   <g id="line2d_173">
    <path clip-path="url(#pbcc918de4f)" d="M 331.90735 67.901677 
L 310.130353 369.349611 
" style="fill:none;opacity:0.2;stroke:#000000;stroke-linecap:square;stroke-width:0.2;"/>
   </g>
   <g id="line2d_174">
    <path clip-path="url(#pbcc918de4f)" d="M 300.137501 63.11378 
L 284.751853 359.378544 
" style="fill:none;opacity:0.2;stroke:#000000;stroke-linecap:square;stroke-width:0.2;"/>
   </g>
   <g id="line2d_175">
    <path clip-path="url(#pbcc918de4f)" d="M 311.470553 62.472885 
L 322.305058 366.64059 
" style="fill:none;opacity:0.2;stroke:#000000;stroke-linecap:square;stroke-width:0.2;"/>
   </g>
   <g id="line2d_176">
    <path clip-path="url(#pbcc918de4f)" d="M 304.232399 62.596036 
L 326.88602 364.23502 
" style="fill:none;opacity:0.2;stroke:#000000;stroke-linecap:square;stroke-width:0.2;"/>
   </g>
   <g id="line2d_177">
    <path clip-path="url(#pbcc918de4f)" d="M 279.316155 71.769744 
L 339.366271 344.603762 
" style="fill:none;opacity:0.2;stroke:#000000;stroke-linecap:square;stroke-width:0.2;"/>
   </g>
   <g id="line2d_178">
    <path clip-path="url(#pbcc918de4f)" d="M 312.393288 62.529157 
L 307.01661 369.334877 
" style="fill:none;opacity:0.2;stroke:#000000;stroke-linecap:square;stroke-width:0.2;"/>
   </g>
   <g id="line2d_179">
    <path clip-path="url(#pbcc918de4f)" d="M 338.574398 72.0742 
L 278.061478 343.681587 
" style="fill:none;opacity:0.2;stroke:#000000;stroke-linecap:square;stroke-width:0.2;"/>
   </g>
   <g id="line2d_180">
    <path clip-path="url(#pbcc918de4f)" d="M 288.372681 66.577808 
L 328.538598 363.108795 
" style="fill:none;opacity:0.2;stroke:#000000;stroke-linecap:square;stroke-width:0.2;"/>
   </g>
   <g id="line2d_181">
    <path clip-path="url(#pbcc918de4f)" d="M 306.927966 62.433147 
L 298.400113 367.82294 
" style="fill:none;opacity:0.2;stroke:#000000;stroke-linecap:square;stroke-width:0.2;"/>
   </g>
   <g id="line2d_182">
    <path clip-path="url(#pbcc918de4f)" d="M 284.094959 68.694867 
L 321.073845 367.136827 
" style="fill:none;opacity:0.2;stroke:#000000;stroke-linecap:square;stroke-width:0.2;"/>
   </g>
   <g id="line2d_183">
    <path clip-path="url(#pbcc918de4f)" d="M 327.375911 65.864127 
L 318.543336 367.984936 
" style="fill:none;opacity:0.2;stroke:#000000;stroke-linecap:square;stroke-width:0.2;"/>
   </g>
   <g id="line2d_184">
    <path clip-path="url(#pbcc918de4f)" d="M 347.913607 81.81952 
L 293.455084 365.846212 
" style="fill:none;opacity:0.2;stroke:#000000;stroke-linecap:square;stroke-width:0.2;"/>
   </g>
   <g id="line2d_185">
    <path clip-path="url(#pbcc918de4f)" d="M 349.074449 83.639494 
L 290.428495 364.12799 
" style="fill:none;opacity:0.2;stroke:#000000;stroke-linecap:square;stroke-width:0.2;"/>
   </g>
   <g id="line2d_186">
    <path clip-path="url(#pbcc918de4f)" d="M 349.795299 84.89828 
L 298.779231 367.937999 
" style="fill:none;opacity:0.2;stroke:#000000;stroke-linecap:square;stroke-width:0.2;"/>
   </g>
   <g id="line2d_187">
    <path clip-path="url(#pbcc918de4f)" d="M 273.032905 77.42244 
L 337.37692 352.36797 
" style="fill:none;opacity:0.2;stroke:#000000;stroke-linecap:square;stroke-width:0.2;"/>
   </g>
   <g id="line2d_188">
    <path clip-path="url(#pbcc918de4f)" d="M 297.192691 63.694206 
L 288.535054 362.805025 
" style="fill:none;opacity:0.2;stroke:#000000;stroke-linecap:square;stroke-width:0.2;"/>
   </g>
   <g id="line2d_189">
    <path clip-path="url(#pbcc918de4f)" d="M 344.775578 77.786329 
L 306.141169 369.281336 
" style="fill:none;opacity:0.2;stroke:#000000;stroke-linecap:square;stroke-width:0.2;"/>
   </g>
   <g id="line2d_190">
    <path clip-path="url(#pbcc918de4f)" d="M 343.014905 75.921409 
L 292.510312 365.35664 
" style="fill:none;opacity:0.2;stroke:#000000;stroke-linecap:square;stroke-width:0.2;"/>
   </g>
   <g id="line2d_191">
    <path clip-path="url(#pbcc918de4f)" d="M 309.241046 62.404187 
L 334.443576 357.32645 
" style="fill:none;opacity:0.2;stroke:#000000;stroke-linecap:square;stroke-width:0.2;"/>
   </g>
   <g id="line2d_192">
    <path clip-path="url(#pbcc918de4f)" d="M 316.956236 63.05045 
L 309.906933 369.357672 
" style="fill:none;opacity:0.2;stroke:#000000;stroke-linecap:square;stroke-width:0.2;"/>
   </g>
   <g id="line2d_193">
    <path clip-path="url(#pbcc918de4f)" d="M 315.16815 62.797535 
L 320.03678 367.511434 
" style="fill:none;opacity:0.2;stroke:#000000;stroke-linecap:square;stroke-width:0.2;"/>
   </g>
   <g id="line2d_194">
    <path clip-path="url(#pbcc918de4f)" d="M 308.25816 62.404025 
L 318.323423 368.048317 
" style="fill:none;opacity:0.2;stroke:#000000;stroke-linecap:square;stroke-width:0.2;"/>
   </g>
   <g id="line2d_195">
    <path clip-path="url(#pbcc918de4f)" d="M 349.829757 84.961398 
L 282.041656 355.909754 
" style="fill:none;opacity:0.2;stroke:#000000;stroke-linecap:square;stroke-width:0.2;"/>
   </g>
   <g id="line2d_196">
    <path clip-path="url(#pbcc918de4f)" d="M 344.229597 77.182739 
L 291.087307 364.540495 
" style="fill:none;opacity:0.2;stroke:#000000;stroke-linecap:square;stroke-width:0.2;"/>
   </g>
   <g id="line2d_197">
    <path clip-path="url(#pbcc918de4f)" d="M 348.26355 82.34469 
L 299.499494 368.143442 
" style="fill:none;opacity:0.2;stroke:#000000;stroke-linecap:square;stroke-width:0.2;"/>
   </g>
   <g id="line2d_198">
    <path clip-path="url(#pbcc918de4f)" d="M 265.802828 88.89368 
L 336.301853 354.497237 
" style="fill:none;opacity:0.2;stroke:#000000;stroke-linecap:square;stroke-width:0.2;"/>
   </g>
   <g id="line2d_199">
    <path clip-path="url(#pbcc918de4f)" d="M 353.694561 96.058466 
L 283.51782 357.943348 
" style="fill:none;opacity:0.2;stroke:#000000;stroke-linecap:square;stroke-width:0.2;"/>
   </g>
   <g id="line2d_200">
    <path clip-path="url(#pbcc918de4f)" d="M 347.201649 80.805182 
L 291.604456 364.84856 
" style="fill:none;opacity:0.2;stroke:#000000;stroke-linecap:square;stroke-width:0.2;"/>
   </g>
   <g id="line2d_201">
    <path clip-path="url(#pbcc918de4f)" d="M 339.645734 72.908329 
L 298.169625 367.750619 
" style="fill:none;opacity:0.2;stroke:#000000;stroke-linecap:square;stroke-width:0.2;"/>
   </g>
   <g id="line2d_202">
    <path clip-path="url(#pbcc918de4f)" d="M 291.34812 65.399443 
L 335.837589 355.283801 
" style="fill:none;opacity:0.2;stroke:#000000;stroke-linecap:square;stroke-width:0.2;"/>
   </g>
   <g id="line2d_203">
    <path clip-path="url(#pbcc918de4f)" d="M 300.21311 63.101208 
L 301.666993 368.661298 
" style="fill:none;opacity:0.2;stroke:#000000;stroke-linecap:square;stroke-width:0.2;"/>
   </g>
   <g id="line2d_204">
    <path clip-path="url(#pbcc918de4f)" d="M 319.095295 63.437343 
L 295.892019 366.935795 
" style="fill:none;opacity:0.2;stroke:#000000;stroke-linecap:square;stroke-width:0.2;"/>
   </g>
   <g id="line2d_205">
    <path clip-path="url(#pbcc918de4f)" d="M 301.453221 62.911345 
L 288.68852 362.920469 
" style="fill:none;opacity:0.2;stroke:#000000;stroke-linecap:square;stroke-width:0.2;"/>
   </g>
   <g id="line2d_206">
    <path clip-path="url(#pbcc918de4f)" d="M 289.661186 66.039907 
L 314.949646 368.82739 
" style="fill:none;opacity:0.2;stroke:#000000;stroke-linecap:square;stroke-width:0.2;"/>
   </g>
   <g id="line2d_207">
    <path clip-path="url(#pbcc918de4f)" d="M 271.848169 78.786783 
L 336.438191 354.253324 
" style="fill:none;opacity:0.2;stroke:#000000;stroke-linecap:square;stroke-width:0.2;"/>
   </g>
   <g id="line2d_208">
    <path clip-path="url(#pbcc918de4f)" d="M 326.397982 65.495095 
L 315.027816 368.813316 
" style="fill:none;opacity:0.2;stroke:#000000;stroke-linecap:square;stroke-width:0.2;"/>
   </g>
   <g id="line2d_209">
    <path clip-path="url(#pbcc918de4f)" d="M 348.817471 83.216487 
L 282.061345 355.939767 
" style="fill:none;opacity:0.2;stroke:#000000;stroke-linecap:square;stroke-width:0.2;"/>
   </g>
   <g id="line2d_210">
    <path clip-path="url(#pbcc918de4f)" d="M 336.609997 70.674612 
L 284.788867 359.418616 
" style="fill:none;opacity:0.2;stroke:#000000;stroke-linecap:square;stroke-width:0.2;"/>
   </g>
   <g id="line2d_211">
    <path clip-path="url(#pbcc918de4f)" d="M 305.941598 62.47657 
L 312.383966 369.188974 
" style="fill:none;opacity:0.2;stroke:#000000;stroke-linecap:square;stroke-width:0.2;"/>
   </g>
   <g id="line2d_212">
    <path clip-path="url(#pbcc918de4f)" d="M 281.531371 70.239306 
L 316.403366 368.535287 
" style="fill:none;opacity:0.2;stroke:#000000;stroke-linecap:square;stroke-width:0.2;"/>
   </g>
   <g id="legend_1">
    <g id="patch_68">
     <path d="M 447.2896 161.504117 
L 547.314709 161.504117 
L 547.314709 37.853559 
L 447.2896 37.853559 
z
" style="fill:#ffffff;stroke:#000000;stroke-linejoin:miter;"/>
    </g>
    <g id="patch_69">
     <path d="M 452.8896 53.391207 
L 480.8896 53.391207 
L 480.8896 43.591207 
L 452.8896 43.591207 
z
" style="stroke:#000000;stroke-linejoin:miter;"/>
    </g>
    <g id="text_18">
     <!-- \rm{300.0 K} -->
     <defs>
      <path d="M 28.40625 71 
C 14.40625 71 4.203125 55.6875 4.203125 34.75 
C 4.203125 14.125 14.09375 -1 27.59375 -1 
C 41.59375 -1 51.40625 13.625 51.40625 34.4375 
C 51.40625 45.0625 49.203125 53.875 45 60.78125 
C 41.09375 67.09375 34.703125 71 28.40625 71 
M 27.703125 66.703125 
C 31 66.703125 34.203125 64.5 36.59375 60.5 
C 39.296875 55.875 40.203125 49.96875 40.203125 36.25 
C 40.203125 22.21875 39.5 15.625 37.5 11.203125 
C 35.203125 6.296875 31.59375 3.296875 27.796875 3.296875 
C 24.5 3.296875 21.296875 5.5 18.90625 9.5 
C 16.09375 14.21875 15.296875 20.53125 15.296875 36.859375 
C 15.296875 48.484375 16 54.375 18 58.6875 
C 20.296875 63.796875 23.90625 66.703125 27.703125 66.703125 
" id="Century_Schoolbook_L_Roman-48"/>
      <path d="M 13.703125 11.46875 
C 10.203125 11.46875 7.40625 8.671875 7.40625 5.28125 
C 7.40625 1.78125 10.203125 -1 13.59375 -1 
C 17.09375 -1 19.90625 1.78125 19.90625 5.28125 
C 19.90625 8.671875 17.09375 11.46875 13.703125 11.46875 
" id="Century_Schoolbook_L_Roman-46"/>
      <path d="M 25 32.609375 
L 25 59.71875 
L 25 62.609375 
C 25 66.8125 25.90625 67.3125 34 67.3125 
L 35.90625 67.3125 
L 35.90625 72 
L 3 72 
L 3 67.3125 
L 4.796875 67.3125 
C 12.90625 67.3125 13.796875 66.8125 13.796875 62.609375 
L 13.796875 59.734375 
L 13.796875 12.28125 
L 13.796875 9.375 
C 13.796875 5.1875 12.90625 4.6875 4.796875 4.6875 
L 3 4.6875 
L 3 0 
L 35.90625 0 
L 35.90625 4.6875 
L 34 4.6875 
C 25.90625 4.6875 25 5.1875 25 9.375 
L 25 12.28125 
L 25 24.9375 
L 36.59375 36.59375 
L 54 11.171875 
C 55.59375 8.78125 56 7.984375 56 6.984375 
C 56 5.390625 54.09375 4.6875 49.203125 4.6875 
L 46.09375 4.6875 
L 46.09375 0 
L 80.296875 0 
L 80.296875 4.6875 
L 78.40625 4.6875 
C 72.90625 4.6875 71.5 5.390625 68.59375 9.6875 
L 44.40625 44.46875 
L 59.296875 59.328125 
C 64.09375 64.40625 70.203125 67.3125 76.203125 67.3125 
L 76.203125 72 
L 45.40625 72 
L 45.40625 67.3125 
L 47.90625 67.3125 
C 52.5 67.3125 54.40625 66.40625 54.40625 64.3125 
C 54.40625 62.921875 52.40625 60.015625 49.5 57.140625 
z
" id="Century_Schoolbook_L_Roman-75"/>
     </defs>
     <g transform="translate(492.089600132 53.3912073134)scale(0.14 -0.14)">
      <use transform="scale(0.996264009963)" xlink:href="#Century_Schoolbook_L_Roman-51"/>
      <use transform="translate(55.3916769633 0.0)scale(0.996264009963)" xlink:href="#Century_Schoolbook_L_Roman-48"/>
      <use transform="translate(110.783353927 0.0)scale(0.996264009963)" xlink:href="#Century_Schoolbook_L_Roman-48"/>
      <use transform="translate(166.17503089 0.0)scale(0.996264009963)" xlink:href="#Century_Schoolbook_L_Roman-46"/>
      <use transform="translate(193.870200493 0.0)scale(0.996264009963)" xlink:href="#Century_Schoolbook_L_Roman-48"/>
      <use transform="translate(276.95704706 0.0)scale(0.996264009963)" xlink:href="#Century_Schoolbook_L_Roman-75"/>
     </g>
    </g>
    <g id="patch_70">
     <path d="M 452.8896 73.299634 
L 480.8896 73.299634 
L 480.8896 63.499634 
L 452.8896 63.499634 
z
" style="fill:#ff0000;stroke:#ff0000;stroke-linejoin:miter;"/>
    </g>
    <g id="text_19">
     <!-- \rm{80.0 K} -->
     <defs>
      <path d="M 37.40625 39.546875 
C 44.90625 43.65625 48.40625 48.5625 48.40625 55.078125 
C 48.40625 64.296875 40 71 28.5 71 
C 16.296875 71 7.40625 62.875 7.40625 51.875 
C 7.40625 47.5625 9 43.078125 11.796875 39.96875 
C 13.5 37.96875 15.09375 36.859375 18.703125 34.953125 
C 14.296875 33.265625 12.40625 32.25 10.203125 30.453125 
C 6.296875 27.234375 4.09375 22.4375 4.09375 17.328125 
C 4.09375 11.921875 6.796875 6.515625 11 3.3125 
C 14.90625 0.5 20.296875 -1 26.703125 -1 
C 34.09375 -1 40.296875 1 44.40625 4.703125 
C 48.703125 8.421875 51.296875 14.515625 51.296875 20.640625 
C 51.296875 26.34375 49.09375 31.453125 45 35.0625 
C 43 36.75 41.203125 37.859375 37.40625 39.546875 
M 26.703125 43.46875 
C 18.59375 46.46875 15.09375 50.28125 15.09375 56.09375 
C 15.09375 62.390625 20.296875 66.703125 28.203125 66.703125 
C 35.90625 66.703125 41 61.796875 41 54.484375 
C 41 49.28125 39 45.875 33.296875 41.0625 
z
M 32.5 29.640625 
C 40.09375 26.9375 43.296875 23.03125 43.296875 16.421875 
C 43.296875 8.40625 37 3.296875 27.203125 3.296875 
C 17.90625 3.296875 12.40625 8.5 12.40625 17.3125 
C 12.40625 24.828125 15.5 29.34375 23.296875 32.953125 
z
" id="Century_Schoolbook_L_Roman-56"/>
     </defs>
     <g transform="translate(492.089600132 73.2996336006)scale(0.14 -0.14)">
      <use transform="scale(0.996264009963)" xlink:href="#Century_Schoolbook_L_Roman-56"/>
      <use transform="translate(55.3916769633 0.0)scale(0.996264009963)" xlink:href="#Century_Schoolbook_L_Roman-48"/>
      <use transform="translate(110.783353927 0.0)scale(0.996264009963)" xlink:href="#Century_Schoolbook_L_Roman-46"/>
      <use transform="translate(138.47852353 0.0)scale(0.996264009963)" xlink:href="#Century_Schoolbook_L_Roman-48"/>
      <use transform="translate(221.565370097 0.0)scale(0.996264009963)" xlink:href="#Century_Schoolbook_L_Roman-75"/>
     </g>
    </g>
    <g id="patch_71">
     <path d="M 452.8896 93.20806 
L 480.8896 93.20806 
L 480.8896 83.40806 
L 452.8896 83.40806 
z
" style="fill:#bfbf00;stroke:#bfbf00;stroke-linejoin:miter;"/>
    </g>
    <g id="text_20">
     <!-- \rm{40.0 K} -->
     <defs>
      <path d="M 36.796875 70.5 
L 2.796875 23 
L 2.796875 17.40625 
L 30.90625 17.40625 
L 30.90625 12.25 
L 30.90625 9.359375 
C 30.90625 5.1875 30 4.6875 21.90625 4.6875 
L 20.796875 4.6875 
L 20.796875 0 
L 50 0 
L 50 4.6875 
L 49.59375 4.6875 
C 41.5 4.6875 40.59375 5.1875 40.59375 9.359375 
L 40.59375 12.25 
L 40.59375 17.40625 
L 52.703125 17.40625 
L 52.703125 23 
L 40.59375 23 
L 40.59375 50.40625 
C 40.59375 62.96875 40.59375 62.96875 41.09375 70.5 
z
M 30.90625 23 
L 8.90625 23 
L 30.90625 53.421875 
z
" id="Century_Schoolbook_L_Roman-52"/>
     </defs>
     <g transform="translate(492.089600132 93.2080598877)scale(0.14 -0.14)">
      <use transform="scale(0.996264009963)" xlink:href="#Century_Schoolbook_L_Roman-52"/>
      <use transform="translate(55.3916769633 0.0)scale(0.996264009963)" xlink:href="#Century_Schoolbook_L_Roman-48"/>
      <use transform="translate(110.783353927 0.0)scale(0.996264009963)" xlink:href="#Century_Schoolbook_L_Roman-46"/>
      <use transform="translate(138.47852353 0.0)scale(0.996264009963)" xlink:href="#Century_Schoolbook_L_Roman-48"/>
      <use transform="translate(221.565370097 0.0)scale(0.996264009963)" xlink:href="#Century_Schoolbook_L_Roman-75"/>
     </g>
    </g>
    <g id="patch_72">
     <path d="M 452.8896 113.116486 
L 480.8896 113.116486 
L 480.8896 103.316486 
L 452.8896 103.316486 
z
" style="fill:#008000;stroke:#008000;stroke-linejoin:miter;"/>
    </g>
    <g id="text_21">
     <!-- \rm{4.0 K} -->
     <g transform="translate(492.089600132 113.116486175)scale(0.14 -0.14)">
      <use transform="scale(0.996264009963)" xlink:href="#Century_Schoolbook_L_Roman-52"/>
      <use transform="translate(55.3916769633 0.0)scale(0.996264009963)" xlink:href="#Century_Schoolbook_L_Roman-46"/>
      <use transform="translate(83.0868465666 0.0)scale(0.996264009963)" xlink:href="#Century_Schoolbook_L_Roman-48"/>
      <use transform="translate(166.173693133 0.0)scale(0.996264009963)" xlink:href="#Century_Schoolbook_L_Roman-75"/>
     </g>
    </g>
    <g id="patch_73">
     <path d="M 452.8896 133.024912 
L 480.8896 133.024912 
L 480.8896 123.224912 
L 452.8896 123.224912 
z
" style="fill:#00bfbf;stroke:#00bfbf;stroke-linejoin:miter;"/>
    </g>
    <g id="text_22">
     <!-- \rm{1.0 K} -->
     <g transform="translate(492.089600132 133.024912462)scale(0.14 -0.14)">
      <use transform="scale(0.996264009963)" xlink:href="#Century_Schoolbook_L_Roman-49"/>
      <use transform="translate(55.3916769633 0.0)scale(0.996264009963)" xlink:href="#Century_Schoolbook_L_Roman-46"/>
      <use transform="translate(83.0868465666 0.0)scale(0.996264009963)" xlink:href="#Century_Schoolbook_L_Roman-48"/>
      <use transform="translate(166.173693133 0.0)scale(0.996264009963)" xlink:href="#Century_Schoolbook_L_Roman-75"/>
     </g>
    </g>
    <g id="patch_74">
     <path d="M 452.8896 152.933339 
L 480.8896 152.933339 
L 480.8896 143.133339 
L 452.8896 143.133339 
z
" style="fill:#0000ff;stroke:#0000ff;stroke-linejoin:miter;"/>
    </g>
    <g id="text_23">
     <!-- \rm{0.1 K} -->
     <g transform="translate(492.089600132 152.933338749)scale(0.14 -0.14)">
      <use transform="scale(0.996264009963)" xlink:href="#Century_Schoolbook_L_Roman-48"/>
      <use transform="translate(55.3916769633 0.0)scale(0.996264009963)" xlink:href="#Century_Schoolbook_L_Roman-46"/>
      <use transform="translate(83.0868465666 0.0)scale(0.996264009963)" xlink:href="#Century_Schoolbook_L_Roman-49"/>
      <use transform="translate(166.173693133 0.0)scale(0.996264009963)" xlink:href="#Century_Schoolbook_L_Roman-75"/>
     </g>
    </g>
   </g>
  </g>
 </g>
 <defs>
  <clipPath id="pbcc918de4f">
   <rect height="425.369588482" width="491.14746551" x="63.1672434669" y="30.853558944"/>
  </clipPath>
 </defs>
</svg>
